<?xml version="1.0" encoding="UTF-8"?>
<svg id="Layer_1" xmlns="http://www.w3.org/2000/svg" version="1.1" viewBox="0 0 605.2 322.66">
  <!-- Generator: Adobe Illustrator 30.6.0, SVG Export Plug-In . SVG Version: 2.1.4 Build 109)  -->
  <defs>
    <style>
      .st0 {
        fill: #f9ec23;
      }

      .st1 {
        fill: #231f20;
      }

      .st2 {
        fill: #4d4e4e;
      }

      .st3 {
        fill: #ac583e;
      }

      .st4 {
        fill: #016937;
      }

      .st5 {
        fill: #92cfed;
      }

      .st6, .st7, .st8 {
        isolation: isolate;
      }

      .st9 {
        fill: #8f84b1;
      }

      .st10 {
        fill: #2e368e;
      }

      .st11 {
        fill: #6b3e97;
      }

      .st12 {
        fill: #181718;
      }

      .st13 {
        fill: #e11f26;
      }

      .st14 {
        fill: #272361;
      }

      .st7 {
        fill: #fff;
      }

      .st7, .st8 {
        font-family: MyriadPro-Regular, 'Myriad Pro';
        font-size: 12px;
      }

      .st15 {
        fill: #dcdcdc;
      }

      .st16 {
        fill: #b4d789;
      }

      .st8 {
        fill: #15140c;
      }
    </style>
  </defs>
  <g class="st6">
    <path class="st12" d="M7.99,76.23h1.44l.13.75h.04c.5-.48,1.1-.9,1.91-.9,1.29,0,1.85.91,1.85,2.4v3.69h-1.76v-3.47c0-.86-.23-1.12-.74-1.12-.44,0-.71.21-1.1.58v4.01h-1.76v-5.95Z"/>
    <path class="st12" d="M14.51,79.21c0-1.98,1.39-3.12,2.9-3.12s2.9,1.14,2.9,3.12-1.39,3.12-2.9,3.12-2.9-1.14-2.9-3.12ZM18.5,79.21c0-1.03-.36-1.7-1.09-1.7s-1.09.67-1.09,1.7.36,1.69,1.09,1.69,1.09-.66,1.09-1.69Z"/>
    <path class="st12" d="M21.37,74.44c0-.54.43-.92,1.02-.92s1.02.38,1.02.92-.43.92-1.02.92-1.02-.39-1.02-.92ZM21.51,76.23h1.76v5.95h-1.76v-5.95Z"/>
    <path class="st12" d="M24.3,81.49l.79-1.1c.54.41,1.04.62,1.54.62.52,0,.75-.2.75-.51,0-.39-.59-.57-1.2-.81-.73-.28-1.57-.77-1.57-1.75,0-1.11.9-1.86,2.27-1.86.91,0,1.59.37,2.1.75l-.79,1.06c-.42-.31-.84-.51-1.25-.51-.46,0-.68.18-.68.48,0,.38.56.52,1.17.75.75.28,1.6.7,1.6,1.79s-.85,1.92-2.44,1.92c-.78,0-1.68-.34-2.28-.83Z"/>
    <path class="st12" d="M29.79,79.21c0-1.93,1.38-3.12,2.81-3.12,1.69,0,2.53,1.23,2.53,2.86,0,.32-.04.63-.07.78h-3.56c.16.86.75,1.26,1.54,1.26.45,0,.85-.14,1.29-.39l.58,1.06c-.61.42-1.41.67-2.11.67-1.7,0-3.01-1.15-3.01-3.12ZM33.63,78.56c0-.65-.28-1.12-.99-1.12-.56,0-1.04.37-1.16,1.12h2.15Z"/>
  </g>
  <rect class="st11" x="173.88" y="67.38" width="431.31" height="20"/>
  <g class="st6">
    <path class="st12" d="M7.99,100.23h1.44l.13.58h.04c.47-.42,1.07-.73,1.69-.73,1.44,0,2.32,1.19,2.32,3.02,0,2.04-1.21,3.21-2.5,3.21-.51,0-.99-.22-1.42-.62l.06.94v1.74h-1.76v-8.16ZM11.81,103.13c0-1.07-.33-1.6-1.03-1.6-.36,0-.67.16-1.02.53v2.44c.32.28.65.38.95.38.61,0,1.11-.52,1.11-1.75Z"/>
    <path class="st12" d="M14.46,104.53c0-1.25,1-1.93,3.35-2.18-.04-.52-.29-.86-.94-.86-.5,0-1,.21-1.57.54l-.63-1.16c.75-.46,1.61-.78,2.54-.78,1.52,0,2.36.87,2.36,2.69v3.4h-1.44l-.13-.61h-.04c-.5.44-1.06.75-1.73.75-1.08,0-1.77-.79-1.77-1.79ZM17.81,104.45v-1.04c-1.25.17-1.66.53-1.66.98,0,.38.26.57.68.57s.67-.2.98-.51Z"/>
    <path class="st12" d="M21.06,100.23h1.44l.13,1.04h.04c.43-.79,1.08-1.18,1.69-1.18.34,0,.54.04.71.12l-.29,1.52c-.21-.05-.39-.1-.64-.1-.45,0-.99.29-1.31,1.1v3.45h-1.76v-5.95Z"/>
    <path class="st12" d="M25.83,97.78h1.72v4.81h.04l1.89-2.36h1.91l-2.08,2.45,2.24,3.5h-1.91l-1.34-2.32-.75.86v1.46h-1.72v-8.4Z"/>
    <path class="st12" d="M32.27,98.44c0-.54.43-.92,1.02-.92s1.02.38,1.02.92-.43.92-1.02.92-1.02-.39-1.02-.92ZM32.41,100.23h1.76v5.95h-1.76v-5.95Z"/>
    <path class="st12" d="M35.72,100.23h1.44l.13.75h.04c.5-.48,1.1-.9,1.91-.9,1.29,0,1.85.91,1.85,2.4v3.69h-1.76v-3.47c0-.86-.23-1.12-.74-1.12-.44,0-.71.21-1.1.58v4.01h-1.76v-5.95Z"/>
    <path class="st12" d="M42.22,107.2c0-.49.3-.89.84-1.2v-.05c-.31-.21-.54-.52-.54-1.01,0-.43.29-.85.66-1.12v-.05c-.42-.29-.8-.85-.8-1.54,0-1.43,1.18-2.15,2.46-2.15.33,0,.65.05.92.14h2.18v1.28h-.96c.11.18.2.47.2.78,0,1.37-1.04,2-2.34,2-.22,0-.46-.04-.73-.12-.15.13-.21.23-.21.44,0,.29.24.44.89.44h.96c1.46,0,2.27.45,2.27,1.51,0,1.24-1.29,2.14-3.33,2.14-1.38,0-2.49-.45-2.49-1.51ZM46.35,106.87c0-.38-.32-.46-.91-.46h-.62c-.41,0-.64-.02-.83-.08-.22.19-.32.37-.32.58,0,.45.52.68,1.32.68s1.36-.32,1.36-.73ZM45.66,102.24c0-.63-.34-.97-.81-.97s-.81.33-.81.97.35.99.81.99.81-.34.81-.99Z"/>
    <path class="st12" d="M51.12,104.53c0-1.25,1-1.93,3.35-2.18-.04-.52-.29-.86-.94-.86-.5,0-1,.21-1.57.54l-.63-1.16c.75-.46,1.61-.78,2.54-.78,1.52,0,2.36.87,2.36,2.69v3.4h-1.44l-.13-.61h-.04c-.5.44-1.06.75-1.73.75-1.08,0-1.77-.79-1.77-1.79ZM54.47,104.45v-1.04c-1.25.17-1.66.53-1.66.98,0,.38.26.57.68.57s.67-.2.98-.51Z"/>
    <path class="st12" d="M57.71,100.23h1.44l.13.75h.04c.5-.48,1.1-.9,1.91-.9,1.29,0,1.85.91,1.85,2.4v3.69h-1.76v-3.47c0-.86-.23-1.12-.74-1.12-.44,0-.71.21-1.1.58v4.01h-1.76v-5.95Z"/>
    <path class="st12" d="M64.27,103.21c0-1.95,1.21-3.12,2.47-3.12.66,0,1.06.24,1.46.62l-.06-.9v-2.03h1.76v8.4h-1.44l-.13-.59h-.04c-.42.42-1.01.73-1.58.73-1.48,0-2.43-1.17-2.43-3.12ZM68.14,104.35v-2.44c-.31-.28-.66-.38-.98-.38-.57,0-1.07.53-1.07,1.66s.4,1.69,1.09,1.69c.38,0,.68-.14.97-.53Z"/>
    <path class="st12" d="M73.22,100.23h1.77l.77,2.81c.15.59.31,1.21.46,1.83h.05c.15-.62.31-1.24.46-1.83l.77-2.81h1.69l-1.94,5.95h-2.03l-2-5.95Z"/>
    <path class="st12" d="M79.69,103.21c0-1.93,1.38-3.12,2.81-3.12,1.69,0,2.53,1.23,2.53,2.86,0,.32-.04.63-.07.78h-3.56c.16.86.75,1.26,1.54,1.26.45,0,.85-.14,1.29-.39l.58,1.06c-.61.42-1.41.67-2.11.67-1.7,0-3.01-1.15-3.01-3.12ZM83.52,102.56c0-.65-.28-1.12-.99-1.12-.56,0-1.04.37-1.16,1.12h2.15Z"/>
    <path class="st12" d="M86.25,97.78h1.76v2.05l-.08,1.08c.45-.41,1.03-.82,1.84-.82,1.29,0,1.85.91,1.85,2.4v3.69h-1.76v-3.47c0-.86-.23-1.12-.74-1.12-.44,0-.71.21-1.1.58v4.01h-1.76v-8.4Z"/>
    <path class="st12" d="M92.97,98.44c0-.54.43-.92,1.02-.92s1.02.38,1.02.92-.43.92-1.02.92-1.02-.39-1.02-.92ZM93.1,100.23h1.76v5.95h-1.76v-5.95Z"/>
    <path class="st12" d="M96.07,103.21c0-1.98,1.46-3.12,3.1-3.12.73,0,1.3.26,1.74.64l-.83,1.13c-.29-.24-.52-.35-.81-.35-.85,0-1.39.67-1.39,1.7s.57,1.69,1.33,1.69c.39,0,.76-.19,1.07-.44l.69,1.15c-.58.51-1.32.71-1.96.71-1.66,0-2.94-1.14-2.94-3.12Z"/>
    <path class="st12" d="M102.02,104.33v-6.55h1.76v6.62c0,.38.17.5.32.5.07,0,.12,0,.22-.02l.21,1.3c-.19.08-.48.15-.89.15-1.21,0-1.62-.79-1.62-1.99Z"/>
    <path class="st12" d="M105.1,103.21c0-1.93,1.38-3.12,2.81-3.12,1.69,0,2.53,1.23,2.53,2.86,0,.32-.04.63-.07.78h-3.56c.16.86.75,1.26,1.54,1.26.45,0,.85-.14,1.29-.39l.58,1.06c-.61.42-1.41.67-2.11.67-1.7,0-3.01-1.15-3.01-3.12ZM108.94,102.56c0-.65-.28-1.12-.99-1.12-.56,0-1.04.37-1.16,1.12h2.15Z"/>
    <path class="st12" d="M111.14,105.49l.79-1.1c.54.41,1.04.62,1.54.62.52,0,.75-.2.75-.51,0-.39-.59-.57-1.2-.81-.73-.28-1.57-.77-1.57-1.75,0-1.11.9-1.86,2.27-1.86.91,0,1.59.37,2.1.75l-.79,1.06c-.42-.31-.84-.51-1.25-.51-.46,0-.68.18-.68.48,0,.38.56.52,1.17.75.75.28,1.6.7,1.6,1.79s-.85,1.92-2.44,1.92c-.78,0-1.68-.34-2.28-.83Z"/>
  </g>
  <rect class="st9" x="173.88" y="91.38" width="352.84" height="20"/>
  <g class="st6">
    <path class="st12" d="M7.68,127.21c0-1.95,1.21-3.12,2.47-3.12.66,0,1.06.24,1.46.62l-.06-.9v-2.03h1.76v8.4h-1.44l-.13-.59h-.04c-.42.42-1.01.73-1.58.73-1.48,0-2.43-1.17-2.43-3.12ZM11.54,128.35v-2.44c-.31-.28-.66-.38-.98-.38-.57,0-1.07.53-1.07,1.66s.4,1.69,1.09,1.69c.38,0,.68-.14.97-.53Z"/>
    <path class="st12" d="M14.86,124.23h1.44l.13,1.04h.04c.43-.79,1.08-1.18,1.69-1.18.34,0,.54.04.71.12l-.29,1.52c-.21-.05-.39-.1-.64-.1-.45,0-.99.29-1.31,1.1v3.45h-1.76v-5.95Z"/>
    <path class="st12" d="M19.03,128.53c0-1.25,1-1.93,3.35-2.18-.04-.52-.29-.86-.94-.86-.5,0-1,.21-1.57.54l-.63-1.16c.76-.46,1.61-.78,2.54-.78,1.52,0,2.36.87,2.36,2.69v3.4h-1.44l-.13-.61h-.04c-.5.44-1.06.75-1.73.75-1.08,0-1.77-.79-1.77-1.79ZM22.38,128.45v-1.04c-1.25.17-1.66.53-1.66.98,0,.38.26.57.68.57s.67-.2.98-.51Z"/>
    <path class="st12" d="M25.49,122.44c0-.54.43-.92,1.02-.92s1.02.38,1.02.92-.43.92-1.02.92-1.02-.39-1.02-.92ZM25.63,124.23h1.76v5.95h-1.76v-5.95Z"/>
    <path class="st12" d="M28.94,124.23h1.44l.13.75h.04c.5-.48,1.1-.9,1.91-.9,1.29,0,1.85.91,1.85,2.4v3.69h-1.76v-3.47c0-.86-.23-1.12-.74-1.12-.44,0-.71.21-1.1.58v4.01h-1.76v-5.95Z"/>
    <path class="st12" d="M35.53,128.53c0-1.25,1-1.93,3.35-2.18-.04-.52-.29-.86-.94-.86-.5,0-1,.21-1.57.54l-.63-1.16c.75-.46,1.61-.78,2.54-.78,1.52,0,2.36.87,2.36,2.69v3.4h-1.44l-.13-.61h-.04c-.5.44-1.06.75-1.73.75-1.08,0-1.77-.79-1.77-1.79ZM38.88,128.45v-1.04c-1.25.17-1.66.53-1.66.98,0,.38.26.57.68.57s.67-.2.98-.51Z"/>
    <path class="st12" d="M41.76,131.2c0-.49.3-.89.84-1.2v-.05c-.31-.21-.54-.52-.54-1.01,0-.43.29-.85.66-1.12v-.05c-.42-.29-.8-.85-.8-1.54,0-1.43,1.18-2.15,2.46-2.15.33,0,.65.05.92.14h2.18v1.28h-.96c.11.18.2.47.2.78,0,1.37-1.04,2-2.34,2-.22,0-.46-.04-.73-.12-.15.13-.21.23-.21.44,0,.29.24.44.89.44h.96c1.46,0,2.27.45,2.27,1.51,0,1.24-1.29,2.14-3.33,2.14-1.38,0-2.49-.45-2.49-1.51ZM45.89,130.87c0-.38-.32-.46-.91-.46h-.62c-.41,0-.64-.02-.83-.08-.22.19-.32.37-.32.58,0,.45.52.68,1.32.68s1.36-.32,1.36-.73ZM45.2,126.24c0-.63-.34-.97-.81-.97s-.81.33-.81.97.35.99.81.99.81-.34.81-.99Z"/>
    <path class="st12" d="M47.97,127.21c0-1.93,1.38-3.12,2.81-3.12,1.69,0,2.53,1.23,2.53,2.86,0,.32-.04.63-.07.78h-3.56c.16.86.75,1.26,1.54,1.26.45,0,.85-.14,1.29-.39l.58,1.06c-.61.42-1.41.67-2.11.67-1.7,0-3.01-1.15-3.01-3.12ZM51.81,126.56c0-.65-.28-1.12-.99-1.12-.56,0-1.04.37-1.16,1.12h2.15Z"/>
    <path class="st12" d="M54.31,131.57c.89-.31,1.36-.87,1.35-1.49l-.03-1.18.58.99c-.17.15-.4.22-.64.22-.56,0-1.06-.36-1.06-1,0-.6.49-1,1.1-1,.79,0,1.22.62,1.22,1.67,0,1.31-.76,2.31-2.15,2.74l-.36-.94Z"/>
    <path class="st12" d="M60.05,124.23h1.75l.57,2.75c.1.59.17,1.17.27,1.77h.05c.1-.6.21-1.2.35-1.77l.65-2.75h1.53l.67,2.75c.14.59.25,1.17.37,1.77h.05c.1-.6.17-1.18.27-1.77l.57-2.75h1.63l-1.42,5.95h-2.06l-.55-2.38c-.11-.55-.21-1.1-.32-1.74h-.05c-.1.64-.19,1.19-.3,1.74l-.52,2.37h-2.02l-1.49-5.95Z"/>
    <path class="st12" d="M69.45,128.53c0-1.25,1-1.93,3.35-2.18-.04-.52-.29-.86-.94-.86-.5,0-1,.21-1.57.54l-.63-1.16c.75-.46,1.61-.78,2.54-.78,1.52,0,2.36.87,2.36,2.69v3.4h-1.44l-.13-.61h-.04c-.5.44-1.06.75-1.73.75-1.08,0-1.77-.79-1.77-1.79ZM72.8,128.45v-1.04c-1.25.17-1.66.53-1.66.98,0,.38.26.57.68.57s.67-.2.98-.51Z"/>
    <path class="st12" d="M76.07,128.02v-2.4h-.81v-1.32l.91-.07.21-1.58h1.46v1.58h1.43v1.38h-1.43v2.38c0,.67.31.95.77.95.2,0,.41-.06.57-.11l.28,1.28c-.32.1-.75.22-1.32.22-1.47,0-2.06-.93-2.06-2.31Z"/>
    <path class="st12" d="M79.87,127.21c0-1.93,1.38-3.12,2.81-3.12,1.69,0,2.53,1.23,2.53,2.86,0,.32-.04.63-.07.78h-3.56c.16.86.75,1.26,1.54,1.26.45,0,.85-.14,1.29-.39l.58,1.06c-.61.42-1.41.67-2.11.67-1.7,0-3.01-1.15-3.01-3.12ZM83.7,126.56c0-.65-.28-1.12-.99-1.12-.56,0-1.04.37-1.16,1.12h2.15Z"/>
    <path class="st12" d="M86.43,124.23h1.44l.13,1.04h.04c.43-.79,1.08-1.18,1.69-1.18.34,0,.54.04.71.12l-.29,1.52c-.21-.05-.39-.1-.64-.1-.45,0-.99.29-1.31,1.1v3.45h-1.76v-5.95Z"/>
    <path class="st12" d="M93.33,128.53c0-1.25,1-1.93,3.35-2.18-.04-.52-.29-.86-.94-.86-.5,0-1,.21-1.57.54l-.63-1.16c.75-.46,1.61-.78,2.54-.78,1.52,0,2.36.87,2.36,2.69v3.4h-1.44l-.13-.61h-.04c-.5.44-1.06.75-1.73.75-1.08,0-1.77-.79-1.77-1.79ZM96.68,128.45v-1.04c-1.25.17-1.66.53-1.66.98,0,.38.26.57.68.57s.67-.2.98-.51Z"/>
    <path class="st12" d="M99.93,124.23h1.44l.13.75h.04c.5-.48,1.1-.9,1.91-.9,1.29,0,1.85.91,1.85,2.4v3.69h-1.76v-3.47c0-.86-.23-1.12-.74-1.12-.44,0-.71.21-1.1.58v4.01h-1.76v-5.95Z"/>
    <path class="st12" d="M106.49,127.21c0-1.95,1.21-3.12,2.47-3.12.66,0,1.06.24,1.46.62l-.06-.9v-2.03h1.76v8.4h-1.44l-.13-.59h-.04c-.42.42-1.01.73-1.58.73-1.48,0-2.43-1.17-2.43-3.12ZM110.35,128.35v-2.44c-.31-.28-.66-.38-.98-.38-.57,0-1.07.53-1.07,1.66s.4,1.69,1.09,1.69c.38,0,.68-.14.97-.53Z"/>
    <path class="st12" d="M116.07,124.23h1.44l.13.58h.04c.47-.42,1.07-.73,1.69-.73,1.44,0,2.32,1.19,2.32,3.02,0,2.04-1.21,3.21-2.5,3.21-.51,0-.99-.22-1.42-.62l.06.94v1.74h-1.76v-8.16ZM119.89,127.13c0-1.07-.33-1.6-1.03-1.6-.36,0-.67.16-1.02.53v2.44c.32.28.65.38.95.38.61,0,1.11-.52,1.11-1.75Z"/>
    <path class="st12" d="M122.85,128.33v-6.55h1.76v6.62c0,.38.17.5.32.5.07,0,.12,0,.22-.02l.21,1.3c-.19.08-.48.15-.89.15-1.21,0-1.62-.79-1.62-1.99Z"/>
    <path class="st12" d="M126.23,127.92v-3.69h1.76v3.47c0,.86.23,1.12.74,1.12.44,0,.71-.19,1.06-.65v-3.94h1.76v5.95h-1.44l-.13-.83h-.04c-.5.59-1.06.97-1.87.97-1.29,0-1.85-.91-1.85-2.4Z"/>
    <path class="st12" d="M133.1,124.23h1.44l.13.76h.04c.49-.49,1.02-.91,1.8-.91.84,0,1.34.36,1.64,1,.52-.55,1.08-1,1.87-1,1.29,0,1.86.91,1.86,2.4v3.69h-1.76v-3.47c0-.86-.23-1.12-.73-1.12-.3,0-.64.19-1.01.58v4.01h-1.76v-3.47c0-.86-.23-1.12-.73-1.12-.29,0-.64.19-1.01.58v4.01h-1.76v-5.95Z"/>
    <path class="st12" d="M144.95,129.55h-.04l-.15.63h-1.38v-8.4h1.76v2.05l-.04.91c.45-.4,1.01-.66,1.57-.66,1.44,0,2.33,1.19,2.33,3.01,0,2.05-1.21,3.22-2.5,3.22-.53,0-1.08-.27-1.55-.78ZM147.2,127.13c0-1.07-.33-1.6-1.03-1.6-.36,0-.68.16-1.02.53v2.44c.32.28.65.38.95.38.61,0,1.11-.52,1.11-1.75Z"/>
    <path class="st12" d="M150.12,122.44c0-.54.43-.92,1.02-.92s1.02.38,1.02.92-.43.92-1.02.92-1.02-.39-1.02-.92ZM150.26,124.23h1.76v5.95h-1.76v-5.95Z"/>
    <path class="st12" d="M153.57,124.23h1.44l.13.75h.04c.5-.48,1.1-.9,1.91-.9,1.29,0,1.85.91,1.85,2.4v3.69h-1.76v-3.47c0-.86-.23-1.12-.74-1.12-.44,0-.71.21-1.1.58v4.01h-1.76v-5.95Z"/>
    <path class="st12" d="M160.07,131.2c0-.49.3-.89.84-1.2v-.05c-.31-.21-.54-.52-.54-1.01,0-.43.29-.85.66-1.12v-.05c-.42-.29-.8-.85-.8-1.54,0-1.43,1.18-2.15,2.46-2.15.33,0,.65.05.92.14h2.18v1.28h-.96c.11.18.2.47.2.78,0,1.37-1.04,2-2.34,2-.22,0-.46-.04-.73-.12-.15.13-.21.23-.21.44,0,.29.24.44.89.44h.96c1.46,0,2.27.45,2.27,1.51,0,1.24-1.29,2.14-3.33,2.14-1.38,0-2.49-.45-2.49-1.51ZM164.2,130.87c0-.38-.32-.46-.91-.46h-.62c-.41,0-.64-.02-.83-.08-.22.19-.32.37-.32.58,0,.45.52.68,1.32.68s1.36-.32,1.36-.73ZM163.51,126.24c0-.63-.34-.97-.81-.97s-.81.33-.81.97.35.99.81.99.81-.34.81-.99Z"/>
  </g>
  <rect class="st3" x="173.88" y="115.38" width="349.97" height="20"/>
  <g class="st6">
    <path class="st12" d="M7.68,151.21c0-1.95,1.21-3.12,2.47-3.12.66,0,1.06.24,1.46.62l-.06-.9v-2.03h1.76v8.4h-1.44l-.13-.59h-.04c-.42.42-1.01.73-1.58.73-1.48,0-2.43-1.17-2.43-3.12ZM11.54,152.35v-2.44c-.31-.28-.66-.38-.98-.38-.57,0-1.07.53-1.07,1.66s.4,1.69,1.09,1.69c.38,0,.68-.14.97-.53Z"/>
    <path class="st12" d="M14.73,146.44c0-.54.43-.92,1.02-.92s1.02.38,1.02.92-.43.92-1.02.92-1.02-.39-1.02-.92ZM14.86,148.23h1.76v5.95h-1.76v-5.95Z"/>
    <path class="st12" d="M18.18,148.23h1.44l.13,1.04h.04c.43-.79,1.08-1.18,1.69-1.18.34,0,.54.04.71.12l-.29,1.52c-.21-.05-.39-.1-.64-.1-.45,0-.99.29-1.31,1.1v3.45h-1.76v-5.95Z"/>
    <path class="st12" d="M23.19,152.02v-2.4h-.81v-1.32l.91-.07.21-1.58h1.46v1.58h1.43v1.38h-1.43v2.38c0,.67.31.95.77.95.2,0,.41-.06.57-.11l.28,1.28c-.32.1-.75.22-1.32.22-1.47,0-2.06-.93-2.06-2.31Z"/>
    <path class="st12" d="M27.37,156.39l.31-1.34c.11.03.27.08.4.08.58,0,.89-.32,1.04-.78l.09-.31-2.3-5.8h1.77l.85,2.56c.17.54.31,1.1.47,1.69h.05c.13-.56.27-1.13.41-1.69l.72-2.56h1.69l-2.07,6.01c-.56,1.49-1.2,2.26-2.6,2.26-.37,0-.61-.05-.85-.12Z"/>
    <path class="st12" d="M35.85,151.21c0-1.98,1.39-3.12,2.9-3.12s2.9,1.14,2.9,3.12-1.39,3.12-2.9,3.12-2.9-1.14-2.9-3.12ZM39.84,151.21c0-1.03-.36-1.7-1.09-1.7s-1.09.67-1.09,1.7.36,1.69,1.09,1.69,1.09-.66,1.09-1.69Z"/>
    <path class="st12" d="M42.86,148.23h1.44l.13,1.04h.04c.43-.79,1.08-1.18,1.69-1.18.34,0,.54.04.71.12l-.29,1.52c-.21-.05-.39-.1-.64-.1-.45,0-.99.29-1.31,1.1v3.45h-1.76v-5.95Z"/>
    <path class="st12" d="M49.98,151.92v-3.69h1.76v3.47c0,.86.23,1.12.74,1.12.44,0,.71-.19,1.06-.65v-3.94h1.76v5.95h-1.44l-.13-.82h-.04c-.5.59-1.06.97-1.87.97-1.29,0-1.85-.91-1.85-2.4Z"/>
    <path class="st12" d="M56.85,148.23h1.44l.13.75h.04c.5-.48,1.1-.9,1.91-.9,1.29,0,1.85.91,1.85,2.4v3.69h-1.76v-3.47c0-.86-.23-1.12-.74-1.12-.44,0-.71.21-1.1.58v4.01h-1.76v-5.95Z"/>
    <path class="st12" d="M63.19,153.49l.79-1.1c.54.41,1.04.62,1.54.62.52,0,.75-.2.75-.51,0-.39-.59-.57-1.2-.81-.73-.28-1.57-.77-1.57-1.75,0-1.11.9-1.86,2.27-1.86.91,0,1.59.37,2.1.75l-.79,1.06c-.42-.31-.84-.51-1.25-.51-.46,0-.68.18-.68.48,0,.38.56.52,1.17.75.75.28,1.6.7,1.6,1.79s-.85,1.92-2.44,1.92c-.78,0-1.68-.34-2.28-.83Z"/>
    <path class="st12" d="M68.76,152.53c0-1.25,1-1.93,3.35-2.18-.04-.52-.29-.86-.94-.86-.5,0-1,.21-1.57.54l-.63-1.16c.75-.46,1.61-.78,2.54-.78,1.52,0,2.36.87,2.36,2.69v3.4h-1.44l-.13-.61h-.04c-.5.44-1.06.75-1.73.75-1.08,0-1.77-.79-1.77-1.79ZM72.11,152.45v-1.04c-1.25.17-1.66.53-1.66.98,0,.38.26.57.68.57s.67-.2.98-.51Z"/>
    <path class="st12" d="M75.35,148.23h1.44l.13.75h.04c.5-.48,1.1-.9,1.91-.9,1.29,0,1.85.91,1.85,2.4v3.69h-1.76v-3.47c0-.86-.23-1.12-.74-1.12-.44,0-.71.21-1.1.58v4.01h-1.76v-5.95Z"/>
    <path class="st12" d="M82.08,146.44c0-.54.43-.92,1.02-.92s1.02.38,1.02.92-.43.92-1.02.92-1.02-.39-1.02-.92ZM82.22,148.23h1.76v5.95h-1.76v-5.95Z"/>
    <path class="st12" d="M85.77,152.02v-2.4h-.81v-1.32l.91-.07.21-1.58h1.46v1.58h1.43v1.38h-1.43v2.38c0,.67.31.95.77.95.2,0,.41-.06.57-.11l.28,1.28c-.32.1-.75.22-1.32.22-1.47,0-2.06-.93-2.06-2.31Z"/>
    <path class="st12" d="M89.61,152.53c0-1.25,1-1.93,3.35-2.18-.04-.52-.29-.86-.94-.86-.5,0-1,.21-1.57.54l-.63-1.16c.76-.46,1.61-.78,2.54-.78,1.52,0,2.36.87,2.36,2.69v3.4h-1.44l-.13-.61h-.04c-.5.44-1.06.75-1.73.75-1.08,0-1.77-.79-1.77-1.79ZM92.96,152.45v-1.04c-1.25.17-1.66.53-1.66.98,0,.38.26.57.68.57s.67-.2.98-.51Z"/>
    <path class="st12" d="M96.21,148.23h1.44l.13,1.04h.04c.43-.79,1.08-1.18,1.69-1.18.34,0,.54.04.71.12l-.29,1.52c-.21-.05-.39-.1-.64-.1-.45,0-.99.29-1.31,1.1v3.45h-1.76v-5.95Z"/>
    <path class="st12" d="M100.89,156.39l.31-1.34c.11.03.27.08.4.08.58,0,.89-.32,1.04-.78l.09-.31-2.3-5.8h1.77l.85,2.56c.17.54.31,1.1.47,1.69h.05c.13-.56.27-1.13.41-1.69l.72-2.56h1.69l-2.07,6.01c-.56,1.49-1.2,2.26-2.6,2.26-.37,0-.61-.05-.85-.12Z"/>
    <path class="st12" d="M109.38,151.21c0-1.98,1.46-3.12,3.1-3.12.73,0,1.3.26,1.74.64l-.83,1.13c-.29-.24-.52-.35-.81-.35-.85,0-1.39.67-1.39,1.7s.57,1.69,1.33,1.69c.39,0,.76-.19,1.07-.44l.69,1.15c-.58.51-1.32.71-1.96.71-1.66,0-2.94-1.14-2.94-3.12Z"/>
    <path class="st12" d="M114.64,151.21c0-1.98,1.39-3.12,2.9-3.12s2.9,1.14,2.9,3.12-1.39,3.12-2.9,3.12-2.9-1.14-2.9-3.12ZM118.63,151.21c0-1.03-.36-1.7-1.09-1.7s-1.09.67-1.09,1.7.36,1.69,1.09,1.69,1.09-.66,1.09-1.69Z"/>
    <path class="st12" d="M121.65,148.23h1.44l.13.75h.04c.5-.48,1.1-.9,1.91-.9,1.29,0,1.85.91,1.85,2.4v3.69h-1.76v-3.47c0-.86-.23-1.12-.74-1.12-.44,0-.71.21-1.1.58v4.01h-1.76v-5.95Z"/>
    <path class="st12" d="M128.21,151.21c0-1.95,1.21-3.12,2.47-3.12.66,0,1.06.24,1.46.62l-.06-.9v-2.03h1.76v8.4h-1.44l-.13-.59h-.04c-.42.42-1.01.73-1.58.73-1.48,0-2.43-1.17-2.43-3.12ZM132.07,152.35v-2.44c-.31-.28-.66-.38-.98-.38-.57,0-1.07.53-1.07,1.66s.4,1.69,1.09,1.69c.38,0,.68-.14.97-.53Z"/>
    <path class="st12" d="M135.25,146.44c0-.54.43-.92,1.02-.92s1.02.38,1.02.92-.43.92-1.02.92-1.02-.39-1.02-.92ZM135.39,148.23h1.76v5.95h-1.76v-5.95Z"/>
    <path class="st12" d="M138.94,152.02v-2.4h-.81v-1.32l.91-.07.21-1.58h1.46v1.58h1.43v1.38h-1.43v2.38c0,.67.31.95.77.95.2,0,.41-.06.57-.11l.28,1.28c-.32.1-.75.22-1.32.22-1.47,0-2.06-.93-2.06-2.31Z"/>
    <path class="st12" d="M143.16,146.44c0-.54.43-.92,1.02-.92s1.02.38,1.02.92-.43.92-1.02.92-1.02-.39-1.02-.92ZM143.3,148.23h1.76v5.95h-1.76v-5.95Z"/>
    <path class="st12" d="M146.26,151.21c0-1.98,1.39-3.12,2.9-3.12s2.9,1.14,2.9,3.12-1.39,3.12-2.9,3.12-2.9-1.14-2.9-3.12ZM150.25,151.21c0-1.03-.36-1.7-1.09-1.7s-1.09.67-1.09,1.7.36,1.69,1.09,1.69,1.09-.66,1.09-1.69Z"/>
    <path class="st12" d="M153.27,148.23h1.44l.13.75h.04c.5-.48,1.1-.9,1.91-.9,1.29,0,1.85.91,1.85,2.4v3.69h-1.76v-3.47c0-.86-.23-1.12-.74-1.12-.44,0-.71.21-1.1.58v4.01h-1.76v-5.95Z"/>
    <path class="st12" d="M159.61,153.49l.79-1.1c.54.41,1.04.62,1.54.62.52,0,.75-.2.75-.51,0-.39-.59-.57-1.2-.81-.73-.28-1.57-.77-1.57-1.75,0-1.11.9-1.86,2.27-1.86.91,0,1.59.37,2.1.75l-.79,1.06c-.42-.31-.84-.51-1.25-.51-.46,0-.68.18-.68.48,0,.38.56.52,1.17.75.75.28,1.6.7,1.6,1.79s-.85,1.92-2.44,1.92c-.78,0-1.68-.34-2.28-.83Z"/>
  </g>
  <rect class="st13" x="173.88" y="139.38" width="134.27" height="20"/>
  <g class="st6">
    <path class="st12" d="M7.99,172.23h1.44l.13.58h.04c.47-.42,1.07-.73,1.69-.73,1.44,0,2.32,1.19,2.32,3.03,0,2.04-1.21,3.21-2.5,3.21-.51,0-.99-.22-1.42-.62l.06.94v1.74h-1.76v-8.16ZM11.81,175.13c0-1.07-.33-1.6-1.03-1.6-.36,0-.67.16-1.02.53v2.44c.32.28.65.38.95.38.61,0,1.11-.52,1.11-1.75Z"/>
    <path class="st12" d="M14.46,176.53c0-1.25,1-1.93,3.35-2.18-.04-.52-.29-.86-.94-.86-.5,0-1,.21-1.57.54l-.63-1.16c.75-.46,1.61-.78,2.54-.78,1.52,0,2.36.87,2.36,2.69v3.4h-1.44l-.13-.61h-.04c-.5.44-1.06.75-1.73.75-1.08,0-1.77-.79-1.77-1.79ZM17.81,176.45v-1.04c-1.25.17-1.66.53-1.66.98,0,.38.26.57.68.57s.67-.2.98-.51Z"/>
    <path class="st12" d="M20.92,170.44c0-.54.43-.92,1.02-.92s1.02.38,1.02.92-.43.92-1.02.92-1.02-.38-1.02-.92ZM21.06,172.23h1.76v5.95h-1.76v-5.95Z"/>
    <path class="st12" d="M24.37,172.23h1.44l.13.75h.04c.5-.48,1.1-.9,1.91-.9,1.29,0,1.85.91,1.85,2.4v3.69h-1.76v-3.47c0-.86-.23-1.12-.74-1.12-.44,0-.71.21-1.1.58v4.01h-1.76v-5.95Z"/>
    <path class="st12" d="M31.47,176.02v-2.4h-.81v-1.32l.91-.07.21-1.58h1.46v1.58h1.43v1.38h-1.43v2.38c0,.67.31.95.77.95.2,0,.41-.06.57-.11l.28,1.28c-.32.1-.75.22-1.32.22-1.47,0-2.06-.93-2.06-2.31Z"/>
    <path class="st12" d="M37.57,169.66h1.15l-2.42,10.44h-1.15l2.42-10.44Z"/>
    <path class="st12" d="M39.85,172.23h1.44l.13.58h.04c.47-.42,1.07-.73,1.69-.73,1.44,0,2.32,1.19,2.32,3.03,0,2.04-1.21,3.21-2.5,3.21-.51,0-.99-.22-1.42-.62l.06.94v1.74h-1.76v-8.16ZM43.67,175.13c0-1.07-.33-1.6-1.03-1.6-.36,0-.67.16-1.02.53v2.44c.32.28.65.38.95.38.61,0,1.11-.52,1.11-1.75Z"/>
    <path class="st12" d="M46.63,176.33v-6.55h1.76v6.62c0,.38.17.5.32.5.07,0,.12,0,.22-.02l.21,1.3c-.19.08-.48.15-.89.15-1.21,0-1.62-.79-1.62-1.99Z"/>
    <path class="st12" d="M49.79,176.53c0-1.25,1-1.93,3.35-2.18-.04-.52-.29-.86-.94-.86-.5,0-1,.21-1.57.54l-.63-1.16c.76-.46,1.61-.78,2.54-.78,1.52,0,2.36.87,2.36,2.69v3.4h-1.44l-.13-.61h-.04c-.5.44-1.06.75-1.73.75-1.08,0-1.77-.79-1.77-1.79ZM53.14,176.45v-1.04c-1.25.17-1.66.53-1.66.98,0,.38.26.57.68.57s.67-.2.98-.51Z"/>
    <path class="st12" d="M55.86,177.49l.79-1.1c.54.41,1.04.62,1.54.62.52,0,.75-.2.75-.51,0-.39-.59-.57-1.2-.81-.73-.28-1.57-.77-1.57-1.75,0-1.11.9-1.86,2.27-1.86.91,0,1.59.37,2.1.75l-.79,1.06c-.42-.31-.84-.51-1.25-.51-.46,0-.68.18-.68.47,0,.38.56.53,1.17.75.75.28,1.6.7,1.6,1.79s-.85,1.92-2.44,1.92c-.78,0-1.68-.34-2.28-.83Z"/>
    <path class="st12" d="M61.7,176.02v-2.4h-.81v-1.32l.91-.07.21-1.58h1.46v1.58h1.43v1.38h-1.43v2.38c0,.67.31.95.77.95.2,0,.41-.06.57-.11l.28,1.28c-.32.1-.75.22-1.32.22-1.47,0-2.06-.93-2.06-2.31Z"/>
    <path class="st12" d="M65.49,175.21c0-1.93,1.38-3.12,2.81-3.12,1.69,0,2.53,1.23,2.53,2.86,0,.32-.04.63-.07.78h-3.56c.16.86.75,1.26,1.54,1.26.45,0,.85-.14,1.29-.39l.58,1.06c-.61.42-1.41.67-2.11.67-1.7,0-3.01-1.15-3.01-3.12ZM69.33,174.55c0-.65-.28-1.12-.99-1.12-.56,0-1.04.37-1.16,1.12h2.15Z"/>
    <path class="st12" d="M72.05,172.23h1.44l.13,1.04h.04c.43-.79,1.08-1.18,1.69-1.18.34,0,.54.04.71.12l-.29,1.52c-.21-.05-.39-.1-.64-.1-.45,0-.99.29-1.31,1.1v3.45h-1.76v-5.95Z"/>
  </g>
  <rect class="st0" x="173.88" y="163.38" width="42.44" height="20"/>
  <g class="st6">
    <path class="st12" d="M7.68,199.21c0-1.95,1.21-3.12,2.47-3.12.66,0,1.06.24,1.46.62l-.06-.9v-2.03h1.76v8.4h-1.44l-.13-.59h-.04c-.42.42-1.01.73-1.58.73-1.48,0-2.43-1.17-2.43-3.12ZM11.54,200.35v-2.44c-.31-.28-.66-.38-.98-.38-.57,0-1.07.53-1.07,1.66s.4,1.69,1.09,1.69c.38,0,.68-.14.97-.53Z"/>
    <path class="st12" d="M14.52,199.21c0-1.98,1.39-3.12,2.9-3.12s2.9,1.14,2.9,3.12-1.39,3.12-2.9,3.12-2.9-1.14-2.9-3.12ZM18.51,199.21c0-1.03-.36-1.7-1.09-1.7s-1.09.67-1.09,1.7.36,1.69,1.09,1.69,1.09-.66,1.09-1.69Z"/>
    <path class="st12" d="M21.18,199.21c0-1.98,1.39-3.12,2.9-3.12s2.9,1.14,2.9,3.12-1.39,3.12-2.9,3.12-2.9-1.14-2.9-3.12ZM25.17,199.21c0-1.03-.36-1.7-1.09-1.7s-1.09.67-1.09,1.7.36,1.69,1.09,1.69,1.09-.66,1.09-1.69Z"/>
    <path class="st12" d="M28.18,196.23h1.44l.13,1.04h.04c.43-.79,1.08-1.18,1.69-1.18.34,0,.54.04.71.12l-.29,1.52c-.21-.05-.39-.1-.64-.1-.45,0-.99.29-1.31,1.1v3.45h-1.76v-5.95Z"/>
    <path class="st12" d="M34.47,193.67h1.15l-2.42,10.43h-1.15l2.42-10.43Z"/>
    <path class="st12" d="M36.25,196.23h1.75l.57,2.75c.1.59.17,1.17.27,1.77h.05c.1-.6.21-1.2.35-1.77l.65-2.75h1.53l.67,2.75c.14.59.25,1.17.37,1.77h.05c.1-.6.17-1.18.27-1.77l.57-2.75h1.63l-1.42,5.95h-2.06l-.55-2.38c-.11-.55-.21-1.1-.32-1.74h-.05c-.1.64-.19,1.19-.3,1.74l-.52,2.37h-2.02l-1.49-5.95Z"/>
    <path class="st12" d="M45.91,194.44c0-.54.43-.92,1.02-.92s1.02.38,1.02.92-.43.92-1.02.92-1.02-.39-1.02-.92ZM46.05,196.23h1.76v5.95h-1.76v-5.95Z"/>
    <path class="st12" d="M49.36,196.23h1.44l.13.75h.04c.5-.48,1.1-.9,1.91-.9,1.29,0,1.85.91,1.85,2.4v3.69h-1.76v-3.47c0-.86-.23-1.12-.74-1.12-.44,0-.71.21-1.1.58v4.01h-1.76v-5.95Z"/>
    <path class="st12" d="M55.92,199.21c0-1.95,1.21-3.12,2.47-3.12.66,0,1.06.24,1.46.62l-.06-.9v-2.03h1.76v8.4h-1.44l-.13-.59h-.04c-.42.42-1.01.73-1.58.73-1.48,0-2.43-1.17-2.43-3.12ZM59.78,200.35v-2.44c-.31-.28-.66-.38-.98-.38-.57,0-1.07.53-1.07,1.66s.4,1.69,1.09,1.69c.38,0,.68-.14.97-.53Z"/>
    <path class="st12" d="M62.76,199.21c0-1.98,1.39-3.12,2.9-3.12s2.9,1.14,2.9,3.12-1.39,3.12-2.9,3.12-2.9-1.14-2.9-3.12ZM66.75,199.21c0-1.03-.36-1.7-1.09-1.7s-1.09.67-1.09,1.7.36,1.69,1.09,1.69,1.09-.66,1.09-1.69Z"/>
    <path class="st12" d="M69.18,196.23h1.75l.57,2.75c.1.59.17,1.17.27,1.77h.05c.1-.6.21-1.2.35-1.77l.65-2.75h1.53l.67,2.75c.14.59.25,1.17.37,1.77h.05c.1-.6.17-1.18.27-1.77l.57-2.75h1.63l-1.42,5.95h-2.06l-.55-2.38c-.11-.55-.21-1.1-.32-1.74h-.05c-.1.64-.19,1.19-.3,1.74l-.52,2.37h-2.02l-1.49-5.95Z"/>
  </g>
  <rect class="st4" x="173.88" y="187.38" width="32.3" height="20"/>
  <g class="st6">
    <path class="st12" d="M7.46,225.49l.79-1.1c.54.41,1.04.62,1.54.62.52,0,.75-.2.75-.51,0-.39-.59-.57-1.2-.81-.73-.28-1.57-.77-1.57-1.75,0-1.11.9-1.86,2.27-1.86.91,0,1.59.37,2.1.75l-.79,1.06c-.42-.31-.84-.51-1.25-.51-.46,0-.68.18-.68.48,0,.38.56.52,1.17.75.75.28,1.6.7,1.6,1.79s-.85,1.92-2.44,1.92c-.78,0-1.68-.34-2.28-.83Z"/>
    <path class="st12" d="M13.3,224.02v-2.4h-.81v-1.32l.91-.07.21-1.58h1.46v1.58h1.43v1.38h-1.43v2.38c0,.67.31.95.77.95.2,0,.41-.06.57-.11l.28,1.28c-.32.1-.75.22-1.32.22-1.47,0-2.06-.93-2.06-2.31Z"/>
    <path class="st12" d="M17.66,220.23h1.44l.13,1.04h.04c.43-.79,1.08-1.18,1.69-1.18.34,0,.54.04.71.12l-.29,1.52c-.21-.05-.39-.1-.64-.1-.45,0-.99.29-1.31,1.1v3.45h-1.76v-5.95Z"/>
    <path class="st12" d="M21.97,223.21c0-1.93,1.38-3.12,2.81-3.12,1.69,0,2.53,1.23,2.53,2.86,0,.32-.04.63-.07.78h-3.56c.16.86.75,1.26,1.54,1.26.45,0,.85-.14,1.29-.39l.58,1.06c-.61.42-1.41.67-2.11.67-1.7,0-3.01-1.15-3.01-3.12ZM25.8,222.56c0-.65-.28-1.12-.99-1.12-.56,0-1.04.37-1.16,1.12h2.15Z"/>
    <path class="st12" d="M28.19,223.21c0-1.93,1.38-3.12,2.81-3.12,1.69,0,2.53,1.23,2.53,2.86,0,.32-.04.63-.07.78h-3.56c.16.86.75,1.26,1.54,1.26.45,0,.85-.14,1.29-.39l.58,1.06c-.61.42-1.41.67-2.11.67-1.7,0-3.01-1.15-3.01-3.12ZM32.02,222.56c0-.65-.28-1.12-.99-1.12-.56,0-1.04.37-1.16,1.12h2.15Z"/>
    <path class="st12" d="M34.87,224.02v-2.4h-.81v-1.32l.91-.07.21-1.58h1.46v1.58h1.43v1.38h-1.43v2.38c0,.67.31.95.77.95.2,0,.41-.06.57-.11l.28,1.28c-.32.1-.75.22-1.32.22-1.47,0-2.06-.93-2.06-2.31Z"/>
    <path class="st12" d="M41.28,223.21c0-1.98,1.46-3.12,3.1-3.12.73,0,1.3.26,1.74.64l-.83,1.13c-.29-.24-.52-.35-.81-.35-.85,0-1.39.67-1.39,1.7s.57,1.69,1.33,1.69c.39,0,.76-.19,1.07-.44l.69,1.15c-.58.51-1.32.71-1.96.71-1.66,0-2.94-1.14-2.94-3.12Z"/>
    <path class="st12" d="M46.55,223.21c0-1.98,1.39-3.12,2.9-3.12s2.9,1.14,2.9,3.12-1.39,3.12-2.9,3.12-2.9-1.14-2.9-3.12ZM50.54,223.21c0-1.03-.36-1.7-1.09-1.7s-1.09.67-1.09,1.7.36,1.69,1.09,1.69,1.09-.66,1.09-1.69Z"/>
    <path class="st12" d="M53.55,220.23h1.44l.13.75h.04c.5-.48,1.1-.9,1.91-.9,1.29,0,1.85.91,1.85,2.4v3.69h-1.76v-3.47c0-.86-.23-1.12-.74-1.12-.44,0-.71.21-1.1.58v4.01h-1.76v-5.95Z"/>
    <path class="st12" d="M60.11,223.21c0-1.95,1.21-3.12,2.47-3.12.66,0,1.06.24,1.46.62l-.06-.9v-2.03h1.76v8.4h-1.44l-.13-.59h-.04c-.42.42-1.01.73-1.58.73-1.48,0-2.43-1.17-2.43-3.12ZM63.97,224.35v-2.44c-.31-.28-.66-.38-.98-.38-.57,0-1.07.53-1.07,1.66s.4,1.69,1.09,1.69c.38,0,.68-.14.97-.53Z"/>
    <path class="st12" d="M67.15,218.44c0-.54.43-.92,1.02-.92s1.02.38,1.02.92-.43.92-1.02.92-1.02-.39-1.02-.92ZM67.29,220.23h1.76v5.95h-1.76v-5.95Z"/>
    <path class="st12" d="M70.84,224.02v-2.4h-.81v-1.32l.91-.07.21-1.58h1.46v1.58h1.43v1.38h-1.43v2.38c0,.67.31.95.77.95.2,0,.41-.06.57-.11l.28,1.28c-.32.1-.75.22-1.32.22-1.47,0-2.06-.93-2.06-2.31Z"/>
    <path class="st12" d="M75.06,218.44c0-.54.43-.92,1.02-.92s1.02.38,1.02.92-.43.92-1.02.92-1.02-.39-1.02-.92ZM75.2,220.23h1.76v5.95h-1.76v-5.95Z"/>
    <path class="st12" d="M78.16,223.21c0-1.98,1.39-3.12,2.9-3.12s2.9,1.14,2.9,3.12-1.39,3.12-2.9,3.12-2.9-1.14-2.9-3.12ZM82.15,223.21c0-1.03-.36-1.7-1.09-1.7s-1.09.67-1.09,1.7.36,1.69,1.09,1.69,1.09-.66,1.09-1.69Z"/>
    <path class="st12" d="M85.17,220.23h1.44l.13.75h.04c.5-.48,1.1-.9,1.91-.9,1.29,0,1.85.91,1.85,2.4v3.69h-1.76v-3.47c0-.86-.23-1.12-.74-1.12-.44,0-.71.21-1.1.58v4.01h-1.76v-5.95Z"/>
  </g>
  <rect class="st16" x="173.88" y="211.38" width="31.31" height="20"/>
  <g class="st6">
    <path class="st12" d="M7.62,251.2c0-.49.3-.89.84-1.2v-.05c-.31-.21-.54-.52-.54-1.01,0-.43.29-.85.66-1.12v-.05c-.42-.29-.8-.85-.8-1.54,0-1.43,1.18-2.15,2.46-2.15.33,0,.65.05.92.14h2.18v1.28h-.96c.11.18.2.47.2.78,0,1.37-1.04,2-2.34,2-.22,0-.46-.04-.73-.12-.15.13-.21.23-.21.44,0,.29.24.44.89.44h.96c1.46,0,2.27.45,2.27,1.51,0,1.24-1.29,2.14-3.33,2.14-1.38,0-2.49-.45-2.49-1.51ZM11.75,250.88c0-.38-.32-.46-.91-.46h-.62c-.41,0-.64-.02-.83-.08-.22.19-.32.37-.32.58,0,.45.52.68,1.32.68s1.36-.32,1.36-.73ZM11.06,246.24c0-.63-.34-.97-.81-.97s-.81.33-.81.97.35.99.81.99.81-.34.81-.99Z"/>
    <path class="st12" d="M13.83,247.21c0-1.93,1.38-3.12,2.81-3.12,1.69,0,2.53,1.23,2.53,2.86,0,.32-.04.63-.07.78h-3.56c.16.86.75,1.26,1.54,1.26.45,0,.85-.14,1.29-.39l.58,1.06c-.61.42-1.41.67-2.11.67-1.7,0-3.01-1.15-3.01-3.12ZM17.67,246.56c0-.65-.28-1.12-.99-1.12-.56,0-1.04.37-1.16,1.12h2.15Z"/>
    <path class="st12" d="M20.4,244.23h1.44l.13.75h.04c.5-.48,1.1-.9,1.91-.9,1.29,0,1.85.91,1.85,2.4v3.69h-1.76v-3.47c0-.86-.23-1.12-.74-1.12-.44,0-.71.21-1.1.58v4.01h-1.76v-5.95Z"/>
    <path class="st12" d="M26.91,247.21c0-1.93,1.38-3.12,2.81-3.12,1.69,0,2.53,1.23,2.53,2.86,0,.32-.04.63-.07.78h-3.56c.16.86.75,1.26,1.54,1.26.45,0,.85-.14,1.29-.39l.58,1.06c-.61.42-1.41.67-2.11.67-1.7,0-3.01-1.15-3.01-3.12ZM30.75,246.56c0-.65-.28-1.12-.99-1.12-.56,0-1.04.37-1.16,1.12h2.15Z"/>
    <path class="st12" d="M33.48,244.23h1.44l.13,1.04h.04c.43-.79,1.08-1.18,1.69-1.18.34,0,.54.04.71.12l-.29,1.52c-.21-.05-.39-.1-.64-.1-.45,0-.99.29-1.31,1.1v3.45h-1.76v-5.95Z"/>
    <path class="st12" d="M37.64,248.53c0-1.25,1-1.93,3.35-2.18-.04-.52-.29-.86-.94-.86-.5,0-1,.21-1.57.54l-.63-1.16c.75-.46,1.61-.78,2.54-.78,1.52,0,2.36.87,2.36,2.69v3.4h-1.44l-.13-.61h-.04c-.5.44-1.06.75-1.73.75-1.08,0-1.77-.79-1.77-1.79ZM40.99,248.45v-1.04c-1.25.17-1.66.53-1.66.98,0,.38.26.57.68.57s.67-.2.98-.51Z"/>
    <path class="st12" d="M44.24,248.33v-6.55h1.76v6.62c0,.38.17.5.32.5.07,0,.12,0,.22-.02l.21,1.3c-.19.08-.48.15-.89.15-1.21,0-1.62-.79-1.62-1.99Z"/>
  </g>
  <rect class="st14" x="173.88" y="235.38" width="23.25" height="20"/>
  <g class="st6">
    <path class="st12" d="M7.64,271.21c0-1.93,1.38-3.12,2.81-3.12,1.69,0,2.53,1.23,2.53,2.86,0,.32-.04.63-.07.78h-3.56c.16.86.75,1.26,1.54,1.26.45,0,.85-.14,1.29-.39l.58,1.06c-.61.42-1.41.67-2.11.67-1.7,0-3.01-1.15-3.01-3.12ZM11.48,270.56c0-.65-.28-1.12-.99-1.12-.56,0-1.04.37-1.16,1.12h2.15Z"/>
    <path class="st12" d="M14.2,272.33v-6.55h1.76v6.62c0,.38.17.5.32.5.07,0,.12,0,.22-.02l.21,1.3c-.19.08-.48.15-.89.15-1.21,0-1.62-.79-1.62-1.99Z"/>
    <path class="st12" d="M17.29,271.21c0-1.93,1.38-3.12,2.81-3.12,1.69,0,2.53,1.23,2.53,2.86,0,.32-.04.63-.07.78h-3.56c.16.86.75,1.26,1.54,1.26.45,0,.85-.14,1.29-.39l.58,1.06c-.61.42-1.41.67-2.11.67-1.7,0-3.01-1.15-3.01-3.12ZM21.12,270.56c0-.65-.28-1.12-.99-1.12-.56,0-1.04.37-1.16,1.12h2.15Z"/>
    <path class="st12" d="M23.51,271.21c0-1.98,1.46-3.12,3.1-3.12.73,0,1.3.26,1.74.64l-.83,1.13c-.29-.24-.52-.35-.81-.35-.85,0-1.39.67-1.39,1.7s.57,1.69,1.33,1.69c.39,0,.76-.19,1.07-.44l.69,1.15c-.58.51-1.32.71-1.96.71-1.66,0-2.94-1.14-2.94-3.12Z"/>
    <path class="st12" d="M29.57,272.02v-2.4h-.81v-1.32l.91-.07.21-1.58h1.46v1.58h1.43v1.38h-1.43v2.38c0,.67.31.95.77.95.2,0,.41-.06.57-.11l.28,1.28c-.32.1-.75.22-1.32.22-1.47,0-2.06-.93-2.06-2.31Z"/>
    <path class="st12" d="M33.93,268.23h1.44l.13,1.04h.04c.43-.79,1.08-1.18,1.69-1.18.34,0,.54.04.71.12l-.29,1.52c-.21-.05-.39-.1-.64-.1-.45,0-.99.29-1.31,1.1v3.45h-1.76v-5.95Z"/>
    <path class="st12" d="M38.57,266.44c0-.54.43-.92,1.02-.92s1.02.38,1.02.92-.43.92-1.02.92-1.02-.39-1.02-.92ZM38.71,268.23h1.76v5.95h-1.76v-5.95Z"/>
    <path class="st12" d="M41.67,271.21c0-1.98,1.46-3.12,3.1-3.12.73,0,1.3.26,1.74.64l-.83,1.13c-.29-.24-.52-.35-.81-.35-.85,0-1.39.67-1.39,1.7s.57,1.69,1.33,1.69c.39,0,.76-.19,1.07-.44l.69,1.15c-.58.51-1.32.71-1.96.71-1.66,0-2.94-1.14-2.94-3.12Z"/>
  </g>
  <rect class="st10" x="173.88" y="259.38" width="20.53" height="20"/>
  <g class="st6">
    <path class="st12" d="M8.23,296.02v-2.4h-.81v-1.32l.91-.07.21-1.58h1.46v1.58h1.43v1.38h-1.43v2.38c0,.67.31.95.77.95.2,0,.41-.06.57-.11l.28,1.28c-.32.1-.75.22-1.32.22-1.47,0-2.06-.93-2.06-2.31Z"/>
    <path class="st12" d="M12.58,292.23h1.44l.13,1.04h.04c.43-.79,1.08-1.18,1.69-1.18.34,0,.54.04.71.12l-.29,1.52c-.21-.05-.39-.1-.64-.1-.45,0-.99.29-1.31,1.1v3.45h-1.76v-5.95Z"/>
    <path class="st12" d="M16.75,296.53c0-1.25,1-1.93,3.35-2.18-.04-.52-.29-.86-.94-.86-.5,0-1,.21-1.57.54l-.63-1.16c.75-.46,1.61-.78,2.54-.78,1.52,0,2.36.87,2.36,2.69v3.4h-1.44l-.13-.61h-.04c-.5.44-1.06.75-1.73.75-1.08,0-1.77-.79-1.77-1.79ZM20.1,296.45v-1.04c-1.25.17-1.66.53-1.66.98,0,.38.26.57.68.57s.67-.2.98-.51Z"/>
    <path class="st12" d="M22.86,292.3l.89-.07h6.52v1.38h-7.42v-1.32ZM23.65,291.96c0-1.22.64-2.21,2.25-2.21.51,0,.96.1,1.23.22l-.32,1.3c-.19-.08-.38-.13-.7-.13-.4,0-.7.25-.7.82v6.23h-1.76v-6.22ZM27.44,291.92c0-1.26.58-2.29,2.19-2.29.5,0,.92.11,1.19.21l-.32,1.3c-.2-.08-.42-.13-.62-.13-.43,0-.68.24-.68.85v6.31h-1.76v-6.26Z"/>
    <path class="st12" d="M31.09,290.44c0-.54.43-.92,1.02-.92s1.02.38,1.02.92-.43.92-1.02.92-1.02-.39-1.02-.92ZM31.23,292.23h1.76v5.95h-1.76v-5.95Z"/>
    <path class="st12" d="M34.2,295.21c0-1.98,1.46-3.12,3.1-3.12.73,0,1.3.26,1.74.64l-.83,1.13c-.29-.24-.52-.35-.81-.35-.85,0-1.39.67-1.39,1.7s.57,1.69,1.33,1.69c.39,0,.76-.19,1.07-.44l.69,1.15c-.58.51-1.32.71-1.96.71-1.66,0-2.94-1.14-2.94-3.12Z"/>
    <path class="st12" d="M42.02,297.49l.79-1.1c.54.41,1.04.62,1.54.62.52,0,.75-.2.75-.51,0-.39-.59-.57-1.2-.81-.73-.28-1.57-.77-1.57-1.75,0-1.11.9-1.86,2.27-1.86.91,0,1.59.37,2.1.75l-.79,1.06c-.42-.31-.84-.51-1.25-.51-.46,0-.68.18-.68.48,0,.38.56.52,1.17.75.75.28,1.6.7,1.6,1.79s-.85,1.92-2.44,1.92c-.78,0-1.68-.34-2.28-.83Z"/>
    <path class="st12" d="M47.73,290.44c0-.54.43-.92,1.02-.92s1.02.38,1.02.92-.43.92-1.02.92-1.02-.39-1.02-.92ZM47.86,292.23h1.76v5.95h-1.76v-5.95Z"/>
    <path class="st12" d="M50.81,299.2c0-.49.3-.89.84-1.2v-.05c-.31-.21-.54-.52-.54-1.01,0-.43.29-.85.66-1.12v-.05c-.42-.29-.8-.85-.8-1.54,0-1.43,1.18-2.15,2.46-2.15.33,0,.65.05.92.14h2.18v1.28h-.96c.11.18.2.47.2.78,0,1.37-1.04,2-2.34,2-.22,0-.46-.04-.73-.12-.15.13-.21.23-.21.44,0,.29.24.44.89.44h.96c1.46,0,2.27.45,2.27,1.51,0,1.24-1.29,2.14-3.33,2.14-1.38,0-2.49-.45-2.49-1.51ZM54.94,298.88c0-.38-.32-.46-.91-.46h-.62c-.41,0-.64-.02-.83-.08-.22.19-.32.37-.32.58,0,.45.52.68,1.32.68s1.36-.32,1.36-.73ZM54.25,294.24c0-.63-.34-.97-.81-.97s-.81.33-.81.97.35.99.81.99.81-.34.81-.99Z"/>
    <path class="st12" d="M57.58,292.23h1.44l.13.75h.04c.5-.48,1.1-.9,1.91-.9,1.29,0,1.85.91,1.85,2.4v3.69h-1.76v-3.47c0-.86-.23-1.12-.74-1.12-.44,0-.71.21-1.1.58v4.01h-1.76v-5.95Z"/>
    <path class="st12" d="M64.17,296.53c0-1.25,1-1.93,3.35-2.18-.04-.52-.29-.86-.94-.86-.5,0-1,.21-1.57.54l-.63-1.16c.75-.46,1.61-.78,2.54-.78,1.52,0,2.36.87,2.36,2.69v3.4h-1.44l-.13-.61h-.04c-.5.44-1.06.75-1.73.75-1.08,0-1.77-.79-1.77-1.79ZM67.52,296.45v-1.04c-1.25.17-1.66.53-1.66.98,0,.38.26.57.68.57s.67-.2.98-.51Z"/>
    <path class="st12" d="M70.77,296.33v-6.55h1.76v6.62c0,.38.17.5.32.5.07,0,.12,0,.22-.02l.21,1.3c-.19.08-.48.15-.89.15-1.21,0-1.62-.79-1.62-1.99Z"/>
    <path class="st12" d="M76.26,295.21c0-1.98,1.46-3.12,3.1-3.12.73,0,1.3.26,1.74.64l-.83,1.13c-.29-.24-.52-.35-.81-.35-.85,0-1.39.67-1.39,1.7s.57,1.69,1.33,1.69c.39,0,.76-.19,1.07-.44l.69,1.15c-.58.51-1.32.71-1.96.71-1.66,0-2.94-1.14-2.94-3.12Z"/>
    <path class="st12" d="M81.52,295.21c0-1.98,1.39-3.12,2.9-3.12s2.9,1.14,2.9,3.12-1.39,3.12-2.9,3.12-2.9-1.14-2.9-3.12ZM85.51,295.21c0-1.03-.36-1.7-1.09-1.7s-1.09.67-1.09,1.7.36,1.69,1.09,1.69,1.09-.66,1.09-1.69Z"/>
    <path class="st12" d="M88.53,292.23h1.44l.13.75h.04c.5-.48,1.1-.9,1.91-.9,1.29,0,1.85.91,1.85,2.4v3.69h-1.76v-3.47c0-.86-.23-1.12-.74-1.12-.44,0-.71.21-1.1.58v4.01h-1.76v-5.95Z"/>
    <path class="st12" d="M95.09,295.21c0-1.95,1.21-3.12,2.47-3.12.66,0,1.06.24,1.46.62l-.06-.9v-2.03h1.76v8.4h-1.44l-.13-.59h-.04c-.42.42-1.01.73-1.58.73-1.48,0-2.43-1.17-2.43-3.12ZM98.95,296.35v-2.44c-.31-.28-.66-.38-.98-.38-.57,0-1.07.53-1.07,1.66s.4,1.69,1.09,1.69c.38,0,.68-.14.97-.53Z"/>
    <path class="st12" d="M102.13,290.44c0-.54.43-.92,1.02-.92s1.02.38,1.02.92-.43.92-1.02.92-1.02-.39-1.02-.92ZM102.27,292.23h1.76v5.95h-1.76v-5.95Z"/>
    <path class="st12" d="M105.82,296.02v-2.4h-.81v-1.32l.91-.07.21-1.58h1.46v1.58h1.43v1.38h-1.43v2.38c0,.67.31.95.77.95.2,0,.41-.06.57-.11l.28,1.28c-.32.1-.75.22-1.32.22-1.47,0-2.06-.93-2.06-2.31Z"/>
    <path class="st12" d="M110.04,290.44c0-.54.43-.92,1.02-.92s1.02.38,1.02.92-.43.92-1.02.92-1.02-.39-1.02-.92ZM110.18,292.23h1.76v5.95h-1.76v-5.95Z"/>
    <path class="st12" d="M113.14,295.21c0-1.98,1.39-3.12,2.9-3.12s2.9,1.14,2.9,3.12-1.39,3.12-2.9,3.12-2.9-1.14-2.9-3.12ZM117.13,295.21c0-1.03-.36-1.7-1.09-1.7s-1.09.67-1.09,1.7.36,1.69,1.09,1.69,1.09-.66,1.09-1.69Z"/>
    <path class="st12" d="M120.15,292.23h1.44l.13.75h.04c.5-.48,1.1-.9,1.91-.9,1.29,0,1.85.91,1.85,2.4v3.69h-1.76v-3.47c0-.86-.23-1.12-.74-1.12-.44,0-.71.21-1.1.58v4.01h-1.76v-5.95Z"/>
  </g>
  <rect class="st5" x="173.88" y="283.38" width="19.84" height="20"/>
  <text class="st7" transform="translate(580.19 80.9)"><tspan x="0" y="0">24%</tspan></text>
  <text class="st7" transform="translate(197.51 176.58)"><tspan x="0" y="0">3%</tspan></text>
  <g>
    <path class="st1" d="M1.28,3.03h2.45v11.08H1.28V3.03Z"/>
    <path class="st1" d="M6.09,5.68h2l.18,1.07h.06c.7-.68,1.53-1.27,2.65-1.27,1.8,0,2.56,1.29,2.56,3.4v5.24h-2.45v-4.92c0-1.21-.32-1.59-1.03-1.59-.61,0-.99.29-1.53.82v5.69h-2.45V5.68Z"/>
    <path class="st1" d="M19.26,11.04v-3.41h-1.13v-1.86l1.27-.1.29-2.24h2.02v2.24h1.98v1.96h-1.98v3.38c0,.96.43,1.34,1.07,1.34.27,0,.57-.08.79-.16l.39,1.81c-.44.14-1.03.31-1.84.31-2.04,0-2.85-1.32-2.85-3.27Z"/>
    <path class="st1" d="M25.31,2.2h2.45v2.91l-.11,1.53c.62-.58,1.42-1.17,2.55-1.17,1.8,0,2.56,1.29,2.56,3.4v5.24h-2.45v-4.92c0-1.21-.32-1.59-1.03-1.59-.61,0-.99.29-1.53.82v5.69h-2.45V2.2Z"/>
    <path class="st1" d="M34.33,9.9c0-2.74,1.91-4.42,3.9-4.42,2.35,0,3.52,1.75,3.52,4.05,0,.45-.06.9-.1,1.1h-4.94c.22,1.22,1.04,1.79,2.14,1.79.62,0,1.19-.19,1.79-.55l.81,1.51c-.85.6-1.95.95-2.93.95-2.35,0-4.18-1.63-4.18-4.42ZM39.65,8.97c0-.93-.4-1.59-1.37-1.59-.77,0-1.44.53-1.61,1.59h2.98Z"/>
    <path class="st1" d="M46.76,11.49V2.2h2.45v9.39c0,.54.24.71.44.71.09,0,.16,0,.3-.03l.29,1.84c-.27.12-.67.21-1.23.21-1.68,0-2.25-1.12-2.25-2.83Z"/>
    <path class="st1" d="M51.03,9.9c0-2.8,1.93-4.42,4.02-4.42s4.02,1.62,4.02,4.42-1.93,4.42-4.02,4.42-4.02-1.62-4.02-4.42ZM56.57,9.9c0-1.46-.5-2.41-1.52-2.41s-1.52.95-1.52,2.41.5,2.4,1.52,2.4,1.52-.94,1.52-2.4Z"/>
    <path class="st1" d="M59.94,5.68h2.43l.79,3.91c.14.83.23,1.65.37,2.51h.07c.15-.85.29-1.7.49-2.51l.9-3.91h2.13l.93,3.91c.2.83.34,1.65.52,2.51h.07c.15-.85.23-1.67.38-2.51l.79-3.91h2.26l-1.97,8.43h-2.87l-.76-3.37c-.15-.78-.29-1.56-.44-2.47h-.07c-.15.91-.26,1.69-.42,2.47l-.72,3.36h-2.8l-2.07-8.43Z"/>
    <path class="st1" d="M72.92,9.9c0-2.74,1.91-4.42,3.9-4.42,2.35,0,3.52,1.75,3.52,4.05,0,.45-.06.9-.1,1.1h-4.94c.22,1.22,1.04,1.79,2.14,1.79.62,0,1.19-.19,1.79-.55l.81,1.51c-.85.6-1.95.95-2.93.95-2.35,0-4.18-1.63-4.18-4.42ZM78.24,8.97c0-.93-.4-1.59-1.37-1.59-.77,0-1.44.53-1.61,1.59h2.98Z"/>
    <path class="st1" d="M81.29,13.14l1.1-1.56c.75.58,1.44.89,2.13.89.73,0,1.04-.28,1.04-.73,0-.56-.82-.81-1.67-1.15-1.01-.4-2.19-1.09-2.19-2.48,0-1.57,1.25-2.64,3.16-2.64,1.27,0,2.21.52,2.91,1.07l-1.1,1.5c-.59-.44-1.17-.72-1.74-.72-.63,0-.94.25-.94.67,0,.54.77.74,1.63,1.06,1.05.39,2.22,1,2.22,2.54s-1.18,2.72-3.39,2.72c-1.09,0-2.33-.48-3.17-1.18Z"/>
    <path class="st1" d="M89.39,11.04v-3.41h-1.13v-1.86l1.27-.1.29-2.24h2.02v2.24h1.98v1.96h-1.98v3.38c0,.96.43,1.34,1.07,1.34.27,0,.57-.08.79-.16l.39,1.81c-.44.14-1.03.31-1.84.31-2.04,0-2.85-1.32-2.85-3.27Z"/>
    <path class="st1" d="M94.47,8.92h4.09v1.77h-4.09v-1.77Z"/>
    <path class="st1" d="M100.16,3.14c0-.77.6-1.31,1.42-1.31s1.42.54,1.42,1.31-.6,1.31-1.42,1.31-1.42-.55-1.42-1.31ZM100.35,5.68h2.45v8.43h-2.45V5.68Z"/>
    <path class="st1" d="M104.95,5.68h2l.18,1.07h.06c.7-.68,1.53-1.27,2.65-1.27,1.8,0,2.56,1.29,2.56,3.4v5.24h-2.45v-4.92c0-1.21-.32-1.59-1.03-1.59-.61,0-.99.29-1.53.82v5.69h-2.45V5.68Z"/>
    <path class="st1" d="M113.98,9.9c0-2.8,2.02-4.42,4.3-4.42,1.02,0,1.8.37,2.41.91l-1.16,1.61c-.4-.34-.73-.5-1.12-.5-1.18,0-1.93.95-1.93,2.41s.79,2.4,1.85,2.4c.54,0,1.06-.27,1.49-.62l.96,1.63c-.8.72-1.83,1-2.72,1-2.31,0-4.08-1.62-4.08-4.42Z"/>
    <path class="st1" d="M121.29,9.9c0-2.8,1.93-4.42,4.02-4.42s4.02,1.62,4.02,4.42-1.93,4.42-4.02,4.42-4.02-1.62-4.02-4.42ZM126.83,9.9c0-1.46-.5-2.41-1.52-2.41s-1.52.95-1.52,2.41.5,2.4,1.52,2.4,1.52-.94,1.52-2.4Z"/>
    <path class="st1" d="M131.01,5.68h2l.18,1.08h.06c.68-.7,1.42-1.29,2.5-1.29,1.16,0,1.86.51,2.28,1.42.73-.77,1.5-1.42,2.59-1.42,1.78,0,2.58,1.29,2.58,3.4v5.24h-2.45v-4.92c0-1.21-.32-1.59-1.02-1.59-.41,0-.88.26-1.41.82v5.69h-2.45v-4.92c0-1.21-.33-1.59-1.02-1.59-.41,0-.88.26-1.41.82v5.69h-2.45V5.68Z"/>
    <path class="st1" d="M144.79,9.9c0-2.74,1.91-4.42,3.9-4.42,2.35,0,3.52,1.75,3.52,4.05,0,.45-.06.9-.1,1.1h-4.94c.22,1.22,1.04,1.79,2.14,1.79.62,0,1.19-.19,1.79-.55l.81,1.51c-.85.6-1.95.95-2.93.95-2.35,0-4.18-1.63-4.18-4.42ZM150.11,8.97c0-.93-.4-1.59-1.37-1.59-.77,0-1.44.53-1.61,1.59h2.98Z"/>
    <path class="st1" d="M156.73,12.6l4.8-7.47h-4.34v-2.1h7.37v1.51l-4.8,7.47h4.84v2.1h-7.86v-1.51Z"/>
    <path class="st1" d="M166.29,3.03h2.45v11.08h-2.45V3.03Z"/>
    <path class="st1" d="M171.3,3.03h3.73c2.39,0,4.31.87,4.31,3.56s-1.95,3.76-4.25,3.76h-1.34v3.76h-2.45V3.03ZM174.95,8.36c1.35,0,1.99-.61,1.99-1.77s-.73-1.58-2.05-1.58h-1.13v3.34h1.2Z"/>
    <path class="st1" d="M183.86,9.9c0-2.8,2.02-4.42,4.3-4.42,1.02,0,1.8.37,2.41.91l-1.16,1.61c-.4-.34-.73-.5-1.12-.5-1.18,0-1.93.95-1.93,2.41s.79,2.4,1.85,2.4c.54,0,1.06-.27,1.49-.62l.96,1.63c-.8.72-1.83,1-2.72,1-2.31,0-4.08-1.62-4.08-4.42Z"/>
    <path class="st1" d="M191.16,9.9c0-2.8,1.93-4.42,4.02-4.42s4.02,1.62,4.02,4.42-1.93,4.42-4.02,4.42-4.02-1.62-4.02-4.42ZM196.7,9.9c0-1.46-.5-2.41-1.52-2.41s-1.52.95-1.52,2.41.5,2.4,1.52,2.4,1.52-.94,1.52-2.4Z"/>
    <path class="st1" d="M200.45,9.9c0-2.76,1.69-4.42,3.43-4.42.91,0,1.47.35,2.02.88l-.09-1.28v-2.87h2.45v11.91h-2l-.18-.84h-.06c-.58.6-1.4,1.04-2.2,1.04-2.05,0-3.38-1.66-3.38-4.42ZM205.82,11.51v-3.46c-.43-.4-.92-.53-1.37-.53-.79,0-1.49.75-1.49,2.35s.56,2.4,1.51,2.4c.52,0,.94-.2,1.35-.75Z"/>
    <path class="st1" d="M209.93,9.9c0-2.74,1.91-4.42,3.9-4.42,2.35,0,3.52,1.75,3.52,4.05,0,.45-.06.9-.1,1.1h-4.94c.22,1.22,1.04,1.79,2.14,1.79.62,0,1.19-.19,1.79-.55l.81,1.51c-.85.6-1.95.95-2.93.95-2.35,0-4.18-1.63-4.18-4.42ZM215.26,8.97c0-.93-.4-1.59-1.37-1.59-.77,0-1.44.53-1.61,1.59h2.98Z"/>
    <path class="st1" d="M218.3,13.14l1.1-1.56c.75.58,1.44.89,2.13.89.73,0,1.04-.28,1.04-.73,0-.56-.82-.81-1.67-1.15-1.01-.4-2.19-1.09-2.19-2.48,0-1.57,1.25-2.64,3.16-2.64,1.27,0,2.21.52,2.91,1.07l-1.1,1.5c-.59-.44-1.17-.72-1.74-.72-.63,0-.94.25-.94.67,0,.54.77.74,1.63,1.06,1.05.39,2.22,1,2.22,2.54s-1.18,2.72-3.39,2.72c-1.09,0-2.33-.48-3.17-1.18Z"/>
    <path class="st1" d="M226.1,16.08c1.23-.44,1.88-1.23,1.87-2.11l-.04-1.67.8,1.4c-.24.21-.55.31-.89.31-.77,0-1.48-.51-1.48-1.42,0-.86.68-1.42,1.53-1.42,1.09,0,1.69.88,1.69,2.37,0,1.86-1.05,3.28-2.99,3.88l-.5-1.33Z"/>
    <path class="st1" d="M234.73,2.2h2.45v2.91l-.11,1.53c.62-.58,1.42-1.17,2.55-1.17,1.8,0,2.56,1.29,2.56,3.4v5.24h-2.45v-4.92c0-1.21-.32-1.59-1.03-1.59-.61,0-.99.29-1.53.82v5.69h-2.45V2.2Z"/>
    <path class="st1" d="M243.75,9.9c0-2.8,1.93-4.42,4.02-4.42s4.02,1.62,4.02,4.42-1.93,4.42-4.02,4.42-4.02-1.62-4.02-4.42ZM249.29,9.9c0-1.46-.5-2.41-1.52-2.41s-1.52.95-1.52,2.41.5,2.4,1.52,2.4,1.52-.94,1.52-2.4Z"/>
    <path class="st1" d="M253.38,10.91v-5.24h2.45v4.92c0,1.21.32,1.59,1.03,1.59.61,0,.99-.26,1.47-.93v-5.58h2.45v8.43h-2l-.18-1.17h-.06c-.69.84-1.47,1.37-2.59,1.37-1.8,0-2.56-1.29-2.56-3.4Z"/>
    <path class="st1" d="M262.18,13.14l1.1-1.56c.75.58,1.44.89,2.13.89.73,0,1.04-.28,1.04-.73,0-.56-.82-.81-1.67-1.15-1.01-.4-2.19-1.09-2.19-2.48,0-1.57,1.25-2.64,3.16-2.64,1.27,0,2.21.52,2.91,1.07l-1.1,1.5c-.59-.44-1.17-.72-1.74-.72-.63,0-.94.25-.94.67,0,.54.77.74,1.63,1.06,1.05.39,2.22,1,2.22,2.54s-1.18,2.72-3.39,2.72c-1.09,0-2.33-.48-3.17-1.18Z"/>
    <path class="st1" d="M270.1,3.14c0-.77.6-1.31,1.42-1.31s1.42.54,1.42,1.31-.6,1.31-1.42,1.31-1.42-.55-1.42-1.31ZM270.29,5.68h2.45v8.43h-2.45V5.68Z"/>
    <path class="st1" d="M274.88,5.68h2l.18,1.07h.06c.7-.68,1.53-1.27,2.65-1.27,1.8,0,2.56,1.29,2.56,3.4v5.24h-2.45v-4.92c0-1.21-.32-1.59-1.03-1.59-.61,0-.99.29-1.53.82v5.69h-2.45V5.68Z"/>
    <path class="st1" d="M283.89,15.56c0-.7.41-1.27,1.17-1.7v-.07c-.43-.29-.75-.74-.75-1.43,0-.61.4-1.2.92-1.58v-.07c-.58-.41-1.11-1.2-1.11-2.19,0-2.02,1.64-3.05,3.42-3.05.46,0,.91.07,1.28.2h3.02v1.82h-1.33c.15.25.28.67.28,1.11,0,1.94-1.45,2.83-3.25,2.83-.3,0-.64-.05-1.01-.16-.2.18-.29.33-.29.63,0,.42.33.62,1.24.62h1.34c2.02,0,3.15.63,3.15,2.14,0,1.75-1.79,3.03-4.62,3.03-1.92,0-3.46-.64-3.46-2.14ZM289.62,15.09c0-.53-.45-.65-1.26-.65h-.86c-.57,0-.89-.03-1.16-.11-.31.26-.45.52-.45.83,0,.64.72.97,1.83.97s1.89-.45,1.89-1.03ZM288.66,8.52c0-.9-.48-1.37-1.13-1.37s-1.13.47-1.13,1.37.48,1.41,1.13,1.41,1.13-.48,1.13-1.41Z"/>
    <path class="st1" d="M292.93,8.92h4.09v1.77h-4.09v-1.77Z"/>
    <path class="st1" d="M298.81,5.68h2l.18,1.47h.06c.6-1.12,1.5-1.68,2.35-1.68.47,0,.75.06.98.17l-.41,2.16c-.29-.07-.54-.14-.89-.14-.62,0-1.38.41-1.82,1.56v4.89h-2.45V5.68Z"/>
    <path class="st1" d="M304.78,9.9c0-2.74,1.91-4.42,3.9-4.42,2.35,0,3.52,1.75,3.52,4.05,0,.45-.05.9-.1,1.1h-4.94c.22,1.22,1.04,1.79,2.14,1.79.62,0,1.19-.19,1.79-.55l.81,1.51c-.85.6-1.95.95-2.93.95-2.35,0-4.18-1.63-4.18-4.42ZM310.11,8.97c0-.93-.4-1.59-1.37-1.59-.77,0-1.44.53-1.61,1.59h2.98Z"/>
    <path class="st1" d="M313.88,11.49V2.2h2.45v9.39c0,.54.24.71.44.71.09,0,.16,0,.3-.03l.29,1.84c-.27.12-.67.21-1.23.21-1.68,0-2.25-1.12-2.25-2.83Z"/>
    <path class="st1" d="M318.26,11.77c0-1.78,1.38-2.74,4.65-3.09-.05-.74-.41-1.22-1.31-1.22-.69,0-1.38.3-2.19.76l-.87-1.64c1.05-.65,2.23-1.11,3.53-1.11,2.11,0,3.28,1.23,3.28,3.82v4.82h-2l-.18-.86h-.06c-.7.62-1.47,1.07-2.4,1.07-1.51,0-2.46-1.12-2.46-2.54ZM322.91,11.66v-1.47c-1.74.24-2.31.75-2.31,1.38,0,.54.37.81.95.81s.93-.28,1.36-.72Z"/>
    <path class="st1" d="M327.44,11.04v-3.41h-1.13v-1.86l1.26-.1.29-2.24h2.02v2.24h1.98v1.96h-1.98v3.38c0,.96.42,1.34,1.07,1.34.27,0,.57-.08.79-.16l.39,1.81c-.44.14-1.03.31-1.84.31-2.04,0-2.85-1.32-2.85-3.27Z"/>
    <path class="st1" d="M332.71,9.9c0-2.74,1.91-4.42,3.9-4.42,2.35,0,3.52,1.75,3.52,4.05,0,.45-.05.9-.1,1.1h-4.94c.22,1.22,1.04,1.79,2.14,1.79.62,0,1.19-.19,1.79-.55l.81,1.51c-.85.6-1.95.95-2.93.95-2.35,0-4.18-1.63-4.18-4.42ZM338.03,8.97c0-.93-.4-1.59-1.37-1.59-.77,0-1.44.53-1.61,1.59h2.98Z"/>
    <path class="st1" d="M341.38,9.9c0-2.76,1.69-4.42,3.42-4.42.91,0,1.47.35,2.03.88l-.09-1.28v-2.87h2.45v11.91h-2l-.18-.84h-.06c-.58.6-1.4,1.04-2.2,1.04-2.05,0-3.38-1.66-3.38-4.42ZM346.74,11.51v-3.46c-.43-.4-.92-.53-1.37-.53-.79,0-1.49.75-1.49,2.35s.56,2.4,1.51,2.4c.52,0,.94-.2,1.35-.75Z"/>
    <path class="st1" d="M354.48,3.14c0-.77.6-1.31,1.42-1.31s1.42.54,1.42,1.31-.6,1.31-1.42,1.31-1.42-.55-1.42-1.31ZM354.67,5.68h2.45v8.43h-2.45V5.68Z"/>
    <path class="st1" d="M358.53,13.14l1.1-1.56c.75.58,1.44.89,2.13.89.73,0,1.04-.28,1.04-.73,0-.56-.82-.81-1.67-1.15-1.01-.4-2.19-1.09-2.19-2.48,0-1.57,1.25-2.64,3.16-2.64,1.27,0,2.21.52,2.91,1.07l-1.1,1.5c-.59-.44-1.17-.72-1.74-.72-.63,0-.94.25-.94.67,0,.54.77.74,1.63,1.06,1.05.39,2.22,1,2.22,2.54s-1.18,2.72-3.39,2.72c-1.09,0-2.33-.48-3.17-1.18Z"/>
    <path class="st1" d="M365.9,13.14l1.1-1.56c.75.58,1.44.89,2.13.89.73,0,1.04-.28,1.04-.73,0-.56-.82-.81-1.67-1.15-1.01-.4-2.19-1.09-2.19-2.48,0-1.57,1.25-2.64,3.16-2.64,1.27,0,2.21.52,2.91,1.07l-1.1,1.5c-.59-.44-1.17-.72-1.74-.72-.63,0-.94.25-.94.67,0,.54.77.74,1.63,1.06,1.05.39,2.22,1,2.22,2.54s-1.18,2.72-3.39,2.72c-1.09,0-2.33-.48-3.17-1.18Z"/>
    <path class="st1" d="M373.93,10.91v-5.24h2.45v4.92c0,1.21.32,1.59,1.03,1.59.61,0,.99-.26,1.47-.93v-5.58h2.45v8.43h-2l-.18-1.17h-.06c-.69.84-1.47,1.37-2.59,1.37-1.8,0-2.56-1.29-2.56-3.4Z"/>
    <path class="st1" d="M382.98,9.9c0-2.74,1.91-4.42,3.9-4.42,2.35,0,3.52,1.75,3.52,4.05,0,.45-.05.9-.1,1.1h-4.94c.22,1.22,1.04,1.79,2.14,1.79.62,0,1.19-.19,1.79-.55l.81,1.51c-.85.6-1.95.95-2.93.95-2.35,0-4.18-1.63-4.18-4.42ZM388.3,8.97c0-.93-.4-1.59-1.37-1.59-.77,0-1.44.53-1.61,1.59h2.98Z"/>
    <path class="st1" d="M391.35,13.14l1.1-1.56c.75.58,1.44.89,2.13.89.73,0,1.04-.28,1.04-.73,0-.56-.82-.81-1.67-1.15-1.01-.4-2.19-1.09-2.19-2.48,0-1.57,1.25-2.64,3.16-2.64,1.27,0,2.21.52,2.91,1.07l-1.1,1.5c-.59-.44-1.17-.72-1.74-.72-.63,0-.94.25-.94.67,0,.54.77.74,1.63,1.06,1.05.39,2.22,1,2.22,2.54s-1.18,2.72-3.39,2.72c-1.09,0-2.33-.48-3.17-1.18Z"/>
    <path class="st1" d="M402.4,11.77c0-1.78,1.38-2.74,4.65-3.09-.05-.74-.41-1.22-1.31-1.22-.69,0-1.38.3-2.19.76l-.87-1.64c1.05-.65,2.23-1.11,3.53-1.11,2.11,0,3.28,1.23,3.28,3.82v4.82h-2l-.18-.86h-.06c-.7.62-1.47,1.07-2.4,1.07-1.51,0-2.46-1.12-2.46-2.54ZM407.05,11.66v-1.47c-1.74.24-2.31.75-2.31,1.38,0,.54.37.81.95.81s.93-.28,1.36-.72Z"/>
    <path class="st1" d="M411.07,9.9c0-2.8,2.02-4.42,4.3-4.42,1.02,0,1.8.37,2.41.91l-1.16,1.61c-.4-.34-.73-.5-1.12-.5-1.18,0-1.93.95-1.93,2.41s.79,2.4,1.85,2.4c.54,0,1.06-.27,1.49-.62l.96,1.63c-.8.72-1.83,1-2.72,1-2.3,0-4.08-1.62-4.08-4.42Z"/>
    <path class="st1" d="M418.37,9.9c0-2.8,2.02-4.42,4.3-4.42,1.02,0,1.8.37,2.41.91l-1.16,1.61c-.4-.34-.73-.5-1.12-.5-1.18,0-1.93.95-1.93,2.41s.79,2.4,1.85,2.4c.54,0,1.06-.27,1.49-.62l.96,1.63c-.8.72-1.83,1-2.72,1-2.3,0-4.08-1.62-4.08-4.42Z"/>
    <path class="st1" d="M425.68,9.9c0-2.8,1.93-4.42,4.02-4.42s4.02,1.62,4.02,4.42-1.93,4.42-4.02,4.42-4.02-1.62-4.02-4.42ZM431.22,9.9c0-1.46-.5-2.41-1.52-2.41s-1.51.95-1.51,2.41.5,2.4,1.51,2.4,1.52-.94,1.52-2.4Z"/>
    <path class="st1" d="M435.31,10.91v-5.24h2.45v4.92c0,1.21.32,1.59,1.03,1.59.61,0,.99-.26,1.47-.93v-5.58h2.45v8.43h-2l-.18-1.17h-.06c-.69.84-1.47,1.37-2.59,1.37-1.8,0-2.56-1.29-2.56-3.4Z"/>
    <path class="st1" d="M444.84,5.68h2l.18,1.07h.06c.7-.68,1.53-1.27,2.65-1.27,1.8,0,2.56,1.29,2.56,3.4v5.24h-2.45v-4.92c0-1.21-.32-1.59-1.03-1.59-.61,0-.99.29-1.53.82v5.69h-2.45V5.68Z"/>
    <path class="st1" d="M454.69,11.04v-3.41h-1.13v-1.86l1.26-.1.29-2.24h2.02v2.24h1.98v1.96h-1.98v3.38c0,.96.42,1.34,1.07,1.34.27,0,.57-.08.79-.16l.39,1.81c-.44.14-1.03.31-1.84.31-2.04,0-2.85-1.32-2.85-3.27Z"/>
    <path class="st1" d="M463.39,5.77l1.24-.1h3.8v1.96h-5.03v-1.86ZM464.49,5.24c0-1.78.81-3.24,3.04-3.24.69,0,1.28.16,1.65.3l-.44,1.84c-.28-.11-.58-.18-.86-.18-.6,0-.94.34-.94,1.21v8.94h-2.45V5.24Z"/>
    <path class="st1" d="M469.09,9.9c0-2.8,1.93-4.42,4.02-4.42s4.02,1.62,4.02,4.42-1.93,4.42-4.02,4.42-4.02-1.62-4.02-4.42ZM474.63,9.9c0-1.46-.5-2.41-1.52-2.41s-1.51.95-1.51,2.41.5,2.4,1.51,2.4,1.52-.94,1.52-2.4Z"/>
    <path class="st1" d="M478.81,5.68h2l.18,1.47h.06c.6-1.12,1.5-1.68,2.35-1.68.47,0,.75.06.98.17l-.41,2.16c-.29-.07-.54-.14-.89-.14-.62,0-1.38.41-1.82,1.56v4.89h-2.45V5.68Z"/>
    <path class="st1" d="M488.38,11.77c0-1.78,1.38-2.74,4.65-3.09-.05-.74-.41-1.22-1.31-1.22-.69,0-1.38.3-2.19.76l-.87-1.64c1.05-.65,2.23-1.11,3.53-1.11,2.11,0,3.28,1.23,3.28,3.82v4.82h-2l-.18-.86h-.06c-.7.62-1.47,1.07-2.4,1.07-1.51,0-2.46-1.12-2.46-2.54ZM493.03,11.66v-1.47c-1.74.24-2.31.75-2.31,1.38,0,.54.37.81.95.81s.93-.28,1.36-.72Z"/>
    <path class="st1" d="M500.86,11.49V2.2h2.45v9.39c0,.54.24.71.44.71.09,0,.16,0,.3-.03l.29,1.84c-.27.12-.67.21-1.23.21-1.68,0-2.25-1.12-2.25-2.83Z"/>
    <path class="st1" d="M505.23,11.77c0-1.78,1.38-2.74,4.65-3.09-.05-.74-.41-1.22-1.31-1.22-.69,0-1.38.3-2.19.76l-.87-1.64c1.05-.65,2.23-1.11,3.53-1.11,2.11,0,3.28,1.23,3.28,3.82v4.82h-2l-.18-.86h-.06c-.7.62-1.47,1.07-2.4,1.07-1.51,0-2.46-1.12-2.46-2.54ZM509.89,11.66v-1.47c-1.74.24-2.31.75-2.31,1.38,0,.54.37.81.95.81s.93-.28,1.36-.72Z"/>
    <path class="st1" d="M514.38,5.68h2l.18,1.47h.06c.6-1.12,1.5-1.68,2.35-1.68.47,0,.75.06.98.17l-.41,2.16c-.29-.07-.54-.14-.89-.14-.62,0-1.38.41-1.82,1.56v4.89h-2.45V5.68Z"/>
    <path class="st1" d="M520.33,15.56c0-.7.41-1.27,1.17-1.7v-.07c-.43-.29-.75-.74-.75-1.43,0-.61.4-1.2.92-1.58v-.07c-.58-.41-1.11-1.2-1.11-2.19,0-2.02,1.64-3.05,3.42-3.05.46,0,.91.07,1.28.2h3.02v1.82h-1.33c.15.25.28.67.28,1.11,0,1.94-1.45,2.83-3.25,2.83-.3,0-.64-.05-1.01-.16-.2.18-.29.33-.29.63,0,.42.33.62,1.24.62h1.34c2.02,0,3.15.63,3.15,2.14,0,1.75-1.79,3.03-4.62,3.03-1.92,0-3.46-.64-3.46-2.14ZM526.07,15.09c0-.53-.45-.65-1.26-.65h-.86c-.57,0-.89-.03-1.16-.11-.31.26-.45.52-.45.83,0,.64.72.97,1.83.97s1.89-.45,1.89-1.03ZM525.11,8.52c0-.9-.48-1.37-1.13-1.37s-1.13.47-1.13,1.37.48,1.41,1.13,1.41,1.13-.48,1.13-1.41Z"/>
    <path class="st1" d="M528.95,9.9c0-2.74,1.91-4.42,3.9-4.42,2.35,0,3.52,1.75,3.52,4.05,0,.45-.05.9-.1,1.1h-4.94c.22,1.22,1.04,1.79,2.14,1.79.62,0,1.19-.19,1.79-.55l.81,1.51c-.85.6-1.95.95-2.93.95-2.35,0-4.18-1.63-4.18-4.42ZM534.27,8.97c0-.93-.4-1.59-1.37-1.59-.77,0-1.44.53-1.61,1.59h2.98Z"/>
    <path class="st1" d="M538.05,5.68h2l.18,1.47h.06c.6-1.12,1.5-1.68,2.35-1.68.47,0,.75.06.98.17l-.41,2.16c-.29-.07-.54-.14-.89-.14-.62,0-1.38.41-1.82,1.56v4.89h-2.45V5.68Z"/>
    <path class="st1" d="M547.27,13.14l1.1-1.56c.75.58,1.44.89,2.13.89.73,0,1.04-.28,1.04-.73,0-.56-.82-.81-1.67-1.15-1.01-.4-2.19-1.09-2.19-2.48,0-1.57,1.25-2.64,3.16-2.64,1.27,0,2.21.52,2.91,1.07l-1.1,1.5c-.59-.44-1.17-.72-1.74-.72-.63,0-.94.25-.94.67,0,.54.77.74,1.63,1.06,1.05.39,2.22,1,2.22,2.54s-1.18,2.72-3.39,2.72c-1.09,0-2.33-.48-3.17-1.18Z"/>
    <path class="st1" d="M555.37,2.2h2.45v2.91l-.11,1.53c.62-.58,1.42-1.17,2.55-1.17,1.8,0,2.56,1.29,2.56,3.4v5.24h-2.45v-4.92c0-1.21-.32-1.59-1.03-1.59-.61,0-.99.29-1.53.82v5.69h-2.45V2.2Z"/>
    <path class="st1" d="M564.49,11.77c0-1.78,1.38-2.74,4.65-3.09-.05-.74-.41-1.22-1.31-1.22-.69,0-1.38.3-2.19.76l-.87-1.64c1.05-.65,2.23-1.11,3.53-1.11,2.11,0,3.28,1.23,3.28,3.82v4.82h-2l-.18-.86h-.06c-.7.62-1.47,1.07-2.4,1.07-1.51,0-2.46-1.12-2.46-2.54ZM569.14,11.66v-1.47c-1.74.24-2.31.75-2.31,1.38,0,.54.37.81.95.81s.93-.28,1.36-.72Z"/>
    <path class="st1" d="M573.64,5.68h2l.18,1.47h.06c.6-1.12,1.5-1.68,2.35-1.68.47,0,.75.06.98.17l-.41,2.16c-.29-.07-.54-.14-.89-.14-.62,0-1.38.41-1.82,1.56v4.89h-2.45V5.68Z"/>
    <path class="st1" d="M579.62,9.9c0-2.74,1.91-4.42,3.9-4.42,2.35,0,3.52,1.75,3.52,4.05,0,.45-.05.9-.1,1.1h-4.94c.22,1.22,1.04,1.79,2.14,1.79.62,0,1.19-.19,1.79-.55l.81,1.51c-.85.6-1.95.95-2.93.95-2.35,0-4.18-1.63-4.18-4.42ZM584.94,8.97c0-.93-.4-1.59-1.37-1.59-.77,0-1.44.53-1.61,1.59h2.98Z"/>
    <path class="st1" d="M.6,30.3c0-2.8,1.93-4.42,4.02-4.42s4.02,1.62,4.02,4.42-1.93,4.42-4.02,4.42-4.02-1.62-4.02-4.42ZM6.14,30.3c0-1.46-.5-2.41-1.52-2.41s-1.52.95-1.52,2.41.5,2.4,1.52,2.4,1.52-.94,1.52-2.4Z"/>
    <path class="st1" d="M9.55,26.17l1.24-.1h3.8v1.96h-5.03v-1.86ZM10.65,25.64c0-1.78.81-3.24,3.04-3.24.69,0,1.28.16,1.65.3l-.44,1.84c-.28-.11-.58-.18-.86-.18-.6,0-.94.34-.94,1.21v8.94h-2.45v-8.87Z"/>
    <path class="st1" d="M18.52,33.18l1.13-1.58c.65.63,1.43,1.09,2.32,1.09,1.03,0,1.72-.46,1.72-1.29,0-.95-.54-1.53-2.84-1.53v-1.77c1.9,0,2.5-.59,2.5-1.45,0-.76-.47-1.19-1.3-1.19-.75,0-1.32.35-1.98.94l-1.24-1.52c.97-.85,2.04-1.38,3.32-1.38,2.2,0,3.65,1.06,3.65,2.96,0,1.11-.62,1.91-1.76,2.4v.07c1.22.36,2.11,1.24,2.11,2.63,0,2.01-1.8,3.14-3.93,3.14-1.71,0-2.91-.62-3.69-1.53Z"/>
    <path class="st1" d="M28.1,32.49h2.31v-6.25h-1.98v-1.55c1.13-.22,1.88-.51,2.62-.98h1.8v8.78h1.98v2.02h-6.74v-2.02Z"/>
    <path class="st1" d="M36.88,32.49h2.31v-6.25h-1.98v-1.55c1.13-.22,1.88-.51,2.62-.98h1.8v8.78h1.98v2.02h-6.74v-2.02Z"/>
    <path class="st1" d="M48.44,30.3c0-2.8,2.02-4.42,4.3-4.42,1.02,0,1.8.37,2.41.91l-1.16,1.61c-.4-.34-.73-.5-1.12-.5-1.18,0-1.93.95-1.93,2.41s.79,2.4,1.85,2.4c.54,0,1.06-.27,1.49-.62l.96,1.63c-.8.72-1.83,1-2.72,1-2.31,0-4.08-1.62-4.08-4.42Z"/>
    <path class="st1" d="M55.74,30.3c0-2.8,1.93-4.42,4.02-4.42s4.02,1.62,4.02,4.42-1.93,4.42-4.02,4.42-4.02-1.62-4.02-4.42ZM61.28,30.3c0-1.46-.5-2.41-1.52-2.41s-1.52.95-1.52,2.41.5,2.4,1.52,2.4,1.52-.94,1.52-2.4Z"/>
    <path class="st1" d="M65.46,26.08h2l.18,1.08h.06c.68-.7,1.42-1.29,2.5-1.29,1.16,0,1.86.51,2.28,1.42.73-.77,1.5-1.42,2.59-1.42,1.78,0,2.58,1.29,2.58,3.4v5.24h-2.45v-4.92c0-1.21-.32-1.59-1.02-1.59-.41,0-.88.26-1.41.82v5.69h-2.45v-4.92c0-1.21-.33-1.59-1.02-1.59-.41,0-.88.26-1.41.82v5.69h-2.45v-8.43Z"/>
    <path class="st1" d="M79.72,26.08h2l.18.83h.06c.65-.59,1.49-1.03,2.35-1.03,2,0,3.22,1.69,3.22,4.29,0,2.89-1.69,4.55-3.47,4.55-.71,0-1.38-.32-1.97-.88l.08,1.33v2.47h-2.45v-11.56ZM85.02,30.19c0-1.51-.46-2.27-1.44-2.27-.5,0-.94.23-1.42.76v3.46c.44.4.9.53,1.32.53.85,0,1.54-.74,1.54-2.48Z"/>
    <path class="st1" d="M89.12,31.89v-9.29h2.45v9.39c0,.54.24.71.44.71.09,0,.16,0,.3-.03l.29,1.84c-.27.12-.67.21-1.23.21-1.68,0-2.25-1.12-2.25-2.83Z"/>
    <path class="st1" d="M93.5,32.17c0-1.78,1.38-2.74,4.65-3.09-.05-.74-.41-1.22-1.31-1.22-.69,0-1.38.3-2.19.76l-.87-1.64c1.05-.65,2.23-1.11,3.53-1.11,2.11,0,3.28,1.23,3.28,3.82v4.82h-2l-.18-.86h-.06c-.7.62-1.47,1.07-2.4,1.07-1.51,0-2.46-1.12-2.46-2.54ZM98.15,32.06v-1.47c-1.74.24-2.31.75-2.31,1.38,0,.54.37.81.95.81s.93-.28,1.36-.72Z"/>
    <path class="st1" d="M102.46,23.54c0-.77.6-1.31,1.42-1.31s1.42.54,1.42,1.31-.6,1.31-1.42,1.31-1.42-.55-1.42-1.31ZM102.65,26.08h2.45v8.43h-2.45v-8.43Z"/>
    <path class="st1" d="M107.24,26.08h2l.18,1.07h.06c.7-.68,1.53-1.27,2.65-1.27,1.8,0,2.56,1.29,2.56,3.4v5.24h-2.45v-4.92c0-1.21-.32-1.59-1.03-1.59-.61,0-.99.29-1.53.82v5.69h-2.45v-8.43Z"/>
    <path class="st1" d="M117.09,31.44v-3.41h-1.13v-1.86l1.27-.1.29-2.24h2.02v2.24h1.98v1.96h-1.98v3.38c0,.96.43,1.34,1.07,1.34.27,0,.57-.08.79-.16l.39,1.81c-.44.14-1.03.31-1.84.31-2.04,0-2.85-1.32-2.85-3.27Z"/>
    <path class="st1" d="M122.24,33.54l1.1-1.56c.75.58,1.44.89,2.13.89.73,0,1.04-.28,1.04-.73,0-.56-.82-.81-1.67-1.15-1.01-.4-2.19-1.09-2.19-2.48,0-1.57,1.25-2.64,3.16-2.64,1.27,0,2.21.52,2.91,1.07l-1.1,1.5c-.59-.44-1.17-.72-1.74-.72-.63,0-.94.25-.94.67,0,.54.77.74,1.63,1.06,1.05.39,2.22,1,2.22,2.54s-1.18,2.72-3.39,2.72c-1.09,0-2.33-.48-3.17-1.18Z"/>
  </g>
  <g>
    <path class="st2" d="M2.31,50.52l.33-.35c.53.59,1.28.98,2.13.98,1.11,0,1.8-.59,1.8-1.46s-.59-1.19-1.3-1.52l-1.1-.49c-.63-.28-1.47-.73-1.47-1.8s.9-1.79,2.11-1.79c.87,0,1.58.4,2.02.87l-.29.34c-.42-.45-1-.74-1.73-.74-.96,0-1.6.51-1.6,1.3,0,.85.72,1.17,1.25,1.4l1.1.49c.81.36,1.53.81,1.53,1.92s-.91,1.95-2.32,1.95c-1.06,0-1.88-.45-2.45-1.09Z"/>
    <path class="st2" d="M8.55,43.57h.49v3.46c.54-.55,1.09-.96,1.82-.96,1.09,0,1.6.66,1.6,2.03v3.39h-.49v-3.32c0-1.12-.35-1.65-1.2-1.65-.63,0-1.08.33-1.73.99v3.98h-.49v-7.91Z"/>
    <path class="st2" d="M13.98,50.17c0-1.17,1.06-1.73,3.41-1.99.02-.81-.21-1.68-1.25-1.68-.71,0-1.33.35-1.68.62l-.22-.36c.37-.26,1.11-.69,1.96-.69,1.25,0,1.67.91,1.67,2.04v3.38h-.41l-.05-.69h-.02c-.54.44-1.18.82-1.87.82-.84,0-1.53-.46-1.53-1.45ZM17.39,50.35v-1.8c-2.17.25-2.91.75-2.91,1.6,0,.76.51,1.05,1.12,1.05s1.14-.29,1.79-.85Z"/>
    <path class="st2" d="M19.76,46.2h.41l.05.99h.02c.36-.65.87-1.12,1.5-1.12.19,0,.35.02.52.11l-.11.44c-.18-.06-.28-.09-.48-.09-.48,0-1.04.36-1.44,1.36v3.59h-.49v-5.28Z"/>
    <path class="st2" d="M22.69,48.85c0-1.72,1.12-2.78,2.3-2.78,1.25,0,2.02.89,2.02,2.44,0,.13,0,.26-.03.4h-3.8c.02,1.33.8,2.29,1.99,2.29.57,0,1.02-.19,1.42-.47l.2.37c-.42.26-.89.52-1.67.52-1.35,0-2.44-1.04-2.44-2.76ZM26.56,48.51c0-1.35-.61-2.02-1.56-2.02-.89,0-1.7.76-1.81,2.02h3.37Z"/>
    <path class="st2" d="M30.2,48.85c0-1.77,1.1-2.78,2.37-2.78s2.37,1.02,2.37,2.78-1.1,2.76-2.37,2.76-2.37-1.02-2.37-2.76ZM34.44,48.85c0-1.39-.79-2.35-1.86-2.35s-1.86.96-1.86,2.35.79,2.33,1.86,2.33,1.86-.94,1.86-2.33Z"/>
    <path class="st2" d="M35.87,46.25l.74-.05h1.7v.42h-2.43v-.38ZM36.6,45.03c0-1.05.47-1.59,1.31-1.59.25,0,.53.07.77.18l-.13.4c-.22-.11-.43-.15-.63-.15-.57,0-.83.43-.83,1.2v6.42h-.49v-6.46Z"/>
    <path class="st2" d="M40.92,50.63l.28-.34c.42.46.98.9,1.94.9s1.65-.62,1.65-1.55-.7-1.63-2.45-1.63v-.43c1.62,0,2.19-.68,2.19-1.53,0-.79-.56-1.31-1.42-1.31-.64,0-1.21.34-1.61.77l-.29-.33c.48-.47,1.09-.86,1.91-.86,1.08,0,1.92.62,1.92,1.7,0,.92-.57,1.47-1.34,1.74v.04c.87.18,1.6.83,1.6,1.83,0,1.22-.94,1.99-2.15,1.99-1.12,0-1.78-.51-2.23-.99Z"/>
    <path class="st2" d="M46.79,51.06h1.65v-5.83h-1.26v-.33c.57-.09,1.02-.25,1.35-.44h.4v6.61h1.53v.43h-3.67v-.43Z"/>
    <path class="st2" d="M52.06,51.06h1.65v-5.83h-1.26v-.33c.57-.09,1.02-.25,1.35-.44h.4v6.61h1.53v.43h-3.67v-.43Z"/>
    <path class="st2" d="M59.18,48.85c0-1.77,1.13-2.78,2.41-2.78.72,0,1.19.32,1.55.65l-.29.34c-.34-.32-.74-.56-1.25-.56-1.08,0-1.91.96-1.91,2.35s.76,2.33,1.91,2.33c.57,0,1.05-.27,1.42-.61l.25.34c-.45.41-1.02.7-1.69.7-1.36,0-2.4-1.02-2.4-2.76Z"/>
    <path class="st2" d="M63.93,48.85c0-1.77,1.1-2.78,2.37-2.78s2.37,1.02,2.37,2.78-1.1,2.76-2.37,2.76-2.37-1.02-2.37-2.76ZM68.16,48.85c0-1.39-.79-2.35-1.86-2.35s-1.86.96-1.86,2.35.79,2.33,1.86,2.33,1.86-.94,1.86-2.33Z"/>
    <path class="st2" d="M70.26,46.2h.41l.05.82h.02c.48-.54,1.08-.95,1.67-.95.85,0,1.27.43,1.46,1.08.6-.66,1.18-1.08,1.79-1.08,1.05,0,1.58.66,1.58,2.03v3.39h-.49v-3.32c0-1.12-.37-1.65-1.18-1.65-.5,0-1,.33-1.58.99v3.98h-.49v-3.32c0-1.12-.37-1.65-1.18-1.65-.48,0-1,.33-1.58.99v3.98h-.49v-5.28Z"/>
    <path class="st2" d="M79.19,46.2h.41l.05.67h.02c.52-.41,1.14-.8,1.79-.8,1.42,0,2.11,1.06,2.11,2.7,0,1.79-1.08,2.85-2.33,2.85-.5,0-1.04-.24-1.59-.65v.97s0,1.93,0,1.93h-.49v-7.67ZM83.08,48.77c0-1.3-.46-2.27-1.68-2.27-.52,0-1.08.31-1.72.87v3.13c.6.5,1.16.68,1.56.68,1.07,0,1.84-.99,1.84-2.42Z"/>
    <path class="st2" d="M85.16,50.78v-7.21h.49v7.27c0,.24.1.35.23.35.05,0,.09,0,.2-.02l.08.4c-.1.03-.19.05-.35.05-.42,0-.64-.26-.64-.84Z"/>
    <path class="st2" d="M87.39,50.17c0-1.17,1.06-1.73,3.41-1.99.02-.81-.21-1.68-1.25-1.68-.71,0-1.33.35-1.68.62l-.22-.36c.37-.26,1.11-.69,1.96-.69,1.25,0,1.67.91,1.67,2.04v3.38h-.41l-.05-.69h-.02c-.54.44-1.18.82-1.88.82-.84,0-1.53-.46-1.53-1.45ZM90.8,50.35v-1.8c-2.17.25-2.91.75-2.91,1.6,0,.76.51,1.05,1.12,1.05s1.14-.29,1.79-.85Z"/>
    <path class="st2" d="M92.98,44.5c0-.27.2-.43.44-.43s.44.16.44.43c0,.25-.2.43-.44.43s-.44-.18-.44-.43ZM93.17,46.2h.49v5.28h-.49v-5.28Z"/>
    <path class="st2" d="M95.69,46.2h.41l.05.82h.02c.54-.54,1.09-.95,1.82-.95,1.09,0,1.6.66,1.6,2.03v3.39h-.49v-3.32c0-1.12-.35-1.65-1.2-1.65-.63,0-1.08.33-1.73.99v3.98h-.49v-5.28Z"/>
    <path class="st2" d="M101.67,50.03v-3.4h-.83v-.38l.84-.05.06-1.53h.41v1.53h1.53v.42h-1.53v3.44c0,.67.17,1.13.9,1.13.2,0,.47-.08.66-.17l.13.39c-.31.11-.64.2-.86.2-1.01,0-1.31-.64-1.31-1.59Z"/>
    <path class="st2" d="M104.21,50.89l.28-.35c.45.37.93.67,1.68.67.83,0,1.26-.49,1.26-1.04,0-.66-.68-.95-1.29-1.17-.8-.28-1.68-.61-1.68-1.51,0-.76.6-1.41,1.7-1.41.57,0,1.12.23,1.51.55l-.26.35c-.36-.27-.73-.48-1.26-.48-.82,0-1.2.47-1.2.96,0,.6.62.83,1.25,1.07.82.31,1.72.58,1.72,1.61,0,.8-.64,1.49-1.78,1.49-.78,0-1.46-.33-1.94-.73Z"/>
    <path class="st2" d="M112,50.95h-.02l-.06.54h-.4v-7.91h.49v2.3l-.02,1.03c.53-.45,1.18-.83,1.82-.83,1.42,0,2.12,1.06,2.12,2.69,0,1.79-1.08,2.85-2.33,2.85-.5,0-1.09-.26-1.58-.67ZM115.41,48.77c0-1.3-.46-2.27-1.68-2.27-.52,0-1.1.31-1.72.87v3.13c.58.5,1.16.68,1.56.68,1.07,0,1.84-.99,1.84-2.42Z"/>
    <path class="st2" d="M116.72,53.78l.11-.42c.11.04.28.09.43.09.65,0,1.08-.6,1.35-1.4l.15-.46-2.17-5.38h.53l1.27,3.32c.17.45.38,1.01.57,1.48h.04c.17-.47.34-1.03.49-1.48l1.12-3.32h.5l-2.09,5.95c-.29.88-.83,1.74-1.78,1.74-.2,0-.4-.04-.54-.11Z"/>
    <path class="st2" d="M124.59,50.03v-3.4h-.83v-.38l.84-.05.06-1.53h.41v1.53h1.53v.42h-1.53v3.44c0,.67.17,1.13.9,1.13.2,0,.47-.08.66-.17l.13.39c-.31.11-.64.2-.86.2-1.01,0-1.31-.64-1.31-1.59Z"/>
    <path class="st2" d="M127.14,53.78l.11-.42c.11.04.28.09.43.09.65,0,1.08-.6,1.35-1.4l.15-.46-2.17-5.38h.53l1.27,3.32c.17.45.38,1.01.57,1.48h.04c.17-.47.34-1.03.49-1.48l1.12-3.32h.5l-2.09,5.95c-.29.88-.83,1.74-1.78,1.74-.2,0-.4-.04-.54-.11Z"/>
    <path class="st2" d="M132.69,46.2h.41l.05.67h.02c.52-.41,1.14-.8,1.79-.8,1.42,0,2.11,1.06,2.11,2.7,0,1.79-1.08,2.85-2.33,2.85-.5,0-1.04-.24-1.59-.65v.97s0,1.93,0,1.93h-.49v-7.67ZM136.58,48.77c0-1.3-.46-2.27-1.68-2.27-.52,0-1.08.31-1.72.87v3.13c.6.5,1.15.68,1.56.68,1.07,0,1.84-.99,1.84-2.42Z"/>
    <path class="st2" d="M138.23,48.85c0-1.72,1.12-2.78,2.3-2.78,1.25,0,2.02.89,2.02,2.44,0,.13,0,.26-.03.4h-3.8c.02,1.33.8,2.29,1.99,2.29.57,0,1.02-.19,1.42-.47l.2.37c-.42.26-.89.52-1.67.52-1.35,0-2.44-1.04-2.44-2.76ZM142.1,48.51c0-1.35-.61-2.02-1.56-2.02-.89,0-1.7.76-1.81,2.02h3.37Z"/>
    <path class="st2" d="M146,44.5c0-.27.2-.43.44-.43s.44.16.44.43c0,.25-.2.43-.44.43s-.44-.18-.44-.43ZM146.19,46.2h.49v5.28h-.49v-5.28Z"/>
    <path class="st2" d="M148.71,46.2h.41l.05.82h.02c.54-.54,1.09-.95,1.82-.95,1.09,0,1.6.66,1.6,2.03v3.39h-.49v-3.32c0-1.12-.35-1.65-1.2-1.65-.63,0-1.08.33-1.73.99v3.98h-.49v-5.28Z"/>
    <path class="st2" d="M156.88,50.03v-3.4h-.83v-.38l.84-.05.06-1.53h.41v1.53h1.53v.42h-1.53v3.44c0,.67.17,1.13.9,1.13.2,0,.47-.08.66-.17l.13.39c-.31.11-.64.2-.86.2-1.01,0-1.31-.64-1.31-1.59Z"/>
    <path class="st2" d="M160.19,43.57h.49v3.46c.54-.55,1.09-.96,1.82-.96,1.09,0,1.6.66,1.6,2.03v3.39h-.49v-3.32c0-1.12-.35-1.65-1.2-1.65-.63,0-1.08.33-1.73.99v3.98h-.49v-7.91Z"/>
    <path class="st2" d="M165.56,48.85c0-1.72,1.12-2.78,2.3-2.78,1.25,0,2.02.89,2.02,2.44,0,.13,0,.26-.03.4h-3.8c.02,1.33.8,2.29,1.99,2.29.57,0,1.02-.19,1.42-.47l.2.37c-.42.26-.89.52-1.67.52-1.35,0-2.44-1.04-2.44-2.76ZM169.43,48.51c0-1.35-.61-2.02-1.56-2.02-.89,0-1.7.76-1.81,2.02h3.37Z"/>
    <path class="st2" d="M173.51,43.57h.49v3.46c.54-.55,1.09-.96,1.82-.96,1.09,0,1.6.66,1.6,2.03v3.39h-.49v-3.32c0-1.12-.35-1.65-1.2-1.65-.63,0-1.08.33-1.73.99v3.98h-.49v-7.91Z"/>
    <path class="st2" d="M179.13,44.5c0-.27.2-.43.44-.43s.44.16.44.43c0,.25-.2.43-.44.43s-.44-.18-.44-.43ZM179.32,46.2h.49v5.28h-.49v-5.28Z"/>
    <path class="st2" d="M181.39,52.57c0-.46.3-.93.79-1.27v-.04c-.27-.16-.47-.44-.47-.85,0-.47.34-.81.58-.97v-.04c-.34-.28-.67-.81-.67-1.45,0-1.09.83-1.86,1.86-1.86.29,0,.54.06.7.13h1.79v.41h-1.23c.34.29.58.77.58,1.32,0,1.08-.81,1.87-1.85,1.87-.29,0-.63-.08-.87-.23-.23.19-.43.41-.43.76,0,.38.22.69,1.01.69h1.13c1.19,0,1.74.38,1.74,1.21,0,.91-.97,1.79-2.5,1.79-1.33,0-2.17-.57-2.17-1.46ZM185.57,52.3c0-.58-.42-.8-1.22-.8h-1.13c-.1,0-.38-.02-.65-.09-.49.33-.69.74-.69,1.11,0,.67.64,1.12,1.75,1.12,1.19,0,1.95-.67,1.95-1.34ZM184.85,47.93c0-.89-.62-1.46-1.37-1.46s-1.37.56-1.37,1.46.64,1.48,1.37,1.48,1.37-.6,1.37-1.48Z"/>
    <path class="st2" d="M187.2,43.57h.49v3.46c.54-.55,1.09-.96,1.82-.96,1.09,0,1.6.66,1.6,2.03v3.39h-.49v-3.32c0-1.12-.35-1.65-1.2-1.65-.63,0-1.08.33-1.73.99v3.98h-.49v-7.91Z"/>
    <path class="st2" d="M192.56,48.85c0-1.72,1.12-2.78,2.3-2.78,1.25,0,2.02.89,2.02,2.44,0,.13,0,.26-.03.4h-3.8c.02,1.33.8,2.29,1.99,2.29.57,0,1.02-.19,1.42-.47l.2.37c-.42.26-.89.52-1.67.52-1.35,0-2.44-1.04-2.44-2.76ZM196.43,48.51c0-1.35-.61-2.02-1.56-2.02-.89,0-1.7.76-1.81,2.02h3.37Z"/>
    <path class="st2" d="M197.66,50.89l.28-.35c.45.37.93.67,1.68.67.83,0,1.26-.49,1.26-1.04,0-.66-.68-.95-1.29-1.17-.8-.28-1.68-.61-1.68-1.51,0-.76.6-1.41,1.7-1.41.57,0,1.12.23,1.51.55l-.26.35c-.36-.27-.73-.48-1.26-.48-.82,0-1.2.47-1.2.96,0,.6.62.83,1.25,1.07.82.31,1.73.58,1.73,1.61,0,.8-.64,1.49-1.78,1.49-.78,0-1.46-.33-1.94-.73Z"/>
    <path class="st2" d="M202.68,50.03v-3.4h-.83v-.38l.84-.05.06-1.53h.41v1.53h1.53v.42h-1.53v3.44c0,.67.17,1.13.9,1.13.2,0,.47-.08.66-.17l.13.39c-.31.11-.64.2-.86.2-1.01,0-1.31-.64-1.31-1.59Z"/>
    <path class="st2" d="M205.2,48.53h2.42v.43h-2.42v-.43Z"/>
    <path class="st2" d="M208.87,44.5c0-.27.2-.43.44-.43s.44.16.44.43c0,.25-.2.43-.44.43s-.44-.18-.44-.43ZM209.06,46.2h.49v5.28h-.49v-5.28Z"/>
    <path class="st2" d="M211.57,46.2h.41l.05.82h.02c.54-.54,1.09-.95,1.82-.95,1.09,0,1.6.66,1.6,2.03v3.39h-.49v-3.32c0-1.12-.35-1.65-1.2-1.65-.63,0-1.08.33-1.73.99v3.98h-.49v-5.28Z"/>
    <path class="st2" d="M216.98,48.85c0-1.77,1.13-2.78,2.41-2.78.72,0,1.19.32,1.55.65l-.29.34c-.34-.32-.73-.56-1.25-.56-1.08,0-1.91.96-1.91,2.35s.76,2.33,1.91,2.33c.57,0,1.05-.27,1.42-.61l.25.34c-.45.41-1.02.7-1.69.7-1.36,0-2.4-1.02-2.4-2.76Z"/>
    <path class="st2" d="M221.73,48.85c0-1.77,1.1-2.78,2.37-2.78s2.37,1.02,2.37,2.78-1.1,2.76-2.37,2.76-2.37-1.02-2.37-2.76ZM225.97,48.85c0-1.39-.79-2.35-1.86-2.35s-1.86.96-1.86,2.35.79,2.33,1.86,2.33,1.86-.94,1.86-2.33Z"/>
    <path class="st2" d="M228.06,46.2h.41l.05.82h.02c.48-.54,1.08-.95,1.67-.95.85,0,1.27.43,1.46,1.08.6-.66,1.18-1.08,1.79-1.08,1.05,0,1.58.66,1.58,2.03v3.39h-.49v-3.32c0-1.12-.37-1.65-1.18-1.65-.5,0-1,.33-1.58.99v3.98h-.49v-3.32c0-1.12-.37-1.65-1.18-1.65-.48,0-1,.33-1.58.99v3.98h-.49v-5.28Z"/>
    <path class="st2" d="M236.55,48.85c0-1.72,1.12-2.78,2.3-2.78,1.25,0,2.02.89,2.02,2.44,0,.13,0,.26-.03.4h-3.8c.02,1.33.8,2.29,1.99,2.29.57,0,1.02-.19,1.42-.47l.2.37c-.42.26-.89.52-1.67.52-1.35,0-2.44-1.04-2.44-2.76ZM240.42,48.51c0-1.35-.61-2.02-1.56-2.02-.89,0-1.7.76-1.81,2.02h3.37Z"/>
    <path class="st2" d="M244.56,44.24h.53l3.05,5.11.82,1.45h.04c-.03-.71-.06-1.41-.06-2.12v-4.44h.48v7.25h-.53l-3.05-5.11-.82-1.45h-.04c.03.7.06,1.35.06,2.06v4.5h-.48v-7.25Z"/>
    <path class="st2" d="M251.06,48.85c0-1.72,1.12-2.78,2.3-2.78,1.25,0,2.02.89,2.02,2.44,0,.13,0,.26-.03.4h-3.8c.02,1.33.8,2.29,1.99,2.29.57,0,1.02-.19,1.42-.47l.2.37c-.42.26-.89.52-1.67.52-1.35,0-2.44-1.04-2.44-2.76ZM254.93,48.51c0-1.35-.61-2.02-1.56-2.02-.89,0-1.7.76-1.81,2.02h3.37Z"/>
    <path class="st2" d="M256.2,46.2h.52l.95,3.42c.13.49.25.94.36,1.41h.04c.13-.47.25-.93.39-1.41l.96-3.42h.58l.96,3.42c.13.49.26.94.39,1.41h.04c.13-.47.25-.92.38-1.41l.93-3.42h.49l-1.51,5.28h-.64l-.93-3.28c-.15-.51-.25-.99-.4-1.51h-.04c-.13.52-.25,1.02-.42,1.53l-.91,3.26h-.59l-1.56-5.28Z"/>
    <path class="st2" d="M267.87,48.55l-2.18-4.31h.54l1.1,2.27c.25.53.49,1.03.77,1.57h.04c.28-.53.55-1.04.79-1.57l1.1-2.27h.51l-2.18,4.31v2.94h-.51v-2.94Z"/>
    <path class="st2" d="M270.79,48.85c0-1.77,1.1-2.78,2.37-2.78s2.37,1.02,2.37,2.78-1.1,2.76-2.37,2.76-2.37-1.02-2.37-2.76ZM275.03,48.85c0-1.39-.79-2.35-1.86-2.35s-1.86.96-1.86,2.35.79,2.33,1.86,2.33,1.86-.94,1.86-2.33Z"/>
    <path class="st2" d="M277.12,46.2h.41l.05.99h.02c.36-.65.87-1.12,1.5-1.12.19,0,.35.02.52.11l-.11.44c-.18-.06-.27-.09-.48-.09-.47,0-1.04.36-1.44,1.36v3.59h-.49v-5.28Z"/>
    <path class="st2" d="M280.61,43.57h.48v5.83h.02l2.61-3.2h.56l-1.72,2.09,2.01,3.19h-.54l-1.75-2.83-1.19,1.39v1.44h-.48v-7.91Z"/>
    <path class="st2" d="M287.5,47.85c0-2.3,1.25-3.74,3.1-3.74.85,0,1.5.42,1.89.87l-.3.34c-.39-.45-.92-.75-1.58-.75-1.59,0-2.57,1.26-2.57,3.28s.97,3.32,2.53,3.32c.75,0,1.31-.31,1.83-.89l.3.32c-.55.64-1.21,1.04-2.16,1.04-1.79,0-3.03-1.47-3.03-3.77Z"/>
    <path class="st2" d="M293.93,44.5c0-.27.2-.43.44-.43s.44.16.44.43c0,.25-.2.43-.44.43s-.44-.18-.44-.43ZM294.12,46.2h.49v5.28h-.49v-5.28Z"/>
    <path class="st2" d="M296.76,50.03v-3.4h-.83v-.38l.84-.05.06-1.53h.41v1.53h1.53v.42h-1.53v3.44c0,.67.17,1.13.9,1.13.2,0,.47-.08.66-.17l.13.39c-.31.11-.64.2-.86.2-1.01,0-1.31-.64-1.31-1.59Z"/>
    <path class="st2" d="M299.31,53.78l.11-.42c.11.04.28.09.43.09.65,0,1.08-.6,1.35-1.4l.15-.46-2.17-5.38h.53l1.27,3.32c.17.45.38,1.01.57,1.48h.04c.17-.47.34-1.03.49-1.48l1.12-3.32h.5l-2.09,5.95c-.29.88-.83,1.74-1.78,1.74-.2,0-.4-.04-.54-.11Z"/>
    <path class="st2" d="M306.6,51.19l4.17-6.52h-3.81v-.44h4.44v.29l-4.17,6.52h4.22v.44h-4.85v-.29Z"/>
    <path class="st2" d="M313.03,44.24h.51v7.25h-.51v-7.25Z"/>
    <path class="st2" d="M315.67,44.24h1.83c1.64,0,2.63.53,2.63,2.02s-.97,2.11-2.58,2.11h-1.36v3.12h-.51v-7.25ZM317.41,47.94c1.48,0,2.19-.49,2.19-1.69s-.73-1.59-2.23-1.59h-1.19v3.28h1.24Z"/>
    <path class="st2" d="M323.41,48.85c0-1.77,1.13-2.78,2.41-2.78.72,0,1.19.32,1.55.65l-.29.34c-.34-.32-.73-.56-1.25-.56-1.08,0-1.91.96-1.91,2.35s.76,2.33,1.91,2.33c.57,0,1.05-.27,1.42-.61l.25.34c-.45.41-1.02.7-1.69.7-1.36,0-2.4-1.02-2.4-2.76Z"/>
    <path class="st2" d="M328.16,48.85c0-1.77,1.1-2.78,2.37-2.78s2.37,1.02,2.37,2.78-1.1,2.76-2.37,2.76-2.37-1.02-2.37-2.76ZM332.39,48.85c0-1.39-.79-2.35-1.86-2.35s-1.86.96-1.86,2.35.79,2.33,1.86,2.33,1.86-.94,1.86-2.33Z"/>
    <path class="st2" d="M334.05,48.85c0-1.71,1.08-2.78,2.34-2.78.63,0,1.06.24,1.59.65l-.03-.97v-2.18h.49v7.91h-.41l-.05-.68h-.02c-.43.43-1.02.82-1.72.82-1.32,0-2.18-.98-2.18-2.76ZM337.96,50.31v-3.13c-.56-.5-1.02-.68-1.54-.68-1.05,0-1.86,1.03-1.86,2.35,0,1.41.62,2.33,1.75,2.33.58,0,1.1-.31,1.65-.87Z"/>
    <path class="st2" d="M340.03,48.85c0-1.72,1.12-2.78,2.3-2.78,1.25,0,2.02.89,2.02,2.44,0,.13,0,.26-.03.4h-3.8c.02,1.33.8,2.29,1.99,2.29.57,0,1.02-.19,1.42-.47l.2.37c-.42.26-.89.52-1.67.52-1.35,0-2.44-1.04-2.44-2.76ZM343.9,48.51c0-1.35-.61-2.02-1.56-2.02-.89,0-1.7.76-1.81,2.02h3.37Z"/>
    <path class="st2" d="M345.13,50.89l.28-.35c.45.37.93.67,1.68.67.83,0,1.26-.49,1.26-1.04,0-.66-.68-.95-1.29-1.17-.8-.28-1.68-.61-1.68-1.51,0-.76.6-1.41,1.7-1.41.57,0,1.12.23,1.51.55l-.26.35c-.36-.27-.73-.48-1.26-.48-.82,0-1.2.47-1.2.96,0,.6.62.83,1.25,1.07.82.31,1.72.58,1.72,1.61,0,.8-.64,1.49-1.78,1.49-.78,0-1.46-.33-1.94-.73Z"/>
    <path class="st2" d="M349.96,51.13c0-.32.22-.51.47-.51s.47.19.47.51c0,.3-.22.49-.47.49s-.47-.19-.47-.49Z"/>
  </g>
  <text class="st7" transform="translate(499.86 104.9)"><tspan x="0" y="0">20%</tspan></text>
  <text class="st7" transform="translate(496.7 127.75)"><tspan x="0" y="0">20%</tspan></text>
  <text class="st7" transform="translate(289.08 152.91)"><tspan x="0" y="0">8%</tspan></text>
  <text class="st7" transform="translate(189.54 201.3)"><tspan x="0" y="0">2%</tspan></text>
  <text class="st7" transform="translate(187.27 224.91)"><tspan x="0" y="0">2%</tspan></text>
  <text class="st8" transform="translate(200.02 249.58)"><tspan x="0" y="0">1%</tspan></text>
  <text class="st8" transform="translate(198.35 272.9)"><tspan x="0" y="0">1%</tspan></text>
  <text class="st8" transform="translate(198.35 296.9)"><tspan x="0" y="0">1%</tspan></text>
  <g class="st6">
    <path class="st15" d="M7.41,319.12l.6-.69c.57.59,1.35.98,2.17.98,1.03,0,1.65-.51,1.65-1.28s-.57-1.06-1.31-1.38l-1.13-.5c-.73-.31-1.59-.87-1.59-2.03s1.05-2.09,2.48-2.09c.93,0,1.76.4,2.32.98l-.53.64c-.48-.46-1.06-.74-1.79-.74-.88,0-1.47.45-1.47,1.15,0,.76.69,1.04,1.3,1.3l1.12.49c.91.39,1.62.93,1.62,2.1,0,1.24-1.03,2.24-2.68,2.24-1.1,0-2.07-.45-2.75-1.17h0Z"/>
    <path class="st15" d="M13.87,317.24c0-1.95,1.27-3.07,2.7-3.07s2.7,1.12,2.7,3.07-1.27,3.05-2.7,3.05-2.7-1.12-2.7-3.05ZM18.25,317.24c0-1.34-.68-2.25-1.68-2.25s-1.68.91-1.68,2.25.68,2.23,1.68,2.23,1.68-.89,1.68-2.23Z"/>
    <path class="st15" d="M20.73,318.01v-3.69h.99v3.57c0,1.09.33,1.55,1.1,1.55.6,0,1.01-.29,1.56-.98v-4.13h.99v5.83h-.81l-.08-.91h-.03c-.54.64-1.12,1.06-1.92,1.06-1.23,0-1.78-.79-1.78-2.28l-.02-.02Z"/>
    <path class="st15" d="M27.33,314.31h.81l.08,1.06h.03c.41-.74,1-1.21,1.66-1.21.26,0,.44.03.62.12l-.18.87c-.2-.06-.33-.1-.57-.1-.49,0-1.08.35-1.47,1.34v3.74h-.99v-5.83h0Z"/>
    <path class="st15" d="M30.94,317.24c0-1.95,1.31-3.07,2.8-3.07.77,0,1.3.32,1.71.68l-.5.65c-.34-.31-.7-.51-1.16-.51-1.06,0-1.83.91-1.83,2.25s.73,2.23,1.8,2.23c.53,0,1.01-.26,1.37-.58l.43.66c-.52.47-1.19.74-1.88.74-1.55,0-2.73-1.12-2.73-3.05h-.01Z"/>
    <path class="st15" d="M36.16,317.24c0-1.9,1.28-3.07,2.62-3.07,1.49,0,2.33,1.07,2.33,2.74,0,.21-.02.42-.05.56h-3.93c.07,1.24.83,2.04,1.94,2.04.56,0,1.02-.18,1.45-.47l.35.65c-.51.33-1.13.6-1.92.6-1.55,0-2.79-1.14-2.79-3.05h0ZM40.24,316.76c0-1.17-.53-1.8-1.44-1.8-.82,0-1.55.66-1.67,1.8h3.11Z"/>
    <path class="st15" d="M42.35,315.22c0-.45.32-.76.71-.76s.71.31.71.76-.32.75-.71.75-.71-.31-.71-.75ZM42.35,319.54c0-.45.32-.76.71-.76s.71.31.71.76-.32.75-.71.75-.71-.31-.71-.75Z"/>
    <path class="st15" d="M48.03,312.27h1.03l2.85,4.95.85,1.63h.05c-.05-.79-.13-1.68-.13-2.5v-4.07h.95v7.87h-1.03l-2.85-4.95-.85-1.62h-.05c.05.8.13,1.64.13,2.46v4.12h-.95v-7.89Z"/>
    <path class="st15" d="M57.07,317.09l-2.37-4.82h1.07l1.02,2.22c.25.58.49,1.13.76,1.72h.05c.27-.59.54-1.14.79-1.72l1.02-2.22h1.04l-2.37,4.82v3.05h-1v-3.05h-.01Z"/>
    <path class="st15" d="M60.88,316.21c0-2.54,1.5-4.09,3.49-4.09.96,0,1.7.46,2.17.97l-.55.65c-.41-.44-.93-.74-1.6-.74-1.49,0-2.48,1.22-2.48,3.18s.94,3.22,2.44,3.22c.75,0,1.32-.33,1.82-.88l.55.63c-.62.72-1.39,1.14-2.42,1.14-1.96,0-3.43-1.52-3.43-4.07h0Z"/>
    <path class="st15" d="M70.13,316.18c0-2.52,1.39-4.05,3.36-4.05s3.36,1.54,3.36,4.05-1.39,4.11-3.36,4.11-3.36-1.59-3.36-4.11ZM75.83,316.18c0-1.96-.92-3.17-2.33-3.17s-2.33,1.21-2.33,3.17.92,3.23,2.33,3.23,2.33-1.27,2.33-3.23Z"/>
    <path class="st15" d="M78.47,314.31h.81l.08.67h.03c.53-.44,1.18-.82,1.86-.82,1.51,0,2.31,1.17,2.31,2.97,0,1.99-1.19,3.15-2.52,3.15-.53,0-1.08-.25-1.62-.67l.03,1.02v1.97h-.99v-8.29h.01ZM82.55,317.15c0-1.29-.44-2.15-1.54-2.15-.49,0-.99.27-1.56.8v3.06c.53.44,1.03.61,1.42.61.96,0,1.68-.87,1.68-2.31h0Z"/>
    <path class="st15" d="M84.69,317.24c0-1.9,1.28-3.07,2.62-3.07,1.49,0,2.33,1.07,2.33,2.74,0,.21-.02.42-.05.56h-3.93c.07,1.24.83,2.04,1.94,2.04.56,0,1.02-.18,1.45-.47l.35.65c-.51.33-1.13.6-1.92.6-1.55,0-2.79-1.14-2.79-3.05h0ZM88.77,316.76c0-1.17-.53-1.8-1.44-1.8-.82,0-1.55.66-1.67,1.8h3.11Z"/>
    <path class="st15" d="M91.08,314.31h.81l.08.84h.03c.56-.55,1.16-.98,1.96-.98,1.23,0,1.78.79,1.78,2.28v3.69h-.99v-3.57c0-1.09-.33-1.55-1.1-1.55-.6,0-1.01.3-1.59.9v4.22h-.99v-5.83h0Z"/>
    <path class="st15" d="M100.13,312.27h1.97c2.42,0,3.72,1.41,3.72,3.91s-1.3,3.96-3.67,3.96h-2.01v-7.87h-.01ZM102.03,319.32c1.84,0,2.76-1.15,2.76-3.14s-.92-3.09-2.76-3.09h-.89v6.23h.89Z"/>
    <path class="st15" d="M107.06,318.63c0-1.27,1.1-1.91,3.58-2.17,0-.75-.25-1.47-1.2-1.47-.67,0-1.28.32-1.74.62l-.39-.68c.54-.35,1.35-.76,2.29-.76,1.42,0,2.02.95,2.02,2.4v3.58h-.81l-.08-.7h-.03c-.56.46-1.2.84-1.93.84-.98,0-1.71-.61-1.71-1.66ZM110.64,318.72v-1.62c-1.95.24-2.61.71-2.61,1.46,0,.66.45.93,1.02.93s1.03-.27,1.59-.77Z"/>
    <path class="st15" d="M113.47,318.34v-3.22h-.87v-.75l.91-.06.12-1.63h.82v1.63h1.58v.8h-1.58v3.24c0,.71.23,1.12.9,1.12.21,0,.48-.08.66-.16l.19.74c-.33.11-.72.22-1.08.22-1.24,0-1.66-.79-1.66-1.95v.02Z"/>
    <path class="st15" d="M116.74,318.63c0-1.27,1.1-1.91,3.58-2.17,0-.75-.25-1.47-1.2-1.47-.67,0-1.28.32-1.74.62l-.39-.68c.54-.35,1.35-.76,2.29-.76,1.42,0,2.02.95,2.02,2.4v3.58h-.81l-.08-.7h-.03c-.56.46-1.2.84-1.93.84-.98,0-1.71-.61-1.71-1.66ZM120.32,318.72v-1.62c-1.95.24-2.61.71-2.61,1.46,0,.66.45.93,1.02.93s1.03-.27,1.59-.77Z"/>
    <path class="st15" d="M122.74,321.6c.68-.3,1.08-.83,1.08-1.49l-.11-.89.48.72c-.13.16-.31.21-.5.21-.38,0-.71-.24-.71-.69s.34-.69.73-.69c.52,0,.84.44.84,1.16,0,1.04-.6,1.84-1.57,2.24l-.24-.58h0ZM122.95,315.22c0-.45.32-.76.71-.76s.71.31.71.76-.32.75-.71.75-.71-.31-.71-.75Z"/>
    <path class="st15" d="M128.6,316.89v-4.62h1v4.65c0,1.89.8,2.49,1.83,2.49s1.87-.59,1.87-2.49v-4.65h.96v4.62c0,2.53-1.22,3.39-2.83,3.39s-2.83-.87-2.83-3.39Z"/>
    <path class="st15" d="M135.88,319.54c0-.45.32-.76.71-.76s.71.31.71.76-.32.75-.71.75-.71-.31-.71-.75Z"/>
    <path class="st15" d="M138.6,319.12l.6-.69c.57.59,1.35.98,2.17.98,1.03,0,1.65-.51,1.65-1.28s-.57-1.06-1.31-1.38l-1.13-.5c-.73-.31-1.59-.87-1.59-2.03s1.05-2.09,2.48-2.09c.93,0,1.76.4,2.32.98l-.53.64c-.48-.46-1.06-.74-1.79-.74-.88,0-1.47.45-1.47,1.15,0,.76.69,1.04,1.3,1.3l1.12.49c.91.39,1.62.93,1.62,2.1,0,1.24-1.03,2.24-2.68,2.24-1.1,0-2.07-.45-2.75-1.17h-.01Z"/>
    <path class="st15" d="M145.28,319.54c0-.45.32-.76.71-.76s.71.31.71.76-.32.75-.71.75-.71-.31-.71-.75Z"/>
    <path class="st15" d="M150.51,316.21c0-2.54,1.5-4.09,3.49-4.09.96,0,1.7.46,2.17.97l-.55.65c-.41-.44-.93-.74-1.6-.74-1.49,0-2.48,1.22-2.48,3.18s.94,3.22,2.44,3.22c.75,0,1.32-.33,1.82-.88l.55.63c-.62.72-1.39,1.14-2.41,1.14-1.96,0-3.43-1.52-3.43-4.07h0Z"/>
    <path class="st15" d="M157.29,317.24c0-1.9,1.28-3.07,2.62-3.07,1.49,0,2.33,1.07,2.33,2.74,0,.21-.02.42-.05.56h-3.93c.07,1.24.83,2.04,1.94,2.04.56,0,1.02-.18,1.45-.47l.35.65c-.51.33-1.13.6-1.92.6-1.55,0-2.79-1.14-2.79-3.05h0ZM161.37,316.76c0-1.17-.53-1.8-1.44-1.8-.82,0-1.55.66-1.67,1.8h3.11Z"/>
    <path class="st15" d="M163.68,314.31h.81l.08.84h.03c.56-.55,1.16-.98,1.96-.98,1.23,0,1.78.79,1.78,2.28v3.69h-.99v-3.57c0-1.09-.33-1.55-1.1-1.55-.6,0-1.01.3-1.59.9v4.22h-.99v-5.83h.01Z"/>
    <path class="st15" d="M169.59,319.48l.49-.65c.51.41,1.02.69,1.72.69.77,0,1.15-.41,1.15-.91,0-.6-.69-.87-1.33-1.1-.82-.3-1.74-.7-1.74-1.68s.75-1.65,2.01-1.65c.73,0,1.36.3,1.81.66l-.47.63c-.4-.3-.81-.52-1.33-.52-.73,0-1.07.39-1.07.84,0,.55.63.76,1.29,1.01.84.32,1.78.66,1.78,1.77,0,.95-.75,1.73-2.13,1.73-.83,0-1.63-.35-2.17-.81h0Z"/>
    <path class="st15" d="M175.19,318.01v-3.69h.99v3.57c0,1.09.33,1.55,1.1,1.55.6,0,1.01-.29,1.56-.98v-4.13h.99v5.83h-.81l-.08-.91h-.03c-.54.64-1.12,1.06-1.92,1.06-1.23,0-1.78-.79-1.78-2.28l-.02-.02Z"/>
    <path class="st15" d="M181.15,319.48l.49-.65c.51.41,1.02.69,1.72.69.77,0,1.15-.41,1.15-.91,0-.6-.69-.87-1.33-1.1-.82-.3-1.74-.7-1.74-1.68s.75-1.65,2.01-1.65c.73,0,1.36.3,1.81.66l-.47.63c-.4-.3-.81-.52-1.33-.52-.73,0-1.07.39-1.07.84,0,.55.63.76,1.29,1.01.84.32,1.78.66,1.78,1.77,0,.95-.75,1.73-2.13,1.73-.83,0-1.63-.35-2.17-.81h0Z"/>
    <path class="st15" d="M189.32,312.27h2.34c1.6,0,2.71.54,2.71,1.93,0,.78-.41,1.47-1.15,1.71v.05c.94.19,1.6.81,1.6,1.88,0,1.55-1.22,2.3-2.98,2.3h-2.52v-7.87h0ZM191.48,315.62c1.34,0,1.89-.49,1.89-1.29,0-.92-.63-1.26-1.85-1.26h-1.21v2.55h1.17ZM191.69,319.35c1.35,0,2.14-.48,2.14-1.55,0-.97-.76-1.41-2.14-1.41h-1.37v2.96h1.37Z"/>
    <path class="st15" d="M196.2,318.01v-3.69h.99v3.57c0,1.09.33,1.55,1.1,1.55.6,0,1.01-.29,1.56-.98v-4.13h.99v5.83h-.81l-.08-.91h-.03c-.54.64-1.12,1.06-1.92,1.06-1.23,0-1.78-.79-1.78-2.28l-.02-.02Z"/>
    <path class="st15" d="M202.81,314.31h.81l.08,1.06h.03c.41-.74,1-1.21,1.66-1.21.26,0,.44.03.62.12l-.18.87c-.2-.06-.33-.1-.57-.1-.49,0-1.08.35-1.47,1.34v3.74h-.99v-5.83h.01Z"/>
    <path class="st15" d="M206.42,317.24c0-1.9,1.28-3.07,2.62-3.07,1.49,0,2.33,1.07,2.33,2.74,0,.21-.02.42-.05.56h-3.93c.07,1.24.83,2.04,1.94,2.04.56,0,1.02-.18,1.45-.47l.35.65c-.51.33-1.13.6-1.92.6-1.55,0-2.79-1.14-2.79-3.05h0ZM210.49,316.76c0-1.17-.53-1.8-1.44-1.8-.82,0-1.55.66-1.67,1.8h3.11Z"/>
    <path class="st15" d="M212.27,318.63c0-1.27,1.1-1.91,3.58-2.17,0-.75-.25-1.47-1.2-1.47-.67,0-1.28.32-1.74.62l-.39-.68c.54-.35,1.35-.76,2.29-.76,1.42,0,2.02.95,2.02,2.4v3.58h-.81l-.08-.7h-.03c-.56.46-1.2.84-1.93.84-.98,0-1.71-.61-1.71-1.66ZM215.85,318.72v-1.62c-1.95.24-2.61.71-2.61,1.46,0,.66.45.93,1.02.93s1.03-.27,1.59-.77Z"/>
    <path class="st15" d="M218.6,318.01v-3.69h.99v3.57c0,1.09.33,1.55,1.1,1.55.6,0,1.01-.29,1.56-.98v-4.13h.99v5.83h-.81l-.08-.91h-.03c-.54.64-1.12,1.06-1.92,1.06-1.23,0-1.78-.79-1.78-2.28l-.02-.02Z"/>
    <path class="st15" d="M224.79,321.6c.68-.3,1.08-.83,1.08-1.49l-.11-.89.48.72c-.13.16-.31.21-.5.21-.38,0-.71-.24-.71-.69s.34-.69.73-.69c.52,0,.84.44.84,1.16,0,1.04-.6,1.84-1.57,2.24l-.24-.58h0Z"/>
    <path class="st15" d="M232.31,312.27h1.13l2.66,7.87h-1.06l-1.37-4.4c-.28-.88-.54-1.74-.79-2.65h-.05c-.24.91-.5,1.77-.78,2.65l-1.39,4.4h-1.02l2.66-7.87h0ZM231.05,316.95h3.62v.8h-3.62v-.8Z"/>
    <path class="st15" d="M237.13,314.31h.81l.08.85h.03c.51-.55,1.12-.99,1.81-.99.89,0,1.37.43,1.61,1.11.61-.66,1.21-1.11,1.92-1.11,1.2,0,1.77.79,1.77,2.28v3.69h-.99v-3.57c0-1.09-.34-1.55-1.08-1.55-.45,0-.92.3-1.46.9v4.22h-.99v-3.57c0-1.09-.34-1.55-1.08-1.55-.44,0-.92.3-1.46.9v4.22h-.99v-5.83h.02Z"/>
    <path class="st15" d="M246.64,317.24c0-1.9,1.28-3.07,2.62-3.07,1.49,0,2.33,1.07,2.33,2.74,0,.21-.02.42-.05.56h-3.93c.07,1.24.83,2.04,1.94,2.04.56,0,1.02-.18,1.45-.47l.35.65c-.51.33-1.13.6-1.92.6-1.55,0-2.79-1.14-2.79-3.05h0ZM250.72,316.76c0-1.17-.53-1.8-1.44-1.8-.82,0-1.55.66-1.67,1.8h3.11Z"/>
    <path class="st15" d="M253.03,314.31h.81l.08,1.06h.03c.41-.74,1-1.21,1.66-1.21.26,0,.44.03.62.12l-.18.87c-.2-.06-.33-.1-.57-.1-.49,0-1.08.35-1.47,1.34v3.74h-.99v-5.83h.01Z"/>
    <path class="st15" d="M257.01,312.48c0-.39.3-.64.68-.64s.68.25.68.64-.3.64-.68.64-.68-.26-.68-.64ZM257.19,314.31h.99v5.83h-.99v-5.83Z"/>
    <path class="st15" d="M259.71,317.24c0-1.95,1.31-3.07,2.8-3.07.77,0,1.3.32,1.71.68l-.5.65c-.34-.31-.7-.51-1.16-.51-1.06,0-1.83.91-1.83,2.25s.73,2.23,1.8,2.23c.53,0,1.01-.26,1.37-.58l.43.66c-.52.47-1.19.74-1.88.74-1.55,0-2.73-1.12-2.73-3.05h0Z"/>
    <path class="st15" d="M265.13,318.63c0-1.27,1.1-1.91,3.58-2.17,0-.75-.25-1.47-1.2-1.47-.67,0-1.28.32-1.74.62l-.39-.68c.54-.35,1.35-.76,2.29-.76,1.42,0,2.02.95,2.02,2.4v3.58h-.81l-.08-.7h-.03c-.56.46-1.2.84-1.93.84-.98,0-1.71-.61-1.71-1.66ZM268.71,318.72v-1.62c-1.95.24-2.61.71-2.61,1.46,0,.66.45.93,1.02.93s1.03-.27,1.59-.77Z"/>
    <path class="st15" d="M271.54,314.31h.81l.08.84h.03c.56-.55,1.16-.98,1.96-.98,1.23,0,1.78.79,1.78,2.28v3.69h-.99v-3.57c0-1.09-.33-1.55-1.1-1.55-.6,0-1.01.3-1.59.9v4.22h-.99v-5.83h.01Z"/>
    <path class="st15" d="M280.14,316.21c0-2.54,1.5-4.09,3.49-4.09.96,0,1.7.46,2.17.97l-.55.65c-.41-.44-.93-.74-1.6-.74-1.49,0-2.48,1.22-2.48,3.18s.94,3.22,2.44,3.22c.75,0,1.32-.33,1.82-.88l.55.63c-.62.72-1.39,1.14-2.41,1.14-1.96,0-3.43-1.52-3.43-4.07h0Z"/>
    <path class="st15" d="M286.93,317.24c0-1.95,1.27-3.07,2.7-3.07s2.7,1.12,2.7,3.07-1.27,3.05-2.7,3.05-2.7-1.12-2.7-3.05ZM291.31,317.24c0-1.34-.68-2.25-1.68-2.25s-1.68.91-1.68,2.25.68,2.23,1.68,2.23,1.68-.89,1.68-2.23Z"/>
    <path class="st15" d="M293.86,314.31h.81l.08.85h.03c.51-.55,1.12-.99,1.81-.99.89,0,1.37.43,1.61,1.11.61-.66,1.21-1.11,1.92-1.11,1.2,0,1.77.79,1.77,2.28v3.69h-.99v-3.57c0-1.09-.34-1.55-1.08-1.55-.45,0-.92.3-1.46.9v4.22h-.99v-3.57c0-1.09-.34-1.55-1.08-1.55-.44,0-.92.3-1.46.9v4.22h-.99v-5.83h.02Z"/>
    <path class="st15" d="M303.81,314.31h.81l.08.85h.03c.51-.55,1.12-.99,1.81-.99.89,0,1.37.43,1.61,1.11.61-.66,1.21-1.11,1.92-1.11,1.2,0,1.77.79,1.77,2.28v3.69h-.99v-3.57c0-1.09-.34-1.55-1.08-1.55-.45,0-.92.3-1.46.9v4.22h-.99v-3.57c0-1.09-.34-1.55-1.08-1.55-.44,0-.92.3-1.46.9v4.22h-.99v-5.83h.02Z"/>
    <path class="st15" d="M313.68,318.01v-3.69h.99v3.57c0,1.09.33,1.55,1.1,1.55.6,0,1.01-.29,1.56-.98v-4.13h.99v5.83h-.82l-.08-.91h-.03c-.54.64-1.12,1.06-1.92,1.06-1.23,0-1.78-.79-1.78-2.28v-.02Z"/>
    <path class="st15" d="M320.29,314.31h.81l.08.84h.03c.56-.55,1.16-.98,1.96-.98,1.23,0,1.78.79,1.78,2.28v3.69h-.99v-3.57c0-1.09-.33-1.55-1.1-1.55-.6,0-1.01.3-1.59.9v4.22h-.99v-5.83h.01Z"/>
    <path class="st15" d="M326.67,312.48c0-.39.3-.64.68-.64s.68.25.68.64-.3.64-.68.64-.68-.26-.68-.64ZM326.85,314.31h.99v5.83h-.99v-5.83Z"/>
    <path class="st15" d="M329.97,318.34v-3.22h-.87v-.75l.91-.06.12-1.63h.82v1.63h1.58v.8h-1.58v3.24c0,.71.23,1.12.9,1.12.21,0,.47-.08.66-.16l.19.74c-.33.11-.72.22-1.08.22-1.24,0-1.66-.79-1.66-1.95v.02Z"/>
    <path class="st15" d="M333.27,322.54l.19-.79c.12.04.29.09.44.09.66,0,1.07-.53,1.31-1.25l.13-.43-2.34-5.84h1.02l1.19,3.23c.18.51.38,1.1.57,1.64h.05c.17-.53.33-1.13.49-1.64l1.04-3.23h.97l-2.2,6.31c-.41,1.16-1.01,2.03-2.18,2.03-.27,0-.5-.05-.68-.12h0Z"/>
    <path class="st15" d="M341.38,319.12l.6-.69c.57.59,1.35.98,2.17.98,1.03,0,1.65-.51,1.65-1.28s-.57-1.06-1.31-1.38l-1.13-.5c-.73-.31-1.59-.87-1.59-2.03s1.05-2.09,2.48-2.09c.93,0,1.76.4,2.32.98l-.53.64c-.48-.46-1.06-.74-1.79-.74-.88,0-1.47.45-1.47,1.15,0,.76.69,1.04,1.3,1.3l1.12.49c.91.39,1.62.93,1.62,2.1,0,1.24-1.03,2.24-2.68,2.24-1.1,0-2.07-.45-2.75-1.17h-.01Z"/>
    <path class="st15" d="M348.19,318.01v-3.69h.99v3.57c0,1.09.33,1.55,1.1,1.55.6,0,1.01-.29,1.56-.98v-4.13h.99v5.83h-.82l-.08-.91h-.03c-.54.64-1.12,1.06-1.92,1.06-1.23,0-1.78-.79-1.78-2.28v-.02Z"/>
    <path class="st15" d="M354.8,314.31h.82l.08,1.06h.03c.41-.74,1-1.21,1.66-1.21.26,0,.44.03.62.12l-.18.87c-.2-.06-.33-.1-.57-.1-.49,0-1.08.35-1.47,1.34v3.74h-.99v-5.83h0Z"/>
    <path class="st15" d="M358.42,314.31h1.02l1.1,3.31c.17.57.36,1.16.54,1.72h.05c.17-.56.36-1.15.54-1.72l1.1-3.31h.97l-2.06,5.83h-1.15l-2.1-5.83h-.01Z"/>
    <path class="st15" d="M364.38,317.24c0-1.9,1.28-3.07,2.62-3.07,1.49,0,2.33,1.07,2.33,2.74,0,.21-.02.42-.05.56h-3.93c.07,1.24.83,2.04,1.94,2.04.56,0,1.02-.18,1.45-.47l.35.65c-.51.33-1.13.6-1.92.6-1.55,0-2.79-1.14-2.79-3.05h0ZM368.46,316.76c0-1.17-.53-1.8-1.44-1.8-.82,0-1.55.66-1.67,1.8h3.11Z"/>
    <path class="st15" d="M370.24,322.54l.19-.79c.12.04.29.09.44.09.66,0,1.07-.53,1.31-1.25l.13-.43-2.34-5.84h1.02l1.19,3.23c.18.51.38,1.1.57,1.64h.05c.17-.53.33-1.13.49-1.64l1.04-3.23h.97l-2.2,6.31c-.41,1.16-1.01,2.03-2.18,2.03-.27,0-.5-.05-.68-.12h0Z"/>
    <path class="st15" d="M378.33,319.56c2.3-2.29,3.6-3.67,3.6-4.91,0-.87-.47-1.49-1.45-1.49-.64,0-1.19.41-1.63.92l-.57-.56c.64-.7,1.33-1.16,2.32-1.16,1.41,0,2.3.89,2.3,2.25,0,1.44-1.32,2.86-3.12,4.76.41-.03.89-.07,1.29-.07h2.21v.85h-4.94v-.58h0Z"/>
    <path class="st15" d="M384.34,316.29c0-2.56.92-3.94,2.45-3.94s2.45,1.38,2.45,3.94-.92,4-2.45,4-2.45-1.43-2.45-4ZM388.29,316.29c0-2.24-.6-3.14-1.49-3.14s-1.49.9-1.49,3.14.6,3.2,1.49,3.2,1.49-.96,1.49-3.2Z"/>
    <path class="st15" d="M390.25,319.56c2.3-2.29,3.6-3.67,3.6-4.91,0-.87-.47-1.49-1.45-1.49-.64,0-1.19.41-1.63.92l-.57-.56c.64-.7,1.33-1.16,2.32-1.16,1.41,0,2.3.89,2.3,2.25,0,1.44-1.32,2.86-3.12,4.76.41-.03.89-.07,1.29-.07h2.21v.85h-4.94v-.58h0Z"/>
    <path class="st15" d="M396.27,316.29c0-2.56.92-3.94,2.45-3.94s2.45,1.38,2.45,3.94-.92,4-2.45,4-2.45-1.43-2.45-4ZM400.22,316.29c0-2.24-.6-3.14-1.49-3.14s-1.49.9-1.49,3.14.6,3.2,1.49,3.2,1.49-.96,1.49-3.2Z"/>
    <path class="st15" d="M402.2,316.78h4.76v.69h-4.76v-.69Z"/>
    <path class="st15" d="M407.86,319.56c2.3-2.29,3.6-3.67,3.6-4.91,0-.87-.47-1.49-1.45-1.49-.64,0-1.19.41-1.63.92l-.57-.56c.64-.7,1.33-1.16,2.32-1.16,1.41,0,2.29.89,2.29,2.25,0,1.44-1.32,2.86-3.12,4.76.41-.03.89-.07,1.29-.07h2.21v.85h-4.94v-.58h0Z"/>
    <path class="st15" d="M413.87,316.29c0-2.56.92-3.94,2.45-3.94s2.45,1.38,2.45,3.94-.92,4-2.45,4-2.45-1.43-2.45-4ZM417.82,316.29c0-2.24-.61-3.14-1.49-3.14s-1.49.9-1.49,3.14.6,3.2,1.49,3.2,1.49-.96,1.49-3.2Z"/>
    <path class="st15" d="M419.79,319.56c2.3-2.29,3.6-3.67,3.6-4.91,0-.87-.47-1.49-1.45-1.49-.64,0-1.19.41-1.63.92l-.57-.56c.64-.7,1.33-1.16,2.32-1.16,1.41,0,2.29.89,2.29,2.25,0,1.44-1.32,2.86-3.12,4.76.41-.03.89-.07,1.29-.07h2.21v.85h-4.94v-.58h0Z"/>
    <path class="st15" d="M428.92,315.02c0-.4.03-1.06.06-1.47h-.05c-.19.37-.41.7-.62,1.08l-1.79,2.61h4.38v.79h-5.41v-.65l3.27-4.89h1.1v7.65h-.93v-5.13h-.01Z"/>
    <path class="st15" d="M434.62,316.81c0-2.11.59-3.84,1.58-5.45l.61.29c-.92,1.53-1.38,3.34-1.38,5.16s.45,3.63,1.38,5.16l-.61.29c-.99-1.61-1.58-3.34-1.58-5.45Z"/>
    <path class="st15" d="M437.57,319.24l.49-.64c.46.45,1.03.87,1.93.87s1.67-.68,1.67-1.74-.64-1.68-1.62-1.68c-.53,0-.86.16-1.31.47l-.52-.33.25-3.68h3.83v.85h-2.96l-.2,2.27c.35-.19.7-.32,1.17-.32,1.3,0,2.37.74,2.37,2.4s-1.25,2.59-2.58,2.59c-1.23,0-1.98-.52-2.52-1.05h0Z"/>
    <path class="st15" d="M443.73,316.76h2.75v.76h-2.75v-.76Z"/>
    <path class="st15" d="M447.37,322.54l.19-.79c.12.04.29.09.44.09.66,0,1.07-.53,1.31-1.25l.13-.43-2.34-5.84h1.02l1.19,3.23c.18.51.38,1.1.57,1.64h.05c.17-.53.33-1.13.49-1.64l1.04-3.23h.97l-2.2,6.31c-.41,1.16-1.01,2.03-2.18,2.03-.27,0-.5-.05-.68-.12h0Z"/>
    <path class="st15" d="M453.08,317.24c0-1.9,1.28-3.07,2.62-3.07,1.49,0,2.33,1.07,2.33,2.74,0,.21-.02.42-.05.56h-3.93c.07,1.24.83,2.04,1.94,2.04.56,0,1.02-.18,1.45-.47l.35.65c-.51.33-1.13.6-1.92.6-1.55,0-2.79-1.14-2.79-3.05h0ZM457.15,316.76c0-1.17-.53-1.8-1.44-1.8-.82,0-1.55.66-1.67,1.8h3.11Z"/>
    <path class="st15" d="M458.93,318.63c0-1.27,1.1-1.91,3.58-2.17,0-.75-.25-1.47-1.2-1.47-.67,0-1.28.32-1.74.62l-.39-.68c.54-.35,1.35-.76,2.29-.76,1.42,0,2.02.95,2.02,2.4v3.58h-.81l-.08-.7h-.03c-.55.46-1.2.84-1.93.84-.97,0-1.71-.61-1.71-1.66ZM462.51,318.72v-1.62c-1.95.24-2.61.71-2.61,1.46,0,.66.45.93,1.02.93s1.03-.27,1.59-.77Z"/>
    <path class="st15" d="M465.34,314.31h.82l.08,1.06h.03c.41-.74,1-1.21,1.66-1.21.26,0,.44.03.62.12l-.18.87c-.2-.06-.33-.1-.57-.1-.49,0-1.08.35-1.47,1.34v3.74h-.99v-5.83h0Z"/>
    <path class="st15" d="M471.47,317.24c0-1.9,1.28-3.07,2.62-3.07,1.49,0,2.33,1.07,2.33,2.74,0,.21-.02.42-.05.56h-3.93c.07,1.24.83,2.04,1.94,2.04.56,0,1.02-.18,1.45-.47l.35.65c-.51.33-1.13.6-1.93.6-1.55,0-2.79-1.14-2.79-3.05h0ZM475.55,316.76c0-1.17-.53-1.8-1.44-1.8-.82,0-1.55.66-1.67,1.8h3.11Z"/>
    <path class="st15" d="M477.21,319.48l.49-.65c.51.41,1.02.69,1.72.69.77,0,1.15-.41,1.15-.91,0-.6-.69-.87-1.33-1.1-.82-.3-1.74-.7-1.74-1.68s.75-1.65,2.01-1.65c.73,0,1.36.3,1.81.66l-.47.63c-.4-.3-.81-.52-1.33-.52-.73,0-1.07.39-1.07.84,0,.55.63.76,1.29,1.01.84.32,1.78.66,1.78,1.77,0,.95-.75,1.73-2.13,1.73-.83,0-1.63-.35-2.18-.81h0Z"/>
    <path class="st15" d="M482.82,318.34v-3.22h-.87v-.75l.91-.06.12-1.63h.82v1.63h1.58v.8h-1.58v3.24c0,.71.23,1.12.9,1.12.21,0,.47-.08.66-.16l.19.74c-.33.11-.72.22-1.08.22-1.24,0-1.66-.79-1.66-1.95v.02Z"/>
    <path class="st15" d="M486.52,312.48c0-.39.3-.64.68-.64s.68.25.68.64-.3.64-.68.64-.68-.26-.68-.64ZM486.7,314.31h.99v5.83h-.99v-5.83Z"/>
    <path class="st15" d="M489.65,314.31h.81l.08.85h.03c.51-.55,1.12-.99,1.81-.99.89,0,1.37.43,1.61,1.11.61-.66,1.21-1.11,1.92-1.11,1.2,0,1.77.79,1.77,2.28v3.69h-.99v-3.57c0-1.09-.34-1.55-1.08-1.55-.45,0-.92.3-1.46.9v4.22h-.99v-3.57c0-1.09-.34-1.55-1.08-1.55-.44,0-.92.3-1.46.9v4.22h-.99v-5.83h.02Z"/>
    <path class="st15" d="M499.24,318.63c0-1.27,1.1-1.91,3.58-2.17,0-.75-.25-1.47-1.2-1.47-.67,0-1.28.32-1.74.62l-.39-.68c.54-.35,1.35-.76,2.29-.76,1.42,0,2.02.95,2.02,2.4v3.58h-.82l-.08-.7h-.03c-.56.46-1.21.84-1.93.84-.98,0-1.71-.61-1.71-1.66h.01ZM502.82,318.72v-1.62c-1.95.24-2.61.71-2.61,1.46,0,.66.45.93,1.02.93s1.03-.27,1.59-.77Z"/>
    <path class="st15" d="M505.65,318.34v-3.22h-.87v-.75l.91-.06.12-1.63h.82v1.63h1.58v.8h-1.58v3.24c0,.71.23,1.12.9,1.12.21,0,.47-.08.66-.16l.19.74c-.33.11-.72.22-1.08.22-1.24,0-1.66-.79-1.66-1.95v.02Z"/>
    <path class="st15" d="M508.93,317.24c0-1.9,1.28-3.07,2.62-3.07,1.49,0,2.33,1.07,2.33,2.74,0,.21-.02.42-.05.56h-3.93c.07,1.24.83,2.04,1.94,2.04.56,0,1.02-.18,1.45-.47l.35.65c-.51.33-1.13.6-1.92.6-1.55,0-2.79-1.14-2.79-3.05h0ZM513.01,316.76c0-1.17-.53-1.8-1.44-1.8-.82,0-1.55.66-1.67,1.8h3.11Z"/>
    <path class="st15" d="M514.67,319.48l.49-.65c.51.41,1.02.69,1.72.69.77,0,1.15-.41,1.15-.91,0-.6-.69-.87-1.33-1.1-.82-.3-1.74-.7-1.74-1.68s.75-1.65,2.01-1.65c.73,0,1.36.3,1.81.66l-.47.63c-.4-.3-.81-.52-1.33-.52-.73,0-1.07.39-1.07.84,0,.55.63.76,1.29,1.01.84.32,1.78.66,1.78,1.77,0,.95-.75,1.73-2.13,1.73-.83,0-1.63-.35-2.17-.81h-.01Z"/>
    <path class="st15" d="M519.82,321.97c.92-1.53,1.38-3.34,1.38-5.16s-.45-3.63-1.38-5.16l.61-.29c.99,1.61,1.58,3.34,1.58,5.45s-.59,3.84-1.58,5.45l-.61-.29Z"/>
    <path class="st15" d="M523.78,319.54c0-.45.32-.76.71-.76s.71.31.71.76-.32.75-.71.75-.71-.31-.71-.75Z"/>
  </g>
</svg>