<?xml version="1.0" encoding="UTF-8"?>
<svg id="exportSvg" xmlns="http://www.w3.org/2000/svg" version="1.1" viewBox="0 0 604.28 224.56">
  <!-- Generator: Adobe Illustrator 30.6.0, SVG Export Plug-In . SVG Version: 2.1.4 Build 109)  -->
  <defs>
    <style>
      .st0 {
        font-family: ArialMT, Arial;
      }

      .st0, .st1, .st2 {
        isolation: isolate;
      }

      .st0, .st2 {
        fill: #fff;
        font-size: 12px;
      }

      .st3 {
        fill: #231f20;
      }

      .st4 {
        fill: #ddd;
      }

      .st2 {
        font-family: Arial-BoldMT, Arial;
        font-weight: 700;
      }

      .st5 {
        fill: #9085b2;
      }

      .st6 {
        fill: #adacaf;
      }

      .st7 {
        fill: #181818;
      }
    </style>
  </defs>
  <g class="st1">
    <path class="st7" d="M3.06,68.07h1v3.3h3.66v-3.3h1v7.87h-1v-3.7h-3.66v3.7h-1s0-7.87,0-7.87Z"/>
    <path class="st7" d="M10.62,68.28c0-.39.3-.64.68-.64s.68.25.68.64-.3.64-.68.64-.68-.26-.68-.64ZM10.8,70.11h.99v5.83h-.99v-5.83Z"/>
    <path class="st7" d="M13.31,77.06c0-.5.32-.97.85-1.32v-.05c-.3-.19-.52-.5-.52-.96s.34-.87.64-1.08v-.05c-.39-.3-.75-.87-.75-1.57,0-1.27,1-2.08,2.19-2.08.32,0,.61.06.82.14h2.03v.76h-1.2c.28.26.47.7.47,1.2,0,1.25-.94,2.02-2.13,2.02-.28,0-.6-.07-.87-.2-.21.18-.37.37-.37.69,0,.37.24.63,1.02.63h1.13c1.36,0,2.04.43,2.04,1.39,0,1.08-1.15,2.02-2.95,2.02-1.43,0-2.41-.56-2.41-1.56v.02ZM17.7,76.76c0-.54-.41-.72-1.18-.72h-1.01c-.22,0-.5-.02-.76-.09-.42.29-.59.64-.59.98,0,.63.63,1.02,1.69,1.02s1.84-.58,1.84-1.19h.01ZM16.95,72.04c0-.85-.55-1.36-1.24-1.36s-1.24.51-1.24,1.36.57,1.39,1.24,1.39,1.24-.54,1.24-1.39Z"/>
    <path class="st7" d="M19.8,67.4h.99v2.34l-.04,1.2c.54-.53,1.13-.96,1.94-.96,1.23,0,1.78.79,1.78,2.28v3.69h-.99v-3.57c0-1.09-.33-1.55-1.1-1.55-.6,0-1.01.3-1.59.9v4.22h-.99v-8.54h0Z"/>
    <path class="st7" d="M25.89,73.04c0-1.9,1.28-3.07,2.62-3.07,1.49,0,2.33,1.07,2.33,2.74,0,.21-.02.42-.05.56h-3.93c.07,1.24.83,2.04,1.94,2.04.56,0,1.02-.18,1.45-.47l.35.65c-.51.33-1.13.6-1.92.6-1.55,0-2.79-1.14-2.79-3.05ZM29.97,72.56c0-1.17-.53-1.8-1.44-1.8-.82,0-1.55.66-1.67,1.8h3.11Z"/>
    <path class="st7" d="M31.63,75.28l.49-.65c.51.41,1.02.69,1.72.69.77,0,1.15-.41,1.15-.91,0-.6-.69-.87-1.33-1.1-.82-.3-1.74-.7-1.74-1.68s.75-1.65,2.01-1.65c.73,0,1.36.3,1.81.66l-.47.63c-.4-.3-.81-.52-1.33-.52-.73,0-1.07.39-1.07.84,0,.55.63.76,1.29,1.01.84.32,1.78.66,1.78,1.77,0,.95-.75,1.73-2.13,1.73-.83,0-1.63-.35-2.18-.81h0Z"/>
    <path class="st7" d="M37.24,74.14v-3.22h-.87v-.75l.91-.06.12-1.63h.82v1.63h1.58v.8h-1.58v3.24c0,.71.23,1.12.9,1.12.21,0,.48-.08.66-.16l.19.74c-.33.11-.72.22-1.08.22-1.24,0-1.66-.79-1.66-1.95v.02Z"/>
    <path class="st7" d="M43.34,68.28c0-.39.3-.64.68-.64s.68.25.68.64-.3.64-.68.64-.68-.26-.68-.64ZM43.52,70.11h.99v5.83h-.99v-5.83Z"/>
    <path class="st7" d="M46.47,70.11h.81l.08.84h.03c.56-.55,1.16-.98,1.96-.98,1.23,0,1.78.79,1.78,2.28v3.69h-.99v-3.57c0-1.09-.33-1.55-1.1-1.55-.6,0-1.01.3-1.59.9v4.22h-.99v-5.83h.01Z"/>
    <path class="st7" d="M52.6,73.04c0-1.95,1.31-3.07,2.8-3.07.77,0,1.3.32,1.71.68l-.5.65c-.34-.31-.7-.51-1.16-.51-1.06,0-1.83.91-1.83,2.25s.73,2.23,1.8,2.23c.53,0,1.01-.26,1.37-.58l.43.66c-.52.47-1.19.74-1.88.74-1.55,0-2.73-1.12-2.73-3.05h0Z"/>
    <path class="st7" d="M57.82,73.04c0-1.95,1.27-3.07,2.7-3.07s2.7,1.12,2.7,3.07-1.27,3.05-2.7,3.05-2.7-1.12-2.7-3.05ZM62.21,73.04c0-1.34-.68-2.25-1.68-2.25s-1.68.91-1.68,2.25.68,2.23,1.68,2.23,1.68-.89,1.68-2.23Z"/>
    <path class="st7" d="M64.76,70.11h.81l.08.85h.03c.51-.55,1.12-.99,1.81-.99.89,0,1.37.43,1.61,1.11.61-.66,1.21-1.11,1.92-1.11,1.2,0,1.77.79,1.77,2.28v3.69h-.99v-3.57c0-1.09-.34-1.55-1.08-1.55-.45,0-.92.3-1.46.9v4.22h-.99v-3.57c0-1.09-.34-1.55-1.08-1.55-.44,0-.92.3-1.46.9v4.22h-.99v-5.83h.02Z"/>
    <path class="st7" d="M74.27,73.04c0-1.9,1.28-3.07,2.62-3.07,1.49,0,2.33,1.07,2.33,2.74,0,.21-.02.42-.05.56h-3.93c.07,1.24.83,2.04,1.94,2.04.56,0,1.02-.18,1.45-.47l.35.65c-.51.33-1.13.6-1.92.6-1.55,0-2.79-1.14-2.79-3.05ZM78.35,72.56c0-1.17-.53-1.8-1.44-1.8-.82,0-1.55.66-1.67,1.8h3.11Z"/>
  </g>
  <rect class="st4" x="132.4" y="58.68" width="445.34" height="27"/>
  <g class="st1">
    <path class="st7" d="M1.99,140.2h1v7.02h3.44v.85H1.99v-7.87h0Z"/>
    <path class="st7" d="M7.15,145.17c0-1.95,1.27-3.07,2.7-3.07s2.7,1.12,2.7,3.07-1.27,3.05-2.7,3.05-2.7-1.12-2.7-3.05ZM11.54,145.17c0-1.34-.68-2.25-1.68-2.25s-1.68.91-1.68,2.25.68,2.23,1.68,2.23,1.68-.89,1.68-2.23Z"/>
    <path class="st7" d="M13.34,142.24h1.01l.87,3.37c.13.55.23,1.08.35,1.62h.05c.13-.55.25-1.08.4-1.62l.9-3.37h.96l.91,3.37c.14.55.27,1.08.41,1.62h.05c.13-.55.23-1.07.36-1.62l.85-3.37h.94l-1.56,5.83h-1.2l-.84-3.13c-.14-.55-.25-1.09-.39-1.68h-.05c-.13.59-.24,1.14-.4,1.69l-.82,3.12h-1.15l-1.62-5.83h-.03Z"/>
    <path class="st7" d="M22.18,145.17c0-1.9,1.28-3.07,2.62-3.07,1.49,0,2.33,1.07,2.33,2.74,0,.21-.02.42-.05.56h-3.93c.07,1.24.83,2.04,1.94,2.04.56,0,1.02-.18,1.45-.47l.35.65c-.51.33-1.13.6-1.92.6-1.55,0-2.79-1.14-2.79-3.05h0ZM26.25,144.69c0-1.17-.53-1.8-1.44-1.8-.82,0-1.55.66-1.67,1.8h3.11Z"/>
    <path class="st7" d="M28.56,142.24h.81l.08,1.06h.03c.41-.74,1-1.21,1.66-1.21.26,0,.44.03.62.12l-.18.87c-.2-.06-.33-.1-.57-.1-.49,0-1.08.35-1.47,1.34v3.74h-.99v-5.83h.01Z"/>
    <path class="st7" d="M31.95,144.69h2.75v.76h-2.75v-.76Z"/>
    <path class="st7" d="M36.17,142.24h.81l.08.85h.03c.51-.55,1.12-.99,1.81-.99.89,0,1.37.43,1.61,1.11.61-.66,1.21-1.11,1.92-1.11,1.2,0,1.77.79,1.77,2.28v3.69h-.99v-3.57c0-1.09-.34-1.55-1.08-1.55-.45,0-.92.3-1.46.9v4.22h-.99v-3.57c0-1.09-.34-1.55-1.08-1.55-.44,0-.92.3-1.46.9v4.22h-.99v-5.83h.02Z"/>
    <path class="st7" d="M45.94,140.41c0-.39.3-.64.68-.64s.68.25.68.64-.3.64-.68.64-.68-.26-.68-.64ZM46.12,142.24h.99v5.83h-.99v-5.83Z"/>
    <path class="st7" d="M48.65,145.17c0-1.89,1.19-3.07,2.52-3.07.68,0,1.12.25,1.63.67l-.04-1v-2.25h.99v8.54h-.81l-.08-.69h-.03c-.45.45-1.07.83-1.77.83-1.46,0-2.4-1.11-2.4-3.05v.02ZM52.77,146.59v-3.06c-.5-.44-.95-.61-1.42-.61-.93,0-1.67.9-1.67,2.23,0,1.4.58,2.23,1.6,2.23.54,0,1.01-.26,1.5-.79h-.01Z"/>
    <path class="st7" d="M55.31,145.17c0-1.89,1.19-3.07,2.52-3.07.68,0,1.12.25,1.63.67l-.04-1v-2.25h.99v8.54h-.81l-.08-.69h-.03c-.45.45-1.07.83-1.77.83-1.46,0-2.4-1.11-2.4-3.05v.02ZM59.43,146.59v-3.06c-.5-.44-.95-.61-1.42-.61-.93,0-1.67.9-1.67,2.23,0,1.4.58,2.23,1.6,2.23.54,0,1.01-.26,1.5-.79h-.01Z"/>
    <path class="st7" d="M62.39,146.9v-7.37h.99v7.45c0,.3.13.42.27.42.06,0,.1,0,.22-.02l.13.75c-.14.05-.31.09-.57.09-.74,0-1.04-.47-1.04-1.31h0Z"/>
    <path class="st7" d="M65.01,145.17c0-1.9,1.28-3.07,2.62-3.07,1.49,0,2.33,1.07,2.33,2.74,0,.21-.02.42-.05.56h-3.93c.07,1.24.83,2.04,1.94,2.04.56,0,1.02-.18,1.45-.47l.35.65c-.51.33-1.13.6-1.92.6-1.55,0-2.79-1.14-2.79-3.05h0ZM69.09,144.69c0-1.17-.53-1.8-1.44-1.8-.82,0-1.55.66-1.67,1.8h3.11Z"/>
    <path class="st7" d="M73.62,140.41c0-.39.3-.64.68-.64s.68.25.68.64-.3.64-.68.64-.68-.26-.68-.64ZM73.8,142.24h.99v5.83h-.99v-5.83Z"/>
    <path class="st7" d="M76.75,142.24h.81l.08.84h.03c.56-.55,1.16-.98,1.96-.98,1.23,0,1.78.79,1.78,2.28v3.69h-.99v-3.57c0-1.09-.33-1.55-1.1-1.55-.6,0-1.01.3-1.59.9v4.22h-.99v-5.83h0Z"/>
    <path class="st7" d="M82.88,145.17c0-1.95,1.31-3.07,2.8-3.07.77,0,1.3.32,1.71.68l-.5.65c-.34-.31-.7-.51-1.16-.51-1.06,0-1.83.91-1.83,2.25s.73,2.23,1.8,2.23c.53,0,1.01-.26,1.37-.58l.43.66c-.52.47-1.19.74-1.88.74-1.55,0-2.73-1.12-2.73-3.05h-.01Z"/>
    <path class="st7" d="M88.1,145.17c0-1.95,1.27-3.07,2.7-3.07s2.7,1.12,2.7,3.07-1.27,3.05-2.7,3.05-2.7-1.12-2.7-3.05ZM92.49,145.17c0-1.34-.68-2.25-1.68-2.25s-1.68.91-1.68,2.25.68,2.23,1.68,2.23,1.68-.89,1.68-2.23Z"/>
    <path class="st7" d="M95.04,142.24h.81l.08.85h.03c.51-.55,1.12-.99,1.81-.99.89,0,1.37.43,1.61,1.11.61-.66,1.21-1.11,1.92-1.11,1.2,0,1.77.79,1.77,2.28v3.69h-.99v-3.57c0-1.09-.34-1.55-1.08-1.55-.45,0-.92.3-1.46.9v4.22h-.99v-3.57c0-1.09-.34-1.55-1.08-1.55-.44,0-.92.3-1.46.9v4.22h-.99v-5.83h.02Z"/>
    <path class="st7" d="M104.55,145.17c0-1.9,1.28-3.07,2.62-3.07,1.49,0,2.33,1.07,2.33,2.74,0,.21-.02.42-.05.56h-3.93c.07,1.24.83,2.04,1.94,2.04.56,0,1.02-.18,1.45-.47l.35.65c-.51.33-1.13.6-1.92.6-1.55,0-2.79-1.14-2.79-3.05h0ZM108.63,144.69c0-1.17-.53-1.8-1.44-1.8-.82,0-1.55.66-1.67,1.8h3.11Z"/>
  </g>
  <rect class="st4" x="132" y="130.82" width="444.38" height="27"/>
  <g class="st1">
    <path class="st7" d="M2.91,176.32h1.77v6.33h3.09v1.48H2.91v-7.82h0Z"/>
    <path class="st7" d="M8.47,181.17c0-1.98,1.39-3.12,2.9-3.12s2.9,1.14,2.9,3.12-1.39,3.12-2.9,3.12-2.9-1.14-2.9-3.12ZM12.46,181.17c0-1.03-.36-1.7-1.09-1.7s-1.09.67-1.09,1.7.36,1.69,1.09,1.69,1.09-.66,1.09-1.69Z"/>
    <path class="st7" d="M14.89,178.19h1.75l.57,2.75c.1.59.17,1.17.27,1.77h.05c.1-.6.21-1.2.35-1.77l.65-2.75h1.53l.67,2.75c.14.59.25,1.17.37,1.77h.05c.1-.6.17-1.18.27-1.77l.57-2.75h1.63l-1.42,5.95h-2.06l-.55-2.38c-.11-.55-.21-1.1-.32-1.74h-.05c-.1.64-.19,1.19-.3,1.74l-.52,2.37h-2.02l-1.49-5.95h0Z"/>
    <path class="st7" d="M24.25,181.17c0-1.93,1.38-3.12,2.81-3.12,1.69,0,2.53,1.23,2.53,2.86,0,.32-.04.63-.07.78h-3.56c.16.86.75,1.26,1.54,1.26.45,0,.85-.14,1.29-.39l.58,1.06c-.61.42-1.41.67-2.11.67-1.7,0-3.01-1.15-3.01-3.12ZM28.08,180.52c0-.65-.28-1.12-.99-1.12-.56,0-1.04.37-1.16,1.12h2.15Z"/>
    <path class="st7" d="M30.28,183.45l.79-1.1c.54.41,1.04.62,1.54.62s.75-.2.75-.51c0-.39-.59-.57-1.2-.81-.73-.28-1.57-.77-1.57-1.75,0-1.11.9-1.86,2.27-1.86.91,0,1.59.37,2.1.75l-.79,1.06c-.42-.31-.84-.51-1.25-.51-.46,0-.68.18-.68.48,0,.38.56.52,1.17.75.75.28,1.6.7,1.6,1.79s-.85,1.92-2.44,1.92c-.78,0-1.68-.34-2.28-.83h0Z"/>
    <path class="st7" d="M36.12,181.98v-2.4h-.81v-1.32l.91-.07.21-1.58h1.46v1.58h1.43v1.38h-1.43v2.38c0,.67.31.95.77.95.2,0,.41-.06.57-.11l.28,1.28c-.32.1-.75.22-1.32.22-1.47,0-2.06-.93-2.06-2.31h0Z"/>
    <path class="st7" d="M42.74,176.4c0-.54.43-.92,1.02-.92s1.02.38,1.02.92-.43.92-1.02.92-1.02-.39-1.02-.92ZM42.88,178.19h1.76v5.95h-1.76v-5.95Z"/>
    <path class="st7" d="M46.19,178.19h1.44l.13.75h.04c.5-.48,1.1-.9,1.91-.9,1.29,0,1.85.91,1.85,2.4v3.69h-1.76v-3.47c0-.86-.23-1.12-.74-1.12-.44,0-.71.21-1.1.58v4.01h-1.76v-5.95h-.01Z"/>
    <path class="st7" d="M52.71,181.17c0-1.98,1.46-3.12,3.1-3.12.73,0,1.3.26,1.74.64l-.83,1.13c-.29-.24-.52-.35-.81-.35-.85,0-1.39.67-1.39,1.7s.57,1.69,1.33,1.69c.39,0,.76-.19,1.07-.44l.69,1.15c-.58.51-1.32.71-1.96.71-1.66,0-2.94-1.14-2.94-3.12h0Z"/>
    <path class="st7" d="M57.98,181.17c0-1.98,1.39-3.12,2.9-3.12s2.9,1.14,2.9,3.12-1.39,3.12-2.9,3.12-2.9-1.14-2.9-3.12ZM61.97,181.17c0-1.03-.36-1.7-1.09-1.7s-1.09.67-1.09,1.7.36,1.69,1.09,1.69,1.09-.66,1.09-1.69Z"/>
    <path class="st7" d="M64.98,178.19h1.44l.13.76h.04c.49-.49,1.02-.91,1.8-.91.84,0,1.34.36,1.64,1,.52-.55,1.08-1,1.87-1,1.29,0,1.86.91,1.86,2.4v3.69h-1.76v-3.47c0-.86-.23-1.12-.73-1.12-.3,0-.64.19-1.01.58v4.01h-1.76v-3.47c0-.86-.23-1.12-.73-1.12-.29,0-.64.19-1.01.58v4.01h-1.76v-5.95h-.02Z"/>
    <path class="st7" d="M74.92,181.17c0-1.93,1.38-3.12,2.81-3.12,1.69,0,2.53,1.23,2.53,2.86,0,.32-.04.63-.07.78h-3.56c.16.86.75,1.26,1.54,1.26.45,0,.85-.14,1.29-.39l.58,1.06c-.61.42-1.41.67-2.11.67-1.7,0-3.01-1.15-3.01-3.12ZM78.76,180.52c0-.65-.28-1.12-.99-1.12-.56,0-1.04.37-1.16,1.12h2.15Z"/>
  </g>
  <rect class="st5" x="130.75" y="166.88" width="473.53" height="27"/>
  <g class="st1">
    <text class="st0" transform="translate(552.65 75.94)"><tspan x="0" y="0">41k</tspan></text>
  </g>
  <g class="st1">
    <text class="st0" transform="translate(549.76 148.22)"><tspan x="0" y="0">41k</tspan></text>
  </g>
  <g class="st1">
    <text class="st2" transform="translate(577.74 184.14)"><tspan x="0" y="0">44k</tspan></text>
  </g>
  <g class="st1">
    <path class="st7" d="M3.03,108.76v-4.62h1v4.65c0,1.89.8,2.49,1.83,2.49s1.87-.59,1.87-2.49v-4.65h.96v4.62c0,2.53-1.22,3.39-2.83,3.39s-2.83-.87-2.83-3.39Z"/>
    <path class="st7" d="M10.71,106.18h.81l.08.67h.03c.53-.44,1.18-.82,1.86-.82,1.51,0,2.31,1.17,2.31,2.97,0,1.99-1.19,3.15-2.52,3.15-.53,0-1.08-.25-1.62-.67l.03,1.02v1.97h-.99v-8.29h.01ZM14.79,109.01c0-1.29-.44-2.15-1.54-2.15-.49,0-.99.27-1.56.8v3.06c.53.44,1.03.61,1.42.61.96,0,1.68-.87,1.68-2.31h0Z"/>
    <path class="st7" d="M17.37,106.18h.81l.08.67h.03c.53-.44,1.18-.82,1.86-.82,1.51,0,2.31,1.17,2.31,2.97,0,1.99-1.19,3.15-2.52,3.15-.53,0-1.08-.25-1.62-.67l.03,1.02v1.97h-.99v-8.29h.01ZM21.45,109.01c0-1.29-.44-2.15-1.54-2.15-.49,0-.99.27-1.56.8v3.06c.53.44,1.03.61,1.42.61.96,0,1.68-.87,1.68-2.31h0Z"/>
    <path class="st7" d="M23.6,109.1c0-1.9,1.28-3.07,2.62-3.07,1.49,0,2.33,1.07,2.33,2.74,0,.21-.02.42-.05.56h-3.93c.07,1.24.83,2.04,1.94,2.04.56,0,1.02-.18,1.45-.47l.35.65c-.51.33-1.13.6-1.92.6-1.55,0-2.79-1.14-2.79-3.05ZM27.67,108.62c0-1.17-.53-1.8-1.44-1.8-.82,0-1.55.66-1.67,1.8h3.11Z"/>
    <path class="st7" d="M29.98,106.18h.81l.08,1.06h.03c.41-.74,1-1.21,1.66-1.21.26,0,.44.03.62.12l-.18.87c-.2-.06-.33-.1-.57-.1-.49,0-1.08.35-1.47,1.34v3.74h-.99v-5.83h0Z"/>
    <path class="st7" d="M33.37,108.62h2.75v.76h-2.75v-.76Z"/>
    <path class="st7" d="M37.59,106.18h.81l.08.85h.03c.51-.55,1.12-.99,1.81-.99.89,0,1.37.43,1.61,1.11.61-.66,1.21-1.11,1.92-1.11,1.2,0,1.77.79,1.77,2.28v3.69h-.99v-3.57c0-1.09-.34-1.55-1.08-1.55-.45,0-.92.3-1.46.9v4.22h-.99v-3.57c0-1.09-.34-1.55-1.08-1.55-.44,0-.92.3-1.46.9v4.22h-.99v-5.83h.02Z"/>
    <path class="st7" d="M47.36,104.34c0-.39.3-.64.68-.64s.68.25.68.64-.3.64-.68.64-.68-.26-.68-.64ZM47.54,106.18h.99v5.83h-.99v-5.83Z"/>
    <path class="st7" d="M50.08,109.1c0-1.89,1.19-3.07,2.52-3.07.68,0,1.12.25,1.63.67l-.04-1v-2.25h.99v8.54h-.81l-.08-.69h-.03c-.45.45-1.07.83-1.77.83-1.46,0-2.4-1.11-2.4-3.05v.02ZM54.19,110.53v-3.06c-.5-.44-.95-.61-1.42-.61-.93,0-1.67.9-1.67,2.23,0,1.4.58,2.23,1.6,2.23.54,0,1.01-.26,1.5-.79h-.01Z"/>
    <path class="st7" d="M56.74,109.1c0-1.89,1.19-3.07,2.52-3.07.68,0,1.12.25,1.63.67l-.04-1v-2.25h.99v8.54h-.81l-.08-.69h-.03c-.45.45-1.07.83-1.77.83-1.46,0-2.4-1.11-2.4-3.05v.02ZM60.85,110.53v-3.06c-.5-.44-.95-.61-1.42-.61-.93,0-1.67.9-1.67,2.23,0,1.4.58,2.23,1.6,2.23.54,0,1.01-.26,1.5-.79h-.01Z"/>
    <path class="st7" d="M63.81,110.84v-7.37h.99v7.45c0,.3.13.42.27.42.06,0,.1,0,.22-.02l.13.75c-.14.05-.31.09-.57.09-.74,0-1.04-.47-1.04-1.31h0Z"/>
    <path class="st7" d="M66.44,109.1c0-1.9,1.28-3.07,2.62-3.07,1.49,0,2.33,1.07,2.33,2.74,0,.21-.02.42-.05.56h-3.93c.07,1.24.83,2.04,1.94,2.04.56,0,1.02-.18,1.45-.47l.35.65c-.51.33-1.13.6-1.92.6-1.55,0-2.79-1.14-2.79-3.05ZM70.51,108.62c0-1.17-.53-1.8-1.44-1.8-.82,0-1.55.66-1.67,1.8h3.11Z"/>
    <path class="st7" d="M75.04,104.34c0-.39.3-.64.68-.64s.68.25.68.64-.3.64-.68.64-.68-.26-.68-.64ZM75.22,106.18h.99v5.83h-.99v-5.83Z"/>
    <path class="st7" d="M78.18,106.18h.81l.08.84h.03c.56-.55,1.16-.98,1.96-.98,1.23,0,1.78.79,1.78,2.28v3.69h-.99v-3.57c0-1.09-.33-1.55-1.1-1.55-.6,0-1.01.3-1.59.9v4.22h-.99v-5.83h0Z"/>
    <path class="st7" d="M84.31,109.1c0-1.95,1.31-3.07,2.8-3.07.77,0,1.3.32,1.71.68l-.5.65c-.34-.31-.7-.51-1.16-.51-1.06,0-1.83.91-1.83,2.25s.73,2.23,1.8,2.23c.53,0,1.01-.26,1.37-.58l.43.66c-.52.47-1.19.74-1.88.74-1.55,0-2.73-1.12-2.73-3.05h-.01Z"/>
    <path class="st7" d="M89.53,109.1c0-1.95,1.27-3.07,2.7-3.07s2.7,1.12,2.7,3.07-1.27,3.05-2.7,3.05-2.7-1.12-2.7-3.05ZM93.91,109.1c0-1.34-.68-2.25-1.68-2.25s-1.68.91-1.68,2.25.68,2.23,1.68,2.23,1.68-.89,1.68-2.23Z"/>
    <path class="st7" d="M96.46,106.18h.81l.08.85h.03c.51-.55,1.12-.99,1.81-.99.89,0,1.37.43,1.61,1.11.61-.66,1.21-1.11,1.92-1.11,1.2,0,1.77.79,1.77,2.28v3.69h-.99v-3.57c0-1.09-.34-1.55-1.08-1.55-.45,0-.92.3-1.46.9v4.22h-.99v-3.57c0-1.09-.34-1.55-1.08-1.55-.44,0-.92.3-1.46.9v4.22h-.99v-5.83h.02Z"/>
    <path class="st7" d="M105.98,109.1c0-1.9,1.28-3.07,2.62-3.07,1.49,0,2.33,1.07,2.33,2.74,0,.21-.02.42-.05.56h-3.93c.07,1.24.83,2.04,1.94,2.04.56,0,1.02-.18,1.45-.47l.35.65c-.51.33-1.13.6-1.92.6-1.55,0-2.79-1.14-2.79-3.05ZM110.05,108.62c0-1.17-.53-1.8-1.44-1.8-.82,0-1.55.66-1.67,1.8h3.11Z"/>
  </g>
  <rect class="st4" x="132.48" y="94.75" width="334.47" height="27"/>
  <g class="st1">
    <text class="st0" transform="translate(438.57 112.01)"><tspan x="0" y="0">31k</tspan></text>
  </g>
  <g>
    <path class="st6" d="M.91,34.58h1.11l1.38,3.86c.17.49.34,1,.51,1.5h.04c.17-.5.33-1.01.5-1.5l1.37-3.86h1.11v7.22h-.85v-3.98c0-.63.07-1.5.12-2.14h-.04l-.57,1.65-1.36,3.74h-.61l-1.37-3.74-.57-1.65h-.04c.05.64.12,1.51.12,2.14v3.98h-.83v-7.22h-.02Z"/>
    <path class="st6" d="M8.43,39.14c0-1.74,1.17-2.81,2.4-2.81,1.36,0,2.13.98,2.13,2.51,0,.19-.02.38-.04.51h-3.6c.06,1.13.76,1.87,1.78,1.87.51,0,.93-.17,1.33-.43l.32.59c-.47.31-1.04.55-1.77.55-1.43,0-2.56-1.04-2.56-2.8h.01ZM12.17,38.7c0-1.07-.48-1.65-1.32-1.65-.75,0-1.42.6-1.53,1.65h2.85Z"/>
    <path class="st6" d="M13.9,39.14c0-1.73,1.09-2.81,2.31-2.81.62,0,1.03.23,1.5.62l-.04-.92v-2.06h.91v7.84h-.75l-.08-.63h-.03c-.42.42-.99.76-1.62.76-1.34,0-2.2-1.02-2.2-2.8ZM17.67,40.44v-2.8c-.46-.41-.87-.56-1.3-.56-.85,0-1.54.82-1.54,2.04,0,1.28.53,2.05,1.47,2.05.49,0,.92-.24,1.37-.73Z"/>
    <path class="st6" d="M20.22,34.77c0-.36.27-.58.62-.58s.62.23.62.58-.27.58-.62.58-.62-.24-.62-.58ZM20.39,36.45h.9v5.35h-.9v-5.35Z"/>
    <path class="st6" d="M22.76,40.41c0-1.17,1.01-1.75,3.28-2,0-.69-.23-1.35-1.1-1.35-.62,0-1.18.29-1.59.57l-.35-.62c.49-.32,1.24-.7,2.1-.7,1.3,0,1.86.87,1.86,2.2v3.28h-.75l-.08-.64h-.03c-.51.42-1.1.77-1.77.77-.9,0-1.57-.56-1.57-1.52h0ZM26.05,40.5v-1.49c-1.79.22-2.4.65-2.4,1.34,0,.61.41.85.94.85s.94-.25,1.46-.71h0Z"/>
    <path class="st6" d="M28.64,36.45h.75l.08.77h.03c.51-.5,1.06-.9,1.79-.9,1.13,0,1.63.73,1.63,2.09v3.39h-.9v-3.27c0-1-.3-1.42-1.01-1.42-.55,0-.93.28-1.46.82v3.87h-.9v-5.35h-.01Z"/>
    <path class="st6" d="M36.46,39.14c0-1.78,1.21-2.81,2.57-2.81.7,0,1.19.29,1.56.63l-.46.6c-.31-.28-.64-.47-1.06-.47-.97,0-1.68.83-1.68,2.06s.67,2.05,1.65,2.05c.49,0,.92-.24,1.26-.53l.39.61c-.48.43-1.09.68-1.73.68-1.42,0-2.51-1.03-2.51-2.8v-.02Z"/>
    <path class="st6" d="M41.24,39.14c0-1.78,1.17-2.81,2.48-2.81s2.48,1.03,2.48,2.81-1.17,2.8-2.48,2.8-2.48-1.03-2.48-2.8ZM45.26,39.14c0-1.23-.62-2.06-1.54-2.06s-1.54.83-1.54,2.06.62,2.05,1.54,2.05,1.54-.82,1.54-2.05Z"/>
    <path class="st6" d="M47.6,36.45h.75l.08.78h.03c.47-.51,1.03-.91,1.66-.91.82,0,1.26.39,1.48,1.02.56-.6,1.11-1.02,1.76-1.02,1.1,0,1.63.73,1.63,2.09v3.39h-.9v-3.27c0-1-.31-1.42-1-1.42-.41,0-.85.27-1.34.82v3.87h-.9v-3.27c0-1-.31-1.42-1-1.42-.4,0-.85.27-1.34.82v3.87h-.9v-5.35h0Z"/>
    <path class="st6" d="M56.72,36.45h.75l.08.62h.03c.48-.4,1.09-.75,1.7-.75,1.38,0,2.12,1.07,2.12,2.73,0,1.82-1.09,2.89-2.32,2.89-.49,0-.99-.23-1.48-.62l.02.93v1.81h-.9v-7.6h0ZM60.46,39.06c0-1.18-.4-1.97-1.41-1.97-.45,0-.91.25-1.43.73v2.8c.48.41.95.56,1.3.56.88,0,1.54-.8,1.54-2.12Z"/>
    <path class="st6" d="M62.78,40.73v-6.76h.9v6.83c0,.28.12.39.25.39.05,0,.1,0,.2-.02l.12.69c-.13.05-.28.08-.52.08-.68,0-.96-.43-.96-1.21h0Z"/>
    <path class="st6" d="M65.25,40.41c0-1.17,1.01-1.75,3.28-2,0-.69-.23-1.35-1.1-1.35-.62,0-1.18.29-1.59.57l-.35-.62c.49-.32,1.24-.7,2.1-.7,1.3,0,1.86.87,1.86,2.2v3.28h-.75l-.08-.64h-.03c-.51.42-1.1.77-1.77.77-.9,0-1.57-.56-1.57-1.52h0ZM68.54,40.5v-1.49c-1.79.22-2.4.65-2.4,1.34,0,.61.41.85.94.85s.94-.25,1.46-.71h0Z"/>
    <path class="st6" d="M70.96,34.77c0-.36.27-.58.62-.58s.62.23.62.58-.27.58-.62.58-.62-.24-.62-.58ZM71.13,36.45h.9v5.35h-.9v-5.35Z"/>
    <path class="st6" d="M73.84,36.45h.75l.08.77h.03c.51-.5,1.06-.9,1.79-.9,1.13,0,1.63.73,1.63,2.09v3.39h-.9v-3.27c0-1-.3-1.42-1.01-1.42-.55,0-.93.28-1.46.82v3.87h-.9v-5.35h0Z"/>
    <path class="st6" d="M80.01,40.15v-2.96h-.8v-.69l.84-.05.11-1.5h.76v1.5h1.45v.74h-1.45v2.97c0,.65.21,1.03.83,1.03.19,0,.44-.07.61-.14l.17.68c-.3.1-.66.2-.99.2-1.14,0-1.52-.72-1.52-1.79h-.01Z"/>
    <path class="st6" d="M82.87,41.19l.45-.6c.46.37.94.63,1.58.63.7,0,1.05-.37,1.05-.83,0-.55-.63-.79-1.22-1.01-.75-.27-1.59-.64-1.59-1.54s.69-1.52,1.84-1.52c.67,0,1.25.27,1.66.6l-.43.58c-.37-.27-.75-.48-1.22-.48-.67,0-.98.36-.98.77,0,.51.58.7,1.19.93.77.29,1.63.6,1.63,1.62,0,.87-.69,1.59-1.95,1.59-.76,0-1.49-.32-2-.74h-.01Z"/>
    <path class="st6" d="M90.27,36.45h.75l.08.62h.03c.48-.4,1.09-.75,1.7-.75,1.38,0,2.12,1.07,2.12,2.73,0,1.82-1.09,2.89-2.32,2.89-.49,0-.99-.23-1.48-.62l.02.93v1.81h-.9v-7.6h0ZM94.01,39.06c0-1.18-.4-1.97-1.41-1.97-.45,0-.91.25-1.43.73v2.8c.48.41.95.56,1.3.56.88,0,1.54-.8,1.54-2.12Z"/>
    <path class="st6" d="M95.98,39.14c0-1.74,1.17-2.81,2.4-2.81,1.36,0,2.13.98,2.13,2.51,0,.19-.02.38-.04.51h-3.6c.06,1.13.76,1.87,1.78,1.87.51,0,.93-.17,1.33-.43l.32.59c-.47.31-1.04.55-1.77.55-1.43,0-2.56-1.04-2.56-2.8h0ZM99.72,38.7c0-1.07-.48-1.65-1.32-1.65-.75,0-1.42.6-1.53,1.65h2.85Z"/>
    <path class="st6" d="M101.83,36.45h.75l.08.97h.03c.37-.68.92-1.11,1.52-1.11.24,0,.4.03.57.11l-.17.79c-.18-.06-.3-.09-.52-.09-.45,0-.99.33-1.35,1.23v3.43h-.9v-5.35.02Z"/>
    <path class="st6" d="M107.81,41.05h1.61v-5.17h-1.28v-.58c.64-.11,1.1-.28,1.49-.52h.69v6.26h1.45v.75h-3.96v-.75h0Z"/>
    <path class="st6" d="M112.9,38.27c0-2.35.85-3.61,2.25-3.61s2.25,1.27,2.25,3.61-.85,3.67-2.25,3.67-2.25-1.31-2.25-3.67ZM116.52,38.27c0-2.06-.56-2.89-1.37-2.89s-1.37.83-1.37,2.89.55,2.94,1.37,2.94,1.37-.88,1.37-2.94Z"/>
    <path class="st6" d="M118.36,38.27c0-2.35.85-3.61,2.25-3.61s2.25,1.27,2.25,3.61-.85,3.67-2.25,3.67-2.25-1.31-2.25-3.67ZM121.98,38.27c0-2.06-.56-2.89-1.37-2.89s-1.37.83-1.37,2.89.55,2.94,1.37,2.94,1.37-.88,1.37-2.94Z"/>
    <path class="st6" d="M123.87,43.14c.62-.27.99-.76.99-1.36l-.1-.81.44.66c-.12.15-.28.19-.46.19-.35,0-.66-.22-.66-.63s.31-.63.67-.63c.48,0,.77.4.77,1.06,0,.95-.55,1.69-1.44,2.06l-.22-.53h.01Z"/>
    <path class="st6" d="M126.57,38.27c0-2.35.85-3.61,2.25-3.61s2.25,1.27,2.25,3.61-.85,3.67-2.25,3.67-2.25-1.31-2.25-3.67ZM130.19,38.27c0-2.06-.56-2.89-1.37-2.89s-1.37.83-1.37,2.89.55,2.94,1.37,2.94,1.37-.88,1.37-2.94Z"/>
    <path class="st6" d="M132.04,38.27c0-2.35.85-3.61,2.25-3.61s2.25,1.27,2.25,3.61-.85,3.67-2.25,3.67-2.25-1.31-2.25-3.67ZM135.66,38.27c0-2.06-.56-2.89-1.37-2.89s-1.37.83-1.37,2.89.55,2.94,1.37,2.94,1.37-.88,1.37-2.94Z"/>
    <path class="st6" d="M137.5,38.27c0-2.35.85-3.61,2.25-3.61s2.25,1.27,2.25,3.61-.85,3.67-2.25,3.67-2.25-1.31-2.25-3.67ZM141.12,38.27c0-2.06-.56-2.89-1.37-2.89s-1.37.83-1.37,2.89.55,2.94,1.37,2.94,1.37-.88,1.37-2.94Z"/>
    <path class="st6" d="M145.59,36.45h.75l.08.97h.03c.37-.68.92-1.11,1.52-1.11.24,0,.4.03.57.11l-.17.79c-.18-.06-.3-.09-.52-.09-.45,0-.99.33-1.35,1.23v3.43h-.9v-5.35.02Z"/>
    <path class="st6" d="M148.9,39.14c0-1.74,1.17-2.81,2.4-2.81,1.36,0,2.13.98,2.13,2.51,0,.19-.02.38-.04.51h-3.6c.06,1.13.76,1.87,1.78,1.87.51,0,.93-.17,1.33-.43l.32.59c-.47.31-1.04.55-1.77.55-1.43,0-2.56-1.04-2.56-2.8h0ZM152.64,38.7c0-1.07-.48-1.65-1.32-1.65-.75,0-1.42.6-1.53,1.65h2.85Z"/>
    <path class="st6" d="M154.16,41.19l.45-.6c.46.37.94.63,1.58.63.7,0,1.05-.37,1.05-.83,0-.55-.63-.79-1.22-1.01-.75-.27-1.59-.64-1.59-1.54s.69-1.52,1.84-1.52c.67,0,1.25.27,1.66.6l-.43.58c-.37-.27-.75-.48-1.22-.48-.67,0-.98.36-.98.77,0,.51.58.7,1.19.93.77.29,1.63.6,1.63,1.62,0,.87-.69,1.59-1.95,1.59-.76,0-1.49-.32-2-.74h-.01Z"/>
    <path class="st6" d="M159.19,34.77c0-.36.27-.58.62-.58s.62.23.62.58-.27.58-.62.58-.62-.24-.62-.58ZM159.36,36.45h.9v5.35h-.9v-5.35Z"/>
    <path class="st6" d="M161.68,39.14c0-1.73,1.09-2.81,2.31-2.81.62,0,1.03.23,1.5.62l-.04-.92v-2.06h.91v7.84h-.75l-.08-.63h-.03c-.42.42-.99.76-1.62.76-1.34,0-2.2-1.02-2.2-2.8h0ZM165.46,40.44v-2.8c-.46-.41-.87-.56-1.3-.56-.85,0-1.54.82-1.54,2.04,0,1.28.53,2.05,1.47,2.05.49,0,.92-.24,1.37-.73Z"/>
    <path class="st6" d="M167.77,39.14c0-1.74,1.17-2.81,2.4-2.81,1.36,0,2.13.98,2.13,2.51,0,.19-.02.38-.04.51h-3.6c.06,1.13.76,1.87,1.78,1.87.51,0,.93-.17,1.33-.43l.32.59c-.47.31-1.04.55-1.77.55-1.43,0-2.56-1.04-2.56-2.8h0ZM171.51,38.7c0-1.07-.48-1.65-1.32-1.65-.75,0-1.42.6-1.53,1.65h2.85Z"/>
    <path class="st6" d="M173.63,36.45h.75l.08.77h.03c.51-.5,1.06-.9,1.79-.9,1.13,0,1.63.73,1.63,2.09v3.39h-.9v-3.27c0-1-.3-1.42-1.01-1.42-.55,0-.93.28-1.46.82v3.87h-.9v-5.35h-.01Z"/>
    <path class="st6" d="M179.8,40.15v-2.96h-.8v-.69l.84-.05.11-1.5h.76v1.5h1.45v.74h-1.45v2.97c0,.65.21,1.03.83,1.03.19,0,.44-.07.61-.14l.17.68c-.3.1-.66.2-.99.2-1.14,0-1.52-.72-1.52-1.79h0Z"/>
    <path class="st6" d="M182.66,41.19l.45-.6c.46.37.94.63,1.58.63.7,0,1.05-.37,1.05-.83,0-.55-.63-.79-1.22-1.01-.75-.27-1.59-.64-1.59-1.54s.69-1.52,1.84-1.52c.67,0,1.25.27,1.66.6l-.43.58c-.37-.27-.75-.48-1.22-.48-.67,0-.98.36-.98.77,0,.51.58.7,1.19.93.77.29,1.63.6,1.63,1.62,0,.87-.69,1.59-1.95,1.59-.76,0-1.49-.32-2-.74h-.01Z"/>
    <path class="st6" d="M187.48,43.14c.62-.27.99-.76.99-1.36l-.1-.81.44.66c-.12.15-.28.19-.46.19-.35,0-.66-.22-.66-.63s.31-.63.67-.63c.48,0,.77.4.77,1.06,0,.95-.55,1.69-1.44,2.06l-.22-.53h.01Z"/>
    <path class="st6" d="M193.64,41.25h-.03l-.08.55h-.72v-7.84h.9v2.14l-.03.96c.49-.42,1.08-.75,1.68-.75,1.38,0,2.12,1.07,2.12,2.72,0,1.83-1.09,2.89-2.32,2.89-.5,0-1.05-.26-1.53-.68h.01ZM196.54,39.06c0-1.18-.4-1.97-1.41-1.97-.45,0-.92.25-1.43.73v2.8c.47.41.95.56,1.3.56.88,0,1.54-.8,1.54-2.12Z"/>
    <path class="st6" d="M198.3,44l.18-.72c.11.04.27.08.41.08.6,0,.98-.48,1.21-1.15l.12-.4-2.15-5.36h.93l1.09,2.96c.17.46.35,1.01.52,1.51h.04c.15-.49.3-1.03.45-1.51l.95-2.96h.89l-2.02,5.79c-.38,1.06-.93,1.86-2,1.86-.25,0-.46-.04-.63-.11h.01Z"/>
    <path class="st6" d="M206.01,34.77c0-.36.27-.58.62-.58s.62.23.62.58-.27.58-.62.58-.62-.24-.62-.58ZM206.18,36.45h.9v5.35h-.9v-5.35Z"/>
    <path class="st6" d="M208.88,36.45h.75l.08.77h.03c.51-.5,1.06-.9,1.79-.9,1.13,0,1.63.73,1.63,2.09v3.39h-.9v-3.27c0-1-.3-1.42-1.01-1.42-.55,0-.93.28-1.46.82v3.87h-.9v-5.35h-.01Z"/>
    <path class="st6" d="M214.5,39.14c0-1.78,1.21-2.81,2.57-2.81.7,0,1.19.29,1.56.63l-.46.6c-.31-.28-.64-.47-1.06-.47-.97,0-1.68.83-1.68,2.06s.67,2.05,1.65,2.05c.49,0,.92-.24,1.26-.53l.39.61c-.48.43-1.09.68-1.73.68-1.42,0-2.51-1.03-2.51-2.8v-.02Z"/>
    <path class="st6" d="M219.29,39.14c0-1.78,1.17-2.81,2.48-2.81s2.48,1.03,2.48,2.81-1.17,2.8-2.48,2.8-2.48-1.03-2.48-2.8ZM223.31,39.14c0-1.23-.62-2.06-1.54-2.06s-1.54.83-1.54,2.06.62,2.05,1.54,2.05,1.54-.82,1.54-2.05Z"/>
    <path class="st6" d="M225.65,36.45h.75l.08.78h.03c.47-.51,1.03-.91,1.66-.91.82,0,1.26.39,1.48,1.02.56-.6,1.11-1.02,1.76-1.02,1.1,0,1.63.73,1.63,2.09v3.39h-.9v-3.27c0-1-.31-1.42-1-1.42-.41,0-.85.27-1.34.82v3.87h-.9v-3.27c0-1-.31-1.42-1-1.42-.4,0-.85.27-1.34.82v3.87h-.9v-5.35h-.01Z"/>
    <path class="st6" d="M234.37,39.14c0-1.74,1.17-2.81,2.4-2.81,1.36,0,2.13.98,2.13,2.51,0,.19-.02.38-.04.51h-3.6c.06,1.13.76,1.87,1.78,1.87.51,0,.93-.17,1.33-.43l.32.59c-.47.31-1.04.55-1.77.55-1.43,0-2.56-1.04-2.56-2.8h0ZM238.11,38.7c0-1.07-.48-1.65-1.32-1.65-.75,0-1.42.6-1.53,1.65h2.85Z"/>
  </g>
  <g>
    <path class="st3" d="M.93.92h1.92v6.87h3.34v1.61H.93V.92Z"/>
    <path class="st3" d="M6.94,6.17c0-2.14,1.51-3.38,3.14-3.38s3.14,1.24,3.14,3.38-1.51,3.38-3.14,3.38-3.14-1.24-3.14-3.38ZM11.27,6.17c0-1.12-.39-1.84-1.18-1.84s-1.18.72-1.18,1.84.39,1.84,1.18,1.84,1.18-.72,1.18-1.84Z"/>
    <path class="st3" d="M13.9,2.94h1.9l.62,2.99c.11.64.18,1.26.29,1.92h.05c.11-.65.23-1.3.38-1.92l.7-2.99h1.66l.73,2.99c.16.64.27,1.26.4,1.92h.05c.11-.65.18-1.28.3-1.92l.61-2.99h1.77l-1.54,6.45h-2.24l-.59-2.58c-.12-.6-.23-1.19-.34-1.89h-.05c-.11.69-.21,1.29-.33,1.89l-.57,2.57h-2.19l-1.61-6.45h0Z"/>
    <path class="st3" d="M24.04,6.17c0-2.09,1.49-3.38,3.04-3.38,1.84,0,2.75,1.34,2.75,3.1,0,.34-.04.69-.08.84h-3.86c.17.94.81,1.36,1.67,1.36.49,0,.93-.15,1.39-.42l.63,1.15c-.66.46-1.52.73-2.29.73-1.84,0-3.26-1.24-3.26-3.38h.01ZM28.2,5.46c0-.71-.31-1.22-1.07-1.22-.6,0-1.12.41-1.25,1.22h2.33-.01Z"/>
    <path class="st3" d="M31.15,2.94h1.56l.14,1.13h.05c.47-.86,1.17-1.28,1.83-1.28.37,0,.58.05.77.13l-.32,1.65c-.23-.06-.42-.1-.7-.1-.49,0-1.08.31-1.42,1.19v3.74h-1.91V2.95h0Z"/>
    <path class="st3" d="M35.68,5.42h3.19v1.35h-3.19v-1.35Z"/>
    <path class="st3" d="M40.13,1c0-.59.46-1,1.11-1s1.11.41,1.11,1-.46,1-1.11,1-1.11-.42-1.11-1ZM40.27,2.94h1.91v6.45h-1.91V2.94Z"/>
    <path class="st3" d="M43.86,2.94h1.56l.14.82h.05c.54-.52,1.19-.97,2.07-.97,1.4,0,2,.99,2,2.6v4h-1.91v-3.76c0-.93-.25-1.22-.8-1.22-.48,0-.77.22-1.19.63v4.35h-1.91V2.94h-.01Z"/>
    <path class="st3" d="M50.92,6.17c0-2.14,1.58-3.38,3.36-3.38.79,0,1.4.28,1.88.69l-.9,1.23c-.31-.26-.57-.38-.87-.38-.92,0-1.51.72-1.51,1.84s.61,1.84,1.44,1.84c.42,0,.83-.21,1.16-.48l.75,1.25c-.63.55-1.43.77-2.13.77-1.8,0-3.19-1.24-3.19-3.38h0Z"/>
    <path class="st3" d="M56.63,6.17c0-2.14,1.51-3.38,3.14-3.38s3.14,1.24,3.14,3.38-1.51,3.38-3.14,3.38-3.14-1.24-3.14-3.38ZM60.96,6.17c0-1.12-.39-1.84-1.18-1.84s-1.18.72-1.18,1.84.39,1.84,1.18,1.84,1.18-.72,1.18-1.84Z"/>
    <path class="st3" d="M64.22,2.94h1.56l.14.83h.05c.53-.53,1.11-.98,1.95-.98.91,0,1.45.39,1.78,1.09.57-.59,1.17-1.09,2.02-1.09,1.39,0,2.02.99,2.02,2.6v4h-1.91v-3.76c0-.93-.25-1.22-.8-1.22-.32,0-.69.2-1.1.63v4.35h-1.91v-3.76c0-.93-.25-1.22-.8-1.22-.32,0-.69.2-1.1.63v4.35h-1.91V2.94h.01Z"/>
    <path class="st3" d="M74.99,6.17c0-2.09,1.49-3.38,3.04-3.38,1.84,0,2.75,1.34,2.75,3.1,0,.34-.04.69-.08.84h-3.86c.17.94.81,1.36,1.67,1.36.49,0,.93-.15,1.39-.42l.63,1.15c-.66.46-1.52.73-2.29.73-1.84,0-3.26-1.24-3.26-3.38h.01ZM79.14,5.46c0-.71-.31-1.22-1.07-1.22-.6,0-1.12.41-1.25,1.22h2.33-.01Z"/>
    <path class="st3" d="M84.32,8.23l3.75-5.71h-3.39V.91h5.75v1.16l-3.75,5.71h3.78v1.61h-6.14v-1.16Z"/>
    <path class="st3" d="M91.78.92h1.92v8.47h-1.92V.92Z"/>
    <path class="st3" d="M95.7.92h2.91c1.86,0,3.37.67,3.37,2.73s-1.52,2.87-3.32,2.87h-1.05v2.88h-1.92V.92h0ZM98.55,4.99c1.05,0,1.55-.47,1.55-1.35s-.57-1.2-1.6-1.2h-.88v2.56h.93,0Z"/>
    <path class="st3" d="M105.51,6.17c0-2.14,1.58-3.38,3.36-3.38.79,0,1.4.28,1.88.69l-.9,1.23c-.31-.26-.57-.38-.87-.38-.92,0-1.51.72-1.51,1.84s.61,1.84,1.44,1.84c.42,0,.83-.21,1.16-.48l.75,1.25c-.63.55-1.43.77-2.13.77-1.8,0-3.19-1.24-3.19-3.38h.01Z"/>
    <path class="st3" d="M111.22,6.17c0-2.14,1.51-3.38,3.14-3.38s3.14,1.24,3.14,3.38-1.51,3.38-3.14,3.38-3.14-1.24-3.14-3.38ZM115.54,6.17c0-1.12-.39-1.84-1.18-1.84s-1.18.72-1.18,1.84.39,1.84,1.18,1.84,1.18-.72,1.18-1.84Z"/>
    <path class="st3" d="M118.47,6.17c0-2.11,1.32-3.38,2.67-3.38.71,0,1.15.26,1.58.67l-.07-.98V.28h1.91v9.11h-1.56l-.14-.64h-.05c-.46.46-1.09.8-1.72.8-1.6,0-2.64-1.27-2.64-3.38h.02ZM122.66,7.4v-2.65c-.34-.3-.72-.41-1.07-.41-.62,0-1.16.57-1.16,1.8s.44,1.84,1.18,1.84c.41,0,.74-.15,1.05-.58Z"/>
    <path class="st3" d="M125.88,6.17c0-2.09,1.49-3.38,3.04-3.38,1.84,0,2.75,1.34,2.75,3.1,0,.34-.04.69-.08.84h-3.86c.17.94.81,1.36,1.67,1.36.49,0,.93-.15,1.39-.42l.63,1.15c-.66.46-1.52.73-2.29.73-1.84,0-3.26-1.24-3.26-3.38h0ZM130.04,5.46c0-.71-.31-1.22-1.07-1.22-.6,0-1.13.41-1.26,1.22,0,0,2.33,0,2.33,0Z"/>
    <path class="st3" d="M132.42,8.64l.86-1.19c.58.44,1.12.68,1.66.68.57,0,.81-.22.81-.55,0-.42-.64-.62-1.3-.88-.79-.31-1.71-.83-1.71-1.9,0-1.2.98-2.02,2.46-2.02.99,0,1.72.4,2.27.82l-.86,1.15c-.46-.33-.91-.55-1.36-.55-.49,0-.74.19-.74.52,0,.41.6.57,1.27.81.82.3,1.74.76,1.74,1.94s-.92,2.08-2.65,2.08c-.85,0-1.82-.37-2.48-.9h.03Z"/>
    <path class="st3" d="M141.35.28h1.91v2.23l-.09,1.17c.48-.44,1.11-.89,1.99-.89,1.4,0,2,.99,2,2.6v4h-1.91v-3.76c0-.93-.25-1.22-.8-1.22-.48,0-.77.22-1.19.63v4.35h-1.91V.28Z"/>
    <path class="st3" d="M148.47,7.6c0-1.36,1.08-2.09,3.63-2.36-.04-.56-.32-.93-1.02-.93-.54,0-1.08.23-1.71.58l-.68-1.25c.82-.5,1.74-.85,2.75-.85,1.65,0,2.56.94,2.56,2.92v3.69h-1.56l-.14-.66h-.05c-.54.48-1.15.82-1.88.82-1.18,0-1.92-.86-1.92-1.95h.02ZM152.11,7.52v-1.13c-1.36.18-1.8.57-1.8,1.06,0,.42.29.62.74.62s.72-.21,1.06-.55Z"/>
    <path class="st3" d="M154.94,2.94h1.92l.84,3.04c.17.64.33,1.31.5,1.98h.05c.17-.67.33-1.34.5-1.98l.84-3.04h1.83l-2.1,6.45h-2.2l-2.17-6.45h0Z"/>
    <path class="st3" d="M161.94,6.17c0-2.09,1.49-3.38,3.04-3.38,1.84,0,2.75,1.34,2.75,3.1,0,.34-.04.69-.08.84h-3.86c.17.94.81,1.36,1.67,1.36.49,0,.93-.15,1.39-.42l.63,1.15c-.66.46-1.52.73-2.29.73-1.84,0-3.26-1.24-3.26-3.38h0ZM166.1,5.46c0-.71-.31-1.22-1.07-1.22-.6,0-1.12.41-1.25,1.22h2.33,0Z"/>
    <path class="st3" d="M171.91,7.04v-2.6h-.88v-1.43l.99-.07.22-1.71h1.58v1.71h1.55v1.5h-1.55v2.58c0,.73.33,1.02.83,1.02.21,0,.44-.06.61-.12l.3,1.39c-.34.11-.81.23-1.43.23-1.59,0-2.23-1.01-2.23-2.5h0Z"/>
    <path class="st3" d="M176.63.28h1.91v2.23l-.09,1.17c.48-.44,1.11-.89,1.99-.89,1.4,0,2,.99,2,2.6v4h-1.91v-3.76c0-.93-.25-1.22-.8-1.22-.48,0-.77.22-1.19.63v4.35h-1.91V.28Z"/>
    <path class="st3" d="M183.68,6.17c0-2.09,1.49-3.38,3.04-3.38,1.84,0,2.75,1.34,2.75,3.1,0,.34-.04.69-.08.84h-3.86c.17.94.81,1.36,1.67,1.36.49,0,.93-.15,1.39-.42l.63,1.15c-.66.46-1.52.73-2.29.73-1.84,0-3.26-1.24-3.26-3.38h0ZM187.83,5.46c0-.71-.31-1.22-1.07-1.22-.6,0-1.13.41-1.26,1.22,0,0,2.33,0,2.33,0Z"/>
    <path class="st3" d="M193.39.28h1.91v2.23l-.09,1.17c.48-.44,1.11-.89,1.99-.89,1.4,0,2,.99,2,2.6v4h-1.91v-3.76c0-.93-.25-1.22-.8-1.22-.48,0-.77.22-1.19.63v4.35h-1.91V.28Z"/>
    <path class="st3" d="M200.66,1c0-.59.46-1,1.11-1s1.11.41,1.11,1-.46,1-1.11,1-1.11-.42-1.11-1ZM200.81,2.94h1.91v6.45h-1.91V2.94Z"/>
    <path class="st3" d="M204,10.5c0-.54.32-.97.91-1.3v-.05c-.33-.22-.59-.56-.59-1.1,0-.46.31-.92.72-1.21v-.05c-.45-.32-.87-.92-.87-1.67,0-1.55,1.28-2.33,2.67-2.33.36,0,.71.06,1,.16h2.36v1.39h-1.04c.12.19.22.51.22.85,0,1.48-1.13,2.17-2.54,2.17-.24,0-.5-.04-.79-.12-.16.14-.22.25-.22.48,0,.32.26.47.96.47h1.05c1.58,0,2.46.48,2.46,1.64,0,1.34-1.4,2.32-3.61,2.32-1.5,0-2.7-.49-2.7-1.63v-.02ZM208.48,10.14c0-.41-.35-.5-.98-.5h-.67c-.44,0-.69-.03-.9-.08-.24.2-.35.4-.35.63,0,.49.57.74,1.43.74s1.48-.34,1.48-.79h0ZM207.73,5.12c0-.69-.37-1.05-.88-1.05s-.88.36-.88,1.05.38,1.07.88,1.07.88-.37.88-1.07Z"/>
    <path class="st3" d="M211.34.28h1.91v2.23l-.09,1.17c.48-.44,1.11-.89,1.99-.89,1.4,0,2,.99,2,2.6v4h-1.91v-3.76c0-.93-.25-1.22-.8-1.22-.48,0-.77.22-1.19.63v4.35h-1.91V.28Z"/>
    <path class="st3" d="M218.39,6.17c0-2.09,1.49-3.38,3.04-3.38,1.84,0,2.75,1.34,2.75,3.1,0,.34-.04.69-.08.84h-3.86c.17.94.81,1.36,1.67,1.36.49,0,.93-.15,1.39-.42l.63,1.15c-.66.46-1.52.73-2.29.73-1.84,0-3.26-1.24-3.26-3.38h0ZM222.54,5.46c0-.71-.31-1.22-1.07-1.22-.6,0-1.12.41-1.25,1.22h2.33,0Z"/>
    <path class="st3" d="M224.93,8.64l.86-1.19c.58.44,1.12.68,1.66.68.57,0,.81-.22.81-.55,0-.42-.64-.62-1.3-.88-.79-.31-1.71-.83-1.71-1.9,0-1.2.98-2.02,2.46-2.02.99,0,1.72.4,2.27.82l-.86,1.15c-.46-.33-.91-.55-1.36-.55-.49,0-.74.19-.74.52,0,.41.6.57,1.27.81.82.3,1.74.76,1.74,1.94s-.92,2.08-2.65,2.08c-.85,0-1.82-.37-2.48-.9h.03Z"/>
    <path class="st3" d="M231.25,7.04v-2.6h-.88v-1.43l.99-.07.22-1.71h1.58v1.71h1.55v1.5h-1.55v2.58c0,.73.33,1.02.83,1.02.21,0,.44-.06.61-.12l.3,1.39c-.34.11-.81.23-1.43.23-1.59,0-2.23-1.01-2.23-2.5h0Z"/>
    <path class="st3" d="M238.57,2.94h1.56l.14.83h.05c.53-.53,1.11-.98,1.95-.98.91,0,1.45.39,1.78,1.09.57-.59,1.17-1.09,2.02-1.09,1.39,0,2.02.99,2.02,2.6v4h-1.91v-3.76c0-.93-.25-1.22-.8-1.22-.32,0-.69.2-1.1.63v4.35h-1.91v-3.76c0-.93-.25-1.22-.8-1.22-.32,0-.69.2-1.1.63v4.35h-1.91V2.94h.01Z"/>
    <path class="st3" d="M249.34,6.17c0-2.09,1.49-3.38,3.04-3.38,1.84,0,2.75,1.34,2.75,3.1,0,.34-.04.69-.08.84h-3.86c.17.94.81,1.36,1.67,1.36.49,0,.93-.15,1.39-.42l.63,1.15c-.66.46-1.52.73-2.29.73-1.84,0-3.26-1.24-3.26-3.38h0ZM253.5,5.46c0-.71-.31-1.22-1.07-1.22-.6,0-1.13.41-1.26,1.22,0,0,2.33,0,2.33,0Z"/>
    <path class="st3" d="M256.12,6.17c0-2.11,1.32-3.38,2.67-3.38.71,0,1.15.26,1.58.67l-.07-.98V.28h1.91v9.11h-1.56l-.14-.64h-.05c-.46.46-1.09.8-1.72.8-1.6,0-2.64-1.27-2.64-3.38h.02ZM260.3,7.4v-2.65c-.34-.3-.72-.41-1.07-.41-.62,0-1.16.57-1.16,1.8s.44,1.84,1.18,1.84c.41,0,.74-.15,1.05-.58h0Z"/>
    <path class="st3" d="M263.75,1c0-.59.46-1,1.11-1s1.11.41,1.11,1-.46,1-1.11,1-1.11-.42-1.11-1ZM263.9,2.94h1.91v6.45h-1.91V2.94Z"/>
    <path class="st3" d="M267.19,7.6c0-1.36,1.08-2.09,3.63-2.36-.04-.56-.32-.93-1.02-.93-.54,0-1.08.23-1.71.58l-.68-1.25c.82-.5,1.74-.85,2.75-.85,1.65,0,2.56.94,2.56,2.92v3.69h-1.56l-.14-.66h-.05c-.54.48-1.15.82-1.88.82-1.18,0-1.92-.86-1.92-1.95h.02ZM270.82,7.52v-1.13c-1.36.18-1.8.57-1.8,1.06,0,.42.29.62.74.62s.72-.21,1.06-.55Z"/>
    <path class="st3" d="M274.34,2.94h1.56l.14.82h.05c.54-.52,1.19-.97,2.07-.97,1.4,0,2,.99,2,2.6v4h-1.91v-3.76c0-.93-.25-1.22-.8-1.22-.48,0-.77.22-1.19.63v4.35h-1.91V2.94h-.01Z"/>
    <path class="st3" d="M283.81,8.38l.88-1.21c.5.48,1.12.83,1.81.83.81,0,1.34-.35,1.34-.99,0-.73-.42-1.17-2.22-1.17v-1.35c1.48,0,1.95-.45,1.95-1.11,0-.58-.37-.91-1.02-.91-.59,0-1.03.27-1.54.72l-.97-1.16c.76-.65,1.59-1.06,2.6-1.06,1.71,0,2.85.81,2.85,2.27,0,.85-.49,1.46-1.38,1.83v.05c.95.27,1.65.95,1.65,2.01,0,1.54-1.41,2.4-3.07,2.4-1.34,0-2.27-.47-2.88-1.17v.02Z"/>
    <path class="st3" d="M291.3,7.85h1.8V3.07h-1.55v-1.19c.89-.17,1.47-.39,2.05-.75h1.41v6.71h1.55v1.54h-5.26v-1.54h0Z"/>
    <path class="st3" d="M298.16,7.85h1.8V3.07h-1.55v-1.19c.89-.17,1.47-.39,2.05-.75h1.41v6.71h1.55v1.54h-5.26v-1.54h0Z"/>
    <path class="st3" d="M307.19,6.17c0-2.14,1.58-3.38,3.36-3.38.79,0,1.4.28,1.88.69l-.9,1.23c-.31-.26-.57-.38-.88-.38-.92,0-1.51.72-1.51,1.84s.62,1.84,1.45,1.84c.42,0,.83-.21,1.16-.48l.75,1.25c-.63.55-1.43.77-2.13.77-1.8,0-3.19-1.24-3.19-3.38h.01Z"/>
    <path class="st3" d="M312.9,6.17c0-2.14,1.51-3.38,3.14-3.38s3.14,1.24,3.14,3.38-1.51,3.38-3.14,3.38-3.14-1.24-3.14-3.38ZM317.22,6.17c0-1.12-.39-1.84-1.18-1.84s-1.18.72-1.18,1.84.39,1.84,1.18,1.84,1.18-.72,1.18-1.84Z"/>
    <path class="st3" d="M320.49,2.94h1.56l.14.83h.05c.53-.53,1.11-.98,1.96-.98.91,0,1.45.39,1.78,1.09.57-.59,1.17-1.09,2.02-1.09,1.39,0,2.02.99,2.02,2.6v4h-1.91v-3.76c0-.93-.25-1.22-.8-1.22-.32,0-.69.2-1.1.63v4.35h-1.91v-3.76c0-.93-.25-1.22-.8-1.22-.32,0-.69.2-1.1.63v4.35h-1.91V2.94h0Z"/>
    <path class="st3" d="M331.63,2.94h1.56l.14.63h.05c.51-.45,1.16-.79,1.84-.79,1.56,0,2.52,1.29,2.52,3.28,0,2.21-1.32,3.48-2.71,3.48-.56,0-1.08-.24-1.54-.67l.06,1.02v1.89h-1.91V2.94h0ZM335.77,6.08c0-1.16-.36-1.74-1.12-1.74-.39,0-.73.18-1.11.58v2.65c.35.3.71.41,1.03.41.67,0,1.2-.56,1.2-1.9h0Z"/>
    <path class="st3" d="M338.97,7.39V.28h1.91v7.18c0,.41.19.54.35.54.07,0,.13,0,.23-.03l.23,1.41c-.21.09-.52.16-.96.16-1.31,0-1.76-.86-1.76-2.16h0Z"/>
    <path class="st3" d="M342.39,7.6c0-1.36,1.08-2.09,3.63-2.36-.04-.56-.32-.93-1.02-.93-.54,0-1.08.23-1.71.58l-.68-1.25c.82-.5,1.74-.85,2.75-.85,1.65,0,2.56.94,2.56,2.92v3.69h-1.56l-.14-.66h-.05c-.54.48-1.15.82-1.88.82-1.18,0-1.92-.86-1.92-1.95h.02ZM346.03,7.52v-1.13c-1.36.18-1.8.57-1.8,1.06,0,.42.29.62.74.62s.72-.21,1.06-.55Z"/>
    <path class="st3" d="M349.39,1c0-.59.47-1,1.11-1s1.11.41,1.11,1-.47,1-1.11,1-1.11-.42-1.11-1ZM349.54,2.94h1.91v6.45h-1.91V2.94Z"/>
    <path class="st3" d="M353.13,2.94h1.56l.14.82h.05c.54-.52,1.19-.97,2.07-.97,1.4,0,2,.99,2,2.6v4h-1.91v-3.76c0-.93-.25-1.22-.8-1.22-.48,0-.77.22-1.19.63v4.35h-1.91V2.94h-.01Z"/>
    <path class="st3" d="M360.82,7.04v-2.6h-.88v-1.43l.99-.07.22-1.71h1.58v1.71h1.55v1.5h-1.55v2.58c0,.73.33,1.02.83,1.02.21,0,.44-.06.61-.12l.3,1.39c-.34.11-.81.23-1.43.23-1.59,0-2.23-1.01-2.23-2.5h.01Z"/>
    <path class="st3" d="M368.14,2.94h1.56l.14,1.13h.05c.47-.86,1.17-1.28,1.83-1.28.37,0,.58.05.77.13l-.32,1.65c-.23-.06-.42-.1-.7-.1-.49,0-1.08.31-1.42,1.19v3.74h-1.91V2.95h0Z"/>
    <path class="st3" d="M372.66,7.6c0-1.36,1.08-2.09,3.63-2.36-.04-.56-.32-.93-1.02-.93-.54,0-1.08.23-1.71.58l-.68-1.25c.82-.5,1.74-.85,2.75-.85,1.65,0,2.56.94,2.56,2.92v3.69h-1.56l-.14-.66h-.05c-.54.48-1.15.82-1.88.82-1.18,0-1.92-.86-1.92-1.95h.02ZM376.29,7.52v-1.13c-1.36.18-1.8.57-1.8,1.06,0,.42.29.62.74.62s.72-.21,1.06-.55Z"/>
    <path class="st3" d="M379.83,7.04v-2.6h-.88v-1.43l.99-.07.22-1.71h1.58v1.71h1.55v1.5h-1.55v2.58c0,.73.33,1.02.83,1.02.21,0,.44-.06.61-.12l.3,1.39c-.34.11-.81.23-1.43.23-1.59,0-2.23-1.01-2.23-2.5h.01Z"/>
    <path class="st3" d="M383.94,6.17c0-2.09,1.49-3.38,3.04-3.38,1.84,0,2.75,1.34,2.75,3.1,0,.34-.04.69-.08.84h-3.86c.17.94.81,1.36,1.67,1.36.49,0,.93-.15,1.4-.42l.63,1.15c-.66.46-1.52.73-2.29.73-1.84,0-3.26-1.24-3.26-3.38h0ZM388.1,5.46c0-.71-.31-1.22-1.07-1.22-.6,0-1.12.41-1.26,1.22h2.33Z"/>
    <path class="st3" d="M390.48,8.64l.86-1.19c.58.44,1.12.68,1.66.68.57,0,.82-.22.82-.55,0-.42-.64-.62-1.3-.88-.79-.31-1.71-.83-1.71-1.9,0-1.2.98-2.02,2.46-2.02.99,0,1.72.4,2.27.82l-.86,1.15c-.46-.33-.91-.55-1.36-.55-.49,0-.74.19-.74.52,0,.41.6.57,1.27.81.82.3,1.74.76,1.74,1.94s-.92,2.08-2.65,2.08c-.85,0-1.82-.37-2.48-.9h.02Z"/>
    <path class="st3" d="M396.57,10.9c.96-.33,1.47-.94,1.46-1.61l-.03-1.28.62,1.07c-.19.16-.43.24-.69.24-.6,0-1.15-.39-1.15-1.09,0-.65.53-1.09,1.2-1.09.85,0,1.32.68,1.32,1.81,0,1.42-.82,2.51-2.33,2.97l-.39-1.02h-.01Z"/>
    <path class="st3" d="M403.56,7.04v-2.6h-.88v-1.43l.99-.07.22-1.71h1.58v1.71h1.55v1.5h-1.55v2.58c0,.73.33,1.02.83,1.02.21,0,.44-.06.61-.12l.3,1.39c-.34.11-.81.23-1.43.23-1.59,0-2.23-1.01-2.23-2.5h.01Z"/>
    <path class="st3" d="M408.28.28h1.91v2.23l-.09,1.17c.48-.44,1.11-.89,1.99-.89,1.4,0,2,.99,2,2.6v4h-1.91v-3.76c0-.93-.25-1.22-.8-1.22-.48,0-.77.22-1.19.63v4.35h-1.91V.28Z"/>
    <path class="st3" d="M415.33,6.17c0-2.14,1.51-3.38,3.14-3.38s3.14,1.24,3.14,3.38-1.51,3.38-3.14,3.38-3.14-1.24-3.14-3.38ZM419.66,6.17c0-1.12-.39-1.84-1.18-1.84s-1.18.72-1.18,1.84.39,1.84,1.18,1.84,1.18-.72,1.18-1.84Z"/>
    <path class="st3" d="M422.86,6.94V2.94h1.91v3.76c0,.93.25,1.22.8,1.22.48,0,.77-.2,1.15-.71V2.94h1.91v6.45h-1.56l-.14-.89h-.05c-.54.64-1.15,1.05-2.03,1.05-1.4,0-2-.99-2-2.6h.01Z"/>
    <path class="st3" d="M429.91,10.5c0-.54.32-.97.91-1.3v-.05c-.33-.22-.59-.56-.59-1.1,0-.46.31-.92.72-1.21v-.05c-.45-.32-.87-.92-.87-1.67,0-1.55,1.28-2.33,2.67-2.33.36,0,.71.06,1,.16h2.36v1.39h-1.04c.12.19.22.51.22.85,0,1.48-1.13,2.17-2.54,2.17-.24,0-.5-.04-.79-.12-.16.14-.22.25-.22.48,0,.32.26.47.96.47h1.05c1.58,0,2.46.48,2.46,1.64,0,1.34-1.4,2.32-3.61,2.32-1.5,0-2.7-.49-2.7-1.63v-.02ZM434.39,10.14c0-.41-.35-.5-.98-.5h-.67c-.44,0-.69-.03-.9-.08-.24.2-.35.4-.35.63,0,.49.57.74,1.43.74s1.48-.34,1.48-.79h0ZM433.64,5.12c0-.69-.37-1.05-.88-1.05s-.88.36-.88,1.05.38,1.07.88,1.07.88-.37.88-1.07Z"/>
    <path class="st3" d="M437.25.28h1.91v2.23l-.09,1.17c.48-.44,1.11-.89,1.99-.89,1.4,0,2,.99,2,2.6v4h-1.91v-3.76c0-.93-.25-1.22-.8-1.22-.48,0-.77.22-1.19.63v4.35h-1.91V.28Z"/>
    <path class="st3" d="M447.53,7.04v-2.6h-.88v-1.43l.99-.07.22-1.71h1.58v1.71h1.55v1.5h-1.55v2.58c0,.73.33,1.02.83,1.02.21,0,.44-.06.61-.12l.3,1.39c-.34.11-.81.23-1.43.23-1.59,0-2.23-1.01-2.23-2.5h.01Z"/>
    <path class="st3" d="M452.25.28h1.91v2.23l-.09,1.17c.48-.44,1.11-.89,1.99-.89,1.4,0,2,.99,2,2.6v4h-1.91v-3.76c0-.93-.25-1.22-.8-1.22-.48,0-.77.22-1.19.63v4.35h-1.91V.28Z"/>
    <path class="st3" d="M459.3,6.17c0-2.09,1.49-3.38,3.04-3.38,1.84,0,2.75,1.34,2.75,3.1,0,.34-.04.69-.08.84h-3.86c.17.94.81,1.36,1.67,1.36.49,0,.93-.15,1.4-.42l.63,1.15c-.66.46-1.52.73-2.29.73-1.84,0-3.26-1.24-3.26-3.38h0ZM463.45,5.46c0-.71-.31-1.22-1.07-1.22-.6,0-1.12.41-1.26,1.22h2.33Z"/>
    <path class="st3" d="M469,.28h1.91v2.23l-.09,1.17c.48-.44,1.11-.89,1.99-.89,1.4,0,2,.99,2,2.6v4h-1.91v-3.76c0-.93-.25-1.22-.8-1.22-.48,0-.77.22-1.19.63v4.35h-1.91V.28Z"/>
    <path class="st3" d="M476.28,1c0-.59.47-1,1.11-1s1.11.41,1.11,1-.47,1-1.11,1-1.11-.42-1.11-1ZM476.43,2.94h1.91v6.45h-1.91V2.94Z"/>
    <path class="st3" d="M479.62,10.5c0-.54.32-.97.91-1.3v-.05c-.33-.22-.59-.56-.59-1.1,0-.46.31-.92.72-1.21v-.05c-.45-.32-.87-.92-.87-1.67,0-1.55,1.28-2.33,2.67-2.33.36,0,.71.06,1,.16h2.36v1.39h-1.04c.12.19.22.51.22.85,0,1.48-1.13,2.17-2.54,2.17-.24,0-.5-.04-.79-.12-.16.14-.22.25-.22.48,0,.32.26.47.96.47h1.05c1.58,0,2.46.48,2.46,1.64,0,1.34-1.4,2.32-3.61,2.32-1.5,0-2.7-.49-2.7-1.63v-.02ZM484.1,10.14c0-.41-.35-.5-.98-.5h-.67c-.44,0-.69-.03-.9-.08-.24.2-.35.4-.35.63,0,.49.57.74,1.43.74s1.48-.34,1.48-.79h0ZM483.35,5.12c0-.69-.37-1.05-.88-1.05s-.88.36-.88,1.05.38,1.07.88,1.07.88-.37.88-1.07Z"/>
    <path class="st3" d="M486.96.28h1.91v2.23l-.09,1.17c.48-.44,1.11-.89,1.99-.89,1.4,0,2,.99,2,2.6v4h-1.91v-3.76c0-.93-.25-1.22-.8-1.22-.48,0-.77.22-1.19.63v4.35h-1.91V.28Z"/>
    <path class="st3" d="M494.01,6.17c0-2.09,1.49-3.38,3.04-3.38,1.84,0,2.75,1.34,2.75,3.1,0,.34-.04.69-.08.84h-3.86c.17.94.81,1.36,1.67,1.36.49,0,.93-.15,1.4-.42l.63,1.15c-.66.46-1.52.73-2.29.73-1.84,0-3.26-1.24-3.26-3.38h0ZM498.16,5.46c0-.71-.31-1.22-1.07-1.22-.6,0-1.12.41-1.26,1.22h2.33Z"/>
    <path class="st3" d="M500.54,8.64l.86-1.19c.58.44,1.12.68,1.66.68.57,0,.82-.22.82-.55,0-.42-.64-.62-1.3-.88-.79-.31-1.71-.83-1.71-1.9,0-1.2.98-2.02,2.46-2.02.99,0,1.72.4,2.27.82l-.86,1.15c-.46-.33-.91-.55-1.36-.55-.49,0-.74.19-.74.52,0,.41.6.57,1.27.81.82.3,1.74.76,1.74,1.94s-.92,2.08-2.65,2.08c-.85,0-1.82-.37-2.48-.9h.02Z"/>
    <path class="st3" d="M506.87,7.04v-2.6h-.88v-1.43l.99-.07.22-1.71h1.58v1.71h1.55v1.5h-1.55v2.58c0,.73.33,1.02.83,1.02.21,0,.44-.06.61-.12l.3,1.39c-.34.11-.81.23-1.43.23-1.59,0-2.23-1.01-2.23-2.5h.01Z"/>
    <path class="st3" d="M.62,16.6c0-.59.46-1,1.11-1s1.11.41,1.11,1-.46,1-1.11,1-1.11-.42-1.11-1ZM.77,18.54h1.91v6.45H.77s0-6.45,0-6.45Z"/>
    <path class="st3" d="M4.35,18.54h1.56l.14.82h.05c.54-.52,1.19-.97,2.07-.97,1.4,0,2,.99,2,2.6v4h-1.91v-3.76c0-.93-.25-1.22-.8-1.22-.48,0-.77.22-1.19.63v4.35h-1.91v-6.45h-.01Z"/>
    <path class="st3" d="M11.42,21.77c0-2.14,1.58-3.38,3.36-3.38.79,0,1.4.28,1.88.69l-.9,1.23c-.31-.26-.57-.38-.87-.38-.92,0-1.51.72-1.51,1.84s.61,1.84,1.44,1.84c.42,0,.83-.21,1.16-.48l.75,1.25c-.63.55-1.43.77-2.13.77-1.8,0-3.19-1.24-3.19-3.38h.01Z"/>
    <path class="st3" d="M17.12,21.77c0-2.14,1.51-3.38,3.14-3.38s3.14,1.24,3.14,3.38-1.51,3.38-3.14,3.38-3.14-1.24-3.14-3.38ZM21.45,21.77c0-1.12-.39-1.84-1.18-1.84s-1.18.72-1.18,1.84.39,1.84,1.18,1.84,1.18-.72,1.18-1.84Z"/>
    <path class="st3" d="M24.71,18.54h1.56l.14.83h.05c.53-.53,1.11-.98,1.95-.98.91,0,1.45.39,1.78,1.09.57-.59,1.17-1.09,2.02-1.09,1.39,0,2.02.99,2.02,2.6v4h-1.91v-3.76c0-.93-.25-1.22-.8-1.22-.32,0-.69.2-1.1.63v4.35h-1.91v-3.76c0-.93-.25-1.22-.8-1.22-.32,0-.69.2-1.1.63v4.35h-1.91v-6.45h0Z"/>
    <path class="st3" d="M35.48,21.77c0-2.09,1.49-3.38,3.04-3.38,1.84,0,2.75,1.34,2.75,3.1,0,.34-.04.69-.08.84h-3.86c.17.94.81,1.36,1.67,1.36.49,0,.93-.15,1.39-.42l.63,1.15c-.66.46-1.52.73-2.29.73-1.84,0-3.26-1.24-3.26-3.38h.01ZM39.64,21.06c0-.71-.31-1.22-1.07-1.22-.6,0-1.13.41-1.26,1.22h2.33Z"/>
    <path class="st3" d="M44.81,23.83l3.75-5.71h-3.39v-1.61h5.75v1.16l-3.75,5.71h3.78v1.61h-6.14v-1.16Z"/>
    <path class="st3" d="M52.28,16.52h1.92v8.47h-1.92s0-8.47,0-8.47Z"/>
    <path class="st3" d="M56.19,16.52h2.91c1.86,0,3.37.67,3.37,2.73s-1.52,2.87-3.32,2.87h-1.05v2.88h-1.92v-8.47h0ZM59.04,20.59c1.05,0,1.55-.47,1.55-1.35s-.57-1.2-1.6-1.2h-.88v2.56h.93Z"/>
    <path class="st3" d="M66,21.77c0-2.14,1.58-3.38,3.36-3.38.79,0,1.4.28,1.88.69l-.9,1.23c-.31-.26-.57-.38-.87-.38-.92,0-1.51.72-1.51,1.84s.61,1.84,1.44,1.84c.42,0,.83-.21,1.16-.48l.75,1.25c-.63.55-1.43.77-2.13.77-1.8,0-3.19-1.24-3.19-3.38h.01Z"/>
    <path class="st3" d="M71.71,21.77c0-2.14,1.51-3.38,3.14-3.38s3.14,1.24,3.14,3.38-1.51,3.38-3.14,3.38-3.14-1.24-3.14-3.38ZM76.04,21.77c0-1.12-.39-1.84-1.18-1.84s-1.18.72-1.18,1.84.39,1.84,1.18,1.84,1.18-.72,1.18-1.84Z"/>
    <path class="st3" d="M78.97,21.77c0-2.11,1.32-3.38,2.67-3.38.71,0,1.15.26,1.58.67l-.07-.98v-2.2h1.91v9.11h-1.56l-.14-.64h-.05c-.46.46-1.09.79-1.72.79-1.6,0-2.64-1.27-2.64-3.38h.02ZM83.16,23v-2.65c-.34-.3-.72-.41-1.07-.41-.62,0-1.16.57-1.16,1.8s.44,1.84,1.18,1.84c.41,0,.74-.15,1.05-.58Z"/>
    <path class="st3" d="M86.37,21.77c0-2.09,1.49-3.38,3.04-3.38,1.84,0,2.75,1.34,2.75,3.1,0,.34-.04.69-.08.84h-3.86c.17.94.81,1.36,1.67,1.36.49,0,.93-.15,1.39-.42l.63,1.15c-.66.46-1.52.73-2.29.73-1.84,0-3.26-1.24-3.26-3.38h.01ZM90.53,21.06c0-.71-.31-1.22-1.07-1.22-.6,0-1.13.41-1.26,1.22h2.33Z"/>
    <path class="st3" d="M92.91,24.25l.86-1.19c.58.44,1.12.68,1.66.68.57,0,.81-.22.81-.55,0-.43-.64-.62-1.3-.88-.79-.31-1.71-.83-1.71-1.9,0-1.2.98-2.02,2.46-2.02.99,0,1.72.4,2.27.82l-.86,1.15c-.46-.33-.91-.55-1.36-.55-.49,0-.74.19-.74.51,0,.41.6.57,1.27.81.82.3,1.74.76,1.74,1.94s-.92,2.08-2.65,2.08c-.85,0-1.82-.37-2.48-.9h.03Z"/>
    <path class="st3" d="M101.84,18.54h1.56l.14,1.13h.05c.47-.86,1.17-1.28,1.83-1.28.37,0,.58.05.77.13l-.32,1.65c-.23-.06-.42-.1-.7-.1-.49,0-1.08.31-1.42,1.19v3.74h-1.91v-6.45h0Z"/>
    <path class="st3" d="M106.51,21.77c0-2.09,1.49-3.38,3.04-3.38,1.84,0,2.75,1.34,2.75,3.1,0,.34-.04.69-.08.84h-3.86c.17.94.81,1.36,1.67,1.36.49,0,.93-.15,1.39-.42l.63,1.15c-.66.46-1.52.73-2.29.73-1.84,0-3.26-1.24-3.26-3.38h.01ZM110.67,21.06c0-.71-.31-1.22-1.07-1.22-.6,0-1.13.41-1.26,1.22h2.33Z"/>
    <path class="st3" d="M113.62,18.54h1.56l.14.63h.05c.51-.45,1.16-.79,1.84-.79,1.56,0,2.52,1.29,2.52,3.28,0,2.21-1.32,3.48-2.71,3.48-.56,0-1.08-.24-1.54-.67l.06,1.02v1.89h-1.91v-8.84h0ZM117.76,21.68c0-1.16-.36-1.74-1.12-1.74-.39,0-.73.18-1.11.58v2.65c.35.3.71.41,1.03.41.67,0,1.2-.56,1.2-1.9Z"/>
    <path class="st3" d="M120.69,21.77c0-2.14,1.51-3.38,3.14-3.38s3.14,1.24,3.14,3.38-1.51,3.38-3.14,3.38-3.14-1.24-3.14-3.38ZM125.02,21.77c0-1.12-.39-1.84-1.18-1.84s-1.18.72-1.18,1.84.39,1.84,1.18,1.84,1.18-.72,1.18-1.84Z"/>
    <path class="st3" d="M128.28,18.54h1.56l.14,1.13h.05c.47-.86,1.17-1.28,1.83-1.28.37,0,.58.05.77.13l-.32,1.65c-.23-.06-.42-.1-.7-.1-.49,0-1.08.31-1.42,1.19v3.74h-1.91v-6.45h0Z"/>
    <path class="st3" d="M133.72,22.64v-2.61h-.88v-1.43l.99-.07.22-1.71h1.58v1.71h1.55v1.5h-1.55v2.58c0,.73.33,1.02.83,1.02.21,0,.44-.06.61-.12l.3,1.39c-.34.11-.81.23-1.43.23-1.59,0-2.23-1.01-2.23-2.5h0Z"/>
    <path class="st3" d="M140.66,21.77c0-2.14,1.51-3.38,3.14-3.38s3.14,1.24,3.14,3.38-1.51,3.38-3.14,3.38-3.14-1.24-3.14-3.38ZM144.99,21.77c0-1.12-.39-1.84-1.18-1.84s-1.18.72-1.18,1.84.39,1.84,1.18,1.84,1.18-.72,1.18-1.84Z"/>
    <path class="st3" d="M148.25,18.54h1.56l.14.82h.05c.54-.52,1.19-.97,2.07-.97,1.4,0,2,.99,2,2.6v4h-1.91v-3.76c0-.93-.25-1.22-.8-1.22-.48,0-.77.22-1.19.63v4.35h-1.91v-6.45h0Z"/>
    <path class="st3" d="M155.69,22.99v-7.1h1.91v7.18c0,.41.19.54.35.54.07,0,.13,0,.23-.03l.23,1.41c-.21.09-.52.16-.96.16-1.31,0-1.76-.85-1.76-2.16Z"/>
    <path class="st3" d="M159.21,27.38l.34-1.46c.12.03.29.08.43.08.63,0,.96-.35,1.13-.85l.1-.34-2.49-6.28h1.92l.92,2.78c.19.58.34,1.2.51,1.83h.05c.14-.61.29-1.22.45-1.83l.78-2.78h1.83l-2.24,6.52c-.61,1.62-1.3,2.45-2.82,2.45-.4,0-.66-.05-.92-.13h.01Z"/>
    <path class="st3" d="M168.48,23.2c0-1.36,1.08-2.09,3.63-2.36-.04-.56-.32-.93-1.02-.93-.54,0-1.08.23-1.71.58l-.68-1.25c.82-.5,1.74-.85,2.75-.85,1.65,0,2.56.94,2.56,2.92v3.69h-1.56l-.14-.66h-.05c-.54.48-1.15.82-1.88.82-1.18,0-1.92-.86-1.92-1.94l.02-.02ZM172.11,23.12v-1.13c-1.36.18-1.8.57-1.8,1.06,0,.42.29.62.74.62s.72-.21,1.06-.55Z"/>
    <path class="st3" d="M177.33,24.3h-.05l-.16.69h-1.5v-9.11h1.91v2.23l-.05.99c.49-.44,1.1-.71,1.71-.71,1.56,0,2.53,1.29,2.53,3.27,0,2.22-1.32,3.49-2.71,3.49-.58,0-1.17-.29-1.68-.84h0ZM179.77,21.68c0-1.16-.36-1.74-1.12-1.74-.39,0-.74.18-1.11.58v2.65c.34.3.71.41,1.03.41.67,0,1.2-.56,1.2-1.9Z"/>
    <path class="st3" d="M182.7,21.77c0-2.14,1.51-3.38,3.14-3.38s3.14,1.24,3.14,3.38-1.51,3.38-3.14,3.38-3.14-1.24-3.14-3.38ZM187.03,21.77c0-1.12-.39-1.84-1.18-1.84s-1.18.72-1.18,1.84.39,1.84,1.18,1.84,1.18-.72,1.18-1.84Z"/>
    <path class="st3" d="M190.23,22.54v-4h1.91v3.76c0,.93.25,1.22.8,1.22.48,0,.77-.2,1.15-.71v-4.27h1.91v6.45h-1.56l-.14-.89h-.05c-.54.64-1.15,1.05-2.03,1.05-1.4,0-2-.99-2-2.6h0Z"/>
    <path class="st3" d="M197.94,22.64v-2.61h-.88v-1.43l.99-.07.22-1.71h1.58v1.71h1.55v1.5h-1.55v2.58c0,.73.33,1.02.83,1.02.21,0,.44-.06.61-.12l.3,1.39c-.34.11-.81.23-1.43.23-1.59,0-2.23-1.01-2.23-2.5h0Z"/>
    <path class="st3" d="M208.69,18.34h-3.7v-1.61h5.75v1.18c-1.92,2.3-2.18,3.86-2.33,7.08h-1.92c.15-2.75.64-4.49,2.21-6.65h-.01Z"/>
    <path class="st3" d="M211.61,19.04c0-1.69.89-2.68,2.12-2.68s2.12.98,2.12,2.68-.89,2.7-2.12,2.7-2.12-1-2.12-2.7ZM214.51,19.04c0-1.2-.35-1.61-.78-1.61s-.78.41-.78,1.61.35,1.64.78,1.64.78-.43.78-1.64ZM218.59,16.36h1.1l-4.57,8.79h-1.1s4.57-8.79,4.57-8.79ZM217.86,22.44c0-1.69.89-2.68,2.12-2.68s2.12.98,2.12,2.68-.89,2.7-2.12,2.7-2.12-1-2.12-2.7ZM220.76,22.44c0-1.2-.35-1.61-.78-1.61s-.78.41-.78,1.61.35,1.64.78,1.64.78-.43.78-1.64Z"/>
    <path class="st3" d="M225.33,18.61l.97-.07h2.96v1.5h-3.93v-1.43h0ZM226.19,18.21c0-1.36.63-2.48,2.37-2.48.54,0,1,.12,1.29.23l-.34,1.41c-.22-.09-.46-.14-.67-.14-.47,0-.74.26-.74.92v6.84h-1.91v-6.78h0Z"/>
    <path class="st3" d="M229.79,21.77c0-2.09,1.49-3.38,3.04-3.38,1.84,0,2.75,1.34,2.75,3.1,0,.34-.04.69-.08.84h-3.86c.17.94.81,1.36,1.67,1.36.49,0,.93-.15,1.39-.42l.63,1.15c-.66.46-1.52.73-2.29.73-1.84,0-3.26-1.24-3.26-3.38h0ZM233.95,21.06c0-.71-.31-1.22-1.07-1.22-.6,0-1.12.41-1.25,1.22h2.33,0Z"/>
    <path class="st3" d="M236.29,18.54h1.9l.62,2.99c.11.64.18,1.26.29,1.92h.05c.11-.65.23-1.3.38-1.92l.7-2.99h1.66l.73,2.99c.16.64.27,1.26.4,1.92h.05c.11-.65.18-1.28.3-1.92l.61-2.99h1.77l-1.54,6.45h-2.24l-.59-2.58c-.12-.6-.23-1.19-.34-1.89h-.05c-.11.69-.21,1.29-.33,1.89l-.57,2.57h-2.19l-1.61-6.45h0Z"/>
    <path class="st3" d="M246.43,21.77c0-2.09,1.49-3.38,3.04-3.38,1.84,0,2.75,1.34,2.75,3.1,0,.34-.04.69-.08.84h-3.86c.17.94.81,1.36,1.67,1.36.49,0,.93-.15,1.39-.42l.63,1.15c-.66.46-1.52.73-2.29.73-1.84,0-3.26-1.24-3.26-3.38h0ZM250.58,21.06c0-.71-.31-1.22-1.07-1.22-.6,0-1.12.41-1.25,1.22h2.33,0Z"/>
    <path class="st3" d="M253.54,18.54h1.56l.14,1.13h.05c.47-.86,1.17-1.28,1.83-1.28.37,0,.58.05.77.13l-.32,1.65c-.23-.06-.42-.1-.7-.1-.49,0-1.08.31-1.42,1.19v3.74h-1.91v-6.45h0Z"/>
    <path class="st3" d="M260.94,21.77c0-2.14,1.58-3.38,3.36-3.38.79,0,1.4.28,1.88.69l-.9,1.23c-.31-.26-.57-.38-.87-.38-.92,0-1.51.72-1.51,1.84s.61,1.84,1.44,1.84c.42,0,.83-.21,1.16-.48l.75,1.25c-.63.55-1.43.77-2.13.77-1.8,0-3.19-1.24-3.19-3.38h.01Z"/>
    <path class="st3" d="M266.64,21.77c0-2.14,1.51-3.38,3.14-3.38s3.14,1.24,3.14,3.38-1.51,3.38-3.14,3.38-3.14-1.24-3.14-3.38ZM270.97,21.77c0-1.12-.39-1.84-1.18-1.84s-1.18.72-1.18,1.84.39,1.84,1.18,1.84,1.18-.72,1.18-1.84Z"/>
    <path class="st3" d="M274.23,18.54h1.56l.14.83h.05c.53-.53,1.11-.98,1.95-.98.91,0,1.45.39,1.78,1.09.57-.59,1.17-1.09,2.02-1.09,1.39,0,2.02.99,2.02,2.6v4h-1.91v-3.76c0-.93-.25-1.22-.8-1.22-.32,0-.69.2-1.1.63v4.35h-1.91v-3.76c0-.93-.25-1.22-.8-1.22-.32,0-.69.2-1.1.63v4.35h-1.91v-6.45h.01Z"/>
    <path class="st3" d="M285.37,18.54h1.56l.14.63h.05c.51-.45,1.16-.79,1.84-.79,1.56,0,2.52,1.29,2.52,3.28,0,2.21-1.32,3.48-2.71,3.48-.56,0-1.08-.24-1.54-.67l.06,1.02v1.89h-1.91v-8.84h0ZM289.51,21.68c0-1.16-.36-1.74-1.12-1.74-.39,0-.73.18-1.11.58v2.65c.35.3.71.41,1.03.41.67,0,1.2-.56,1.2-1.9h0Z"/>
    <path class="st3" d="M292.72,22.99v-7.1h1.91v7.18c0,.41.19.54.35.54.07,0,.13,0,.23-.03l.23,1.41c-.21.09-.52.16-.96.16-1.31,0-1.76-.85-1.76-2.16h0Z"/>
    <path class="st3" d="M296.14,23.2c0-1.36,1.08-2.09,3.63-2.36-.04-.56-.32-.93-1.02-.93-.54,0-1.08.23-1.71.58l-.68-1.25c.82-.5,1.74-.85,2.75-.85,1.65,0,2.56.94,2.56,2.92v3.69h-1.56l-.14-.66h-.05c-.54.48-1.15.82-1.88.82-1.18,0-1.92-.86-1.92-1.94l.02-.02ZM299.77,23.12v-1.13c-1.36.18-1.8.57-1.8,1.06,0,.42.29.62.74.62s.72-.21,1.06-.55Z"/>
    <path class="st3" d="M303.14,16.6c0-.59.47-1,1.11-1s1.11.41,1.11,1-.47,1-1.11,1-1.11-.42-1.11-1ZM303.29,18.54h1.91v6.45h-1.91s0-6.45,0-6.45Z"/>
    <path class="st3" d="M306.88,18.54h1.56l.14.82h.05c.54-.52,1.19-.97,2.07-.97,1.4,0,2,.99,2,2.6v4h-1.91v-3.76c0-.93-.25-1.22-.8-1.22-.48,0-.77.22-1.19.63v4.35h-1.91v-6.45h-.01Z"/>
    <path class="st3" d="M314.57,22.64v-2.61h-.88v-1.43l.99-.07.22-1.71h1.58v1.71h1.55v1.5h-1.55v2.58c0,.73.33,1.02.83,1.02.21,0,.44-.06.61-.12l.3,1.39c-.34.11-.81.23-1.43.23-1.59,0-2.23-1.01-2.23-2.5h.01Z"/>
    <path class="st3" d="M318.59,24.25l.86-1.19c.58.44,1.12.68,1.66.68.57,0,.82-.22.82-.55,0-.43-.64-.62-1.3-.88-.79-.31-1.71-.83-1.71-1.9,0-1.2.98-2.02,2.46-2.02.99,0,1.72.4,2.27.82l-.86,1.15c-.46-.33-.91-.55-1.36-.55-.49,0-.74.19-.74.51,0,.41.6.57,1.27.81.82.3,1.74.76,1.74,1.94s-.92,2.08-2.65,2.08c-.85,0-1.82-.37-2.48-.9h.02Z"/>
    <path class="st3" d="M324.88,23.95c0-.68.49-1.21,1.15-1.21s1.15.52,1.15,1.21-.49,1.2-1.15,1.2-1.15-.52-1.15-1.2Z"/>
  </g>
  <g class="st1">
    <path class="st4" d="M0,221.02l.6-.69c.57.59,1.35.98,2.17.98,1.03,0,1.65-.51,1.65-1.28s-.57-1.06-1.31-1.38l-1.13-.5c-.73-.31-1.59-.87-1.59-2.03s1.05-2.09,2.48-2.09c.93,0,1.76.4,2.32.98l-.53.64c-.48-.46-1.06-.74-1.79-.74-.88,0-1.47.45-1.47,1.15,0,.76.69,1.04,1.3,1.3l1.12.49c.91.39,1.62.93,1.62,2.1,0,1.24-1.03,2.24-2.68,2.24-1.1,0-2.07-.45-2.75-1.17h0Z"/>
    <path class="st4" d="M6.46,219.14c0-1.95,1.27-3.07,2.7-3.07s2.7,1.12,2.7,3.07-1.27,3.05-2.7,3.05-2.7-1.12-2.7-3.05ZM10.84,219.14c0-1.34-.68-2.25-1.68-2.25s-1.68.91-1.68,2.25.68,2.23,1.68,2.23,1.68-.89,1.68-2.23Z"/>
    <path class="st4" d="M13.32,219.91v-3.69h.99v3.57c0,1.09.33,1.55,1.1,1.55.6,0,1.01-.29,1.56-.98v-4.13h.99v5.83h-.81l-.08-.91h-.03c-.54.64-1.12,1.06-1.92,1.06-1.23,0-1.78-.79-1.78-2.28l-.02-.02Z"/>
    <path class="st4" d="M19.92,216.21h.81l.08,1.06h.03c.41-.74,1-1.21,1.66-1.21.26,0,.44.03.62.12l-.18.87c-.2-.06-.33-.1-.57-.1-.49,0-1.08.35-1.47,1.34v3.74h-.99v-5.83h0Z"/>
    <path class="st4" d="M23.53,219.14c0-1.95,1.31-3.07,2.8-3.07.77,0,1.3.32,1.71.68l-.5.65c-.34-.31-.7-.51-1.16-.51-1.06,0-1.83.91-1.83,2.25s.73,2.23,1.8,2.23c.53,0,1.01-.26,1.37-.58l.43.66c-.52.47-1.19.74-1.88.74-1.55,0-2.73-1.12-2.73-3.05h-.01Z"/>
    <path class="st4" d="M28.75,219.14c0-1.9,1.28-3.07,2.62-3.07,1.49,0,2.33,1.07,2.33,2.74,0,.21-.02.42-.05.56h-3.93c.07,1.24.83,2.04,1.94,2.04.56,0,1.02-.18,1.45-.47l.35.65c-.51.33-1.13.6-1.92.6-1.55,0-2.79-1.14-2.79-3.05h0ZM32.83,218.66c0-1.17-.53-1.8-1.44-1.8-.82,0-1.55.66-1.67,1.8h3.11Z"/>
    <path class="st4" d="M34.94,217.12c0-.45.32-.76.71-.76s.71.31.71.76-.32.75-.71.75-.71-.31-.71-.75ZM34.94,221.44c0-.45.32-.76.71-.76s.71.31.71.76-.32.75-.71.75-.71-.31-.71-.75Z"/>
    <path class="st4" d="M40.62,214.17h1.03l2.85,4.95.85,1.63h.05c-.05-.79-.13-1.68-.13-2.5v-4.07h.95v7.87h-1.03l-2.85-4.95-.85-1.62h-.05c.05.8.13,1.64.13,2.46v4.12h-.95v-7.89Z"/>
    <path class="st4" d="M49.66,218.99l-2.37-4.82h1.07l1.02,2.22c.25.58.49,1.13.76,1.72h.05c.27-.59.54-1.14.79-1.72l1.02-2.22h1.04l-2.37,4.82v3.05h-1v-3.05h-.01Z"/>
    <path class="st4" d="M53.47,218.11c0-2.54,1.5-4.09,3.49-4.09.96,0,1.7.46,2.17.97l-.55.65c-.41-.44-.93-.74-1.6-.74-1.49,0-2.48,1.22-2.48,3.18s.94,3.22,2.44,3.22c.75,0,1.32-.33,1.82-.88l.55.63c-.62.72-1.39,1.14-2.42,1.14-1.96,0-3.43-1.52-3.43-4.07h0Z"/>
    <path class="st4" d="M62.72,218.08c0-2.52,1.39-4.05,3.36-4.05s3.36,1.54,3.36,4.05-1.39,4.11-3.36,4.11-3.36-1.59-3.36-4.11ZM68.42,218.08c0-1.96-.92-3.17-2.33-3.17s-2.33,1.21-2.33,3.17.92,3.23,2.33,3.23,2.33-1.27,2.33-3.23Z"/>
    <path class="st4" d="M71.06,216.21h.81l.08.67h.03c.53-.44,1.18-.82,1.86-.82,1.51,0,2.31,1.17,2.31,2.97,0,1.99-1.19,3.15-2.52,3.15-.53,0-1.08-.25-1.62-.67l.03,1.02v1.97h-.99v-8.29h.01ZM75.14,219.05c0-1.29-.44-2.15-1.54-2.15-.49,0-.99.27-1.56.8v3.06c.53.44,1.03.61,1.42.61.96,0,1.68-.87,1.68-2.31h0Z"/>
    <path class="st4" d="M77.28,219.14c0-1.9,1.28-3.07,2.62-3.07,1.49,0,2.33,1.07,2.33,2.74,0,.21-.02.42-.05.56h-3.93c.07,1.24.83,2.04,1.94,2.04.56,0,1.02-.18,1.45-.47l.35.65c-.51.33-1.13.6-1.92.6-1.55,0-2.79-1.14-2.79-3.05h0ZM81.36,218.66c0-1.17-.53-1.8-1.44-1.8-.82,0-1.55.66-1.67,1.8h3.11Z"/>
    <path class="st4" d="M83.67,216.21h.81l.08.84h.03c.56-.55,1.16-.98,1.96-.98,1.23,0,1.78.79,1.78,2.28v3.69h-.99v-3.57c0-1.09-.33-1.55-1.1-1.55-.6,0-1.01.3-1.59.9v4.22h-.99v-5.83h0Z"/>
    <path class="st4" d="M92.72,214.17h1.97c2.42,0,3.72,1.41,3.72,3.91s-1.3,3.96-3.67,3.96h-2.01v-7.87h-.01ZM94.62,221.22c1.84,0,2.76-1.15,2.76-3.14s-.92-3.09-2.76-3.09h-.89v6.23h.89Z"/>
    <path class="st4" d="M99.65,220.53c0-1.27,1.1-1.91,3.58-2.17,0-.75-.25-1.47-1.2-1.47-.67,0-1.28.32-1.74.62l-.39-.68c.54-.35,1.35-.76,2.29-.76,1.42,0,2.02.95,2.02,2.4v3.58h-.81l-.08-.7h-.03c-.56.46-1.2.84-1.93.84-.98,0-1.71-.61-1.71-1.66ZM103.23,220.62v-1.62c-1.95.24-2.61.71-2.61,1.46,0,.66.45.93,1.02.93s1.03-.27,1.59-.77Z"/>
    <path class="st4" d="M106.06,220.24v-3.22h-.87v-.75l.91-.06.12-1.63h.82v1.63h1.58v.8h-1.58v3.24c0,.71.23,1.12.9,1.12.21,0,.48-.08.66-.16l.19.74c-.33.11-.72.22-1.08.22-1.24,0-1.66-.79-1.66-1.95v.02Z"/>
    <path class="st4" d="M109.33,220.53c0-1.27,1.1-1.91,3.58-2.17,0-.75-.25-1.47-1.2-1.47-.67,0-1.28.32-1.74.62l-.39-.68c.54-.35,1.35-.76,2.29-.76,1.42,0,2.02.95,2.02,2.4v3.58h-.81l-.08-.7h-.03c-.56.46-1.2.84-1.93.84-.98,0-1.71-.61-1.71-1.66ZM112.91,220.62v-1.62c-1.95.24-2.61.71-2.61,1.46,0,.66.45.93,1.02.93s1.03-.27,1.59-.77Z"/>
    <path class="st4" d="M115.33,223.5c.68-.3,1.08-.83,1.08-1.49l-.11-.89.48.72c-.13.16-.31.21-.5.21-.38,0-.71-.24-.71-.69s.34-.69.73-.69c.52,0,.84.44.84,1.16,0,1.04-.6,1.84-1.57,2.24l-.24-.58h0ZM115.54,217.12c0-.45.32-.76.71-.76s.71.31.71.76-.32.75-.71.75-.71-.31-.71-.75Z"/>
    <path class="st4" d="M121.19,218.79v-4.62h1v4.65c0,1.89.8,2.49,1.83,2.49s1.87-.59,1.87-2.49v-4.65h.96v4.62c0,2.53-1.22,3.39-2.83,3.39s-2.83-.87-2.83-3.39Z"/>
    <path class="st4" d="M128.47,221.44c0-.45.32-.76.71-.76s.71.31.71.76-.32.75-.71.75-.71-.31-.71-.75Z"/>
    <path class="st4" d="M131.19,221.02l.6-.69c.57.59,1.35.98,2.17.98,1.03,0,1.65-.51,1.65-1.28s-.57-1.06-1.31-1.38l-1.13-.5c-.73-.31-1.59-.87-1.59-2.03s1.05-2.09,2.48-2.09c.93,0,1.76.4,2.32.98l-.53.64c-.48-.46-1.06-.74-1.79-.74-.88,0-1.47.45-1.47,1.15,0,.76.69,1.04,1.3,1.3l1.12.49c.91.39,1.62.93,1.62,2.1,0,1.24-1.03,2.24-2.68,2.24-1.1,0-2.07-.45-2.75-1.17h-.01Z"/>
    <path class="st4" d="M137.87,221.44c0-.45.32-.76.71-.76s.71.31.71.76-.32.75-.71.75-.71-.31-.71-.75Z"/>
    <path class="st4" d="M143.1,218.11c0-2.54,1.5-4.09,3.49-4.09.96,0,1.7.46,2.17.97l-.55.65c-.41-.44-.93-.74-1.6-.74-1.49,0-2.48,1.22-2.48,3.18s.94,3.22,2.44,3.22c.75,0,1.32-.33,1.82-.88l.55.63c-.62.72-1.39,1.14-2.41,1.14-1.96,0-3.43-1.52-3.43-4.07h0Z"/>
    <path class="st4" d="M149.88,219.14c0-1.9,1.28-3.07,2.62-3.07,1.49,0,2.33,1.07,2.33,2.74,0,.21-.02.42-.05.56h-3.93c.07,1.24.83,2.04,1.94,2.04.56,0,1.02-.18,1.45-.47l.35.65c-.51.33-1.13.6-1.92.6-1.55,0-2.79-1.14-2.79-3.05h0ZM153.96,218.66c0-1.17-.53-1.8-1.44-1.8-.82,0-1.55.66-1.67,1.8h3.11Z"/>
    <path class="st4" d="M156.27,216.21h.81l.08.84h.03c.56-.55,1.16-.98,1.96-.98,1.23,0,1.78.79,1.78,2.28v3.69h-.99v-3.57c0-1.09-.33-1.55-1.1-1.55-.6,0-1.01.3-1.59.9v4.22h-.99v-5.83h.01Z"/>
    <path class="st4" d="M162.18,221.38l.49-.65c.51.41,1.02.69,1.72.69.77,0,1.15-.41,1.15-.91,0-.6-.69-.87-1.33-1.1-.82-.3-1.74-.7-1.74-1.68s.75-1.65,2.01-1.65c.73,0,1.36.3,1.81.66l-.47.63c-.4-.3-.81-.52-1.33-.52-.73,0-1.07.39-1.07.84,0,.55.63.76,1.29,1.01.84.32,1.78.66,1.78,1.77,0,.95-.75,1.73-2.13,1.73-.83,0-1.63-.35-2.17-.81h0Z"/>
    <path class="st4" d="M167.78,219.91v-3.69h.99v3.57c0,1.09.33,1.55,1.1,1.55.6,0,1.01-.29,1.56-.98v-4.13h.99v5.83h-.81l-.08-.91h-.03c-.54.64-1.12,1.06-1.92,1.06-1.23,0-1.78-.79-1.78-2.28l-.02-.02Z"/>
    <path class="st4" d="M173.74,221.38l.49-.65c.51.41,1.02.69,1.72.69.77,0,1.15-.41,1.15-.91,0-.6-.69-.87-1.33-1.1-.82-.3-1.74-.7-1.74-1.68s.75-1.65,2.01-1.65c.73,0,1.36.3,1.81.66l-.47.63c-.4-.3-.81-.52-1.33-.52-.73,0-1.07.39-1.07.84,0,.55.63.76,1.29,1.01.84.32,1.78.66,1.78,1.77,0,.95-.75,1.73-2.13,1.73-.83,0-1.63-.35-2.17-.81h0Z"/>
    <path class="st4" d="M181.91,214.17h2.34c1.6,0,2.71.54,2.71,1.93,0,.78-.41,1.47-1.15,1.71v.05c.94.19,1.6.81,1.6,1.88,0,1.55-1.22,2.3-2.98,2.3h-2.52v-7.87h0ZM184.07,217.52c1.34,0,1.89-.49,1.89-1.29,0-.92-.63-1.26-1.85-1.26h-1.21v2.55h1.17ZM184.28,221.25c1.35,0,2.14-.48,2.14-1.55,0-.97-.76-1.41-2.14-1.41h-1.37v2.96h1.37Z"/>
    <path class="st4" d="M188.79,219.91v-3.69h.99v3.57c0,1.09.33,1.55,1.1,1.55.6,0,1.01-.29,1.56-.98v-4.13h.99v5.83h-.81l-.08-.91h-.03c-.54.64-1.12,1.06-1.92,1.06-1.23,0-1.78-.79-1.78-2.28l-.02-.02Z"/>
    <path class="st4" d="M195.4,216.21h.81l.08,1.06h.03c.41-.74,1-1.21,1.66-1.21.26,0,.44.03.62.12l-.18.87c-.2-.06-.33-.1-.57-.1-.49,0-1.08.35-1.47,1.34v3.74h-.99v-5.83h.01Z"/>
    <path class="st4" d="M199.01,219.14c0-1.9,1.28-3.07,2.62-3.07,1.49,0,2.33,1.07,2.33,2.74,0,.21-.02.42-.05.56h-3.93c.07,1.24.83,2.04,1.94,2.04.56,0,1.02-.18,1.45-.47l.35.65c-.51.33-1.13.6-1.92.6-1.55,0-2.79-1.14-2.79-3.05h0ZM203.08,218.66c0-1.17-.53-1.8-1.44-1.8-.82,0-1.55.66-1.67,1.8h3.11Z"/>
    <path class="st4" d="M204.86,220.53c0-1.27,1.1-1.91,3.58-2.17,0-.75-.25-1.47-1.2-1.47-.67,0-1.28.32-1.74.62l-.39-.68c.54-.35,1.35-.76,2.29-.76,1.42,0,2.02.95,2.02,2.4v3.58h-.81l-.08-.7h-.03c-.56.46-1.2.84-1.93.84-.98,0-1.71-.61-1.71-1.66ZM208.44,220.62v-1.62c-1.95.24-2.61.71-2.61,1.46,0,.66.45.93,1.02.93s1.03-.27,1.59-.77Z"/>
    <path class="st4" d="M211.19,219.91v-3.69h.99v3.57c0,1.09.33,1.55,1.1,1.55.6,0,1.01-.29,1.56-.98v-4.13h.99v5.83h-.81l-.08-.91h-.03c-.54.64-1.12,1.06-1.92,1.06-1.23,0-1.78-.79-1.78-2.28l-.02-.02Z"/>
    <path class="st4" d="M217.38,223.5c.68-.3,1.08-.83,1.08-1.49l-.11-.89.48.72c-.13.16-.31.21-.5.21-.38,0-.71-.24-.71-.69s.34-.69.73-.69c.52,0,.84.44.84,1.16,0,1.04-.6,1.84-1.57,2.24l-.24-.58h0Z"/>
    <path class="st4" d="M224.9,214.17h1.13l2.66,7.87h-1.06l-1.37-4.4c-.28-.88-.54-1.74-.79-2.65h-.05c-.24.91-.5,1.77-.78,2.65l-1.39,4.4h-1.02l2.66-7.87h0ZM223.64,218.85h3.62v.8h-3.62v-.8Z"/>
    <path class="st4" d="M229.72,216.21h.81l.08.85h.03c.51-.55,1.12-.99,1.81-.99.89,0,1.37.43,1.61,1.11.61-.66,1.21-1.11,1.92-1.11,1.2,0,1.77.79,1.77,2.28v3.69h-.99v-3.57c0-1.09-.34-1.55-1.08-1.55-.45,0-.92.3-1.46.9v4.22h-.99v-3.57c0-1.09-.34-1.55-1.08-1.55-.44,0-.92.3-1.46.9v4.22h-.99v-5.83h.02Z"/>
    <path class="st4" d="M239.23,219.14c0-1.9,1.28-3.07,2.62-3.07,1.49,0,2.33,1.07,2.33,2.74,0,.21-.02.42-.05.56h-3.93c.07,1.24.83,2.04,1.94,2.04.56,0,1.02-.18,1.45-.47l.35.65c-.51.33-1.13.6-1.92.6-1.55,0-2.79-1.14-2.79-3.05h0ZM243.31,218.66c0-1.17-.53-1.8-1.44-1.8-.82,0-1.55.66-1.67,1.8h3.11Z"/>
    <path class="st4" d="M245.62,216.21h.81l.08,1.06h.03c.41-.74,1-1.21,1.66-1.21.26,0,.44.03.62.12l-.18.87c-.2-.06-.33-.1-.57-.1-.49,0-1.08.35-1.47,1.34v3.74h-.99v-5.83h.01Z"/>
    <path class="st4" d="M249.6,214.38c0-.39.3-.64.68-.64s.68.25.68.64-.3.64-.68.64-.68-.26-.68-.64ZM249.78,216.21h.99v5.83h-.99v-5.83Z"/>
    <path class="st4" d="M252.3,219.14c0-1.95,1.31-3.07,2.8-3.07.77,0,1.3.32,1.71.68l-.5.65c-.34-.31-.7-.51-1.16-.51-1.06,0-1.83.91-1.83,2.25s.73,2.23,1.8,2.23c.53,0,1.01-.26,1.37-.58l.43.66c-.52.47-1.19.74-1.88.74-1.55,0-2.73-1.12-2.73-3.05h0Z"/>
    <path class="st4" d="M257.72,220.53c0-1.27,1.1-1.91,3.58-2.17,0-.75-.25-1.47-1.2-1.47-.67,0-1.28.32-1.74.62l-.39-.68c.54-.35,1.35-.76,2.29-.76,1.42,0,2.02.95,2.02,2.4v3.58h-.81l-.08-.7h-.03c-.56.46-1.2.84-1.93.84-.98,0-1.71-.61-1.71-1.66ZM261.3,220.62v-1.62c-1.95.24-2.61.71-2.61,1.46,0,.66.45.93,1.02.93s1.03-.27,1.59-.77Z"/>
    <path class="st4" d="M264.13,216.21h.81l.08.84h.03c.56-.55,1.16-.98,1.96-.98,1.23,0,1.78.79,1.78,2.28v3.69h-.99v-3.57c0-1.09-.33-1.55-1.1-1.55-.6,0-1.01.3-1.59.9v4.22h-.99v-5.83h.01Z"/>
    <path class="st4" d="M272.73,218.11c0-2.54,1.5-4.09,3.49-4.09.96,0,1.7.46,2.17.97l-.55.65c-.41-.44-.93-.74-1.6-.74-1.49,0-2.48,1.22-2.48,3.18s.94,3.22,2.44,3.22c.75,0,1.32-.33,1.82-.88l.55.63c-.62.72-1.39,1.14-2.41,1.14-1.96,0-3.43-1.52-3.43-4.07h0Z"/>
    <path class="st4" d="M279.52,219.14c0-1.95,1.27-3.07,2.7-3.07s2.7,1.12,2.7,3.07-1.27,3.05-2.7,3.05-2.7-1.12-2.7-3.05ZM283.9,219.14c0-1.34-.68-2.25-1.68-2.25s-1.68.91-1.68,2.25.68,2.23,1.68,2.23,1.68-.89,1.68-2.23Z"/>
    <path class="st4" d="M286.45,216.21h.81l.08.85h.03c.51-.55,1.12-.99,1.81-.99.89,0,1.37.43,1.61,1.11.61-.66,1.21-1.11,1.92-1.11,1.2,0,1.77.79,1.77,2.28v3.69h-.99v-3.57c0-1.09-.34-1.55-1.08-1.55-.45,0-.92.3-1.46.9v4.22h-.99v-3.57c0-1.09-.34-1.55-1.08-1.55-.44,0-.92.3-1.46.9v4.22h-.99v-5.83h.02Z"/>
    <path class="st4" d="M296.4,216.21h.81l.08.85h.03c.51-.55,1.12-.99,1.81-.99.89,0,1.37.43,1.61,1.11.61-.66,1.21-1.11,1.92-1.11,1.2,0,1.77.79,1.77,2.28v3.69h-.99v-3.57c0-1.09-.34-1.55-1.08-1.55-.45,0-.92.3-1.46.9v4.22h-.99v-3.57c0-1.09-.34-1.55-1.08-1.55-.44,0-.92.3-1.46.9v4.22h-.99v-5.83h.02Z"/>
    <path class="st4" d="M306.27,219.91v-3.69h.99v3.57c0,1.09.33,1.55,1.1,1.55.6,0,1.01-.29,1.56-.98v-4.13h.99v5.83h-.82l-.08-.91h-.03c-.54.64-1.12,1.06-1.92,1.06-1.23,0-1.78-.79-1.78-2.28v-.02Z"/>
    <path class="st4" d="M312.88,216.21h.81l.08.84h.03c.56-.55,1.16-.98,1.96-.98,1.23,0,1.78.79,1.78,2.28v3.69h-.99v-3.57c0-1.09-.33-1.55-1.1-1.55-.6,0-1.01.3-1.59.9v4.22h-.99v-5.83h.01Z"/>
    <path class="st4" d="M319.26,214.38c0-.39.3-.64.68-.64s.68.25.68.64-.3.64-.68.64-.68-.26-.68-.64ZM319.44,216.21h.99v5.83h-.99v-5.83Z"/>
    <path class="st4" d="M322.56,220.24v-3.22h-.87v-.75l.91-.06.12-1.63h.82v1.63h1.58v.8h-1.58v3.24c0,.71.23,1.12.9,1.12.21,0,.47-.08.66-.16l.19.74c-.33.11-.72.22-1.08.22-1.24,0-1.66-.79-1.66-1.95v.02Z"/>
    <path class="st4" d="M325.86,224.44l.19-.79c.12.04.29.09.44.09.66,0,1.07-.53,1.31-1.25l.13-.43-2.34-5.84h1.02l1.19,3.23c.18.51.38,1.1.57,1.64h.05c.17-.53.33-1.13.49-1.64l1.04-3.23h.97l-2.2,6.31c-.41,1.16-1.01,2.03-2.18,2.03-.27,0-.5-.05-.68-.12h0Z"/>
    <path class="st4" d="M333.97,221.02l.6-.69c.57.59,1.35.98,2.17.98,1.03,0,1.65-.51,1.65-1.28s-.57-1.06-1.31-1.38l-1.13-.5c-.73-.31-1.59-.87-1.59-2.03s1.05-2.09,2.48-2.09c.93,0,1.76.4,2.32.98l-.53.64c-.48-.46-1.06-.74-1.79-.74-.88,0-1.47.45-1.47,1.15,0,.76.69,1.04,1.3,1.3l1.12.49c.91.39,1.62.93,1.62,2.1,0,1.24-1.03,2.24-2.68,2.24-1.1,0-2.07-.45-2.75-1.17h-.01Z"/>
    <path class="st4" d="M340.78,219.91v-3.69h.99v3.57c0,1.09.33,1.55,1.1,1.55.6,0,1.01-.29,1.56-.98v-4.13h.99v5.83h-.82l-.08-.91h-.03c-.54.64-1.12,1.06-1.92,1.06-1.23,0-1.78-.79-1.78-2.28v-.02Z"/>
    <path class="st4" d="M347.39,216.21h.82l.08,1.06h.03c.41-.74,1-1.21,1.66-1.21.26,0,.44.03.62.12l-.18.87c-.2-.06-.33-.1-.57-.1-.49,0-1.08.35-1.47,1.34v3.74h-.99v-5.83h0Z"/>
    <path class="st4" d="M351.01,216.21h1.02l1.1,3.31c.17.57.36,1.16.54,1.72h.05c.17-.56.36-1.15.54-1.72l1.1-3.31h.97l-2.06,5.83h-1.15l-2.1-5.83h-.01Z"/>
    <path class="st4" d="M356.97,219.14c0-1.9,1.28-3.07,2.62-3.07,1.49,0,2.33,1.07,2.33,2.74,0,.21-.02.42-.05.56h-3.93c.07,1.24.83,2.04,1.94,2.04.56,0,1.02-.18,1.45-.47l.35.65c-.51.33-1.13.6-1.92.6-1.55,0-2.79-1.14-2.79-3.05h0ZM361.05,218.66c0-1.17-.53-1.8-1.44-1.8-.82,0-1.55.66-1.67,1.8h3.11Z"/>
    <path class="st4" d="M362.83,224.44l.19-.79c.12.04.29.09.44.09.66,0,1.07-.53,1.31-1.25l.13-.43-2.34-5.84h1.02l1.19,3.23c.18.51.38,1.1.57,1.64h.05c.17-.53.33-1.13.49-1.64l1.04-3.23h.97l-2.2,6.31c-.41,1.16-1.01,2.03-2.18,2.03-.27,0-.5-.05-.68-.12h0Z"/>
    <path class="st4" d="M370.92,221.46c2.3-2.29,3.6-3.67,3.6-4.91,0-.87-.47-1.49-1.45-1.49-.64,0-1.19.41-1.63.92l-.57-.56c.64-.7,1.33-1.16,2.32-1.16,1.41,0,2.3.89,2.3,2.25,0,1.44-1.32,2.86-3.12,4.76.41-.03.89-.07,1.29-.07h2.21v.85h-4.94v-.58h0Z"/>
    <path class="st4" d="M376.93,218.19c0-2.56.92-3.94,2.45-3.94s2.45,1.38,2.45,3.94-.92,4-2.45,4-2.45-1.43-2.45-4ZM380.88,218.19c0-2.24-.6-3.14-1.49-3.14s-1.49.9-1.49,3.14.6,3.2,1.49,3.2,1.49-.96,1.49-3.2Z"/>
    <path class="st4" d="M382.84,221.46c2.3-2.29,3.6-3.67,3.6-4.91,0-.87-.47-1.49-1.45-1.49-.64,0-1.19.41-1.63.92l-.57-.56c.64-.7,1.33-1.16,2.32-1.16,1.41,0,2.3.89,2.3,2.25,0,1.44-1.32,2.86-3.12,4.76.41-.03.89-.07,1.29-.07h2.21v.85h-4.94v-.58h0Z"/>
    <path class="st4" d="M388.86,218.19c0-2.56.92-3.94,2.45-3.94s2.45,1.38,2.45,3.94-.92,4-2.45,4-2.45-1.43-2.45-4ZM392.81,218.19c0-2.24-.6-3.14-1.49-3.14s-1.49.9-1.49,3.14.6,3.2,1.49,3.2,1.49-.96,1.49-3.2Z"/>
    <path class="st4" d="M394.79,218.68h4.76v.69h-4.76v-.69Z"/>
    <path class="st4" d="M400.45,221.46c2.3-2.29,3.6-3.67,3.6-4.91,0-.87-.47-1.49-1.45-1.49-.64,0-1.19.41-1.63.92l-.57-.56c.64-.7,1.33-1.16,2.32-1.16,1.41,0,2.29.89,2.29,2.25,0,1.44-1.32,2.86-3.12,4.76.41-.03.89-.07,1.29-.07h2.21v.85h-4.94v-.58h0Z"/>
    <path class="st4" d="M406.46,218.19c0-2.56.92-3.94,2.45-3.94s2.45,1.38,2.45,3.94-.92,4-2.45,4-2.45-1.43-2.45-4ZM410.41,218.19c0-2.24-.61-3.14-1.49-3.14s-1.49.9-1.49,3.14.6,3.2,1.49,3.2,1.49-.96,1.49-3.2Z"/>
    <path class="st4" d="M412.38,221.46c2.3-2.29,3.6-3.67,3.6-4.91,0-.87-.47-1.49-1.45-1.49-.64,0-1.19.41-1.63.92l-.57-.56c.64-.7,1.33-1.16,2.32-1.16,1.41,0,2.29.89,2.29,2.25,0,1.44-1.32,2.86-3.12,4.76.41-.03.89-.07,1.29-.07h2.21v.85h-4.94v-.58h0Z"/>
    <path class="st4" d="M421.51,216.92c0-.4.03-1.06.06-1.47h-.05c-.19.37-.41.7-.62,1.08l-1.79,2.61h4.38v.79h-5.41v-.65l3.27-4.89h1.1v7.65h-.93v-5.13h-.01Z"/>
    <path class="st4" d="M427.21,218.71c0-2.11.59-3.84,1.58-5.45l.61.29c-.92,1.53-1.38,3.34-1.38,5.16s.45,3.63,1.38,5.16l-.61.29c-.99-1.61-1.58-3.34-1.58-5.45Z"/>
    <path class="st4" d="M430.16,221.14l.49-.64c.46.45,1.03.87,1.93.87s1.67-.68,1.67-1.74-.64-1.68-1.62-1.68c-.53,0-.86.16-1.31.47l-.52-.33.25-3.68h3.83v.85h-2.96l-.2,2.27c.35-.19.7-.32,1.17-.32,1.3,0,2.37.74,2.37,2.4s-1.25,2.59-2.58,2.59c-1.23,0-1.98-.52-2.52-1.05h0Z"/>
    <path class="st4" d="M436.32,218.66h2.75v.76h-2.75v-.76Z"/>
    <path class="st4" d="M439.96,224.44l.19-.79c.12.04.29.09.44.09.66,0,1.07-.53,1.31-1.25l.13-.43-2.34-5.84h1.02l1.19,3.23c.18.51.38,1.1.57,1.64h.05c.17-.53.33-1.13.49-1.64l1.04-3.23h.97l-2.2,6.31c-.41,1.16-1.01,2.03-2.18,2.03-.27,0-.5-.05-.68-.12h0Z"/>
    <path class="st4" d="M445.67,219.14c0-1.9,1.28-3.07,2.62-3.07,1.49,0,2.33,1.07,2.33,2.74,0,.21-.02.42-.05.56h-3.93c.07,1.24.83,2.04,1.94,2.04.56,0,1.02-.18,1.45-.47l.35.65c-.51.33-1.13.6-1.92.6-1.55,0-2.79-1.14-2.79-3.05h0ZM449.74,218.66c0-1.17-.53-1.8-1.44-1.8-.82,0-1.55.66-1.67,1.8h3.11Z"/>
    <path class="st4" d="M451.52,220.53c0-1.27,1.1-1.91,3.58-2.17,0-.75-.25-1.47-1.2-1.47-.67,0-1.28.32-1.74.62l-.39-.68c.54-.35,1.35-.76,2.29-.76,1.42,0,2.02.95,2.02,2.4v3.58h-.81l-.08-.7h-.03c-.55.46-1.2.84-1.93.84-.97,0-1.71-.61-1.71-1.66ZM455.1,220.62v-1.62c-1.95.24-2.61.71-2.61,1.46,0,.66.45.93,1.02.93s1.03-.27,1.59-.77Z"/>
    <path class="st4" d="M457.93,216.21h.82l.08,1.06h.03c.41-.74,1-1.21,1.66-1.21.26,0,.44.03.62.12l-.18.87c-.2-.06-.33-.1-.57-.1-.49,0-1.08.35-1.47,1.34v3.74h-.99v-5.83h0Z"/>
    <path class="st4" d="M464.06,219.14c0-1.9,1.28-3.07,2.62-3.07,1.49,0,2.33,1.07,2.33,2.74,0,.21-.02.42-.05.56h-3.93c.07,1.24.83,2.04,1.94,2.04.56,0,1.02-.18,1.45-.47l.35.65c-.51.33-1.13.6-1.93.6-1.55,0-2.79-1.14-2.79-3.05h0ZM468.14,218.66c0-1.17-.53-1.8-1.44-1.8-.82,0-1.55.66-1.67,1.8h3.11Z"/>
    <path class="st4" d="M469.8,221.38l.49-.65c.51.41,1.02.69,1.72.69.77,0,1.15-.41,1.15-.91,0-.6-.69-.87-1.33-1.1-.82-.3-1.74-.7-1.74-1.68s.75-1.65,2.01-1.65c.73,0,1.36.3,1.81.66l-.47.63c-.4-.3-.81-.52-1.33-.52-.73,0-1.07.39-1.07.84,0,.55.63.76,1.29,1.01.84.32,1.78.66,1.78,1.77,0,.95-.75,1.73-2.13,1.73-.83,0-1.63-.35-2.18-.81h0Z"/>
    <path class="st4" d="M475.41,220.24v-3.22h-.87v-.75l.91-.06.12-1.63h.82v1.63h1.58v.8h-1.58v3.24c0,.71.23,1.12.9,1.12.21,0,.47-.08.66-.16l.19.74c-.33.11-.72.22-1.08.22-1.24,0-1.66-.79-1.66-1.95v.02Z"/>
    <path class="st4" d="M479.11,214.38c0-.39.3-.64.68-.64s.68.25.68.64-.3.64-.68.64-.68-.26-.68-.64ZM479.29,216.21h.99v5.83h-.99v-5.83Z"/>
    <path class="st4" d="M482.24,216.21h.81l.08.85h.03c.51-.55,1.12-.99,1.81-.99.89,0,1.37.43,1.61,1.11.61-.66,1.21-1.11,1.92-1.11,1.2,0,1.77.79,1.77,2.28v3.69h-.99v-3.57c0-1.09-.34-1.55-1.08-1.55-.45,0-.92.3-1.46.9v4.22h-.99v-3.57c0-1.09-.34-1.55-1.08-1.55-.44,0-.92.3-1.46.9v4.22h-.99v-5.83h.02Z"/>
    <path class="st4" d="M491.83,220.53c0-1.27,1.1-1.91,3.58-2.17,0-.75-.25-1.47-1.2-1.47-.67,0-1.28.32-1.74.62l-.39-.68c.54-.35,1.35-.76,2.29-.76,1.42,0,2.02.95,2.02,2.4v3.58h-.82l-.08-.7h-.03c-.56.46-1.21.84-1.93.84-.98,0-1.71-.61-1.71-1.66h.01ZM495.41,220.62v-1.62c-1.95.24-2.61.71-2.61,1.46,0,.66.45.93,1.02.93s1.03-.27,1.59-.77Z"/>
    <path class="st4" d="M498.24,220.24v-3.22h-.87v-.75l.91-.06.12-1.63h.82v1.63h1.58v.8h-1.58v3.24c0,.71.23,1.12.9,1.12.21,0,.47-.08.66-.16l.19.74c-.33.11-.72.22-1.08.22-1.24,0-1.66-.79-1.66-1.95v.02Z"/>
    <path class="st4" d="M501.52,219.14c0-1.9,1.28-3.07,2.62-3.07,1.49,0,2.33,1.07,2.33,2.74,0,.21-.02.42-.05.56h-3.93c.07,1.24.83,2.04,1.94,2.04.56,0,1.02-.18,1.45-.47l.35.65c-.51.33-1.13.6-1.92.6-1.55,0-2.79-1.14-2.79-3.05h0ZM505.6,218.66c0-1.17-.53-1.8-1.44-1.8-.82,0-1.55.66-1.67,1.8h3.11Z"/>
    <path class="st4" d="M507.26,221.38l.49-.65c.51.41,1.02.69,1.72.69.77,0,1.15-.41,1.15-.91,0-.6-.69-.87-1.33-1.1-.82-.3-1.74-.7-1.74-1.68s.75-1.65,2.01-1.65c.73,0,1.36.3,1.81.66l-.47.63c-.4-.3-.81-.52-1.33-.52-.73,0-1.07.39-1.07.84,0,.55.63.76,1.29,1.01.84.32,1.78.66,1.78,1.77,0,.95-.75,1.73-2.13,1.73-.83,0-1.63-.35-2.17-.81h-.01Z"/>
    <path class="st4" d="M512.41,223.87c.92-1.53,1.38-3.34,1.38-5.16s-.45-3.63-1.38-5.16l.61-.29c.99,1.61,1.58,3.34,1.58,5.45s-.59,3.84-1.58,5.45l-.61-.29Z"/>
    <path class="st4" d="M516.37,221.44c0-.45.32-.76.71-.76s.71.31.71.76-.32.75-.71.75-.71-.31-.71-.75Z"/>
  </g>
</svg>