<?xml version="1.0" encoding="UTF-8"?>
<svg id="Layer_1" xmlns="http://www.w3.org/2000/svg" version="1.1" viewBox="0 0 584.34 328.33">
  <!-- Generator: Adobe Illustrator 30.6.0, SVG Export Plug-In . SVG Version: 2.1.4 Build 109)  -->
  <defs>
    <style>
      .st0 {
        fill: #ddd;
      }

      .st1 {
        fill: #e21f26;
      }

      .st2 {
        fill: #34a048;
      }

      .st3 {
        fill: #231f20;
      }

      .st4 {
        fill: #ad583e;
      }

      .st5 {
        fill: #f69999;
      }

      .st6 {
        fill: #2078b4;
      }

      .st7, .st8 {
        isolation: isolate;
      }

      .st9 {
        fill: #4e4e4e;
      }

      .st10 {
        fill: #191918;
      }

      .st11 {
        fill: #18a1cd;
      }

      .st12 {
        fill: #9085b2;
      }

      .st13 {
        fill: #fdbf6e;
      }

      .st8 {
        fill: #fff;
        font-family: MyriadPro-Regular, 'Myriad Pro';
        font-size: 12px;
      }

      .st14 {
        fill: #b4d88a;
      }

      .st15 {
        fill: #6b3e98;
      }
    </style>
  </defs>
  <g class="st7">
    <path class="st10" d="M2.14,78.23h1.4l.12.75h.04c.49-.48,1.07-.9,1.87-.9,1.26,0,1.8.91,1.8,2.4v3.69h-1.72v-3.47c0-.86-.22-1.12-.72-1.12-.43,0-.7.21-1.07.58v4.01h-1.72v-5.95Z"/>
    <path class="st10" d="M8.5,81.21c0-1.98,1.36-3.12,2.83-3.12s2.83,1.14,2.83,3.12-1.36,3.12-2.83,3.12-2.83-1.14-2.83-3.12ZM12.39,81.21c0-1.03-.35-1.7-1.07-1.7s-1.06.67-1.06,1.7.35,1.69,1.06,1.69,1.07-.66,1.07-1.69Z"/>
    <path class="st10" d="M15.19,76.44c0-.54.42-.92,1-.92s1,.38,1,.92-.42.92-1,.92-1-.39-1-.92ZM15.33,78.23h1.72v5.95h-1.72v-5.95Z"/>
    <path class="st10" d="M18.04,83.49l.77-1.1c.53.41,1.01.62,1.5.62.51,0,.73-.2.73-.51,0-.39-.58-.57-1.17-.81-.71-.28-1.54-.77-1.54-1.75,0-1.11.88-1.86,2.22-1.86.89,0,1.55.37,2.05.75l-.77,1.06c-.41-.31-.82-.51-1.22-.51-.44,0-.66.18-.66.48,0,.38.54.52,1.15.75.74.28,1.56.7,1.56,1.79s-.83,1.92-2.39,1.92c-.77,0-1.64-.34-2.23-.83Z"/>
    <path class="st10" d="M23.4,81.21c0-1.93,1.34-3.12,2.74-3.12,1.65,0,2.47,1.23,2.47,2.86,0,.32-.04.63-.07.78h-3.47c.15.86.73,1.26,1.51,1.26.44,0,.83-.14,1.26-.39l.57,1.06c-.6.42-1.37.67-2.06.67-1.66,0-2.94-1.15-2.94-3.12ZM27.14,80.56c0-.65-.28-1.12-.96-1.12-.54,0-1.01.37-1.13,1.12h2.09Z"/>
  </g>
  <rect class="st15" x="163.87" y="69.38" width="420.47" height="20"/>
  <g class="st7">
    <path class="st10" d="M2.14,102.23h1.4l.12.58h.04c.46-.42,1.05-.73,1.65-.73,1.41,0,2.27,1.19,2.27,3.02,0,2.04-1.19,3.21-2.44,3.21-.5,0-.97-.22-1.39-.62l.06.94v1.74h-1.72v-8.16ZM5.87,105.13c0-1.07-.32-1.6-1.01-1.6-.35,0-.66.16-1,.53v2.44c.31.28.64.38.93.38.6,0,1.08-.52,1.08-1.75Z"/>
    <path class="st10" d="M8.45,106.53c0-1.25.97-1.93,3.27-2.18-.03-.52-.29-.86-.92-.86-.49,0-.97.21-1.54.54l-.61-1.16c.74-.46,1.57-.78,2.48-.78,1.48,0,2.31.87,2.31,2.69v3.4h-1.4l-.12-.61h-.04c-.49.44-1.04.75-1.69.75-1.06,0-1.73-.79-1.73-1.79ZM11.72,106.45v-1.04c-1.22.17-1.62.53-1.62.98,0,.38.26.57.67.57s.65-.2.96-.51Z"/>
    <path class="st10" d="M14.88,102.23h1.4l.12,1.04h.04c.42-.79,1.06-1.18,1.65-1.18.33,0,.52.04.69.12l-.29,1.52c-.21-.05-.38-.1-.63-.1-.44,0-.97.29-1.28,1.1v3.45h-1.72v-5.95Z"/>
    <path class="st10" d="M19.54,99.78h1.68v4.81h.04l1.84-2.36h1.87l-2.03,2.45,2.19,3.5h-1.86l-1.31-2.32-.74.86v1.46h-1.68v-8.4Z"/>
    <path class="st10" d="M25.81,100.44c0-.54.42-.92,1-.92s1,.38,1,.92-.42.92-1,.92-1-.39-1-.92ZM25.95,102.23h1.72v5.95h-1.72v-5.95Z"/>
    <path class="st10" d="M29.18,102.23h1.4l.12.75h.04c.49-.48,1.07-.9,1.87-.9,1.26,0,1.8.91,1.8,2.4v3.69h-1.72v-3.47c0-.86-.22-1.12-.72-1.12-.43,0-.7.21-1.07.58v4.01h-1.72v-5.95Z"/>
    <path class="st10" d="M35.51,109.2c0-.49.29-.89.82-1.2v-.05c-.3-.21-.53-.52-.53-1.01,0-.43.28-.85.65-1.12v-.05c-.41-.29-.78-.85-.78-1.54,0-1.43,1.15-2.15,2.4-2.15.32,0,.64.05.9.14h2.12v1.28h-.93c.11.18.2.47.2.78,0,1.37-1.02,2-2.29,2-.21,0-.45-.04-.71-.12-.14.13-.2.23-.2.44,0,.29.23.44.87.44h.94c1.42,0,2.22.45,2.22,1.51,0,1.24-1.26,2.14-3.25,2.14-1.35,0-2.43-.45-2.43-1.51ZM39.54,108.88c0-.38-.31-.46-.88-.46h-.6c-.4,0-.62-.02-.81-.08-.21.19-.31.37-.31.58,0,.45.51.68,1.29.68s1.33-.32,1.33-.73ZM38.87,104.24c0-.63-.34-.97-.79-.97s-.79.33-.79.97.34.99.79.99.79-.34.79-.99Z"/>
    <path class="st10" d="M44.19,106.53c0-1.25.97-1.93,3.27-2.18-.03-.52-.29-.86-.92-.86-.49,0-.97.21-1.54.54l-.61-1.16c.74-.46,1.57-.78,2.48-.78,1.48,0,2.31.87,2.31,2.69v3.4h-1.4l-.12-.61h-.04c-.49.44-1.04.75-1.69.75-1.06,0-1.73-.79-1.73-1.79ZM47.46,106.45v-1.04c-1.22.17-1.62.53-1.62.98,0,.38.26.57.67.57s.65-.2.96-.51Z"/>
    <path class="st10" d="M50.62,102.23h1.4l.12.75h.04c.49-.48,1.07-.9,1.87-.9,1.26,0,1.8.91,1.8,2.4v3.69h-1.72v-3.47c0-.86-.22-1.12-.72-1.12-.43,0-.7.21-1.07.58v4.01h-1.72v-5.95Z"/>
    <path class="st10" d="M57.01,105.21c0-1.95,1.19-3.12,2.41-3.12.64,0,1.03.24,1.42.62l-.06-.9v-2.03h1.72v8.4h-1.4l-.12-.59h-.04c-.41.42-.98.73-1.54.73-1.44,0-2.38-1.17-2.38-3.12ZM60.78,106.35v-2.44c-.3-.28-.65-.38-.96-.38-.56,0-1.05.53-1.05,1.66s.39,1.69,1.06,1.69c.37,0,.66-.14.95-.53Z"/>
    <path class="st10" d="M65.74,102.23h1.73l.76,2.81c.15.59.3,1.21.45,1.83h.05c.15-.62.3-1.24.45-1.83l.76-2.81h1.65l-1.89,5.95h-1.98l-1.96-5.95Z"/>
    <path class="st10" d="M72.04,105.21c0-1.93,1.34-3.12,2.74-3.12,1.65,0,2.47,1.23,2.47,2.86,0,.32-.04.63-.07.78h-3.47c.15.86.73,1.26,1.51,1.26.44,0,.83-.14,1.26-.39l.57,1.06c-.6.42-1.37.67-2.06.67-1.66,0-2.94-1.15-2.94-3.12ZM75.78,104.56c0-.65-.28-1.12-.96-1.12-.54,0-1.01.37-1.13,1.12h2.09Z"/>
    <path class="st10" d="M78.44,99.78h1.72v2.05l-.08,1.08c.44-.41,1-.82,1.79-.82,1.26,0,1.8.91,1.8,2.4v3.69h-1.72v-3.47c0-.86-.22-1.12-.72-1.12-.43,0-.7.21-1.07.58v4.01h-1.72v-8.4Z"/>
    <path class="st10" d="M84.99,100.44c0-.54.42-.92,1-.92s1,.38,1,.92-.42.92-1,.92-1-.39-1-.92ZM85.12,102.23h1.72v5.95h-1.72v-5.95Z"/>
    <path class="st10" d="M88.01,105.21c0-1.98,1.42-3.12,3.03-3.12.71,0,1.26.26,1.7.64l-.81,1.13c-.28-.24-.51-.35-.79-.35-.83,0-1.36.67-1.36,1.7s.55,1.69,1.3,1.69c.38,0,.75-.19,1.05-.44l.67,1.15c-.56.51-1.28.71-1.91.71-1.62,0-2.87-1.14-2.87-3.12Z"/>
    <path class="st10" d="M93.81,106.33v-6.55h1.72v6.62c0,.38.17.5.31.5.07,0,.11,0,.21-.02l.21,1.3c-.19.08-.47.15-.86.15-1.18,0-1.58-.79-1.58-1.99Z"/>
    <path class="st10" d="M96.82,105.21c0-1.93,1.34-3.12,2.74-3.12,1.65,0,2.47,1.23,2.47,2.86,0,.32-.04.63-.07.78h-3.47c.15.86.73,1.26,1.51,1.26.44,0,.83-.14,1.26-.39l.57,1.06c-.6.42-1.37.67-2.06.67-1.66,0-2.94-1.15-2.94-3.12ZM100.56,104.56c0-.65-.28-1.12-.96-1.12-.54,0-1.01.37-1.13,1.12h2.09Z"/>
    <path class="st10" d="M102.7,107.49l.77-1.1c.53.41,1.01.62,1.5.62.51,0,.73-.2.73-.51,0-.39-.58-.57-1.17-.81-.71-.28-1.54-.77-1.54-1.75,0-1.11.88-1.86,2.22-1.86.89,0,1.55.37,2.05.75l-.77,1.06c-.41-.31-.82-.51-1.22-.51-.44,0-.66.18-.66.48,0,.38.54.52,1.15.75.74.28,1.56.7,1.56,1.79s-.83,1.92-2.38,1.92c-.77,0-1.64-.34-2.23-.83Z"/>
  </g>
  <rect class="st12" x="163.87" y="93.38" width="407.5" height="20"/>
  <g class="st7">
    <path class="st10" d="M1.84,129.21c0-1.95,1.19-3.12,2.41-3.12.64,0,1.03.24,1.42.62l-.06-.9v-2.03h1.72v8.4h-1.4l-.12-.59h-.04c-.41.42-.98.73-1.54.73-1.44,0-2.38-1.17-2.38-3.12ZM5.61,130.35v-2.44c-.3-.28-.65-.38-.96-.38-.56,0-1.05.53-1.05,1.66s.39,1.69,1.06,1.69c.37,0,.66-.14.95-.53Z"/>
    <path class="st10" d="M8.85,126.23h1.4l.12,1.04h.04c.42-.79,1.06-1.18,1.65-1.18.33,0,.52.04.69.12l-.29,1.52c-.21-.05-.38-.1-.63-.1-.44,0-.97.29-1.28,1.1v3.45h-1.72v-5.95Z"/>
    <path class="st10" d="M12.91,130.53c0-1.25.97-1.93,3.27-2.18-.03-.52-.29-.86-.92-.86-.49,0-.97.21-1.54.54l-.61-1.16c.74-.46,1.57-.78,2.48-.78,1.48,0,2.31.87,2.31,2.69v3.4h-1.4l-.12-.61h-.04c-.49.44-1.04.75-1.69.75-1.06,0-1.73-.79-1.73-1.79ZM16.18,130.45v-1.04c-1.22.17-1.62.53-1.62.98,0,.38.26.57.67.57s.65-.2.96-.51Z"/>
    <path class="st10" d="M19.21,124.44c0-.54.42-.92,1-.92s1,.38,1,.92-.42.92-1,.92-1-.39-1-.92ZM19.34,126.23h1.72v5.95h-1.72v-5.95Z"/>
    <path class="st10" d="M22.57,126.23h1.4l.12.75h.04c.49-.48,1.07-.9,1.87-.9,1.26,0,1.8.91,1.8,2.4v3.69h-1.72v-3.47c0-.86-.22-1.12-.72-1.12-.43,0-.7.21-1.07.58v4.01h-1.72v-5.95Z"/>
    <path class="st10" d="M28.99,130.53c0-1.25.97-1.93,3.27-2.18-.03-.52-.29-.86-.92-.86-.49,0-.97.21-1.54.54l-.61-1.16c.74-.46,1.57-.78,2.48-.78,1.48,0,2.31.87,2.31,2.69v3.4h-1.4l-.12-.61h-.04c-.49.44-1.04.75-1.69.75-1.06,0-1.73-.79-1.73-1.79ZM32.26,130.45v-1.04c-1.22.17-1.62.53-1.62.98,0,.38.26.57.67.57s.65-.2.96-.51Z"/>
    <path class="st10" d="M35.07,133.2c0-.49.29-.89.82-1.2v-.05c-.3-.21-.53-.52-.53-1.01,0-.43.28-.85.65-1.12v-.05c-.41-.29-.78-.85-.78-1.54,0-1.43,1.15-2.15,2.4-2.15.32,0,.64.05.9.14h2.12v1.28h-.93c.11.18.2.47.2.78,0,1.37-1.02,2-2.29,2-.21,0-.45-.04-.71-.12-.14.13-.2.23-.2.44,0,.29.23.44.87.44h.94c1.42,0,2.22.45,2.22,1.51,0,1.24-1.26,2.14-3.25,2.14-1.35,0-2.43-.45-2.43-1.51ZM39.1,132.88c0-.38-.31-.46-.88-.46h-.6c-.4,0-.62-.02-.81-.08-.21.19-.31.37-.31.58,0,.45.51.68,1.29.68s1.33-.32,1.33-.73ZM38.42,128.24c0-.63-.34-.97-.79-.97s-.79.33-.79.97.34.99.79.99.79-.34.79-.99Z"/>
    <path class="st10" d="M41.12,129.21c0-1.93,1.34-3.12,2.74-3.12,1.65,0,2.47,1.23,2.47,2.86,0,.32-.04.63-.07.78h-3.47c.15.86.73,1.26,1.51,1.26.44,0,.83-.14,1.26-.39l.57,1.06c-.6.42-1.37.67-2.06.67-1.66,0-2.94-1.15-2.94-3.12ZM44.87,128.56c0-.65-.28-1.12-.96-1.12-.54,0-1.01.37-1.13,1.12h2.09Z"/>
    <path class="st10" d="M47.31,133.57c.87-.31,1.32-.87,1.31-1.49l-.03-1.18.56.99c-.17.15-.39.22-.62.22-.54,0-1.04-.36-1.04-1,0-.6.48-1,1.08-1,.77,0,1.19.62,1.19,1.67,0,1.31-.74,2.31-2.1,2.74l-.35-.94Z"/>
    <path class="st10" d="M52.89,126.23h1.71l.56,2.75c.1.59.17,1.17.26,1.77h.05c.1-.6.2-1.2.34-1.77l.63-2.75h1.49l.65,2.75c.14.59.24,1.17.36,1.77h.05c.1-.6.17-1.18.27-1.77l.55-2.75h1.59l-1.39,5.95h-2.02l-.53-2.38c-.11-.55-.2-1.1-.31-1.74h-.05c-.1.64-.18,1.19-.29,1.74l-.51,2.37h-1.97l-1.45-5.95Z"/>
    <path class="st10" d="M62.06,130.53c0-1.25.97-1.93,3.27-2.18-.03-.52-.29-.86-.92-.86-.49,0-.97.21-1.54.54l-.61-1.16c.74-.46,1.57-.78,2.48-.78,1.48,0,2.31.87,2.31,2.69v3.4h-1.4l-.12-.61h-.04c-.49.44-1.04.75-1.69.75-1.06,0-1.73-.79-1.73-1.79ZM65.33,130.45v-1.04c-1.22.17-1.62.53-1.62.98,0,.38.26.57.67.57s.65-.2.96-.51Z"/>
    <path class="st10" d="M68.52,130.02v-2.4h-.79v-1.32l.89-.07.2-1.58h1.42v1.58h1.39v1.38h-1.39v2.38c0,.67.3.95.75.95.19,0,.4-.06.55-.11l.27,1.28c-.31.1-.73.22-1.29.22-1.44,0-2.01-.93-2.01-2.31Z"/>
    <path class="st10" d="M72.22,129.21c0-1.93,1.34-3.12,2.74-3.12,1.65,0,2.47,1.23,2.47,2.86,0,.32-.04.63-.07.78h-3.47c.15.86.73,1.26,1.51,1.26.44,0,.83-.14,1.26-.39l.57,1.06c-.6.42-1.37.67-2.06.67-1.66,0-2.94-1.15-2.94-3.12ZM75.96,128.56c0-.65-.28-1.12-.96-1.12-.54,0-1.01.37-1.13,1.12h2.09Z"/>
    <path class="st10" d="M78.61,126.23h1.4l.12,1.04h.04c.42-.79,1.06-1.18,1.65-1.18.33,0,.52.04.69.12l-.29,1.52c-.21-.05-.38-.1-.63-.1-.44,0-.97.29-1.28,1.1v3.45h-1.72v-5.95Z"/>
    <path class="st10" d="M85.34,130.53c0-1.25.97-1.93,3.27-2.18-.03-.52-.29-.86-.92-.86-.49,0-.97.21-1.54.54l-.61-1.16c.74-.46,1.57-.78,2.48-.78,1.48,0,2.31.87,2.31,2.69v3.4h-1.4l-.12-.61h-.04c-.49.44-1.04.75-1.69.75-1.06,0-1.73-.79-1.73-1.79ZM88.61,130.45v-1.04c-1.22.17-1.62.53-1.62.98,0,.38.26.57.67.57s.65-.2.96-.51Z"/>
    <path class="st10" d="M91.78,126.23h1.4l.12.75h.04c.49-.48,1.07-.9,1.87-.9,1.26,0,1.8.91,1.8,2.4v3.69h-1.72v-3.47c0-.86-.22-1.12-.72-1.12-.43,0-.7.21-1.07.58v4.01h-1.72v-5.95Z"/>
    <path class="st10" d="M98.17,129.21c0-1.95,1.19-3.12,2.41-3.12.64,0,1.03.24,1.42.62l-.06-.9v-2.03h1.72v8.4h-1.4l-.12-.59h-.04c-.41.42-.98.73-1.54.73-1.44,0-2.38-1.17-2.38-3.12ZM101.94,130.35v-2.44c-.3-.28-.65-.38-.96-.38-.56,0-1.05.53-1.05,1.66s.39,1.69,1.06,1.69c.37,0,.66-.14.95-.53Z"/>
    <path class="st10" d="M107.51,126.23h1.4l.12.58h.04c.46-.42,1.05-.73,1.65-.73,1.41,0,2.27,1.19,2.27,3.02,0,2.04-1.19,3.21-2.44,3.21-.5,0-.97-.22-1.39-.62l.06.94v1.74h-1.72v-8.16ZM111.24,129.13c0-1.07-.32-1.6-1.01-1.6-.35,0-.66.16-1,.53v2.44c.31.28.64.38.93.38.6,0,1.08-.52,1.08-1.75Z"/>
    <path class="st10" d="M114.12,130.33v-6.55h1.72v6.62c0,.38.17.5.31.5.07,0,.11,0,.21-.02l.21,1.3c-.19.08-.47.15-.86.15-1.18,0-1.58-.79-1.58-1.99Z"/>
    <path class="st10" d="M117.41,129.92v-3.69h1.72v3.47c0,.86.22,1.12.72,1.12.43,0,.7-.19,1.03-.65v-3.94h1.72v5.95h-1.4l-.12-.83h-.04c-.48.59-1.03.97-1.82.97-1.26,0-1.8-.91-1.8-2.4Z"/>
    <path class="st10" d="M124.11,126.23h1.4l.12.76h.04c.48-.49,1-.91,1.76-.91.82,0,1.31.36,1.6,1,.51-.55,1.06-1,1.82-1,1.25,0,1.82.91,1.82,2.4v3.69h-1.72v-3.47c0-.86-.23-1.12-.72-1.12-.29,0-.62.19-.99.58v4.01h-1.72v-3.47c0-.86-.23-1.12-.72-1.12-.29,0-.62.19-.99.58v4.01h-1.72v-5.95Z"/>
    <path class="st10" d="M135.67,131.55h-.04l-.14.63h-1.35v-8.4h1.72v2.05l-.04.91c.44-.4.99-.66,1.54-.66,1.41,0,2.28,1.19,2.28,3.01,0,2.05-1.19,3.22-2.44,3.22-.52,0-1.05-.27-1.52-.78ZM137.86,129.13c0-1.07-.32-1.6-1.01-1.6-.35,0-.66.16-1,.53v2.44c.31.28.64.38.93.38.6,0,1.08-.52,1.08-1.75Z"/>
    <path class="st10" d="M140.7,124.44c0-.54.42-.92,1-.92s1,.38,1,.92-.42.92-1,.92-1-.39-1-.92ZM140.84,126.23h1.72v5.95h-1.72v-5.95Z"/>
    <path class="st10" d="M144.07,126.23h1.4l.12.75h.04c.49-.48,1.07-.9,1.87-.9,1.26,0,1.8.91,1.8,2.4v3.69h-1.72v-3.47c0-.86-.22-1.12-.72-1.12-.43,0-.7.21-1.07.58v4.01h-1.72v-5.95Z"/>
    <path class="st10" d="M150.4,133.2c0-.49.29-.89.82-1.2v-.05c-.3-.21-.53-.52-.53-1.01,0-.43.28-.85.65-1.12v-.05c-.41-.29-.78-.85-.78-1.54,0-1.43,1.15-2.15,2.4-2.15.32,0,.64.05.9.14h2.12v1.28h-.93c.11.18.2.47.2.78,0,1.37-1.02,2-2.29,2-.21,0-.45-.04-.71-.12-.14.13-.2.23-.2.44,0,.29.23.44.87.44h.94c1.42,0,2.22.45,2.22,1.51,0,1.24-1.26,2.14-3.25,2.14-1.35,0-2.43-.45-2.43-1.51ZM154.43,132.88c0-.38-.31-.46-.88-.46h-.6c-.4,0-.62-.02-.81-.08-.21.19-.31.37-.31.58,0,.45.51.68,1.29.68s1.33-.32,1.33-.73ZM153.76,128.24c0-.63-.34-.97-.79-.97s-.79.33-.79.97.34.99.79.99.79-.34.79-.99Z"/>
  </g>
  <rect class="st4" x="163.87" y="117.38" width="199.77" height="20"/>
  <g class="st7">
    <path class="st10" d="M1.81,153.21c0-1.93,1.34-3.12,2.74-3.12,1.65,0,2.47,1.23,2.47,2.86,0,.32-.04.63-.07.78h-3.47c.15.86.73,1.26,1.51,1.26.44,0,.83-.14,1.26-.39l.57,1.06c-.6.42-1.37.67-2.06.67-1.66,0-2.94-1.15-2.94-3.12ZM5.55,152.56c0-.65-.28-1.12-.96-1.12-.54,0-1.01.37-1.13,1.12h2.09Z"/>
    <path class="st10" d="M8.2,150.23h1.4l.12.75h.04c.49-.48,1.07-.9,1.87-.9,1.26,0,1.8.91,1.8,2.4v3.69h-1.72v-3.47c0-.86-.22-1.12-.72-1.12-.43,0-.7.21-1.07.58v4.01h-1.72v-5.95Z"/>
    <path class="st10" d="M14.56,153.21c0-1.98,1.42-3.12,3.03-3.12.71,0,1.26.26,1.7.64l-.81,1.13c-.28-.24-.51-.35-.79-.35-.83,0-1.36.67-1.36,1.7s.55,1.69,1.3,1.69c.38,0,.75-.19,1.05-.44l.67,1.15c-.56.51-1.28.71-1.91.71-1.62,0-2.87-1.14-2.87-3.12Z"/>
    <path class="st10" d="M19.97,154.53c0-1.25.97-1.93,3.27-2.18-.03-.52-.29-.86-.92-.86-.49,0-.97.21-1.54.54l-.61-1.16c.74-.46,1.57-.78,2.48-.78,1.48,0,2.31.87,2.31,2.69v3.4h-1.4l-.12-.61h-.04c-.49.44-1.04.75-1.69.75-1.06,0-1.73-.79-1.73-1.79ZM23.24,154.45v-1.04c-1.22.17-1.62.53-1.62.98,0,.38.26.57.67.57s.65-.2.96-.51Z"/>
    <path class="st10" d="M26.4,150.23h1.4l.12.76h.04c.48-.49,1-.91,1.76-.91.82,0,1.31.36,1.6,1,.51-.55,1.06-1,1.82-1,1.25,0,1.82.91,1.82,2.4v3.69h-1.72v-3.47c0-.86-.23-1.12-.72-1.12-.29,0-.62.19-.99.58v4.01h-1.72v-3.47c0-.86-.23-1.12-.72-1.12-.29,0-.62.19-.99.58v4.01h-1.72v-5.95Z"/>
    <path class="st10" d="M36.43,150.23h1.4l.12.58h.04c.46-.42,1.05-.73,1.65-.73,1.41,0,2.27,1.19,2.27,3.02,0,2.04-1.19,3.21-2.44,3.21-.5,0-.97-.22-1.39-.62l.06.94v1.74h-1.72v-8.16ZM40.16,153.13c0-1.07-.32-1.6-1.01-1.6-.35,0-.66.16-1,.53v2.44c.31.28.64.38.93.38.6,0,1.08-.52,1.08-1.75Z"/>
    <path class="st10" d="M43.13,150.23h1.4l.12.76h.04c.48-.49,1-.91,1.76-.91.82,0,1.31.36,1.6,1,.51-.55,1.06-1,1.82-1,1.25,0,1.82.91,1.82,2.4v3.69h-1.72v-3.47c0-.86-.23-1.12-.72-1.12-.29,0-.62.19-.99.58v4.01h-1.72v-3.47c0-.86-.23-1.12-.72-1.12-.29,0-.62.19-.99.58v4.01h-1.72v-5.95Z"/>
    <path class="st10" d="M52.82,153.21c0-1.93,1.34-3.12,2.74-3.12,1.65,0,2.47,1.23,2.47,2.86,0,.32-.04.63-.07.78h-3.47c.15.86.73,1.26,1.51,1.26.44,0,.83-.14,1.26-.39l.57,1.06c-.6.42-1.37.67-2.06.67-1.66,0-2.94-1.15-2.94-3.12ZM56.56,152.56c0-.65-.28-1.12-.96-1.12-.54,0-1.01.37-1.13,1.12h2.09Z"/>
    <path class="st10" d="M59.22,150.23h1.4l.12.75h.04c.49-.48,1.07-.9,1.87-.9,1.26,0,1.8.91,1.8,2.4v3.69h-1.72v-3.47c0-.86-.22-1.12-.72-1.12-.43,0-.7.21-1.07.58v4.01h-1.72v-5.95Z"/>
    <path class="st10" d="M66.14,154.02v-2.4h-.79v-1.32l.89-.07.2-1.58h1.42v1.58h1.39v1.38h-1.39v2.38c0,.67.3.95.75.95.19,0,.4-.06.55-.11l.27,1.28c-.31.1-.73.22-1.29.22-1.44,0-2.01-.93-2.01-2.31Z"/>
  </g>
  <rect class="st13" x="163.87" y="141.38" width="126" height="20"/>
  <g class="st7">
    <path class="st10" d="M1.84,177.21c0-1.95,1.19-3.12,2.41-3.12.64,0,1.03.24,1.42.62l-.06-.9v-2.03h1.72v8.4h-1.4l-.12-.59h-.04c-.41.42-.98.73-1.54.73-1.44,0-2.38-1.17-2.38-3.12ZM5.61,178.35v-2.44c-.3-.28-.65-.38-.96-.38-.56,0-1.05.53-1.05,1.66s.39,1.69,1.06,1.69c.37,0,.66-.14.95-.53Z"/>
    <path class="st10" d="M8.71,172.44c0-.54.42-.92,1-.92s1,.38,1,.92-.42.92-1,.92-1-.39-1-.92ZM8.85,174.23h1.72v5.95h-1.72v-5.95Z"/>
    <path class="st10" d="M12.07,174.23h1.4l.12,1.04h.04c.42-.79,1.06-1.18,1.65-1.18.33,0,.52.04.69.12l-.29,1.52c-.21-.05-.38-.1-.63-.1-.44,0-.97.29-1.28,1.1v3.45h-1.72v-5.95Z"/>
    <path class="st10" d="M16.96,178.02v-2.4h-.79v-1.32l.89-.07.2-1.58h1.42v1.58h1.39v1.38h-1.39v2.38c0,.67.3.95.75.95.19,0,.4-.06.55-.11l.27,1.28c-.31.1-.73.22-1.29.22-1.44,0-2.01-.93-2.01-2.31Z"/>
    <path class="st10" d="M21.03,182.39l.31-1.34c.11.03.27.08.39.08.57,0,.87-.32,1.02-.78l.09-.31-2.24-5.8h1.73l.83,2.56c.17.54.31,1.1.46,1.69h.05c.13-.56.26-1.13.4-1.69l.71-2.56h1.65l-2.02,6.01c-.55,1.49-1.17,2.26-2.54,2.26-.36,0-.59-.05-.83-.12Z"/>
    <path class="st10" d="M29.31,177.21c0-1.98,1.36-3.12,2.83-3.12s2.83,1.14,2.83,3.12-1.36,3.12-2.83,3.12-2.83-1.14-2.83-3.12ZM33.2,177.21c0-1.03-.35-1.7-1.07-1.7s-1.06.67-1.06,1.7.35,1.69,1.06,1.69,1.07-.66,1.07-1.69Z"/>
    <path class="st10" d="M36.14,174.23h1.4l.12,1.04h.04c.42-.79,1.06-1.18,1.65-1.18.33,0,.52.04.69.12l-.29,1.52c-.21-.05-.38-.1-.63-.1-.44,0-.97.29-1.28,1.1v3.45h-1.72v-5.95Z"/>
    <path class="st10" d="M43.08,177.92v-3.69h1.72v3.47c0,.86.22,1.12.72,1.12.43,0,.7-.19,1.03-.65v-3.94h1.72v5.95h-1.4l-.12-.83h-.04c-.48.59-1.03.97-1.82.97-1.26,0-1.8-.91-1.8-2.4Z"/>
    <path class="st10" d="M49.78,174.23h1.4l.12.75h.04c.49-.48,1.07-.9,1.87-.9,1.26,0,1.8.91,1.8,2.4v3.69h-1.72v-3.47c0-.86-.22-1.12-.72-1.12-.43,0-.7.21-1.07.58v4.01h-1.72v-5.95Z"/>
    <path class="st10" d="M55.96,179.49l.77-1.1c.53.41,1.01.62,1.5.62.51,0,.73-.2.73-.51,0-.39-.58-.57-1.17-.81-.71-.28-1.54-.77-1.54-1.75,0-1.11.88-1.86,2.22-1.86.89,0,1.55.37,2.05.75l-.77,1.06c-.41-.31-.82-.51-1.22-.51-.44,0-.66.18-.66.48,0,.38.54.52,1.15.75.74.28,1.56.7,1.56,1.79s-.83,1.92-2.39,1.92c-.77,0-1.64-.34-2.23-.83Z"/>
    <path class="st10" d="M61.38,178.53c0-1.25.97-1.93,3.27-2.18-.03-.52-.29-.86-.92-.86-.49,0-.97.21-1.54.54l-.61-1.16c.74-.46,1.57-.78,2.48-.78,1.48,0,2.31.87,2.31,2.69v3.4h-1.4l-.12-.61h-.04c-.49.44-1.04.75-1.69.75-1.06,0-1.73-.79-1.73-1.79ZM64.65,178.45v-1.04c-1.22.17-1.62.53-1.62.98,0,.38.26.57.67.57s.65-.2.96-.51Z"/>
    <path class="st10" d="M67.82,174.23h1.4l.12.75h.04c.49-.48,1.07-.9,1.87-.9,1.26,0,1.8.91,1.8,2.4v3.69h-1.72v-3.47c0-.86-.22-1.12-.72-1.12-.43,0-.7.21-1.07.58v4.01h-1.72v-5.95Z"/>
    <path class="st10" d="M74.37,172.44c0-.54.42-.92,1-.92s1,.38,1,.92-.42.92-1,.92-1-.39-1-.92ZM74.51,174.23h1.72v5.95h-1.72v-5.95Z"/>
    <path class="st10" d="M77.97,178.02v-2.4h-.79v-1.32l.89-.07.2-1.58h1.42v1.58h1.39v1.38h-1.39v2.38c0,.67.3.95.75.95.19,0,.4-.06.55-.11l.27,1.28c-.31.1-.73.22-1.29.22-1.44,0-2.01-.93-2.01-2.31Z"/>
    <path class="st10" d="M81.72,178.53c0-1.25.97-1.93,3.27-2.18-.03-.52-.29-.86-.92-.86-.49,0-.97.21-1.54.54l-.61-1.16c.74-.46,1.57-.78,2.48-.78,1.48,0,2.31.87,2.31,2.69v3.4h-1.4l-.12-.61h-.04c-.49.44-1.04.75-1.69.75-1.06,0-1.73-.79-1.73-1.79ZM84.99,178.45v-1.04c-1.22.17-1.62.53-1.62.98,0,.38.26.57.67.57s.65-.2.96-.51Z"/>
    <path class="st10" d="M88.15,174.23h1.4l.12,1.04h.04c.42-.79,1.06-1.18,1.65-1.18.33,0,.52.04.69.12l-.29,1.52c-.21-.05-.38-.1-.63-.1-.44,0-.97.29-1.28,1.1v3.45h-1.72v-5.95Z"/>
    <path class="st10" d="M92.71,182.39l.31-1.34c.11.03.27.08.39.08.57,0,.87-.32,1.02-.78l.09-.31-2.24-5.8h1.73l.83,2.56c.17.54.31,1.1.46,1.69h.05c.13-.56.26-1.13.4-1.69l.71-2.56h1.65l-2.02,6.01c-.55,1.49-1.17,2.26-2.54,2.26-.36,0-.59-.05-.83-.12Z"/>
    <path class="st10" d="M100.98,177.21c0-1.98,1.42-3.12,3.03-3.12.71,0,1.26.26,1.7.64l-.81,1.13c-.28-.24-.51-.35-.79-.35-.83,0-1.36.67-1.36,1.7s.55,1.69,1.3,1.69c.38,0,.75-.19,1.05-.44l.67,1.15c-.56.51-1.28.71-1.91.71-1.62,0-2.87-1.14-2.87-3.12Z"/>
    <path class="st10" d="M106.12,177.21c0-1.98,1.36-3.12,2.83-3.12s2.83,1.14,2.83,3.12-1.36,3.12-2.83,3.12-2.83-1.14-2.83-3.12ZM110.01,177.21c0-1.03-.35-1.7-1.07-1.7s-1.06.67-1.06,1.7.35,1.69,1.06,1.69,1.07-.66,1.07-1.69Z"/>
    <path class="st10" d="M112.95,174.23h1.4l.12.75h.04c.49-.48,1.07-.9,1.87-.9,1.26,0,1.8.91,1.8,2.4v3.69h-1.72v-3.47c0-.86-.22-1.12-.72-1.12-.43,0-.7.21-1.07.58v4.01h-1.72v-5.95Z"/>
    <path class="st10" d="M119.34,177.21c0-1.95,1.19-3.12,2.41-3.12.64,0,1.03.24,1.42.62l-.06-.9v-2.03h1.72v8.4h-1.4l-.12-.59h-.04c-.41.42-.98.73-1.54.73-1.44,0-2.38-1.17-2.38-3.12ZM123.11,178.35v-2.44c-.3-.28-.65-.38-.96-.38-.56,0-1.05.53-1.05,1.66s.39,1.69,1.06,1.69c.37,0,.66-.14.95-.53Z"/>
    <path class="st10" d="M126.21,172.44c0-.54.42-.92,1-.92s1,.38,1,.92-.42.92-1,.92-1-.39-1-.92ZM126.34,174.23h1.72v5.95h-1.72v-5.95Z"/>
    <path class="st10" d="M129.8,178.02v-2.4h-.79v-1.32l.89-.07.2-1.58h1.42v1.58h1.39v1.38h-1.39v2.38c0,.67.3.95.75.95.19,0,.4-.06.55-.11l.27,1.28c-.31.1-.73.22-1.29.22-1.44,0-2.01-.93-2.01-2.31Z"/>
    <path class="st10" d="M133.92,172.44c0-.54.42-.92,1-.92s1,.38,1,.92-.42.92-1,.92-1-.39-1-.92ZM134.05,174.23h1.72v5.95h-1.72v-5.95Z"/>
    <path class="st10" d="M136.94,177.21c0-1.98,1.36-3.12,2.83-3.12s2.83,1.14,2.83,3.12-1.36,3.12-2.83,3.12-2.83-1.14-2.83-3.12ZM140.84,177.21c0-1.03-.35-1.7-1.07-1.7s-1.06.67-1.06,1.7.35,1.69,1.06,1.69,1.07-.66,1.07-1.69Z"/>
    <path class="st10" d="M143.77,174.23h1.4l.12.75h.04c.49-.48,1.07-.9,1.87-.9,1.26,0,1.8.91,1.8,2.4v3.69h-1.72v-3.47c0-.86-.22-1.12-.72-1.12-.43,0-.7.21-1.07.58v4.01h-1.72v-5.95Z"/>
    <path class="st10" d="M149.95,179.49l.77-1.1c.53.41,1.01.62,1.5.62.51,0,.73-.2.73-.51,0-.39-.58-.57-1.17-.81-.71-.28-1.54-.77-1.54-1.75,0-1.11.88-1.86,2.22-1.86.89,0,1.55.37,2.05.75l-.77,1.06c-.41-.31-.82-.51-1.22-.51-.44,0-.66.18-.66.48,0,.38.54.52,1.15.75.74.28,1.56.7,1.56,1.79s-.83,1.92-2.38,1.92c-.77,0-1.64-.34-2.23-.83Z"/>
  </g>
  <rect class="st1" x="163.87" y="165.38" width="124.33" height="20"/>
  <g class="st7">
    <path class="st10" d="M2.14,195.78h1.72v2.05l-.08,1.08c.44-.41,1-.82,1.79-.82,1.26,0,1.8.91,1.8,2.4v3.69h-1.72v-3.47c0-.86-.22-1.12-.72-1.12-.43,0-.7.21-1.07.58v4.01h-1.72v-8.4Z"/>
    <path class="st10" d="M8.48,201.21c0-1.98,1.36-3.12,2.83-3.12s2.83,1.14,2.83,3.12-1.36,3.12-2.83,3.12-2.83-1.14-2.83-3.12ZM12.38,201.21c0-1.03-.35-1.7-1.07-1.7s-1.06.67-1.06,1.7.35,1.69,1.06,1.69,1.07-.66,1.07-1.69Z"/>
    <path class="st10" d="M15.31,198.23h1.4l.12.76h.04c.48-.49,1-.91,1.76-.91.82,0,1.31.36,1.6,1,.51-.55,1.06-1,1.82-1,1.25,0,1.82.91,1.82,2.4v3.69h-1.72v-3.47c0-.86-.23-1.12-.72-1.12-.29,0-.62.19-.99.58v4.01h-1.72v-3.47c0-.86-.23-1.12-.72-1.12-.29,0-.62.19-.99.58v4.01h-1.72v-5.95Z"/>
    <path class="st10" d="M25,201.21c0-1.93,1.34-3.12,2.74-3.12,1.65,0,2.47,1.23,2.47,2.86,0,.32-.04.63-.07.78h-3.47c.15.86.73,1.26,1.51,1.26.44,0,.83-.14,1.26-.39l.57,1.06c-.6.42-1.37.67-2.06.67-1.66,0-2.94-1.15-2.94-3.12ZM28.75,200.56c0-.65-.28-1.12-.96-1.12-.54,0-1.01.37-1.13,1.12h2.09Z"/>
    <path class="st10" d="M31.4,202.33v-6.55h1.72v6.62c0,.38.17.5.31.5.07,0,.11,0,.21-.02l.21,1.3c-.19.08-.47.15-.86.15-1.18,0-1.58-.79-1.58-1.99Z"/>
    <path class="st10" d="M34.41,201.21c0-1.93,1.34-3.12,2.74-3.12,1.65,0,2.47,1.23,2.47,2.86,0,.32-.04.63-.07.78h-3.47c.15.86.73,1.26,1.51,1.26.44,0,.83-.14,1.26-.39l.57,1.06c-.6.42-1.37.67-2.06.67-1.66,0-2.94-1.15-2.94-3.12ZM38.15,200.56c0-.65-.28-1.12-.96-1.12-.54,0-1.01.37-1.13,1.12h2.09Z"/>
    <path class="st10" d="M40.29,203.49l.77-1.1c.53.41,1.01.62,1.5.62.51,0,.73-.2.73-.51,0-.39-.58-.57-1.17-.81-.71-.28-1.54-.77-1.54-1.75,0-1.11.88-1.86,2.22-1.86.89,0,1.55.37,2.05.75l-.77,1.06c-.41-.31-.82-.51-1.22-.51-.44,0-.66.18-.66.48,0,.38.54.52,1.15.75.74.28,1.56.7,1.56,1.79s-.83,1.92-2.38,1.92c-.77,0-1.64-.34-2.23-.83Z"/>
    <path class="st10" d="M45.47,203.49l.77-1.1c.53.41,1.01.62,1.5.62.51,0,.73-.2.73-.51,0-.39-.58-.57-1.17-.81-.71-.28-1.54-.77-1.54-1.75,0-1.11.88-1.86,2.22-1.86.89,0,1.55.37,2.05.75l-.77,1.06c-.41-.31-.82-.51-1.22-.51-.44,0-.66.18-.66.48,0,.38.54.52,1.15.75.74.28,1.56.7,1.56,1.79s-.83,1.92-2.39,1.92c-.77,0-1.64-.34-2.23-.83Z"/>
    <path class="st10" d="M53.51,198.23h1.4l.12.58h.04c.46-.42,1.05-.73,1.65-.73,1.41,0,2.27,1.19,2.27,3.02,0,2.04-1.19,3.21-2.44,3.21-.5,0-.97-.22-1.39-.62l.06.94v1.74h-1.72v-8.16ZM57.24,201.13c0-1.07-.32-1.6-1.01-1.6-.35,0-.66.16-1,.53v2.44c.31.28.64.38.93.38.6,0,1.08-.52,1.08-1.75Z"/>
    <path class="st10" d="M59.88,201.21c0-1.93,1.34-3.12,2.74-3.12,1.65,0,2.47,1.23,2.47,2.86,0,.32-.04.63-.07.78h-3.47c.15.86.73,1.26,1.51,1.26.44,0,.83-.14,1.26-.39l.57,1.06c-.6.42-1.37.67-2.06.67-1.66,0-2.94-1.15-2.94-3.12ZM63.62,200.56c0-.65-.28-1.12-.96-1.12-.54,0-1.01.37-1.13,1.12h2.09Z"/>
    <path class="st10" d="M66.27,198.23h1.4l.12,1.04h.04c.42-.79,1.06-1.18,1.65-1.18.33,0,.52.04.69.12l-.29,1.52c-.21-.05-.38-.1-.63-.1-.44,0-.97.29-1.28,1.1v3.45h-1.72v-5.95Z"/>
    <path class="st10" d="M70.32,203.49l.77-1.1c.53.41,1.01.62,1.5.62.51,0,.73-.2.73-.51,0-.39-.58-.57-1.17-.81-.71-.28-1.54-.77-1.54-1.75,0-1.11.88-1.86,2.22-1.86.89,0,1.55.37,2.05.75l-.77,1.06c-.41-.31-.82-.51-1.22-.51-.44,0-.66.18-.66.48,0,.38.54.52,1.15.75.74.28,1.56.7,1.56,1.79s-.83,1.92-2.38,1.92c-.77,0-1.64-.34-2.23-.83Z"/>
    <path class="st10" d="M75.68,201.21c0-1.98,1.36-3.12,2.83-3.12s2.83,1.14,2.83,3.12-1.36,3.12-2.83,3.12-2.83-1.14-2.83-3.12ZM79.57,201.21c0-1.03-.35-1.7-1.07-1.7s-1.06.67-1.06,1.7.35,1.69,1.06,1.69,1.07-.66,1.07-1.69Z"/>
    <path class="st10" d="M82.51,198.23h1.4l.12.75h.04c.49-.48,1.07-.9,1.87-.9,1.26,0,1.8.91,1.8,2.4v3.69h-1.72v-3.47c0-.86-.22-1.12-.72-1.12-.43,0-.7.21-1.07.58v4.01h-1.72v-5.95Z"/>
    <path class="st10" d="M91.27,202.53c0-1.25.97-1.93,3.27-2.18-.03-.52-.29-.86-.92-.86-.49,0-.97.21-1.54.54l-.61-1.16c.74-.46,1.57-.78,2.48-.78,1.48,0,2.31.87,2.31,2.69v3.4h-1.4l-.12-.61h-.04c-.49.44-1.04.75-1.69.75-1.06,0-1.73-.79-1.73-1.79ZM94.54,202.45v-1.04c-1.22.17-1.62.53-1.62.98,0,.38.26.57.67.57s.65-.2.96-.51Z"/>
    <path class="st10" d="M97.19,203.49l.77-1.1c.53.41,1.01.62,1.5.62.51,0,.73-.2.73-.51,0-.39-.58-.57-1.17-.81-.71-.28-1.54-.77-1.54-1.75,0-1.11.88-1.86,2.22-1.86.89,0,1.55.37,2.05.75l-.77,1.06c-.41-.31-.82-.51-1.22-.51-.44,0-.66.18-.66.48,0,.38.54.52,1.15.75.74.28,1.56.7,1.56,1.79s-.83,1.92-2.38,1.92c-.77,0-1.64-.34-2.23-.83Z"/>
    <path class="st10" d="M102.38,203.49l.77-1.1c.53.41,1.01.62,1.5.62.51,0,.73-.2.73-.51,0-.39-.58-.57-1.17-.81-.71-.28-1.54-.77-1.54-1.75,0-1.11.88-1.86,2.22-1.86.89,0,1.55.37,2.05.75l-.77,1.06c-.41-.31-.82-.51-1.22-.51-.44,0-.66.18-.66.48,0,.38.54.52,1.15.75.74.28,1.56.7,1.56,1.79s-.83,1.92-2.38,1.92c-.77,0-1.64-.34-2.23-.83Z"/>
    <path class="st10" d="M107.94,196.44c0-.54.42-.92,1-.92s1,.38,1,.92-.42.92-1,.92-1-.39-1-.92ZM108.07,198.23h1.72v5.95h-1.72v-5.95Z"/>
    <path class="st10" d="M110.79,203.49l.77-1.1c.53.41,1.01.62,1.5.62.51,0,.73-.2.73-.51,0-.39-.58-.57-1.17-.81-.71-.28-1.54-.77-1.54-1.75,0-1.11.88-1.86,2.22-1.86.89,0,1.55.37,2.05.75l-.77,1.06c-.41-.31-.82-.51-1.22-.51-.44,0-.66.18-.66.48,0,.38.54.52,1.15.75.74.28,1.56.7,1.56,1.79s-.83,1.92-2.39,1.92c-.77,0-1.64-.34-2.23-.83Z"/>
    <path class="st10" d="M116.48,202.02v-2.4h-.79v-1.32l.89-.07.2-1.58h1.42v1.58h1.39v1.38h-1.39v2.38c0,.67.3.95.75.95.19,0,.4-.06.55-.11l.27,1.28c-.31.1-.73.22-1.29.22-1.44,0-2.01-.93-2.01-2.31Z"/>
    <path class="st10" d="M120.23,202.53c0-1.25.97-1.93,3.27-2.18-.03-.52-.29-.86-.92-.86-.49,0-.97.21-1.54.54l-.61-1.16c.74-.46,1.57-.78,2.48-.78,1.48,0,2.31.87,2.31,2.69v3.4h-1.4l-.12-.61h-.04c-.49.44-1.04.75-1.69.75-1.06,0-1.73-.79-1.73-1.79ZM123.5,202.45v-1.04c-1.22.17-1.62.53-1.62.98,0,.38.26.57.67.57s.65-.2.96-.51Z"/>
    <path class="st10" d="M126.66,198.23h1.4l.12.75h.04c.49-.48,1.07-.9,1.87-.9,1.26,0,1.8.91,1.8,2.4v3.69h-1.72v-3.47c0-.86-.22-1.12-.72-1.12-.43,0-.7.21-1.07.58v4.01h-1.72v-5.95Z"/>
    <path class="st10" d="M133.01,201.21c0-1.98,1.42-3.12,3.03-3.12.71,0,1.26.26,1.7.64l-.81,1.13c-.28-.24-.51-.35-.79-.35-.83,0-1.36.67-1.36,1.7s.55,1.69,1.3,1.69c.38,0,.75-.19,1.05-.44l.67,1.15c-.56.51-1.28.71-1.91.71-1.62,0-2.87-1.14-2.87-3.12Z"/>
    <path class="st10" d="M138.15,201.21c0-1.93,1.34-3.12,2.74-3.12,1.65,0,2.47,1.23,2.47,2.86,0,.32-.04.63-.07.78h-3.47c.15.86.73,1.26,1.51,1.26.44,0,.83-.14,1.26-.39l.57,1.06c-.6.42-1.37.67-2.06.67-1.66,0-2.94-1.15-2.94-3.12ZM141.89,200.56c0-.65-.28-1.12-.96-1.12-.54,0-1.01.37-1.13,1.12h2.09Z"/>
  </g>
  <rect class="st5" x="163.87" y="189.38" width="74.79" height="20"/>
  <g class="st7">
    <path class="st10" d="M1.53,222.23h1.73l.76,2.81c.15.59.3,1.21.45,1.83h.05c.15-.62.3-1.24.45-1.83l.76-2.81h1.65l-1.89,5.95h-1.98l-1.96-5.95Z"/>
    <path class="st10" d="M7.83,225.21c0-1.93,1.34-3.12,2.74-3.12,1.65,0,2.47,1.23,2.47,2.86,0,.32-.04.63-.07.78h-3.47c.15.86.73,1.26,1.51,1.26.44,0,.83-.14,1.26-.39l.57,1.06c-.6.42-1.37.67-2.06.67-1.66,0-2.94-1.15-2.94-3.12ZM11.57,224.56c0-.65-.28-1.12-.96-1.12-.54,0-1.01.37-1.13,1.12h2.09Z"/>
    <path class="st10" d="M14.23,222.23h1.4l.12.75h.04c.49-.48,1.07-.9,1.87-.9,1.26,0,1.8.91,1.8,2.4v3.69h-1.72v-3.47c0-.86-.22-1.12-.72-1.12-.43,0-.7.21-1.07.58v4.01h-1.72v-5.95Z"/>
    <path class="st10" d="M20.62,225.21c0-1.95,1.19-3.12,2.41-3.12.64,0,1.03.24,1.42.62l-.06-.9v-2.03h1.72v8.4h-1.4l-.12-.59h-.04c-.41.42-.98.73-1.54.73-1.44,0-2.38-1.17-2.38-3.12ZM24.39,226.35v-2.44c-.3-.28-.65-.38-.96-.38-.56,0-1.05.53-1.05,1.66s.39,1.69,1.06,1.69c.37,0,.66-.14.95-.53Z"/>
    <path class="st10" d="M27.28,225.21c0-1.98,1.36-3.12,2.83-3.12s2.83,1.14,2.83,3.12-1.36,3.12-2.83,3.12-2.83-1.14-2.83-3.12ZM31.18,225.21c0-1.03-.35-1.7-1.07-1.7s-1.06.67-1.06,1.7.35,1.69,1.06,1.69,1.07-.66,1.07-1.69Z"/>
    <path class="st10" d="M34.11,222.23h1.4l.12,1.04h.04c.42-.79,1.06-1.18,1.65-1.18.33,0,.52.04.69.12l-.29,1.52c-.21-.05-.38-.1-.63-.1-.44,0-.97.29-1.28,1.1v3.45h-1.72v-5.95Z"/>
    <path class="st10" d="M40.77,225.21c0-1.93,1.34-3.12,2.74-3.12,1.65,0,2.47,1.23,2.47,2.86,0,.32-.04.63-.07.78h-3.47c.15.86.73,1.26,1.51,1.26.44,0,.83-.14,1.26-.39l.57,1.06c-.6.42-1.37.67-2.06.67-1.66,0-2.94-1.15-2.94-3.12ZM44.51,224.56c0-.65-.28-1.12-.96-1.12-.54,0-1.01.37-1.13,1.12h2.09Z"/>
    <path class="st10" d="M47.17,222.23h1.4l.12.75h.04c.49-.48,1.07-.9,1.87-.9,1.26,0,1.8.91,1.8,2.4v3.69h-1.72v-3.47c0-.86-.22-1.12-.72-1.12-.43,0-.7.21-1.07.58v4.01h-1.72v-5.95Z"/>
    <path class="st10" d="M53.39,222.3l.87-.07h2.67v1.38h-3.54v-1.32ZM54.16,221.92c0-1.26.57-2.29,2.14-2.29.48,0,.9.11,1.16.21l-.31,1.3c-.2-.08-.41-.13-.6-.13-.42,0-.66.24-.66.85v6.31h-1.72v-6.26Z"/>
    <path class="st10" d="M57.4,225.21c0-1.98,1.36-3.12,2.83-3.12s2.83,1.14,2.83,3.12-1.36,3.12-2.83,3.12-2.83-1.14-2.83-3.12ZM61.29,225.21c0-1.03-.35-1.7-1.07-1.7s-1.06.67-1.06,1.7.35,1.69,1.06,1.69,1.07-.66,1.07-1.69Z"/>
    <path class="st10" d="M64.23,222.23h1.4l.12,1.04h.04c.42-.79,1.06-1.18,1.65-1.18.33,0,.52.04.69.12l-.29,1.52c-.21-.05-.38-.1-.63-.1-.44,0-.97.29-1.28,1.1v3.45h-1.72v-5.95Z"/>
    <path class="st10" d="M68.43,225.21c0-1.98,1.42-3.12,3.03-3.12.71,0,1.26.26,1.7.64l-.81,1.13c-.28-.24-.51-.35-.79-.35-.83,0-1.36.67-1.36,1.7s.55,1.69,1.3,1.69c.38,0,.75-.19,1.05-.44l.67,1.15c-.56.51-1.28.71-1.91.71-1.62,0-2.87-1.14-2.87-3.12Z"/>
    <path class="st10" d="M73.56,225.21c0-1.93,1.34-3.12,2.74-3.12,1.65,0,2.47,1.23,2.47,2.86,0,.32-.04.63-.07.78h-3.47c.15.86.73,1.26,1.51,1.26.44,0,.83-.14,1.26-.39l.57,1.06c-.6.42-1.37.67-2.06.67-1.66,0-2.94-1.15-2.94-3.12ZM77.3,224.56c0-.65-.28-1.12-.96-1.12-.54,0-1.01.37-1.13,1.12h2.09Z"/>
    <path class="st10" d="M79.96,222.23h1.4l.12.76h.04c.48-.49,1-.91,1.76-.91.82,0,1.31.36,1.6,1,.51-.55,1.06-1,1.82-1,1.25,0,1.82.91,1.82,2.4v3.69h-1.72v-3.47c0-.86-.23-1.12-.72-1.12-.29,0-.62.19-.99.58v4.01h-1.72v-3.47c0-.86-.23-1.12-.72-1.12-.29,0-.62.19-.99.58v4.01h-1.72v-5.95Z"/>
    <path class="st10" d="M89.65,225.21c0-1.93,1.34-3.12,2.74-3.12,1.65,0,2.47,1.23,2.47,2.86,0,.32-.04.63-.07.78h-3.47c.15.86.73,1.26,1.51,1.26.44,0,.83-.14,1.26-.39l.57,1.06c-.6.42-1.37.67-2.06.67-1.66,0-2.94-1.15-2.94-3.12ZM93.39,224.56c0-.65-.28-1.12-.96-1.12-.54,0-1.01.37-1.13,1.12h2.09Z"/>
    <path class="st10" d="M96.04,222.23h1.4l.12.75h.04c.49-.48,1.07-.9,1.87-.9,1.26,0,1.8.91,1.8,2.4v3.69h-1.72v-3.47c0-.86-.22-1.12-.72-1.12-.43,0-.7.21-1.07.58v4.01h-1.72v-5.95Z"/>
    <path class="st10" d="M102.97,226.02v-2.4h-.79v-1.32l.89-.07.2-1.58h1.42v1.58h1.39v1.38h-1.39v2.38c0,.67.3.95.75.95.19,0,.4-.06.55-.11l.27,1.28c-.31.1-.73.22-1.29.22-1.44,0-2.01-.93-2.01-2.31Z"/>
  </g>
  <rect class="st2" x="163.87" y="213.38" width="72.78" height="20"/>
  <g class="st7">
    <path class="st10" d="M1.63,251.49l.77-1.1c.53.41,1.01.62,1.5.62.51,0,.73-.2.73-.51,0-.39-.58-.57-1.17-.81-.71-.28-1.54-.77-1.54-1.75,0-1.11.88-1.86,2.22-1.86.89,0,1.55.37,2.05.75l-.77,1.06c-.41-.31-.82-.51-1.22-.51-.44,0-.66.18-.66.48,0,.38.54.52,1.15.75.74.28,1.56.7,1.56,1.79s-.83,1.92-2.38,1.92c-.77,0-1.64-.34-2.23-.83Z"/>
    <path class="st10" d="M7.32,250.02v-2.4h-.79v-1.32l.89-.07.2-1.58h1.42v1.58h1.39v1.38h-1.39v2.38c0,.67.3.95.75.95.19,0,.4-.06.55-.11l.27,1.28c-.31.1-.73.22-1.29.22-1.44,0-2.01-.93-2.01-2.31Z"/>
    <path class="st10" d="M11.57,246.23h1.4l.12,1.04h.04c.42-.79,1.06-1.18,1.65-1.18.33,0,.52.04.69.12l-.29,1.52c-.21-.05-.38-.1-.63-.1-.44,0-.97.29-1.28,1.1v3.45h-1.72v-5.95Z"/>
    <path class="st10" d="M15.77,249.21c0-1.93,1.34-3.12,2.74-3.12,1.65,0,2.47,1.23,2.47,2.86,0,.32-.04.63-.07.78h-3.47c.15.86.73,1.26,1.51,1.26.44,0,.83-.14,1.26-.39l.57,1.06c-.6.42-1.37.67-2.06.67-1.66,0-2.94-1.15-2.94-3.12ZM19.52,248.56c0-.65-.28-1.12-.96-1.12-.54,0-1.01.37-1.13,1.12h2.09Z"/>
    <path class="st10" d="M21.83,249.21c0-1.93,1.34-3.12,2.74-3.12,1.65,0,2.47,1.23,2.47,2.86,0,.32-.04.63-.07.78h-3.47c.15.86.73,1.26,1.51,1.26.44,0,.83-.14,1.26-.39l.57,1.06c-.6.42-1.37.67-2.06.67-1.66,0-2.94-1.15-2.94-3.12ZM25.58,248.56c0-.65-.28-1.12-.96-1.12-.54,0-1.01.37-1.13,1.12h2.09Z"/>
    <path class="st10" d="M28.35,250.02v-2.4h-.79v-1.32l.89-.07.2-1.58h1.42v1.58h1.39v1.38h-1.39v2.38c0,.67.3.95.75.95.19,0,.4-.06.55-.11l.27,1.28c-.31.1-.73.22-1.29.22-1.44,0-2.01-.93-2.01-2.31Z"/>
    <path class="st10" d="M34.6,249.21c0-1.98,1.42-3.12,3.03-3.12.71,0,1.26.26,1.7.64l-.81,1.13c-.28-.24-.51-.35-.79-.35-.83,0-1.36.67-1.36,1.7s.55,1.69,1.3,1.69c.38,0,.75-.19,1.05-.44l.67,1.15c-.56.51-1.28.71-1.91.71-1.62,0-2.87-1.14-2.87-3.12Z"/>
    <path class="st10" d="M39.73,249.21c0-1.98,1.36-3.12,2.83-3.12s2.83,1.14,2.83,3.12-1.36,3.12-2.83,3.12-2.83-1.14-2.83-3.12ZM43.62,249.21c0-1.03-.35-1.7-1.07-1.7s-1.06.67-1.06,1.7.35,1.69,1.06,1.69,1.07-.66,1.07-1.69Z"/>
    <path class="st10" d="M46.56,246.23h1.4l.12.75h.04c.49-.48,1.07-.9,1.87-.9,1.26,0,1.8.91,1.8,2.4v3.69h-1.72v-3.47c0-.86-.22-1.12-.72-1.12-.43,0-.7.21-1.07.58v4.01h-1.72v-5.95Z"/>
    <path class="st10" d="M52.95,249.21c0-1.95,1.19-3.12,2.41-3.12.64,0,1.03.24,1.42.62l-.06-.9v-2.03h1.72v8.4h-1.4l-.12-.59h-.04c-.41.42-.98.73-1.54.73-1.44,0-2.38-1.17-2.38-3.12ZM56.72,250.35v-2.44c-.3-.28-.65-.38-.96-.38-.56,0-1.05.53-1.05,1.66s.39,1.69,1.06,1.69c.37,0,.66-.14.95-.53Z"/>
    <path class="st10" d="M59.82,244.44c0-.54.42-.92,1-.92s1,.38,1,.92-.42.92-1,.92-1-.39-1-.92ZM59.96,246.23h1.72v5.95h-1.72v-5.95Z"/>
    <path class="st10" d="M63.42,250.02v-2.4h-.79v-1.32l.89-.07.2-1.58h1.42v1.58h1.39v1.38h-1.39v2.38c0,.67.3.95.75.95.19,0,.4-.06.55-.11l.27,1.28c-.31.1-.73.22-1.29.22-1.44,0-2.01-.93-2.01-2.31Z"/>
    <path class="st10" d="M67.53,244.44c0-.54.42-.92,1-.92s1,.38,1,.92-.42.92-1,.92-1-.39-1-.92ZM67.67,246.23h1.72v5.95h-1.72v-5.95Z"/>
    <path class="st10" d="M70.56,249.21c0-1.98,1.36-3.12,2.83-3.12s2.83,1.14,2.83,3.12-1.36,3.12-2.83,3.12-2.83-1.14-2.83-3.12ZM74.45,249.21c0-1.03-.35-1.7-1.07-1.7s-1.06.67-1.06,1.7.35,1.69,1.06,1.69,1.07-.66,1.07-1.69Z"/>
    <path class="st10" d="M77.39,246.23h1.4l.12.75h.04c.49-.48,1.07-.9,1.87-.9,1.26,0,1.8.91,1.8,2.4v3.69h-1.72v-3.47c0-.86-.22-1.12-.72-1.12-.43,0-.7.21-1.07.58v4.01h-1.72v-5.95Z"/>
  </g>
  <rect class="st14" x="163.87" y="237.38" width="69.52" height="20"/>
  <g class="st7">
    <path class="st10" d="M2.14,267.78h1.72v2.05l-.08,1.08c.44-.41,1-.82,1.79-.82,1.26,0,1.8.91,1.8,2.4v3.69h-1.72v-3.47c0-.86-.22-1.12-.72-1.12-.43,0-.7.21-1.07.58v4.01h-1.72v-8.4Z"/>
    <path class="st10" d="M8.48,273.21c0-1.93,1.34-3.12,2.74-3.12,1.65,0,2.47,1.23,2.47,2.86,0,.32-.04.63-.07.78h-3.47c.15.86.73,1.26,1.51,1.26.44,0,.83-.14,1.26-.39l.57,1.06c-.6.42-1.37.67-2.06.67-1.66,0-2.94-1.15-2.94-3.12ZM12.23,272.56c0-.65-.28-1.12-.96-1.12-.54,0-1.01.37-1.13,1.12h2.09Z"/>
    <path class="st10" d="M14.88,274.33v-6.55h1.72v6.62c0,.38.17.5.31.5.07,0,.11,0,.21-.02l.21,1.3c-.19.08-.47.15-.86.15-1.18,0-1.58-.79-1.58-1.99Z"/>
    <path class="st10" d="M18.09,268.44c0-.54.42-.92,1-.92s1,.38,1,.92-.42.92-1,.92-1-.39-1-.92ZM18.23,270.23h1.72v5.95h-1.72v-5.95Z"/>
    <path class="st10" d="M21.12,273.21c0-1.98,1.42-3.12,3.03-3.12.71,0,1.26.26,1.7.64l-.81,1.13c-.28-.24-.51-.35-.79-.35-.83,0-1.36.67-1.36,1.7s.55,1.69,1.3,1.69c.38,0,.75-.19,1.05-.44l.67,1.15c-.56.51-1.28.71-1.91.71-1.62,0-2.87-1.14-2.87-3.12Z"/>
    <path class="st10" d="M26.25,273.21c0-1.98,1.36-3.12,2.83-3.12s2.83,1.14,2.83,3.12-1.36,3.12-2.83,3.12-2.83-1.14-2.83-3.12ZM30.15,273.21c0-1.03-.35-1.7-1.07-1.7s-1.06.67-1.06,1.7.35,1.69,1.06,1.69,1.07-.66,1.07-1.69Z"/>
    <path class="st10" d="M33.08,270.23h1.4l.12.58h.04c.46-.42,1.05-.73,1.65-.73,1.41,0,2.27,1.19,2.27,3.02,0,2.04-1.19,3.21-2.44,3.21-.5,0-.97-.22-1.39-.62l.06.94v1.74h-1.72v-8.16ZM36.81,273.13c0-1.07-.32-1.6-1.01-1.6-.35,0-.66.16-1,.53v2.44c.31.28.64.38.93.38.6,0,1.08-.52,1.08-1.75Z"/>
    <path class="st10" d="M39.72,274.02v-2.4h-.79v-1.32l.89-.07.2-1.58h1.42v1.58h1.39v1.38h-1.39v2.38c0,.67.3.95.75.95.19,0,.4-.06.55-.11l.27,1.28c-.31.1-.73.22-1.29.22-1.44,0-2.01-.93-2.01-2.31Z"/>
    <path class="st10" d="M43.42,273.21c0-1.93,1.34-3.12,2.74-3.12,1.65,0,2.47,1.23,2.47,2.86,0,.32-.04.63-.07.78h-3.47c.15.86.73,1.26,1.51,1.26.44,0,.83-.14,1.26-.39l.57,1.06c-.6.42-1.37.67-2.06.67-1.66,0-2.94-1.15-2.94-3.12ZM47.16,272.56c0-.65-.28-1.12-.96-1.12-.54,0-1.01.37-1.13,1.12h2.09Z"/>
    <path class="st10" d="M49.81,270.23h1.4l.12,1.04h.04c.42-.79,1.06-1.18,1.65-1.18.33,0,.52.04.69.12l-.29,1.52c-.21-.05-.38-.1-.63-.1-.44,0-.97.29-1.28,1.1v3.45h-1.72v-5.95Z"/>
    <path class="st10" d="M56.81,270.23h1.4l.12.75h.04c.49-.48,1.07-.9,1.87-.9,1.26,0,1.8.91,1.8,2.4v3.69h-1.72v-3.47c0-.86-.22-1.12-.72-1.12-.43,0-.7.21-1.07.58v4.01h-1.72v-5.95Z"/>
    <path class="st10" d="M63.16,273.21c0-1.98,1.36-3.12,2.83-3.12s2.83,1.14,2.83,3.12-1.36,3.12-2.83,3.12-2.83-1.14-2.83-3.12ZM67.06,273.21c0-1.03-.35-1.7-1.07-1.7s-1.06.67-1.06,1.7.35,1.69,1.06,1.69,1.07-.66,1.07-1.69Z"/>
    <path class="st10" d="M69.86,268.44c0-.54.42-.92,1-.92s1,.38,1,.92-.42.92-1,.92-1-.39-1-.92ZM69.99,270.23h1.72v5.95h-1.72v-5.95Z"/>
    <path class="st10" d="M72.71,275.49l.77-1.1c.53.41,1.01.62,1.5.62.51,0,.73-.2.73-.51,0-.39-.58-.57-1.17-.81-.71-.28-1.54-.77-1.54-1.75,0-1.11.88-1.86,2.22-1.86.89,0,1.55.37,2.05.75l-.77,1.06c-.41-.31-.82-.51-1.22-.51-.44,0-.66.18-.66.48,0,.38.54.52,1.15.75.74.28,1.56.7,1.56,1.79s-.83,1.92-2.38,1.92c-.77,0-1.64-.34-2.23-.83Z"/>
    <path class="st10" d="M78.07,273.21c0-1.93,1.34-3.12,2.74-3.12,1.65,0,2.47,1.23,2.47,2.86,0,.32-.04.63-.07.78h-3.47c.15.86.73,1.26,1.51,1.26.44,0,.83-.14,1.26-.39l.57,1.06c-.6.42-1.37.67-2.06.67-1.66,0-2.94-1.15-2.94-3.12ZM81.81,272.56c0-.65-.28-1.12-.96-1.12-.54,0-1.01.37-1.13,1.12h2.09Z"/>
  </g>
  <rect class="st6" x="163.87" y="261.38" width="58.08" height="20"/>
  <g class="st7">
    <path class="st10" d="M1.67,294.3l.87-.07h2.67v1.38H1.67v-1.32ZM2.44,293.92c0-1.26.57-2.29,2.14-2.29.48,0,.9.11,1.16.21l-.31,1.3c-.2-.08-.41-.13-.6-.13-.42,0-.66.24-.66.85v6.31h-1.72v-6.26Z"/>
    <path class="st10" d="M5.68,297.21c0-1.98,1.36-3.12,2.83-3.12s2.83,1.14,2.83,3.12-1.36,3.12-2.83,3.12-2.83-1.14-2.83-3.12ZM9.57,297.21c0-1.03-.35-1.7-1.07-1.7s-1.06.67-1.06,1.7.35,1.69,1.06,1.69,1.07-.66,1.07-1.69Z"/>
    <path class="st10" d="M12.51,294.23h1.4l.12,1.04h.04c.42-.79,1.06-1.18,1.65-1.18.33,0,.52.04.69.12l-.29,1.52c-.21-.05-.38-.1-.63-.1-.44,0-.97.29-1.28,1.1v3.45h-1.72v-5.95Z"/>
    <path class="st10" d="M16.58,296.52h2.88v1.25h-2.88v-1.25Z"/>
    <path class="st10" d="M20.53,291.78h1.72v2.05l-.08,1.08c.44-.41,1-.82,1.79-.82,1.26,0,1.8.91,1.8,2.4v3.69h-1.72v-3.47c0-.86-.22-1.12-.72-1.12-.43,0-.7.21-1.07.58v4.01h-1.72v-8.4Z"/>
    <path class="st10" d="M27.08,292.44c0-.54.42-.92,1-.92s1,.38,1,.92-.42.92-1,.92-1-.39-1-.92ZM27.21,294.23h1.72v5.95h-1.72v-5.95Z"/>
    <path class="st10" d="M30.44,294.23h1.4l.12,1.04h.04c.42-.79,1.06-1.18,1.65-1.18.33,0,.52.04.69.12l-.29,1.52c-.21-.05-.38-.1-.63-.1-.44,0-.97.29-1.28,1.1v3.45h-1.72v-5.95Z"/>
    <path class="st10" d="M34.64,297.21c0-1.93,1.34-3.12,2.74-3.12,1.65,0,2.47,1.23,2.47,2.86,0,.32-.04.63-.07.78h-3.47c.15.86.73,1.26,1.51,1.26.44,0,.83-.14,1.26-.39l.57,1.06c-.6.42-1.37.67-2.06.67-1.66,0-2.94-1.15-2.94-3.12ZM38.38,296.56c0-.65-.28-1.12-.96-1.12-.54,0-1.01.37-1.13,1.12h2.09Z"/>
    <path class="st10" d="M42.76,294.23h1.73l.76,2.81c.15.59.3,1.21.45,1.83h.05c.15-.62.3-1.24.45-1.83l.76-2.81h1.65l-1.89,5.95h-1.98l-1.96-5.95Z"/>
    <path class="st10" d="M49.07,297.21c0-1.93,1.34-3.12,2.74-3.12,1.65,0,2.47,1.23,2.47,2.86,0,.32-.04.63-.07.78h-3.47c.15.86.73,1.26,1.51,1.26.44,0,.83-.14,1.26-.39l.57,1.06c-.6.42-1.37.67-2.06.67-1.66,0-2.94-1.15-2.94-3.12ZM52.81,296.56c0-.65-.28-1.12-.96-1.12-.54,0-1.01.37-1.13,1.12h2.09Z"/>
    <path class="st10" d="M55.46,291.78h1.72v2.05l-.08,1.08c.44-.41,1-.82,1.79-.82,1.26,0,1.8.91,1.8,2.4v3.69h-1.72v-3.47c0-.86-.22-1.12-.72-1.12-.43,0-.7.21-1.07.58v4.01h-1.72v-8.4Z"/>
    <path class="st10" d="M62.01,292.44c0-.54.42-.92,1-.92s1,.38,1,.92-.42.92-1,.92-1-.39-1-.92ZM62.14,294.23h1.72v5.95h-1.72v-5.95Z"/>
    <path class="st10" d="M65.03,297.21c0-1.98,1.42-3.12,3.03-3.12.71,0,1.26.26,1.7.64l-.81,1.13c-.28-.24-.51-.35-.79-.35-.83,0-1.36.67-1.36,1.7s.55,1.69,1.3,1.69c.38,0,.75-.19,1.05-.44l.67,1.15c-.56.51-1.28.71-1.91.71-1.62,0-2.87-1.14-2.87-3.12Z"/>
    <path class="st10" d="M70.83,298.33v-6.55h1.72v6.62c0,.38.17.5.31.5.07,0,.11,0,.21-.02l.21,1.3c-.19.08-.47.15-.86.15-1.18,0-1.58-.79-1.58-1.99Z"/>
    <path class="st10" d="M73.84,297.21c0-1.93,1.34-3.12,2.74-3.12,1.65,0,2.47,1.23,2.47,2.86,0,.32-.04.63-.07.78h-3.47c.15.86.73,1.26,1.51,1.26.44,0,.83-.14,1.26-.39l.57,1.06c-.6.42-1.37.67-2.06.67-1.66,0-2.94-1.15-2.94-3.12ZM77.59,296.56c0-.65-.28-1.12-.96-1.12-.54,0-1.01.37-1.13,1.12h2.09Z"/>
    <path class="st10" d="M82.24,297.21c0-1.98,1.42-3.12,3.03-3.12.71,0,1.26.26,1.7.64l-.81,1.13c-.28-.24-.51-.35-.79-.35-.83,0-1.36.67-1.36,1.7s.55,1.69,1.3,1.69c.38,0,.75-.19,1.05-.44l.67,1.15c-.56.51-1.28.71-1.91.71-1.62,0-2.87-1.14-2.87-3.12Z"/>
    <path class="st10" d="M87.38,297.21c0-1.98,1.36-3.12,2.83-3.12s2.83,1.14,2.83,3.12-1.36,3.12-2.83,3.12-2.83-1.14-2.83-3.12ZM91.27,297.21c0-1.03-.35-1.7-1.07-1.7s-1.06.67-1.06,1.7.35,1.69,1.06,1.69,1.07-.66,1.07-1.69Z"/>
    <path class="st10" d="M94.21,294.23h1.4l.12.76h.04c.48-.49,1-.91,1.76-.91.82,0,1.31.36,1.6,1,.51-.55,1.06-1,1.82-1,1.25,0,1.82.91,1.82,2.4v3.69h-1.72v-3.47c0-.86-.23-1.12-.72-1.12-.29,0-.62.19-.99.58v4.01h-1.72v-3.47c0-.86-.23-1.12-.72-1.12-.29,0-.62.19-.99.58v4.01h-1.72v-5.95Z"/>
    <path class="st10" d="M104.23,294.23h1.4l.12.58h.04c.46-.42,1.05-.73,1.65-.73,1.41,0,2.27,1.19,2.27,3.02,0,2.04-1.19,3.21-2.44,3.21-.5,0-.97-.22-1.39-.62l.06.94v1.74h-1.72v-8.16ZM107.96,297.13c0-1.07-.32-1.6-1.01-1.6-.35,0-.66.16-1,.53v2.44c.31.28.64.38.93.38.6,0,1.08-.52,1.08-1.75Z"/>
    <path class="st10" d="M110.84,298.33v-6.55h1.72v6.62c0,.38.17.5.31.5.07,0,.11,0,.21-.02l.21,1.3c-.19.08-.47.15-.86.15-1.18,0-1.58-.79-1.58-1.99Z"/>
    <path class="st10" d="M113.92,298.53c0-1.25.97-1.93,3.27-2.18-.03-.52-.29-.86-.92-.86-.49,0-.97.21-1.54.54l-.61-1.16c.74-.46,1.57-.78,2.48-.78,1.48,0,2.31.87,2.31,2.69v3.4h-1.4l-.12-.61h-.04c-.49.44-1.04.75-1.69.75-1.06,0-1.73-.79-1.73-1.79ZM117.19,298.45v-1.04c-1.22.17-1.62.53-1.62.98,0,.38.26.57.67.57s.65-.2.96-.51Z"/>
    <path class="st10" d="M120.22,292.44c0-.54.42-.92,1-.92s1,.38,1,.92-.42.92-1,.92-1-.39-1-.92ZM120.35,294.23h1.72v5.95h-1.72v-5.95Z"/>
    <path class="st10" d="M123.58,294.23h1.4l.12.75h.04c.49-.48,1.07-.9,1.87-.9,1.26,0,1.8.91,1.8,2.4v3.69h-1.72v-3.47c0-.86-.22-1.12-.72-1.12-.43,0-.7.21-1.07.58v4.01h-1.72v-5.95Z"/>
    <path class="st10" d="M130.51,298.02v-2.4h-.79v-1.32l.89-.07.2-1.58h1.42v1.58h1.39v1.38h-1.39v2.38c0,.67.3.95.75.95.19,0,.4-.06.55-.11l.27,1.28c-.31.1-.73.22-1.29.22-1.44,0-2.01-.93-2.01-2.31Z"/>
  </g>
  <rect class="st11" x="163.87" y="285.38" width="44.59" height="20"/>
  <text class="st8" transform="translate(558.27 82.91) scale(.97 1)"><tspan x="0" y="0">18%</tspan></text>
  <g>
    <path class="st3" d="M1.28,3.03h2.51l2.83,5.51,1.07,2.43h.07c-.12-1.17-.31-2.72-.31-4.03v-3.91h2.34v11.08h-2.51l-2.83-5.52-1.07-2.42h-.07c.12,1.22.31,2.71.31,4.01v3.93H1.28V3.03Z"/>
    <path class="st3" d="M11.66,9.9c0-2.8,1.93-4.42,4.02-4.42s4.02,1.62,4.02,4.42-1.93,4.42-4.02,4.42-4.02-1.62-4.02-4.42ZM17.2,9.9c0-1.46-.5-2.41-1.52-2.41s-1.52.95-1.52,2.41.5,2.4,1.52,2.4,1.52-.94,1.52-2.4Z"/>
    <path class="st3" d="M21.19,3.14c0-.77.6-1.31,1.42-1.31s1.42.54,1.42,1.31-.6,1.31-1.42,1.31-1.42-.55-1.42-1.31ZM21.38,5.68h2.45v8.43h-2.45V5.68Z"/>
    <path class="st3" d="M25.24,13.14l1.1-1.56c.75.58,1.44.89,2.13.89.73,0,1.04-.28,1.04-.73,0-.56-.82-.81-1.67-1.15-1.01-.4-2.19-1.09-2.19-2.48,0-1.57,1.25-2.64,3.16-2.64,1.27,0,2.21.52,2.91,1.07l-1.1,1.5c-.59-.44-1.17-.72-1.74-.72-.63,0-.94.25-.94.67,0,.54.77.74,1.63,1.06,1.05.39,2.22,1,2.22,2.54s-1.18,2.72-3.39,2.72c-1.09,0-2.33-.48-3.17-1.18Z"/>
    <path class="st3" d="M32.86,9.9c0-2.74,1.91-4.42,3.9-4.42,2.35,0,3.52,1.75,3.52,4.05,0,.45-.06.9-.1,1.1h-4.94c.22,1.22,1.04,1.79,2.14,1.79.62,0,1.19-.19,1.79-.55l.81,1.51c-.85.6-1.95.95-2.93.95-2.35,0-4.18-1.63-4.18-4.42ZM38.19,8.97c0-.93-.4-1.59-1.37-1.59-.77,0-1.44.53-1.61,1.59h2.98Z"/>
    <path class="st3" d="M44.91,11.77c0-1.78,1.38-2.74,4.65-3.09-.05-.74-.41-1.22-1.31-1.22-.69,0-1.38.3-2.19.76l-.87-1.64c1.05-.65,2.23-1.11,3.53-1.11,2.11,0,3.28,1.23,3.28,3.82v4.82h-2l-.18-.86h-.06c-.7.62-1.47,1.07-2.4,1.07-1.51,0-2.46-1.12-2.46-2.54ZM49.56,11.66v-1.47c-1.74.24-2.31.75-2.31,1.38,0,.54.37.81.95.81s.93-.28,1.36-.72Z"/>
    <path class="st3" d="M54.06,5.68h2l.18,1.07h.06c.7-.68,1.53-1.27,2.65-1.27,1.8,0,2.56,1.29,2.56,3.4v5.24h-2.45v-4.92c0-1.21-.32-1.59-1.03-1.59-.61,0-.99.29-1.53.82v5.69h-2.45V5.68Z"/>
    <path class="st3" d="M63.15,9.9c0-2.76,1.69-4.42,3.43-4.42.91,0,1.47.35,2.02.88l-.09-1.28v-2.87h2.45v11.91h-2l-.18-.84h-.06c-.58.6-1.4,1.04-2.2,1.04-2.05,0-3.38-1.66-3.38-4.42ZM68.52,11.51v-3.46c-.43-.4-.92-.53-1.37-.53-.79,0-1.49.75-1.49,2.35s.56,2.4,1.51,2.4c.52,0,.94-.2,1.35-.75Z"/>
    <path class="st3" d="M76.25,3.14c0-.77.6-1.31,1.42-1.31s1.42.54,1.42,1.31-.6,1.31-1.42,1.31-1.42-.55-1.42-1.31ZM76.44,5.68h2.45v8.43h-2.45V5.68Z"/>
    <path class="st3" d="M81.03,11.49V2.2h2.45v9.39c0,.54.24.71.44.71.09,0,.16,0,.3-.03l.29,1.84c-.27.12-.67.21-1.23.21-1.68,0-2.25-1.12-2.25-2.83Z"/>
    <path class="st3" d="M85.79,11.49V2.2h2.45v9.39c0,.54.24.71.44.71.09,0,.16,0,.3-.03l.29,1.84c-.27.12-.67.21-1.23.21-1.68,0-2.25-1.12-2.25-2.83Z"/>
    <path class="st3" d="M90.07,9.9c0-2.74,1.91-4.42,3.9-4.42,2.35,0,3.52,1.75,3.52,4.05,0,.45-.06.9-.1,1.1h-4.94c.22,1.22,1.04,1.79,2.14,1.79.62,0,1.19-.19,1.79-.55l.81,1.51c-.85.6-1.95.95-2.93.95-2.35,0-4.18-1.63-4.18-4.42ZM95.4,8.97c0-.93-.4-1.59-1.37-1.59-.77,0-1.44.53-1.61,1.59h2.98Z"/>
    <path class="st3" d="M98.5,15.56c0-.7.41-1.27,1.17-1.7v-.07c-.43-.29-.75-.74-.75-1.43,0-.61.4-1.2.92-1.58v-.07c-.58-.41-1.11-1.2-1.11-2.19,0-2.02,1.64-3.05,3.42-3.05.46,0,.91.07,1.28.2h3.02v1.82h-1.33c.15.25.28.67.28,1.11,0,1.94-1.45,2.83-3.25,2.83-.3,0-.64-.05-1.01-.16-.2.18-.29.33-.29.63,0,.42.33.62,1.24.62h1.34c2.03,0,3.15.63,3.15,2.14,0,1.75-1.79,3.03-4.62,3.03-1.92,0-3.46-.64-3.46-2.14ZM104.23,15.09c0-.53-.45-.65-1.26-.65h-.86c-.57,0-.89-.03-1.16-.11-.31.26-.45.52-.45.83,0,.64.72.97,1.83.97s1.89-.45,1.89-1.03ZM103.27,8.52c0-.9-.48-1.37-1.13-1.37s-1.13.47-1.13,1.37.48,1.41,1.13,1.41,1.13-.48,1.13-1.41Z"/>
    <path class="st3" d="M107.2,11.77c0-1.78,1.38-2.74,4.65-3.09-.05-.74-.41-1.22-1.31-1.22-.69,0-1.38.3-2.19.76l-.87-1.64c1.05-.65,2.23-1.11,3.53-1.11,2.11,0,3.28,1.23,3.28,3.82v4.82h-2l-.18-.86h-.06c-.7.62-1.47,1.07-2.4,1.07-1.51,0-2.46-1.12-2.46-2.54ZM111.85,11.66v-1.47c-1.74.24-2.31.75-2.31,1.38,0,.54.37.81.95.81s.93-.28,1.36-.72Z"/>
    <path class="st3" d="M116.35,11.49V2.2h2.45v9.39c0,.54.24.71.44.71.09,0,.16,0,.3-.03l.29,1.84c-.27.12-.67.21-1.23.21-1.68,0-2.25-1.12-2.25-2.83Z"/>
    <path class="st3" d="M124.43,5.68h2l.18.83h.06c.65-.59,1.49-1.03,2.35-1.03,2,0,3.22,1.69,3.22,4.29,0,2.89-1.69,4.55-3.47,4.55-.71,0-1.38-.32-1.97-.88l.08,1.33v2.47h-2.45V5.68ZM129.73,9.79c0-1.51-.46-2.27-1.44-2.27-.5,0-.94.23-1.42.76v3.46c.44.4.9.53,1.32.53.85,0,1.54-.74,1.54-2.48Z"/>
    <path class="st3" d="M133.4,11.77c0-1.78,1.38-2.74,4.65-3.09-.05-.74-.41-1.22-1.31-1.22-.69,0-1.38.3-2.19.76l-.87-1.64c1.05-.65,2.23-1.11,3.53-1.11,2.11,0,3.28,1.23,3.28,3.82v4.82h-2l-.18-.86h-.06c-.7.62-1.47,1.07-2.4,1.07-1.51,0-2.46-1.12-2.46-2.54ZM138.06,11.66v-1.47c-1.74.24-2.31.75-2.31,1.38,0,.54.37.81.95.81s.93-.28,1.36-.72Z"/>
    <path class="st3" d="M142.55,5.68h2l.18,1.47h.06c.6-1.12,1.5-1.68,2.35-1.68.47,0,.75.06.99.17l-.41,2.16c-.29-.07-.54-.14-.89-.14-.62,0-1.38.41-1.82,1.56v4.89h-2.45V5.68Z"/>
    <path class="st3" d="M149.18,2.2h2.39v6.82h.06l2.62-3.35h2.66l-2.89,3.48,3.11,4.96h-2.65l-1.86-3.29-1.05,1.21v2.08h-2.39V2.2Z"/>
    <path class="st3" d="M158.11,3.14c0-.77.6-1.31,1.42-1.31s1.42.54,1.42,1.31-.6,1.31-1.42,1.31-1.42-.55-1.42-1.31ZM158.3,5.68h2.45v8.43h-2.45V5.68Z"/>
    <path class="st3" d="M162.89,5.68h2l.18,1.07h.06c.7-.68,1.53-1.27,2.65-1.27,1.8,0,2.56,1.29,2.56,3.4v5.24h-2.45v-4.92c0-1.21-.32-1.59-1.03-1.59-.61,0-.99.29-1.53.82v5.69h-2.45V5.68Z"/>
    <path class="st3" d="M171.9,15.56c0-.7.41-1.27,1.17-1.7v-.07c-.43-.29-.75-.74-.75-1.43,0-.61.4-1.2.92-1.58v-.07c-.58-.41-1.11-1.2-1.11-2.19,0-2.02,1.64-3.05,3.42-3.05.46,0,.91.07,1.28.2h3.02v1.82h-1.33c.15.25.28.67.28,1.11,0,1.94-1.45,2.83-3.25,2.83-.3,0-.64-.05-1.01-.16-.2.18-.29.33-.29.63,0,.42.33.62,1.24.62h1.34c2.03,0,3.15.63,3.15,2.14,0,1.75-1.79,3.03-4.62,3.03-1.92,0-3.46-.64-3.46-2.14ZM177.63,15.09c0-.53-.45-.65-1.26-.65h-.86c-.57,0-.89-.03-1.16-.11-.31.26-.45.52-.45.83,0,.64.72.97,1.83.97s1.89-.45,1.89-1.03ZM176.67,8.52c0-.9-.48-1.37-1.13-1.37s-1.13.47-1.13,1.37.48,1.41,1.13,1.41,1.13-.48,1.13-1.41Z"/>
    <path class="st3" d="M184.24,11.77c0-1.78,1.38-2.74,4.65-3.09-.05-.74-.41-1.22-1.31-1.22-.69,0-1.38.3-2.19.76l-.87-1.64c1.05-.65,2.23-1.11,3.53-1.11,2.11,0,3.28,1.23,3.28,3.82v4.82h-2l-.18-.86h-.06c-.7.62-1.47,1.07-2.4,1.07-1.51,0-2.46-1.12-2.46-2.54ZM188.89,11.66v-1.47c-1.74.24-2.31.75-2.31,1.38,0,.54.37.81.95.81s.93-.28,1.36-.72Z"/>
    <path class="st3" d="M193.39,5.68h2l.18,1.47h.06c.6-1.12,1.5-1.68,2.35-1.68.47,0,.75.06.99.17l-.41,2.16c-.29-.07-.54-.14-.89-.14-.62,0-1.38.41-1.82,1.56v4.89h-2.45V5.68Z"/>
    <path class="st3" d="M199.37,9.9c0-2.74,1.91-4.42,3.9-4.42,2.35,0,3.52,1.75,3.52,4.05,0,.45-.06.9-.1,1.1h-4.94c.22,1.22,1.04,1.79,2.14,1.79.62,0,1.19-.19,1.79-.55l.81,1.51c-.85.6-1.95.95-2.93.95-2.35,0-4.18-1.63-4.18-4.42ZM204.69,8.97c0-.93-.4-1.59-1.37-1.59-.77,0-1.44.53-1.61,1.59h2.98Z"/>
    <path class="st3" d="M212.13,11.04v-3.41h-1.13v-1.86l1.27-.1.29-2.24h2.02v2.24h1.98v1.96h-1.98v3.38c0,.96.43,1.34,1.07,1.34.27,0,.57-.08.79-.16l.39,1.81c-.44.14-1.03.31-1.84.31-2.04,0-2.85-1.32-2.85-3.27Z"/>
    <path class="st3" d="M218.17,2.2h2.45v2.91l-.11,1.53c.62-.58,1.42-1.17,2.55-1.17,1.8,0,2.56,1.29,2.56,3.4v5.24h-2.45v-4.92c0-1.21-.32-1.59-1.03-1.59-.61,0-.99.29-1.53.82v5.69h-2.45V2.2Z"/>
    <path class="st3" d="M227.19,9.9c0-2.74,1.91-4.42,3.9-4.42,2.35,0,3.52,1.75,3.52,4.05,0,.45-.06.9-.1,1.1h-4.94c.22,1.22,1.04,1.79,2.14,1.79.62,0,1.19-.19,1.79-.55l.81,1.51c-.85.6-1.95.95-2.93.95-2.35,0-4.18-1.63-4.18-4.42ZM232.51,8.97c0-.93-.4-1.59-1.37-1.59-.77,0-1.44.53-1.61,1.59h2.98Z"/>
    <path class="st3" d="M239.62,5.68h2l.18,1.08h.06c.68-.7,1.42-1.29,2.5-1.29,1.16,0,1.86.51,2.28,1.42.73-.77,1.5-1.42,2.59-1.42,1.78,0,2.58,1.29,2.58,3.4v5.24h-2.45v-4.92c0-1.21-.32-1.59-1.02-1.59-.41,0-.88.26-1.41.82v5.69h-2.45v-4.92c0-1.21-.33-1.59-1.02-1.59-.41,0-.88.26-1.41.82v5.69h-2.45V5.68Z"/>
    <path class="st3" d="M253.4,9.9c0-2.8,1.93-4.42,4.02-4.42s4.02,1.62,4.02,4.42-1.93,4.42-4.02,4.42-4.02-1.62-4.02-4.42ZM258.94,9.9c0-1.46-.5-2.41-1.52-2.41s-1.52.95-1.52,2.41.5,2.4,1.52,2.4,1.52-.94,1.52-2.4Z"/>
    <path class="st3" d="M262.3,13.14l1.1-1.56c.75.58,1.44.89,2.13.89.73,0,1.04-.28,1.04-.73,0-.56-.82-.81-1.67-1.15-1.01-.4-2.19-1.09-2.19-2.48,0-1.57,1.25-2.64,3.16-2.64,1.27,0,2.21.52,2.91,1.07l-1.1,1.5c-.59-.44-1.17-.72-1.74-.72-.63,0-.94.25-.94.67,0,.54.77.74,1.63,1.06,1.05.39,2.22,1,2.22,2.54s-1.18,2.72-3.39,2.72c-1.09,0-2.34-.48-3.17-1.18Z"/>
    <path class="st3" d="M270.4,11.04v-3.41h-1.13v-1.86l1.26-.1.29-2.24h2.02v2.24h1.98v1.96h-1.98v3.38c0,.96.42,1.34,1.07,1.34.27,0,.57-.08.79-.16l.39,1.81c-.44.14-1.03.31-1.84.31-2.04,0-2.85-1.32-2.85-3.27Z"/>
    <path class="st3" d="M279.29,9.9c0-2.8,2.02-4.42,4.3-4.42,1.02,0,1.8.37,2.41.91l-1.16,1.61c-.4-.34-.73-.5-1.12-.5-1.18,0-1.93.95-1.93,2.41s.79,2.4,1.85,2.4c.54,0,1.06-.27,1.49-.62l.96,1.63c-.8.72-1.83,1-2.72,1-2.3,0-4.08-1.62-4.08-4.42Z"/>
    <path class="st3" d="M286.6,9.9c0-2.8,1.93-4.42,4.02-4.42s4.02,1.62,4.02,4.42-1.93,4.42-4.02,4.42-4.02-1.62-4.02-4.42ZM292.14,9.9c0-1.46-.5-2.41-1.52-2.41s-1.51.95-1.51,2.41.5,2.4,1.51,2.4,1.52-.94,1.52-2.4Z"/>
    <path class="st3" d="M296.31,5.68h2l.18,1.08h.06c.68-.7,1.42-1.29,2.5-1.29,1.16,0,1.86.51,2.28,1.42.73-.77,1.5-1.42,2.59-1.42,1.78,0,2.58,1.29,2.58,3.4v5.24h-2.45v-4.92c0-1.21-.33-1.59-1.02-1.59-.42,0-.88.26-1.41.82v5.69h-2.45v-4.92c0-1.21-.32-1.59-1.02-1.59-.41,0-.88.26-1.41.82v5.69h-2.45V5.68Z"/>
    <path class="st3" d="M310.57,5.68h2l.18,1.08h.06c.68-.7,1.42-1.29,2.5-1.29,1.16,0,1.86.51,2.28,1.42.73-.77,1.5-1.42,2.59-1.42,1.78,0,2.58,1.29,2.58,3.4v5.24h-2.45v-4.92c0-1.21-.33-1.59-1.02-1.59-.42,0-.88.26-1.41.82v5.69h-2.45v-4.92c0-1.21-.32-1.59-1.02-1.59-.41,0-.88.26-1.41.82v5.69h-2.45V5.68Z"/>
    <path class="st3" d="M324.35,9.9c0-2.8,1.93-4.42,4.02-4.42s4.02,1.62,4.02,4.42-1.93,4.42-4.02,4.42-4.02-1.62-4.02-4.42ZM329.89,9.9c0-1.46-.5-2.41-1.52-2.41s-1.51.95-1.51,2.41.5,2.4,1.51,2.4,1.52-.94,1.52-2.4Z"/>
    <path class="st3" d="M334.07,5.68h2l.18,1.07h.06c.7-.68,1.53-1.27,2.65-1.27,1.8,0,2.56,1.29,2.56,3.4v5.24h-2.45v-4.92c0-1.21-.32-1.59-1.03-1.59-.61,0-.99.29-1.53.82v5.69h-2.45V5.68Z"/>
    <path class="st3" d="M346.44,9.9c0-2.8,2.02-4.42,4.3-4.42,1.02,0,1.8.37,2.41.91l-1.16,1.61c-.4-.34-.73-.5-1.12-.5-1.18,0-1.93.95-1.93,2.41s.79,2.4,1.85,2.4c.54,0,1.06-.27,1.49-.62l.96,1.63c-.8.72-1.83,1-2.72,1-2.3,0-4.08-1.62-4.08-4.42Z"/>
    <path class="st3" d="M353.74,9.9c0-2.8,1.93-4.42,4.02-4.42s4.02,1.62,4.02,4.42-1.93,4.42-4.02,4.42-4.02-1.62-4.02-4.42ZM359.28,9.9c0-1.46-.5-2.41-1.52-2.41s-1.51.95-1.51,2.41.5,2.4,1.51,2.4,1.52-.94,1.52-2.4Z"/>
    <path class="st3" d="M363.46,5.68h2l.18,1.08h.06c.68-.7,1.42-1.29,2.5-1.29,1.16,0,1.86.51,2.28,1.42.73-.77,1.5-1.42,2.59-1.42,1.78,0,2.58,1.29,2.58,3.4v5.24h-2.45v-4.92c0-1.21-.33-1.59-1.02-1.59-.42,0-.88.26-1.41.82v5.69h-2.45v-4.92c0-1.21-.32-1.59-1.02-1.59-.41,0-.88.26-1.41.82v5.69h-2.45V5.68Z"/>
    <path class="st3" d="M377.72,5.68h2l.18.83h.06c.65-.59,1.49-1.03,2.35-1.03,2,0,3.22,1.69,3.22,4.29,0,2.89-1.69,4.55-3.47,4.55-.71,0-1.38-.32-1.97-.88l.08,1.33v2.47h-2.45V5.68ZM383.02,9.79c0-1.51-.46-2.27-1.43-2.27-.5,0-.94.23-1.42.76v3.46c.44.4.9.53,1.32.53.85,0,1.54-.74,1.54-2.48Z"/>
    <path class="st3" d="M387.12,11.49V2.2h2.45v9.39c0,.54.24.71.44.71.09,0,.16,0,.3-.03l.29,1.84c-.27.12-.67.21-1.23.21-1.68,0-2.25-1.12-2.25-2.83Z"/>
    <path class="st3" d="M391.5,11.77c0-1.78,1.38-2.74,4.65-3.09-.05-.74-.41-1.22-1.31-1.22-.69,0-1.38.3-2.19.76l-.87-1.64c1.05-.65,2.23-1.11,3.53-1.11,2.11,0,3.28,1.23,3.28,3.82v4.82h-2l-.18-.86h-.06c-.7.62-1.47,1.07-2.4,1.07-1.51,0-2.46-1.12-2.46-2.54ZM396.15,11.66v-1.47c-1.74.24-2.31.75-2.31,1.38,0,.54.37.81.95.81s.93-.28,1.36-.72Z"/>
    <path class="st3" d="M400.46,3.14c0-.77.6-1.31,1.42-1.31s1.42.54,1.42,1.31-.6,1.31-1.42,1.31-1.42-.55-1.42-1.31ZM400.65,5.68h2.45v8.43h-2.45V5.68Z"/>
    <path class="st3" d="M405.24,5.68h2l.18,1.07h.06c.7-.68,1.53-1.27,2.65-1.27,1.8,0,2.56,1.29,2.56,3.4v5.24h-2.45v-4.92c0-1.21-.32-1.59-1.03-1.59-.61,0-.99.29-1.53.82v5.69h-2.45V5.68Z"/>
    <path class="st3" d="M415.09,11.04v-3.41h-1.13v-1.86l1.26-.1.29-2.24h2.02v2.24h1.98v1.96h-1.98v3.38c0,.96.42,1.34,1.07,1.34.27,0,.57-.08.79-.16l.39,1.81c-.44.14-1.03.31-1.84.31-2.04,0-2.85-1.32-2.85-3.27Z"/>
    <path class="st3" d="M420.24,13.14l1.1-1.56c.75.58,1.44.89,2.13.89.73,0,1.04-.28,1.04-.73,0-.56-.82-.81-1.67-1.15-1.01-.4-2.19-1.09-2.19-2.48,0-1.57,1.25-2.64,3.16-2.64,1.27,0,2.21.52,2.91,1.07l-1.1,1.5c-.59-.44-1.17-.72-1.74-.72-.63,0-.94.25-.94.67,0,.54.77.74,1.63,1.06,1.05.39,2.22,1,2.22,2.54s-1.18,2.72-3.39,2.72c-1.09,0-2.33-.48-3.17-1.18Z"/>
    <path class="st3" d="M431.48,3.14c0-.77.6-1.31,1.42-1.31s1.42.54,1.42,1.31-.6,1.31-1.42,1.31-1.42-.55-1.42-1.31ZM431.67,5.68h2.45v8.43h-2.45V5.68Z"/>
    <path class="st3" d="M436.26,5.68h2l.18,1.07h.06c.7-.68,1.53-1.27,2.65-1.27,1.8,0,2.56,1.29,2.56,3.4v5.24h-2.45v-4.92c0-1.21-.32-1.59-1.03-1.59-.61,0-.99.29-1.53.82v5.69h-2.45V5.68Z"/>
    <path class="st3" d="M449.44,11.04v-3.41h-1.13v-1.86l1.26-.1.29-2.24h2.02v2.24h1.98v1.96h-1.98v3.38c0,.96.42,1.34,1.07,1.34.27,0,.57-.08.79-.16l.39,1.81c-.44.14-1.03.31-1.84.31-2.04,0-2.85-1.32-2.85-3.27Z"/>
    <path class="st3" d="M455.48,2.2h2.45v2.91l-.11,1.53c.62-.58,1.42-1.17,2.55-1.17,1.8,0,2.56,1.29,2.56,3.4v5.24h-2.45v-4.92c0-1.21-.32-1.59-1.03-1.59-.61,0-.99.29-1.53.82v5.69h-2.45V2.2Z"/>
    <path class="st3" d="M464.5,9.9c0-2.74,1.91-4.42,3.9-4.42,2.35,0,3.52,1.75,3.52,4.05,0,.45-.05.9-.1,1.1h-4.94c.22,1.22,1.04,1.79,2.14,1.79.62,0,1.19-.19,1.79-.55l.81,1.51c-.85.6-1.95.95-2.93.95-2.35,0-4.18-1.63-4.18-4.42ZM469.82,8.97c0-.93-.4-1.59-1.37-1.59-.77,0-1.44.53-1.61,1.59h2.98Z"/>
    <path class="st3" d="M476.93,2.2h2.45v2.91l-.11,1.53c.62-.58,1.42-1.17,2.55-1.17,1.8,0,2.56,1.29,2.56,3.4v5.24h-2.45v-4.92c0-1.21-.32-1.59-1.03-1.59-.61,0-.99.29-1.53.82v5.69h-2.45V2.2Z"/>
    <path class="st3" d="M486.24,3.14c0-.77.6-1.31,1.42-1.31s1.42.54,1.42,1.31-.6,1.31-1.42,1.31-1.42-.55-1.42-1.31ZM486.43,5.68h2.45v8.43h-2.45V5.68Z"/>
    <path class="st3" d="M490.51,15.56c0-.7.41-1.27,1.17-1.7v-.07c-.43-.29-.75-.74-.75-1.43,0-.61.4-1.2.92-1.58v-.07c-.58-.41-1.11-1.2-1.11-2.19,0-2.02,1.64-3.05,3.42-3.05.46,0,.91.07,1.28.2h3.02v1.82h-1.33c.15.25.28.67.28,1.11,0,1.94-1.45,2.83-3.25,2.83-.3,0-.64-.05-1.01-.16-.2.18-.29.33-.29.63,0,.42.33.62,1.24.62h1.34c2.02,0,3.15.63,3.15,2.14,0,1.75-1.79,3.03-4.62,3.03-1.92,0-3.46-.64-3.46-2.14ZM496.25,15.09c0-.53-.45-.65-1.26-.65h-.86c-.57,0-.89-.03-1.16-.11-.31.26-.45.52-.45.83,0,.64.72.97,1.83.97s1.89-.45,1.89-1.03ZM495.29,8.52c0-.9-.48-1.37-1.13-1.37s-1.13.47-1.13,1.37.48,1.41,1.13,1.41,1.13-.48,1.13-1.41Z"/>
    <path class="st3" d="M499.91,2.2h2.45v2.91l-.11,1.53c.62-.58,1.42-1.17,2.55-1.17,1.8,0,2.56,1.29,2.56,3.4v5.24h-2.45v-4.92c0-1.21-.32-1.59-1.03-1.59-.61,0-.99.29-1.53.82v5.69h-2.45V2.2Z"/>
    <path class="st3" d="M508.93,9.9c0-2.74,1.91-4.42,3.9-4.42,2.35,0,3.52,1.75,3.52,4.05,0,.45-.05.9-.1,1.1h-4.94c.22,1.22,1.04,1.79,2.14,1.79.62,0,1.19-.19,1.79-.55l.81,1.51c-.85.6-1.95.95-2.93.95-2.35,0-4.18-1.63-4.18-4.42ZM514.25,8.97c0-.93-.4-1.59-1.37-1.59-.77,0-1.44.53-1.61,1.59h2.98Z"/>
    <path class="st3" d="M517.3,13.14l1.1-1.56c.75.58,1.44.89,2.13.89.73,0,1.04-.28,1.04-.73,0-.56-.82-.81-1.67-1.15-1.01-.4-2.19-1.09-2.19-2.48,0-1.57,1.25-2.64,3.16-2.64,1.27,0,2.21.52,2.91,1.07l-1.1,1.5c-.59-.44-1.17-.72-1.74-.72-.63,0-.94.25-.94.67,0,.54.77.74,1.63,1.06,1.05.39,2.22,1,2.22,2.54s-1.18,2.72-3.39,2.72c-1.09,0-2.33-.48-3.17-1.18Z"/>
    <path class="st3" d="M525.4,11.04v-3.41h-1.13v-1.86l1.26-.1.29-2.24h2.02v2.24h1.98v1.96h-1.98v3.38c0,.96.42,1.34,1.07,1.34.27,0,.57-.08.79-.16l.39,1.81c-.44.14-1.03.31-1.84.31-2.04,0-2.85-1.32-2.85-3.27Z"/>
    <path class="st3" d="M530.49,8.92h4.09v1.77h-4.09v-1.77Z"/>
    <path class="st3" d="M.89,23.54c0-.77.6-1.31,1.42-1.31s1.42.54,1.42,1.31-.6,1.31-1.42,1.31-1.42-.55-1.42-1.31ZM1.08,26.08h2.45v8.43H1.08v-8.43Z"/>
    <path class="st3" d="M5.67,26.08h2l.18,1.07h.06c.7-.68,1.53-1.27,2.65-1.27,1.8,0,2.56,1.29,2.56,3.4v5.24h-2.45v-4.92c0-1.21-.32-1.59-1.03-1.59-.61,0-.99.29-1.53.82v5.69h-2.45v-8.43Z"/>
    <path class="st3" d="M14.71,30.3c0-2.8,2.02-4.42,4.3-4.42,1.02,0,1.8.37,2.41.91l-1.16,1.61c-.4-.34-.73-.5-1.12-.5-1.18,0-1.93.95-1.93,2.41s.79,2.4,1.85,2.4c.54,0,1.06-.27,1.49-.62l.96,1.63c-.8.72-1.83,1-2.72,1-2.31,0-4.08-1.62-4.08-4.42Z"/>
    <path class="st3" d="M22.01,30.3c0-2.8,1.93-4.42,4.02-4.42s4.02,1.62,4.02,4.42-1.93,4.42-4.02,4.42-4.02-1.62-4.02-4.42ZM27.55,30.3c0-1.46-.5-2.41-1.52-2.41s-1.52.95-1.52,2.41.5,2.4,1.52,2.4,1.52-.94,1.52-2.4Z"/>
    <path class="st3" d="M31.73,26.08h2l.18,1.08h.06c.68-.7,1.42-1.29,2.5-1.29,1.16,0,1.86.51,2.28,1.42.73-.77,1.5-1.42,2.59-1.42,1.78,0,2.58,1.29,2.58,3.4v5.24h-2.45v-4.92c0-1.21-.32-1.59-1.02-1.59-.42,0-.88.26-1.41.82v5.69h-2.45v-4.92c0-1.21-.33-1.59-1.02-1.59-.41,0-.88.26-1.41.82v5.69h-2.45v-8.43Z"/>
    <path class="st3" d="M45.51,30.3c0-2.74,1.91-4.42,3.9-4.42,2.35,0,3.52,1.75,3.52,4.05,0,.45-.06.9-.1,1.1h-4.94c.22,1.22,1.04,1.79,2.14,1.79.62,0,1.19-.19,1.79-.55l.81,1.51c-.85.6-1.95.95-2.93.95-2.35,0-4.18-1.63-4.18-4.42ZM50.83,29.37c0-.93-.4-1.59-1.37-1.59-.77,0-1.44.53-1.61,1.59h2.98Z"/>
    <path class="st3" d="M57.45,33l4.8-7.47h-4.34v-2.1h7.37v1.51l-4.8,7.47h4.84v2.1h-7.86v-1.51Z"/>
    <path class="st3" d="M67.01,23.43h2.45v11.08h-2.45v-11.08Z"/>
    <path class="st3" d="M72.02,23.43h3.73c2.39,0,4.31.87,4.31,3.56s-1.95,3.76-4.25,3.76h-1.34v3.76h-2.45v-11.08ZM75.67,28.76c1.35,0,1.99-.61,1.99-1.77s-.73-1.58-2.05-1.58h-1.13v3.34h1.2Z"/>
    <path class="st3" d="M84.58,30.3c0-2.8,2.02-4.42,4.3-4.42,1.02,0,1.8.37,2.41.91l-1.16,1.61c-.4-.34-.73-.5-1.12-.5-1.18,0-1.93.95-1.93,2.41s.79,2.4,1.85,2.4c.54,0,1.06-.27,1.49-.62l.96,1.63c-.8.72-1.83,1-2.72,1-2.31,0-4.08-1.62-4.08-4.42Z"/>
    <path class="st3" d="M91.89,30.3c0-2.8,1.93-4.42,4.02-4.42s4.02,1.62,4.02,4.42-1.93,4.42-4.02,4.42-4.02-1.62-4.02-4.42ZM97.42,30.3c0-1.46-.5-2.41-1.52-2.41s-1.52.95-1.52,2.41.5,2.4,1.52,2.4,1.52-.94,1.52-2.4Z"/>
    <path class="st3" d="M101.18,30.3c0-2.76,1.69-4.42,3.43-4.42.91,0,1.47.35,2.02.88l-.09-1.28v-2.87h2.45v11.91h-2l-.18-.84h-.06c-.58.6-1.4,1.04-2.2,1.04-2.05,0-3.38-1.66-3.38-4.42ZM106.54,31.92v-3.46c-.43-.4-.92-.53-1.37-.53-.79,0-1.49.75-1.49,2.35s.56,2.4,1.51,2.4c.52,0,.94-.2,1.35-.75Z"/>
    <path class="st3" d="M110.66,30.3c0-2.74,1.91-4.42,3.9-4.42,2.35,0,3.52,1.75,3.52,4.05,0,.45-.06.9-.1,1.1h-4.94c.22,1.22,1.04,1.79,2.14,1.79.62,0,1.19-.19,1.79-.55l.81,1.51c-.85.6-1.95.95-2.93.95-2.35,0-4.18-1.63-4.18-4.42ZM115.98,29.37c0-.93-.4-1.59-1.37-1.59-.77,0-1.44.53-1.61,1.59h2.98Z"/>
    <path class="st3" d="M119.03,33.54l1.1-1.56c.75.58,1.44.89,2.13.89.73,0,1.04-.28,1.04-.73,0-.56-.82-.81-1.67-1.15-1.01-.4-2.19-1.09-2.19-2.48,0-1.57,1.25-2.64,3.16-2.64,1.27,0,2.21.52,2.91,1.07l-1.1,1.5c-.59-.44-1.17-.72-1.74-.72-.63,0-.94.25-.94.67,0,.54.77.74,1.63,1.06,1.05.39,2.22,1,2.22,2.54s-1.18,2.72-3.39,2.72c-1.09,0-2.33-.48-3.17-1.18Z"/>
  </g>
  <g>
    <path class="st9" d="M2.31,50.52l.33-.35c.53.59,1.28.98,2.13.98,1.11,0,1.8-.59,1.8-1.46s-.59-1.19-1.3-1.52l-1.1-.49c-.63-.28-1.47-.73-1.47-1.8s.9-1.79,2.11-1.79c.87,0,1.58.4,2.02.87l-.29.34c-.42-.45-1-.74-1.73-.74-.96,0-1.6.51-1.6,1.3,0,.85.72,1.17,1.25,1.4l1.1.49c.81.36,1.53.81,1.53,1.92s-.91,1.95-2.32,1.95c-1.06,0-1.88-.45-2.45-1.09Z"/>
    <path class="st9" d="M8.55,43.57h.49v3.46c.54-.55,1.09-.96,1.82-.96,1.09,0,1.6.66,1.6,2.03v3.39h-.49v-3.32c0-1.12-.35-1.65-1.2-1.65-.63,0-1.08.33-1.73.99v3.98h-.49v-7.91Z"/>
    <path class="st9" d="M13.98,50.17c0-1.17,1.06-1.73,3.41-1.99.02-.81-.21-1.68-1.25-1.68-.71,0-1.33.35-1.68.62l-.22-.36c.37-.26,1.11-.69,1.96-.69,1.25,0,1.67.91,1.67,2.04v3.38h-.41l-.05-.69h-.02c-.54.44-1.18.82-1.87.82-.84,0-1.53-.46-1.53-1.45ZM17.39,50.35v-1.8c-2.17.25-2.91.75-2.91,1.6,0,.76.51,1.05,1.12,1.05s1.14-.29,1.79-.85Z"/>
    <path class="st9" d="M19.76,46.2h.41l.05.99h.02c.36-.65.87-1.12,1.5-1.12.19,0,.35.02.52.11l-.11.44c-.18-.06-.28-.09-.48-.09-.48,0-1.04.36-1.44,1.36v3.59h-.49v-5.28Z"/>
    <path class="st9" d="M22.69,48.85c0-1.72,1.12-2.78,2.3-2.78,1.25,0,2.02.89,2.02,2.44,0,.13,0,.26-.03.4h-3.8c.02,1.33.8,2.29,1.99,2.29.57,0,1.02-.19,1.42-.47l.2.37c-.42.26-.89.52-1.67.52-1.35,0-2.44-1.04-2.44-2.76ZM26.56,48.51c0-1.35-.61-2.02-1.56-2.02-.89,0-1.7.76-1.81,2.02h3.37Z"/>
    <path class="st9" d="M30.2,48.85c0-1.77,1.1-2.78,2.37-2.78s2.37,1.02,2.37,2.78-1.1,2.76-2.37,2.76-2.37-1.02-2.37-2.76ZM34.44,48.85c0-1.39-.79-2.35-1.86-2.35s-1.86.96-1.86,2.35.79,2.33,1.86,2.33,1.86-.94,1.86-2.33Z"/>
    <path class="st9" d="M35.87,46.25l.74-.05h1.7v.42h-2.43v-.38ZM36.6,45.03c0-1.05.47-1.59,1.31-1.59.25,0,.53.07.77.18l-.13.4c-.22-.11-.43-.15-.63-.15-.57,0-.83.43-.83,1.2v6.42h-.49v-6.46Z"/>
    <path class="st9" d="M40.92,50.63l.28-.34c.42.46.98.9,1.94.9s1.65-.62,1.65-1.55-.7-1.63-2.45-1.63v-.43c1.62,0,2.19-.68,2.19-1.53,0-.79-.56-1.31-1.42-1.31-.64,0-1.21.34-1.61.77l-.29-.33c.48-.47,1.09-.86,1.91-.86,1.08,0,1.92.62,1.92,1.7,0,.92-.57,1.47-1.34,1.74v.04c.87.18,1.6.83,1.6,1.83,0,1.22-.94,1.99-2.15,1.99-1.12,0-1.78-.51-2.23-.99Z"/>
    <path class="st9" d="M46.79,51.06h1.65v-5.83h-1.26v-.33c.57-.09,1.02-.25,1.35-.44h.4v6.61h1.53v.43h-3.67v-.43Z"/>
    <path class="st9" d="M52.06,51.06h1.65v-5.83h-1.26v-.33c.57-.09,1.02-.25,1.35-.44h.4v6.61h1.53v.43h-3.67v-.43Z"/>
    <path class="st9" d="M59.18,48.85c0-1.77,1.13-2.78,2.41-2.78.72,0,1.19.32,1.55.65l-.29.34c-.34-.32-.74-.56-1.25-.56-1.08,0-1.91.96-1.91,2.35s.76,2.33,1.91,2.33c.57,0,1.05-.27,1.42-.61l.25.34c-.45.41-1.02.7-1.69.7-1.36,0-2.4-1.02-2.4-2.76Z"/>
    <path class="st9" d="M63.93,48.85c0-1.77,1.1-2.78,2.37-2.78s2.37,1.02,2.37,2.78-1.1,2.76-2.37,2.76-2.37-1.02-2.37-2.76ZM68.16,48.85c0-1.39-.79-2.35-1.86-2.35s-1.86.96-1.86,2.35.79,2.33,1.86,2.33,1.86-.94,1.86-2.33Z"/>
    <path class="st9" d="M70.26,46.2h.41l.05.82h.02c.48-.54,1.08-.95,1.67-.95.85,0,1.27.43,1.46,1.08.6-.66,1.18-1.08,1.79-1.08,1.05,0,1.58.66,1.58,2.03v3.39h-.49v-3.32c0-1.12-.37-1.65-1.18-1.65-.5,0-1,.33-1.58.99v3.98h-.49v-3.32c0-1.12-.37-1.65-1.18-1.65-.48,0-1,.33-1.58.99v3.98h-.49v-5.28Z"/>
    <path class="st9" d="M79.19,46.2h.41l.05.67h.02c.52-.41,1.14-.8,1.79-.8,1.42,0,2.11,1.06,2.11,2.7,0,1.79-1.08,2.85-2.33,2.85-.5,0-1.04-.24-1.59-.65v.97s0,1.93,0,1.93h-.49v-7.67ZM83.08,48.77c0-1.3-.46-2.27-1.68-2.27-.52,0-1.08.31-1.72.87v3.13c.6.5,1.16.68,1.56.68,1.07,0,1.84-.99,1.84-2.42Z"/>
    <path class="st9" d="M85.16,50.78v-7.21h.49v7.27c0,.24.1.35.23.35.05,0,.09,0,.2-.02l.08.4c-.1.03-.19.05-.35.05-.42,0-.64-.26-.64-.84Z"/>
    <path class="st9" d="M87.39,50.17c0-1.17,1.06-1.73,3.41-1.99.02-.81-.21-1.68-1.25-1.68-.71,0-1.33.35-1.68.62l-.22-.36c.37-.26,1.11-.69,1.96-.69,1.25,0,1.67.91,1.67,2.04v3.38h-.41l-.05-.69h-.02c-.54.44-1.18.82-1.88.82-.84,0-1.53-.46-1.53-1.45ZM90.8,50.35v-1.8c-2.17.25-2.91.75-2.91,1.6,0,.76.51,1.05,1.12,1.05s1.14-.29,1.79-.85Z"/>
    <path class="st9" d="M92.98,44.5c0-.27.2-.43.44-.43s.44.16.44.43c0,.25-.2.43-.44.43s-.44-.18-.44-.43ZM93.17,46.2h.49v5.28h-.49v-5.28Z"/>
    <path class="st9" d="M95.69,46.2h.41l.05.82h.02c.54-.54,1.09-.95,1.82-.95,1.09,0,1.6.66,1.6,2.03v3.39h-.49v-3.32c0-1.12-.35-1.65-1.2-1.65-.63,0-1.08.33-1.73.99v3.98h-.49v-5.28Z"/>
    <path class="st9" d="M101.67,50.03v-3.4h-.83v-.38l.84-.05.06-1.53h.41v1.53h1.53v.42h-1.53v3.44c0,.67.17,1.13.9,1.13.2,0,.47-.08.66-.17l.13.39c-.31.11-.64.2-.86.2-1.01,0-1.31-.64-1.31-1.59Z"/>
    <path class="st9" d="M104.21,50.89l.28-.35c.45.37.93.67,1.68.67.83,0,1.26-.49,1.26-1.04,0-.66-.68-.95-1.29-1.17-.8-.28-1.68-.61-1.68-1.51,0-.76.6-1.41,1.7-1.41.57,0,1.12.23,1.51.55l-.26.35c-.36-.27-.73-.48-1.26-.48-.82,0-1.2.47-1.2.96,0,.6.62.83,1.25,1.07.82.31,1.72.58,1.72,1.61,0,.8-.64,1.49-1.78,1.49-.78,0-1.46-.33-1.94-.73Z"/>
    <path class="st9" d="M112,50.95h-.02l-.06.54h-.4v-7.91h.49v2.3l-.02,1.03c.53-.45,1.18-.83,1.82-.83,1.42,0,2.12,1.06,2.12,2.69,0,1.79-1.08,2.85-2.33,2.85-.5,0-1.09-.26-1.58-.67ZM115.41,48.77c0-1.3-.46-2.27-1.68-2.27-.52,0-1.1.31-1.72.87v3.13c.58.5,1.16.68,1.56.68,1.07,0,1.84-.99,1.84-2.42Z"/>
    <path class="st9" d="M116.72,53.78l.11-.42c.11.04.28.09.43.09.65,0,1.08-.6,1.35-1.4l.15-.46-2.17-5.38h.53l1.27,3.32c.17.45.38,1.01.57,1.48h.04c.17-.47.34-1.03.49-1.48l1.12-3.32h.5l-2.09,5.95c-.29.88-.83,1.74-1.78,1.74-.2,0-.4-.04-.54-.11Z"/>
    <path class="st9" d="M124.59,50.03v-3.4h-.83v-.38l.84-.05.06-1.53h.41v1.53h1.53v.42h-1.53v3.44c0,.67.17,1.13.9,1.13.2,0,.47-.08.66-.17l.13.39c-.31.11-.64.2-.86.2-1.01,0-1.31-.64-1.31-1.59Z"/>
    <path class="st9" d="M127.14,53.78l.11-.42c.11.04.28.09.43.09.65,0,1.08-.6,1.35-1.4l.15-.46-2.17-5.38h.53l1.27,3.32c.17.45.38,1.01.57,1.48h.04c.17-.47.34-1.03.49-1.48l1.12-3.32h.5l-2.09,5.95c-.29.88-.83,1.74-1.78,1.74-.2,0-.4-.04-.54-.11Z"/>
    <path class="st9" d="M132.69,46.2h.41l.05.67h.02c.52-.41,1.14-.8,1.79-.8,1.42,0,2.11,1.06,2.11,2.7,0,1.79-1.08,2.85-2.33,2.85-.5,0-1.04-.24-1.59-.65v.97s0,1.93,0,1.93h-.49v-7.67ZM136.58,48.77c0-1.3-.46-2.27-1.68-2.27-.52,0-1.08.31-1.72.87v3.13c.6.5,1.15.68,1.56.68,1.07,0,1.84-.99,1.84-2.42Z"/>
    <path class="st9" d="M138.23,48.85c0-1.72,1.12-2.78,2.3-2.78,1.25,0,2.02.89,2.02,2.44,0,.13,0,.26-.03.4h-3.8c.02,1.33.8,2.29,1.99,2.29.57,0,1.02-.19,1.42-.47l.2.37c-.42.26-.89.52-1.67.52-1.35,0-2.44-1.04-2.44-2.76ZM142.1,48.51c0-1.35-.61-2.02-1.56-2.02-.89,0-1.7.76-1.81,2.02h3.37Z"/>
    <path class="st9" d="M146,44.5c0-.27.2-.43.44-.43s.44.16.44.43c0,.25-.2.43-.44.43s-.44-.18-.44-.43ZM146.19,46.2h.49v5.28h-.49v-5.28Z"/>
    <path class="st9" d="M148.71,46.2h.41l.05.82h.02c.54-.54,1.09-.95,1.82-.95,1.09,0,1.6.66,1.6,2.03v3.39h-.49v-3.32c0-1.12-.35-1.65-1.2-1.65-.63,0-1.08.33-1.73.99v3.98h-.49v-5.28Z"/>
    <path class="st9" d="M156.88,50.03v-3.4h-.83v-.38l.84-.05.06-1.53h.41v1.53h1.53v.42h-1.53v3.44c0,.67.17,1.13.9,1.13.2,0,.47-.08.66-.17l.13.39c-.31.11-.64.2-.86.2-1.01,0-1.31-.64-1.31-1.59Z"/>
    <path class="st9" d="M160.19,43.57h.49v3.46c.54-.55,1.09-.96,1.82-.96,1.09,0,1.6.66,1.6,2.03v3.39h-.49v-3.32c0-1.12-.35-1.65-1.2-1.65-.63,0-1.08.33-1.73.99v3.98h-.49v-7.91Z"/>
    <path class="st9" d="M165.56,48.85c0-1.72,1.12-2.78,2.3-2.78,1.25,0,2.02.89,2.02,2.44,0,.13,0,.26-.03.4h-3.8c.02,1.33.8,2.29,1.99,2.29.57,0,1.02-.19,1.42-.47l.2.37c-.42.26-.89.52-1.67.52-1.35,0-2.44-1.04-2.44-2.76ZM169.43,48.51c0-1.35-.61-2.02-1.56-2.02-.89,0-1.7.76-1.81,2.02h3.37Z"/>
    <path class="st9" d="M173.51,43.57h.49v3.46c.54-.55,1.09-.96,1.82-.96,1.09,0,1.6.66,1.6,2.03v3.39h-.49v-3.32c0-1.12-.35-1.65-1.2-1.65-.63,0-1.08.33-1.73.99v3.98h-.49v-7.91Z"/>
    <path class="st9" d="M179.13,44.5c0-.27.2-.43.44-.43s.44.16.44.43c0,.25-.2.43-.44.43s-.44-.18-.44-.43ZM179.32,46.2h.49v5.28h-.49v-5.28Z"/>
    <path class="st9" d="M181.39,52.57c0-.46.3-.93.79-1.27v-.04c-.27-.16-.47-.44-.47-.85,0-.47.34-.81.58-.97v-.04c-.34-.28-.67-.81-.67-1.45,0-1.09.83-1.86,1.86-1.86.29,0,.54.06.7.13h1.79v.41h-1.23c.34.29.58.77.58,1.32,0,1.08-.81,1.87-1.85,1.87-.29,0-.63-.08-.87-.23-.23.19-.43.41-.43.76,0,.38.22.69,1.01.69h1.13c1.19,0,1.74.38,1.74,1.21,0,.91-.97,1.79-2.5,1.79-1.33,0-2.17-.57-2.17-1.46ZM185.57,52.3c0-.58-.42-.8-1.22-.8h-1.13c-.1,0-.38-.02-.65-.09-.49.33-.69.74-.69,1.11,0,.67.64,1.12,1.75,1.12,1.19,0,1.95-.67,1.95-1.34ZM184.85,47.93c0-.89-.62-1.46-1.37-1.46s-1.37.56-1.37,1.46.64,1.48,1.37,1.48,1.37-.6,1.37-1.48Z"/>
    <path class="st9" d="M187.2,43.57h.49v3.46c.54-.55,1.09-.96,1.82-.96,1.09,0,1.6.66,1.6,2.03v3.39h-.49v-3.32c0-1.12-.35-1.65-1.2-1.65-.63,0-1.08.33-1.73.99v3.98h-.49v-7.91Z"/>
    <path class="st9" d="M192.56,48.85c0-1.72,1.12-2.78,2.3-2.78,1.25,0,2.02.89,2.02,2.44,0,.13,0,.26-.03.4h-3.8c.02,1.33.8,2.29,1.99,2.29.57,0,1.02-.19,1.42-.47l.2.37c-.42.26-.89.52-1.67.52-1.35,0-2.44-1.04-2.44-2.76ZM196.43,48.51c0-1.35-.61-2.02-1.56-2.02-.89,0-1.7.76-1.81,2.02h3.37Z"/>
    <path class="st9" d="M197.66,50.89l.28-.35c.45.37.93.67,1.68.67.83,0,1.26-.49,1.26-1.04,0-.66-.68-.95-1.29-1.17-.8-.28-1.68-.61-1.68-1.51,0-.76.6-1.41,1.7-1.41.57,0,1.12.23,1.51.55l-.26.35c-.36-.27-.73-.48-1.26-.48-.82,0-1.2.47-1.2.96,0,.6.62.83,1.25,1.07.82.31,1.73.58,1.73,1.61,0,.8-.64,1.49-1.78,1.49-.78,0-1.46-.33-1.94-.73Z"/>
    <path class="st9" d="M202.68,50.03v-3.4h-.83v-.38l.84-.05.06-1.53h.41v1.53h1.53v.42h-1.53v3.44c0,.67.17,1.13.9,1.13.2,0,.47-.08.66-.17l.13.39c-.31.11-.64.2-.86.2-1.01,0-1.31-.64-1.31-1.59Z"/>
    <path class="st9" d="M205.2,48.53h2.42v.43h-2.42v-.43Z"/>
    <path class="st9" d="M208.87,44.5c0-.27.2-.43.44-.43s.44.16.44.43c0,.25-.2.43-.44.43s-.44-.18-.44-.43ZM209.06,46.2h.49v5.28h-.49v-5.28Z"/>
    <path class="st9" d="M211.57,46.2h.41l.05.82h.02c.54-.54,1.09-.95,1.82-.95,1.09,0,1.6.66,1.6,2.03v3.39h-.49v-3.32c0-1.12-.35-1.65-1.2-1.65-.63,0-1.08.33-1.73.99v3.98h-.49v-5.28Z"/>
    <path class="st9" d="M216.98,48.85c0-1.77,1.13-2.78,2.41-2.78.72,0,1.19.32,1.55.65l-.29.34c-.34-.32-.73-.56-1.25-.56-1.08,0-1.91.96-1.91,2.35s.76,2.33,1.91,2.33c.57,0,1.05-.27,1.42-.61l.25.34c-.45.41-1.02.7-1.69.7-1.36,0-2.4-1.02-2.4-2.76Z"/>
    <path class="st9" d="M221.73,48.85c0-1.77,1.1-2.78,2.37-2.78s2.37,1.02,2.37,2.78-1.1,2.76-2.37,2.76-2.37-1.02-2.37-2.76ZM225.97,48.85c0-1.39-.79-2.35-1.86-2.35s-1.86.96-1.86,2.35.79,2.33,1.86,2.33,1.86-.94,1.86-2.33Z"/>
    <path class="st9" d="M228.06,46.2h.41l.05.82h.02c.48-.54,1.08-.95,1.67-.95.85,0,1.27.43,1.46,1.08.6-.66,1.18-1.08,1.79-1.08,1.05,0,1.58.66,1.58,2.03v3.39h-.49v-3.32c0-1.12-.37-1.65-1.18-1.65-.5,0-1,.33-1.58.99v3.98h-.49v-3.32c0-1.12-.37-1.65-1.18-1.65-.48,0-1,.33-1.58.99v3.98h-.49v-5.28Z"/>
    <path class="st9" d="M236.55,48.85c0-1.72,1.12-2.78,2.3-2.78,1.25,0,2.02.89,2.02,2.44,0,.13,0,.26-.03.4h-3.8c.02,1.33.8,2.29,1.99,2.29.57,0,1.02-.19,1.42-.47l.2.37c-.42.26-.89.52-1.67.52-1.35,0-2.44-1.04-2.44-2.76ZM240.42,48.51c0-1.35-.61-2.02-1.56-2.02-.89,0-1.7.76-1.81,2.02h3.37Z"/>
    <path class="st9" d="M244.56,44.24h.53l3.05,5.11.82,1.45h.04c-.03-.71-.06-1.41-.06-2.12v-4.44h.48v7.25h-.53l-3.05-5.11-.82-1.45h-.04c.03.7.06,1.35.06,2.06v4.5h-.48v-7.25Z"/>
    <path class="st9" d="M251.06,48.85c0-1.72,1.12-2.78,2.3-2.78,1.25,0,2.02.89,2.02,2.44,0,.13,0,.26-.03.4h-3.8c.02,1.33.8,2.29,1.99,2.29.57,0,1.02-.19,1.42-.47l.2.37c-.42.26-.89.52-1.67.52-1.35,0-2.44-1.04-2.44-2.76ZM254.93,48.51c0-1.35-.61-2.02-1.56-2.02-.89,0-1.7.76-1.81,2.02h3.37Z"/>
    <path class="st9" d="M256.2,46.2h.52l.95,3.42c.13.49.25.94.36,1.41h.04c.13-.47.25-.93.39-1.41l.96-3.42h.58l.96,3.42c.13.49.26.94.39,1.41h.04c.13-.47.25-.92.38-1.41l.93-3.42h.49l-1.51,5.28h-.64l-.93-3.28c-.15-.51-.25-.99-.4-1.51h-.04c-.13.52-.25,1.02-.42,1.53l-.91,3.26h-.59l-1.56-5.28Z"/>
    <path class="st9" d="M267.87,48.55l-2.18-4.31h.54l1.1,2.27c.25.53.49,1.03.77,1.57h.04c.28-.53.55-1.04.79-1.57l1.1-2.27h.51l-2.18,4.31v2.94h-.51v-2.94Z"/>
    <path class="st9" d="M270.79,48.85c0-1.77,1.1-2.78,2.37-2.78s2.37,1.02,2.37,2.78-1.1,2.76-2.37,2.76-2.37-1.02-2.37-2.76ZM275.03,48.85c0-1.39-.79-2.35-1.86-2.35s-1.86.96-1.86,2.35.79,2.33,1.86,2.33,1.86-.94,1.86-2.33Z"/>
    <path class="st9" d="M277.12,46.2h.41l.05.99h.02c.36-.65.87-1.12,1.5-1.12.19,0,.35.02.52.11l-.11.44c-.18-.06-.27-.09-.48-.09-.47,0-1.04.36-1.44,1.36v3.59h-.49v-5.28Z"/>
    <path class="st9" d="M280.61,43.57h.48v5.83h.02l2.61-3.2h.56l-1.72,2.09,2.01,3.19h-.54l-1.75-2.83-1.19,1.39v1.44h-.48v-7.91Z"/>
    <path class="st9" d="M287.5,47.85c0-2.3,1.25-3.74,3.1-3.74.85,0,1.5.42,1.89.87l-.3.34c-.39-.45-.92-.75-1.58-.75-1.59,0-2.57,1.26-2.57,3.28s.97,3.32,2.53,3.32c.75,0,1.31-.31,1.83-.89l.3.32c-.55.64-1.21,1.04-2.16,1.04-1.79,0-3.03-1.47-3.03-3.77Z"/>
    <path class="st9" d="M293.93,44.5c0-.27.2-.43.44-.43s.44.16.44.43c0,.25-.2.43-.44.43s-.44-.18-.44-.43ZM294.12,46.2h.49v5.28h-.49v-5.28Z"/>
    <path class="st9" d="M296.76,50.03v-3.4h-.83v-.38l.84-.05.06-1.53h.41v1.53h1.53v.42h-1.53v3.44c0,.67.17,1.13.9,1.13.2,0,.47-.08.66-.17l.13.39c-.31.11-.64.2-.86.2-1.01,0-1.31-.64-1.31-1.59Z"/>
    <path class="st9" d="M299.31,53.78l.11-.42c.11.04.28.09.43.09.65,0,1.08-.6,1.35-1.4l.15-.46-2.17-5.38h.53l1.27,3.32c.17.45.38,1.01.57,1.48h.04c.17-.47.34-1.03.49-1.48l1.12-3.32h.5l-2.09,5.95c-.29.88-.83,1.74-1.78,1.74-.2,0-.4-.04-.54-.11Z"/>
    <path class="st9" d="M306.6,51.19l4.17-6.52h-3.81v-.44h4.44v.29l-4.17,6.52h4.22v.44h-4.85v-.29Z"/>
    <path class="st9" d="M313.03,44.24h.51v7.25h-.51v-7.25Z"/>
    <path class="st9" d="M315.67,44.24h1.83c1.64,0,2.63.53,2.63,2.02s-.97,2.11-2.58,2.11h-1.36v3.12h-.51v-7.25ZM317.41,47.94c1.48,0,2.19-.49,2.19-1.69s-.73-1.59-2.23-1.59h-1.19v3.28h1.24Z"/>
    <path class="st9" d="M323.41,48.85c0-1.77,1.13-2.78,2.41-2.78.72,0,1.19.32,1.55.65l-.29.34c-.34-.32-.73-.56-1.25-.56-1.08,0-1.91.96-1.91,2.35s.76,2.33,1.91,2.33c.57,0,1.05-.27,1.42-.61l.25.34c-.45.41-1.02.7-1.69.7-1.36,0-2.4-1.02-2.4-2.76Z"/>
    <path class="st9" d="M328.16,48.85c0-1.77,1.1-2.78,2.37-2.78s2.37,1.02,2.37,2.78-1.1,2.76-2.37,2.76-2.37-1.02-2.37-2.76ZM332.39,48.85c0-1.39-.79-2.35-1.86-2.35s-1.86.96-1.86,2.35.79,2.33,1.86,2.33,1.86-.94,1.86-2.33Z"/>
    <path class="st9" d="M334.05,48.85c0-1.71,1.08-2.78,2.34-2.78.63,0,1.06.24,1.59.65l-.03-.97v-2.18h.49v7.91h-.41l-.05-.68h-.02c-.43.43-1.02.82-1.72.82-1.32,0-2.18-.98-2.18-2.76ZM337.96,50.31v-3.13c-.56-.5-1.02-.68-1.54-.68-1.05,0-1.86,1.03-1.86,2.35,0,1.41.62,2.33,1.75,2.33.58,0,1.1-.31,1.65-.87Z"/>
    <path class="st9" d="M340.03,48.85c0-1.72,1.12-2.78,2.3-2.78,1.25,0,2.02.89,2.02,2.44,0,.13,0,.26-.03.4h-3.8c.02,1.33.8,2.29,1.99,2.29.57,0,1.02-.19,1.42-.47l.2.37c-.42.26-.89.52-1.67.52-1.35,0-2.44-1.04-2.44-2.76ZM343.89,48.51c0-1.35-.61-2.02-1.56-2.02-.89,0-1.7.76-1.81,2.02h3.37Z"/>
    <path class="st9" d="M345.12,50.89l.28-.35c.45.37.93.67,1.68.67.83,0,1.26-.49,1.26-1.04,0-.66-.68-.95-1.29-1.17-.8-.28-1.68-.61-1.68-1.51,0-.76.6-1.41,1.7-1.41.57,0,1.12.23,1.51.55l-.26.35c-.36-.27-.73-.48-1.26-.48-.82,0-1.2.47-1.2.96,0,.6.62.83,1.25,1.07.82.31,1.72.58,1.72,1.61,0,.8-.64,1.49-1.78,1.49-.78,0-1.46-.33-1.94-.73Z"/>
    <path class="st9" d="M349.96,51.13c0-.32.22-.51.47-.51s.47.19.47.51c0,.3-.22.49-.47.49s-.47-.19-.47-.49Z"/>
  </g>
  <text class="st8" transform="translate(545.06 107.49) scale(.97 1)"><tspan x="0" y="0">17%</tspan></text>
  <text class="st8" transform="translate(342.33 130.91) scale(.97 1)"><tspan x="0" y="0">9%</tspan></text>
  <text class="st8" transform="translate(270.69 154.8) scale(.97 1)"><tspan x="0" y="0">5%</tspan></text>
  <text class="st8" transform="translate(270.2 178.91) scale(.97 1)"><tspan x="0" y="0">5%</tspan></text>
  <text class="st8" transform="translate(219.24 202.91) scale(.97 1)"><tspan x="0" y="0">3%</tspan></text>
  <text class="st8" transform="translate(219.73 226.92) scale(.97 1)"><tspan x="0" y="0">3%</tspan></text>
  <text class="st8" transform="translate(216.52 250.91) scale(.97 1)"><tspan x="0" y="0">3%</tspan></text>
  <text class="st8" transform="translate(204.46 274.91) scale(.97 1)"><tspan x="0" y="0">2%</tspan></text>
  <text class="st8" transform="translate(189.36 298.27) scale(.97 1)"><tspan x="0" y="0">2%</tspan></text>
  <g class="st7">
    <path class="st0" d="M.89,324.79l.6-.69c.57.59,1.35.98,2.17.98,1.03,0,1.65-.51,1.65-1.28s-.57-1.06-1.31-1.38l-1.13-.5c-.73-.31-1.59-.87-1.59-2.03s1.05-2.09,2.48-2.09c.93,0,1.76.4,2.32.98l-.53.64c-.48-.46-1.06-.74-1.79-.74-.88,0-1.47.45-1.47,1.15,0,.76.69,1.04,1.3,1.3l1.12.49c.91.39,1.62.93,1.62,2.1,0,1.24-1.03,2.24-2.68,2.24-1.1,0-2.07-.45-2.75-1.17h0Z"/>
    <path class="st0" d="M7.35,322.91c0-1.95,1.27-3.07,2.7-3.07s2.7,1.12,2.7,3.07-1.27,3.05-2.7,3.05-2.7-1.12-2.7-3.05ZM11.73,322.91c0-1.34-.68-2.25-1.68-2.25s-1.68.91-1.68,2.25.68,2.23,1.68,2.23,1.68-.89,1.68-2.23Z"/>
    <path class="st0" d="M14.21,323.68v-3.69h.99v3.57c0,1.09.33,1.55,1.1,1.55.6,0,1.01-.29,1.56-.98v-4.13h.99v5.83h-.81l-.08-.91h-.03c-.54.64-1.12,1.06-1.92,1.06-1.23,0-1.78-.79-1.78-2.28l-.02-.02Z"/>
    <path class="st0" d="M20.81,319.98h.81l.08,1.06h.03c.41-.74,1-1.21,1.66-1.21.26,0,.44.03.62.12l-.18.87c-.2-.06-.33-.1-.57-.1-.49,0-1.08.35-1.47,1.34v3.74h-.99v-5.83h0Z"/>
    <path class="st0" d="M24.42,322.91c0-1.95,1.31-3.07,2.8-3.07.77,0,1.3.32,1.71.68l-.5.65c-.34-.31-.7-.51-1.16-.51-1.06,0-1.83.91-1.83,2.25s.73,2.23,1.8,2.23c.53,0,1.01-.26,1.37-.58l.43.66c-.52.47-1.19.74-1.88.74-1.55,0-2.73-1.12-2.73-3.05h-.01Z"/>
    <path class="st0" d="M29.64,322.91c0-1.9,1.28-3.07,2.62-3.07,1.49,0,2.33,1.07,2.33,2.74,0,.21-.02.42-.05.56h-3.93c.07,1.24.83,2.04,1.94,2.04.56,0,1.02-.18,1.45-.47l.35.65c-.51.33-1.13.6-1.92.6-1.55,0-2.79-1.14-2.79-3.05h0ZM33.72,322.43c0-1.17-.53-1.8-1.44-1.8-.82,0-1.55.66-1.67,1.8h3.11Z"/>
    <path class="st0" d="M35.83,320.89c0-.45.32-.76.71-.76s.71.31.71.76-.32.75-.71.75-.71-.31-.71-.75ZM35.83,325.21c0-.45.32-.76.71-.76s.71.31.71.76-.32.75-.71.75-.71-.31-.71-.75Z"/>
    <path class="st0" d="M41.51,317.94h1.03l2.85,4.95.85,1.63h.05c-.05-.79-.13-1.68-.13-2.5v-4.07h.95v7.87h-1.03l-2.85-4.95-.85-1.62h-.05c.05.8.13,1.64.13,2.46v4.12h-.95v-7.89Z"/>
    <path class="st0" d="M50.55,322.76l-2.37-4.82h1.07l1.02,2.22c.25.58.49,1.13.76,1.72h.05c.27-.59.54-1.14.79-1.72l1.02-2.22h1.04l-2.37,4.82v3.05h-1v-3.05h-.01Z"/>
    <path class="st0" d="M54.36,321.88c0-2.54,1.5-4.09,3.49-4.09.96,0,1.7.46,2.17.97l-.55.65c-.41-.44-.93-.74-1.6-.74-1.49,0-2.48,1.22-2.48,3.18s.94,3.22,2.44,3.22c.75,0,1.32-.33,1.82-.88l.55.63c-.62.72-1.39,1.14-2.42,1.14-1.96,0-3.43-1.52-3.43-4.07h0Z"/>
    <path class="st0" d="M63.61,321.85c0-2.52,1.39-4.05,3.36-4.05s3.36,1.54,3.36,4.05-1.39,4.11-3.36,4.11-3.36-1.59-3.36-4.11ZM69.31,321.85c0-1.96-.92-3.17-2.33-3.17s-2.33,1.21-2.33,3.17.92,3.23,2.33,3.23,2.33-1.27,2.33-3.23Z"/>
    <path class="st0" d="M71.95,319.98h.81l.08.67h.03c.53-.44,1.18-.82,1.86-.82,1.51,0,2.31,1.17,2.31,2.97,0,1.99-1.19,3.15-2.52,3.15-.53,0-1.08-.25-1.62-.67l.03,1.02v1.97h-.99v-8.29h.01ZM76.03,322.82c0-1.29-.44-2.15-1.54-2.15-.49,0-.99.27-1.56.8v3.06c.53.44,1.03.61,1.42.61.96,0,1.68-.87,1.68-2.31h0Z"/>
    <path class="st0" d="M78.17,322.91c0-1.9,1.28-3.07,2.62-3.07,1.49,0,2.33,1.07,2.33,2.74,0,.21-.02.42-.05.56h-3.93c.07,1.24.83,2.04,1.94,2.04.56,0,1.02-.18,1.45-.47l.35.65c-.51.33-1.13.6-1.92.6-1.55,0-2.79-1.14-2.79-3.05h0ZM82.25,322.43c0-1.17-.53-1.8-1.44-1.8-.82,0-1.55.66-1.67,1.8h3.11Z"/>
    <path class="st0" d="M84.56,319.98h.81l.08.84h.03c.56-.55,1.16-.98,1.96-.98,1.23,0,1.78.79,1.78,2.28v3.69h-.99v-3.57c0-1.09-.33-1.55-1.1-1.55-.6,0-1.01.3-1.59.9v4.22h-.99v-5.83h0Z"/>
    <path class="st0" d="M93.61,317.94h1.97c2.42,0,3.72,1.41,3.72,3.91s-1.3,3.96-3.67,3.96h-2.01v-7.87h-.01ZM95.51,324.99c1.84,0,2.76-1.15,2.76-3.14s-.92-3.09-2.76-3.09h-.89v6.23h.89Z"/>
    <path class="st0" d="M100.54,324.3c0-1.27,1.1-1.91,3.58-2.17,0-.75-.25-1.47-1.2-1.47-.67,0-1.28.32-1.74.62l-.39-.68c.54-.35,1.35-.76,2.29-.76,1.42,0,2.02.95,2.02,2.4v3.58h-.81l-.08-.7h-.03c-.56.46-1.2.84-1.93.84-.98,0-1.71-.61-1.71-1.66ZM104.12,324.39v-1.62c-1.95.24-2.61.71-2.61,1.46,0,.66.45.93,1.02.93s1.03-.27,1.59-.77Z"/>
    <path class="st0" d="M106.95,324.01v-3.22h-.87v-.75l.91-.06.12-1.63h.82v1.63h1.58v.8h-1.58v3.24c0,.71.23,1.12.9,1.12.21,0,.48-.08.66-.16l.19.74c-.33.11-.72.22-1.08.22-1.24,0-1.66-.79-1.66-1.95v.02Z"/>
    <path class="st0" d="M110.22,324.3c0-1.27,1.1-1.91,3.58-2.17,0-.75-.25-1.47-1.2-1.47-.67,0-1.28.32-1.74.62l-.39-.68c.54-.35,1.35-.76,2.29-.76,1.42,0,2.02.95,2.02,2.4v3.58h-.81l-.08-.7h-.03c-.56.46-1.2.84-1.93.84-.98,0-1.71-.61-1.71-1.66ZM113.8,324.39v-1.62c-1.95.24-2.61.71-2.61,1.46,0,.66.45.93,1.02.93s1.03-.27,1.59-.77Z"/>
    <path class="st0" d="M116.22,327.27c.68-.3,1.08-.83,1.08-1.49l-.11-.89.48.72c-.13.16-.31.21-.5.21-.38,0-.71-.24-.71-.69s.34-.69.73-.69c.52,0,.84.44.84,1.16,0,1.04-.6,1.84-1.57,2.24l-.24-.58h0ZM116.43,320.89c0-.45.32-.76.71-.76s.71.31.71.76-.32.75-.71.75-.71-.31-.71-.75Z"/>
    <path class="st0" d="M122.08,322.56v-4.62h1v4.65c0,1.89.8,2.49,1.83,2.49s1.87-.59,1.87-2.49v-4.65h.96v4.62c0,2.53-1.22,3.39-2.83,3.39s-2.83-.87-2.83-3.39Z"/>
    <path class="st0" d="M129.36,325.21c0-.45.32-.76.71-.76s.71.31.71.76-.32.75-.71.75-.71-.31-.71-.75Z"/>
    <path class="st0" d="M132.08,324.79l.6-.69c.57.59,1.35.98,2.17.98,1.03,0,1.65-.51,1.65-1.28s-.57-1.06-1.31-1.38l-1.13-.5c-.73-.31-1.59-.87-1.59-2.03s1.05-2.09,2.48-2.09c.93,0,1.76.4,2.32.98l-.53.64c-.48-.46-1.06-.74-1.79-.74-.88,0-1.47.45-1.47,1.15,0,.76.69,1.04,1.3,1.3l1.12.49c.91.39,1.62.93,1.62,2.1,0,1.24-1.03,2.24-2.68,2.24-1.1,0-2.07-.45-2.75-1.17h-.01Z"/>
    <path class="st0" d="M138.76,325.21c0-.45.32-.76.71-.76s.71.31.71.76-.32.75-.71.75-.71-.31-.71-.75Z"/>
    <path class="st0" d="M143.99,321.88c0-2.54,1.5-4.09,3.49-4.09.96,0,1.7.46,2.17.97l-.55.65c-.41-.44-.93-.74-1.6-.74-1.49,0-2.48,1.22-2.48,3.18s.94,3.22,2.44,3.22c.75,0,1.32-.33,1.82-.88l.55.63c-.62.72-1.39,1.14-2.41,1.14-1.96,0-3.43-1.52-3.43-4.07h0Z"/>
    <path class="st0" d="M150.77,322.91c0-1.9,1.28-3.07,2.62-3.07,1.49,0,2.33,1.07,2.33,2.74,0,.21-.02.42-.05.56h-3.93c.07,1.24.83,2.04,1.94,2.04.56,0,1.02-.18,1.45-.47l.35.65c-.51.33-1.13.6-1.92.6-1.55,0-2.79-1.14-2.79-3.05h0ZM154.85,322.43c0-1.17-.53-1.8-1.44-1.8-.82,0-1.55.66-1.67,1.8h3.11Z"/>
    <path class="st0" d="M157.16,319.98h.81l.08.84h.03c.56-.55,1.16-.98,1.96-.98,1.23,0,1.78.79,1.78,2.28v3.69h-.99v-3.57c0-1.09-.33-1.55-1.1-1.55-.6,0-1.01.3-1.59.9v4.22h-.99v-5.83h.01Z"/>
    <path class="st0" d="M163.07,325.15l.49-.65c.51.41,1.02.69,1.72.69.77,0,1.15-.41,1.15-.91,0-.6-.69-.87-1.33-1.1-.82-.3-1.74-.7-1.74-1.68s.75-1.65,2.01-1.65c.73,0,1.36.3,1.81.66l-.47.63c-.4-.3-.81-.52-1.33-.52-.73,0-1.07.39-1.07.84,0,.55.63.76,1.29,1.01.84.32,1.78.66,1.78,1.77,0,.95-.75,1.73-2.13,1.73-.83,0-1.63-.35-2.17-.81h0Z"/>
    <path class="st0" d="M168.67,323.68v-3.69h.99v3.57c0,1.09.33,1.55,1.1,1.55.6,0,1.01-.29,1.56-.98v-4.13h.99v5.83h-.81l-.08-.91h-.03c-.54.64-1.12,1.06-1.92,1.06-1.23,0-1.78-.79-1.78-2.28l-.02-.02Z"/>
    <path class="st0" d="M174.63,325.15l.49-.65c.51.41,1.02.69,1.72.69.77,0,1.15-.41,1.15-.91,0-.6-.69-.87-1.33-1.1-.82-.3-1.74-.7-1.74-1.68s.75-1.65,2.01-1.65c.73,0,1.36.3,1.81.66l-.47.63c-.4-.3-.81-.52-1.33-.52-.73,0-1.07.39-1.07.84,0,.55.63.76,1.29,1.01.84.32,1.78.66,1.78,1.77,0,.95-.75,1.73-2.13,1.73-.83,0-1.63-.35-2.17-.81h0Z"/>
    <path class="st0" d="M182.8,317.94h2.34c1.6,0,2.71.54,2.71,1.93,0,.78-.41,1.47-1.15,1.71v.05c.94.19,1.6.81,1.6,1.88,0,1.55-1.22,2.3-2.98,2.3h-2.52v-7.87h0ZM184.96,321.29c1.34,0,1.89-.49,1.89-1.29,0-.92-.63-1.26-1.85-1.26h-1.21v2.55h1.17ZM185.17,325.02c1.35,0,2.14-.48,2.14-1.55,0-.97-.76-1.41-2.14-1.41h-1.37v2.96h1.37Z"/>
    <path class="st0" d="M189.68,323.68v-3.69h.99v3.57c0,1.09.33,1.55,1.1,1.55.6,0,1.01-.29,1.56-.98v-4.13h.99v5.83h-.81l-.08-.91h-.03c-.54.64-1.12,1.06-1.92,1.06-1.23,0-1.78-.79-1.78-2.28l-.02-.02Z"/>
    <path class="st0" d="M196.29,319.98h.81l.08,1.06h.03c.41-.74,1-1.21,1.66-1.21.26,0,.44.03.62.12l-.18.87c-.2-.06-.33-.1-.57-.1-.49,0-1.08.35-1.47,1.34v3.74h-.99v-5.83h.01Z"/>
    <path class="st0" d="M199.9,322.91c0-1.9,1.28-3.07,2.62-3.07,1.49,0,2.33,1.07,2.33,2.74,0,.21-.02.42-.05.56h-3.93c.07,1.24.83,2.04,1.94,2.04.56,0,1.02-.18,1.45-.47l.35.65c-.51.33-1.13.6-1.92.6-1.55,0-2.79-1.14-2.79-3.05h0ZM203.97,322.43c0-1.17-.53-1.8-1.44-1.8-.82,0-1.55.66-1.67,1.8h3.11Z"/>
    <path class="st0" d="M205.75,324.3c0-1.27,1.1-1.91,3.58-2.17,0-.75-.25-1.47-1.2-1.47-.67,0-1.28.32-1.74.62l-.39-.68c.54-.35,1.35-.76,2.29-.76,1.42,0,2.02.95,2.02,2.4v3.58h-.81l-.08-.7h-.03c-.56.46-1.2.84-1.93.84-.98,0-1.71-.61-1.71-1.66ZM209.33,324.39v-1.62c-1.95.24-2.61.71-2.61,1.46,0,.66.45.93,1.02.93s1.03-.27,1.59-.77Z"/>
    <path class="st0" d="M212.08,323.68v-3.69h.99v3.57c0,1.09.33,1.55,1.1,1.55.6,0,1.01-.29,1.56-.98v-4.13h.99v5.83h-.81l-.08-.91h-.03c-.54.64-1.12,1.06-1.92,1.06-1.23,0-1.78-.79-1.78-2.28l-.02-.02Z"/>
    <path class="st0" d="M218.27,327.27c.68-.3,1.08-.83,1.08-1.49l-.11-.89.48.72c-.13.16-.31.21-.5.21-.38,0-.71-.24-.71-.69s.34-.69.73-.69c.52,0,.84.44.84,1.16,0,1.04-.6,1.84-1.57,2.24l-.24-.58h0Z"/>
    <path class="st0" d="M225.79,317.94h1.13l2.66,7.87h-1.06l-1.37-4.4c-.28-.88-.54-1.74-.79-2.65h-.05c-.24.91-.5,1.77-.78,2.65l-1.39,4.4h-1.02l2.66-7.87h0ZM224.53,322.62h3.62v.8h-3.62v-.8Z"/>
    <path class="st0" d="M230.61,319.98h.81l.08.85h.03c.51-.55,1.12-.99,1.81-.99.89,0,1.37.43,1.61,1.11.61-.66,1.21-1.11,1.92-1.11,1.2,0,1.77.79,1.77,2.28v3.69h-.99v-3.57c0-1.09-.34-1.55-1.08-1.55-.45,0-.92.3-1.46.9v4.22h-.99v-3.57c0-1.09-.34-1.55-1.08-1.55-.44,0-.92.3-1.46.9v4.22h-.99v-5.83h.02Z"/>
    <path class="st0" d="M240.12,322.91c0-1.9,1.28-3.07,2.62-3.07,1.49,0,2.33,1.07,2.33,2.74,0,.21-.02.42-.05.56h-3.93c.07,1.24.83,2.04,1.94,2.04.56,0,1.02-.18,1.45-.47l.35.65c-.51.33-1.13.6-1.92.6-1.55,0-2.79-1.14-2.79-3.05h0ZM244.2,322.43c0-1.17-.53-1.8-1.44-1.8-.82,0-1.55.66-1.67,1.8h3.11Z"/>
    <path class="st0" d="M246.51,319.98h.81l.08,1.06h.03c.41-.74,1-1.21,1.66-1.21.26,0,.44.03.62.12l-.18.87c-.2-.06-.33-.1-.57-.1-.49,0-1.08.35-1.47,1.34v3.74h-.99v-5.83h.01Z"/>
    <path class="st0" d="M250.49,318.15c0-.39.3-.64.68-.64s.68.25.68.64-.3.64-.68.64-.68-.26-.68-.64ZM250.67,319.98h.99v5.83h-.99v-5.83Z"/>
    <path class="st0" d="M253.19,322.91c0-1.95,1.31-3.07,2.8-3.07.77,0,1.3.32,1.71.68l-.5.65c-.34-.31-.7-.51-1.16-.51-1.06,0-1.83.91-1.83,2.25s.73,2.23,1.8,2.23c.53,0,1.01-.26,1.37-.58l.43.66c-.52.47-1.19.74-1.88.74-1.55,0-2.73-1.12-2.73-3.05h0Z"/>
    <path class="st0" d="M258.61,324.3c0-1.27,1.1-1.91,3.58-2.17,0-.75-.25-1.47-1.2-1.47-.67,0-1.28.32-1.74.62l-.39-.68c.54-.35,1.35-.76,2.29-.76,1.42,0,2.02.95,2.02,2.4v3.58h-.81l-.08-.7h-.03c-.56.46-1.2.84-1.93.84-.98,0-1.71-.61-1.71-1.66ZM262.19,324.39v-1.62c-1.95.24-2.61.71-2.61,1.46,0,.66.45.93,1.02.93s1.03-.27,1.59-.77Z"/>
    <path class="st0" d="M265.02,319.98h.81l.08.84h.03c.56-.55,1.16-.98,1.96-.98,1.23,0,1.78.79,1.78,2.28v3.69h-.99v-3.57c0-1.09-.33-1.55-1.1-1.55-.6,0-1.01.3-1.59.9v4.22h-.99v-5.83h.01Z"/>
    <path class="st0" d="M273.62,321.88c0-2.54,1.5-4.09,3.49-4.09.96,0,1.7.46,2.17.97l-.55.65c-.41-.44-.93-.74-1.6-.74-1.49,0-2.48,1.22-2.48,3.18s.94,3.22,2.44,3.22c.75,0,1.32-.33,1.82-.88l.55.63c-.62.72-1.39,1.14-2.41,1.14-1.96,0-3.43-1.52-3.43-4.07h0Z"/>
    <path class="st0" d="M280.41,322.91c0-1.95,1.27-3.07,2.7-3.07s2.7,1.12,2.7,3.07-1.27,3.05-2.7,3.05-2.7-1.12-2.7-3.05ZM284.79,322.91c0-1.34-.68-2.25-1.68-2.25s-1.68.91-1.68,2.25.68,2.23,1.68,2.23,1.68-.89,1.68-2.23Z"/>
    <path class="st0" d="M287.34,319.98h.81l.08.85h.03c.51-.55,1.12-.99,1.81-.99.89,0,1.37.43,1.61,1.11.61-.66,1.21-1.11,1.92-1.11,1.2,0,1.77.79,1.77,2.28v3.69h-.99v-3.57c0-1.09-.34-1.55-1.08-1.55-.45,0-.92.3-1.46.9v4.22h-.99v-3.57c0-1.09-.34-1.55-1.08-1.55-.44,0-.92.3-1.46.9v4.22h-.99v-5.83h.02Z"/>
    <path class="st0" d="M297.29,319.98h.81l.08.85h.03c.51-.55,1.12-.99,1.81-.99.89,0,1.37.43,1.61,1.11.61-.66,1.21-1.11,1.92-1.11,1.2,0,1.77.79,1.77,2.28v3.69h-.99v-3.57c0-1.09-.34-1.55-1.08-1.55-.45,0-.92.3-1.46.9v4.22h-.99v-3.57c0-1.09-.34-1.55-1.08-1.55-.44,0-.92.3-1.46.9v4.22h-.99v-5.83h.02Z"/>
    <path class="st0" d="M307.16,323.68v-3.69h.99v3.57c0,1.09.33,1.55,1.1,1.55.6,0,1.01-.29,1.56-.98v-4.13h.99v5.83h-.82l-.08-.91h-.03c-.54.64-1.12,1.06-1.92,1.06-1.23,0-1.78-.79-1.78-2.28v-.02Z"/>
    <path class="st0" d="M313.77,319.98h.81l.08.84h.03c.56-.55,1.16-.98,1.96-.98,1.23,0,1.78.79,1.78,2.28v3.69h-.99v-3.57c0-1.09-.33-1.55-1.1-1.55-.6,0-1.01.3-1.59.9v4.22h-.99v-5.83h.01Z"/>
    <path class="st0" d="M320.15,318.15c0-.39.3-.64.68-.64s.68.25.68.64-.3.64-.68.64-.68-.26-.68-.64ZM320.33,319.98h.99v5.83h-.99v-5.83Z"/>
    <path class="st0" d="M323.45,324.01v-3.22h-.87v-.75l.91-.06.12-1.63h.82v1.63h1.58v.8h-1.58v3.24c0,.71.23,1.12.9,1.12.21,0,.47-.08.66-.16l.19.74c-.33.11-.72.22-1.08.22-1.24,0-1.66-.79-1.66-1.95v.02Z"/>
    <path class="st0" d="M326.75,328.21l.19-.79c.12.04.29.09.44.09.66,0,1.07-.53,1.31-1.25l.13-.43-2.34-5.84h1.02l1.19,3.23c.18.51.38,1.1.57,1.64h.05c.17-.53.33-1.13.49-1.64l1.04-3.23h.97l-2.2,6.31c-.41,1.16-1.01,2.03-2.18,2.03-.27,0-.5-.05-.68-.12h0Z"/>
    <path class="st0" d="M334.86,324.79l.6-.69c.57.59,1.35.98,2.17.98,1.03,0,1.65-.51,1.65-1.28s-.57-1.06-1.31-1.38l-1.13-.5c-.73-.31-1.59-.87-1.59-2.03s1.05-2.09,2.48-2.09c.93,0,1.76.4,2.32.98l-.53.64c-.48-.46-1.06-.74-1.79-.74-.88,0-1.47.45-1.47,1.15,0,.76.69,1.04,1.3,1.3l1.12.49c.91.39,1.62.93,1.62,2.1,0,1.24-1.03,2.24-2.68,2.24-1.1,0-2.07-.45-2.75-1.17h-.01Z"/>
    <path class="st0" d="M341.67,323.68v-3.69h.99v3.57c0,1.09.33,1.55,1.1,1.55.6,0,1.01-.29,1.56-.98v-4.13h.99v5.83h-.82l-.08-.91h-.03c-.54.64-1.12,1.06-1.92,1.06-1.23,0-1.78-.79-1.78-2.28v-.02Z"/>
    <path class="st0" d="M348.28,319.98h.82l.08,1.06h.03c.41-.74,1-1.21,1.66-1.21.26,0,.44.03.62.12l-.18.87c-.2-.06-.33-.1-.57-.1-.49,0-1.08.35-1.47,1.34v3.74h-.99v-5.83h0Z"/>
    <path class="st0" d="M351.9,319.98h1.02l1.1,3.31c.17.57.36,1.16.54,1.72h.05c.17-.56.36-1.15.54-1.72l1.1-3.31h.97l-2.06,5.83h-1.15l-2.1-5.83h-.01Z"/>
    <path class="st0" d="M357.86,322.91c0-1.9,1.28-3.07,2.62-3.07,1.49,0,2.33,1.07,2.33,2.74,0,.21-.02.42-.05.56h-3.93c.07,1.24.83,2.04,1.94,2.04.56,0,1.02-.18,1.45-.47l.35.65c-.51.33-1.13.6-1.92.6-1.55,0-2.79-1.14-2.79-3.05h0ZM361.94,322.43c0-1.17-.53-1.8-1.44-1.8-.82,0-1.55.66-1.67,1.8h3.11Z"/>
    <path class="st0" d="M363.72,328.21l.19-.79c.12.04.29.09.44.09.66,0,1.07-.53,1.31-1.25l.13-.43-2.34-5.84h1.02l1.19,3.23c.18.51.38,1.1.57,1.64h.05c.17-.53.33-1.13.49-1.64l1.04-3.23h.97l-2.2,6.31c-.41,1.16-1.01,2.03-2.18,2.03-.27,0-.5-.05-.68-.12h0Z"/>
    <path class="st0" d="M371.81,325.23c2.3-2.29,3.6-3.67,3.6-4.91,0-.87-.47-1.49-1.45-1.49-.64,0-1.19.41-1.63.92l-.57-.56c.64-.7,1.33-1.16,2.32-1.16,1.41,0,2.3.89,2.3,2.25,0,1.44-1.32,2.86-3.12,4.76.41-.03.89-.07,1.29-.07h2.21v.85h-4.94v-.58h0Z"/>
    <path class="st0" d="M377.82,321.96c0-2.56.92-3.94,2.45-3.94s2.45,1.38,2.45,3.94-.92,4-2.45,4-2.45-1.43-2.45-4ZM381.77,321.96c0-2.24-.6-3.14-1.49-3.14s-1.49.9-1.49,3.14.6,3.2,1.49,3.2,1.49-.96,1.49-3.2Z"/>
    <path class="st0" d="M383.73,325.23c2.3-2.29,3.6-3.67,3.6-4.91,0-.87-.47-1.49-1.45-1.49-.64,0-1.19.41-1.63.92l-.57-.56c.64-.7,1.33-1.16,2.32-1.16,1.41,0,2.3.89,2.3,2.25,0,1.44-1.32,2.86-3.12,4.76.41-.03.89-.07,1.29-.07h2.21v.85h-4.94v-.58h0Z"/>
    <path class="st0" d="M389.75,321.96c0-2.56.92-3.94,2.45-3.94s2.45,1.38,2.45,3.94-.92,4-2.45,4-2.45-1.43-2.45-4ZM393.7,321.96c0-2.24-.6-3.14-1.49-3.14s-1.49.9-1.49,3.14.6,3.2,1.49,3.2,1.49-.96,1.49-3.2Z"/>
    <path class="st0" d="M395.68,322.45h4.76v.69h-4.76v-.69Z"/>
    <path class="st0" d="M401.34,325.23c2.3-2.29,3.6-3.67,3.6-4.91,0-.87-.47-1.49-1.45-1.49-.64,0-1.19.41-1.63.92l-.57-.56c.64-.7,1.33-1.16,2.32-1.16,1.41,0,2.29.89,2.29,2.25,0,1.44-1.32,2.86-3.12,4.76.41-.03.89-.07,1.29-.07h2.21v.85h-4.94v-.58h0Z"/>
    <path class="st0" d="M407.35,321.96c0-2.56.92-3.94,2.45-3.94s2.45,1.38,2.45,3.94-.92,4-2.45,4-2.45-1.43-2.45-4ZM411.3,321.96c0-2.24-.61-3.14-1.49-3.14s-1.49.9-1.49,3.14.6,3.2,1.49,3.2,1.49-.96,1.49-3.2Z"/>
    <path class="st0" d="M413.27,325.23c2.3-2.29,3.6-3.67,3.6-4.91,0-.87-.47-1.49-1.45-1.49-.64,0-1.19.41-1.63.92l-.57-.56c.64-.7,1.33-1.16,2.32-1.16,1.41,0,2.29.89,2.29,2.25,0,1.44-1.32,2.86-3.12,4.76.41-.03.89-.07,1.29-.07h2.21v.85h-4.94v-.58h0Z"/>
    <path class="st0" d="M422.4,320.69c0-.4.03-1.06.06-1.47h-.05c-.19.37-.41.7-.62,1.08l-1.79,2.61h4.38v.79h-5.41v-.65l3.27-4.89h1.1v7.65h-.93v-5.13h-.01Z"/>
    <path class="st0" d="M428.1,322.48c0-2.11.59-3.84,1.58-5.45l.61.29c-.92,1.53-1.38,3.34-1.38,5.16s.45,3.63,1.38,5.16l-.61.29c-.99-1.61-1.58-3.34-1.58-5.45Z"/>
    <path class="st0" d="M431.05,324.91l.49-.64c.46.45,1.03.87,1.93.87s1.67-.68,1.67-1.74-.64-1.68-1.62-1.68c-.53,0-.86.16-1.31.47l-.52-.33.25-3.68h3.83v.85h-2.96l-.2,2.27c.35-.19.7-.32,1.17-.32,1.3,0,2.37.74,2.37,2.4s-1.25,2.59-2.58,2.59c-1.23,0-1.98-.52-2.52-1.05h0Z"/>
    <path class="st0" d="M437.21,322.43h2.75v.76h-2.75v-.76Z"/>
    <path class="st0" d="M440.85,328.21l.19-.79c.12.04.29.09.44.09.66,0,1.07-.53,1.31-1.25l.13-.43-2.34-5.84h1.02l1.19,3.23c.18.51.38,1.1.57,1.64h.05c.17-.53.33-1.13.49-1.64l1.04-3.23h.97l-2.2,6.31c-.41,1.16-1.01,2.03-2.18,2.03-.27,0-.5-.05-.68-.12h0Z"/>
    <path class="st0" d="M446.56,322.91c0-1.9,1.28-3.07,2.62-3.07,1.49,0,2.33,1.07,2.33,2.74,0,.21-.02.42-.05.56h-3.93c.07,1.24.83,2.04,1.94,2.04.56,0,1.02-.18,1.45-.47l.35.65c-.51.33-1.13.6-1.92.6-1.55,0-2.79-1.14-2.79-3.05h0ZM450.63,322.43c0-1.17-.53-1.8-1.44-1.8-.82,0-1.55.66-1.67,1.8h3.11Z"/>
    <path class="st0" d="M452.41,324.3c0-1.27,1.1-1.91,3.58-2.17,0-.75-.25-1.47-1.2-1.47-.67,0-1.28.32-1.74.62l-.39-.68c.54-.35,1.35-.76,2.29-.76,1.42,0,2.02.95,2.02,2.4v3.58h-.81l-.08-.7h-.03c-.55.46-1.2.84-1.93.84-.97,0-1.71-.61-1.71-1.66ZM455.99,324.39v-1.62c-1.95.24-2.61.71-2.61,1.46,0,.66.45.93,1.02.93s1.03-.27,1.59-.77Z"/>
    <path class="st0" d="M458.82,319.98h.82l.08,1.06h.03c.41-.74,1-1.21,1.66-1.21.26,0,.44.03.62.12l-.18.87c-.2-.06-.33-.1-.57-.1-.49,0-1.08.35-1.47,1.34v3.74h-.99v-5.83h0Z"/>
    <path class="st0" d="M464.95,322.91c0-1.9,1.28-3.07,2.62-3.07,1.49,0,2.33,1.07,2.33,2.74,0,.21-.02.42-.05.56h-3.93c.07,1.24.83,2.04,1.94,2.04.56,0,1.02-.18,1.45-.47l.35.65c-.51.33-1.13.6-1.93.6-1.55,0-2.79-1.14-2.79-3.05h0ZM469.03,322.43c0-1.17-.53-1.8-1.44-1.8-.82,0-1.55.66-1.67,1.8h3.11Z"/>
    <path class="st0" d="M470.69,325.15l.49-.65c.51.41,1.02.69,1.72.69.77,0,1.15-.41,1.15-.91,0-.6-.69-.87-1.33-1.1-.82-.3-1.74-.7-1.74-1.68s.75-1.65,2.01-1.65c.73,0,1.36.3,1.81.66l-.47.63c-.4-.3-.81-.52-1.33-.52-.73,0-1.07.39-1.07.84,0,.55.63.76,1.29,1.01.84.32,1.78.66,1.78,1.77,0,.95-.75,1.73-2.13,1.73-.83,0-1.63-.35-2.18-.81h0Z"/>
    <path class="st0" d="M476.3,324.01v-3.22h-.87v-.75l.91-.06.12-1.63h.82v1.63h1.58v.8h-1.58v3.24c0,.71.23,1.12.9,1.12.21,0,.47-.08.66-.16l.19.74c-.33.11-.72.22-1.08.22-1.24,0-1.66-.79-1.66-1.95v.02Z"/>
    <path class="st0" d="M480,318.15c0-.39.3-.64.68-.64s.68.25.68.64-.3.64-.68.64-.68-.26-.68-.64ZM480.18,319.98h.99v5.83h-.99v-5.83Z"/>
    <path class="st0" d="M483.13,319.98h.81l.08.85h.03c.51-.55,1.12-.99,1.81-.99.89,0,1.37.43,1.61,1.11.61-.66,1.21-1.11,1.92-1.11,1.2,0,1.77.79,1.77,2.28v3.69h-.99v-3.57c0-1.09-.34-1.55-1.08-1.55-.45,0-.92.3-1.46.9v4.22h-.99v-3.57c0-1.09-.34-1.55-1.08-1.55-.44,0-.92.3-1.46.9v4.22h-.99v-5.83h.02Z"/>
    <path class="st0" d="M492.72,324.3c0-1.27,1.1-1.91,3.58-2.17,0-.75-.25-1.47-1.2-1.47-.67,0-1.28.32-1.74.62l-.39-.68c.54-.35,1.35-.76,2.29-.76,1.42,0,2.02.95,2.02,2.4v3.58h-.82l-.08-.7h-.03c-.56.46-1.21.84-1.93.84-.98,0-1.71-.61-1.71-1.66h.01ZM496.3,324.39v-1.62c-1.95.24-2.61.71-2.61,1.46,0,.66.45.93,1.02.93s1.03-.27,1.59-.77Z"/>
    <path class="st0" d="M499.13,324.01v-3.22h-.87v-.75l.91-.06.12-1.63h.82v1.63h1.58v.8h-1.58v3.24c0,.71.23,1.12.9,1.12.21,0,.47-.08.66-.16l.19.74c-.33.11-.72.22-1.08.22-1.24,0-1.66-.79-1.66-1.95v.02Z"/>
    <path class="st0" d="M502.41,322.91c0-1.9,1.28-3.07,2.62-3.07,1.49,0,2.33,1.07,2.33,2.74,0,.21-.02.42-.05.56h-3.93c.07,1.24.83,2.04,1.94,2.04.56,0,1.02-.18,1.45-.47l.35.65c-.51.33-1.13.6-1.92.6-1.55,0-2.79-1.14-2.79-3.05h0ZM506.49,322.43c0-1.17-.53-1.8-1.44-1.8-.82,0-1.55.66-1.67,1.8h3.11Z"/>
    <path class="st0" d="M508.15,325.15l.49-.65c.51.41,1.02.69,1.72.69.77,0,1.15-.41,1.15-.91,0-.6-.69-.87-1.33-1.1-.82-.3-1.74-.7-1.74-1.68s.75-1.65,2.01-1.65c.73,0,1.36.3,1.81.66l-.47.63c-.4-.3-.81-.52-1.33-.52-.73,0-1.07.39-1.07.84,0,.55.63.76,1.29,1.01.84.32,1.78.66,1.78,1.77,0,.95-.75,1.73-2.13,1.73-.83,0-1.63-.35-2.17-.81h-.01Z"/>
    <path class="st0" d="M513.3,327.64c.92-1.53,1.38-3.34,1.38-5.16s-.45-3.63-1.38-5.16l.61-.29c.99,1.61,1.58,3.34,1.58,5.45s-.59,3.84-1.58,5.45l-.61-.29Z"/>
    <path class="st0" d="M517.26,325.21c0-.45.32-.76.71-.76s.71.31.71.76-.32.75-.71.75-.71-.31-.71-.75Z"/>
  </g>
</svg>