<?xml version="1.0" encoding="UTF-8"?>
<svg xmlns="http://www.w3.org/2000/svg" version="1.1" viewBox="0 0 637.27 293.21">
  <!-- Generator: Adobe Illustrator 30.6.0, SVG Export Plug-In . SVG Version: 2.1.4 Build 109)  -->
  <defs>
    <style>
      .st0 {
        stroke: #010102;
      }

      .st0, .st1, .st2 {
        fill: #fff;
      }

      .st0, .st2 {
        stroke-miterlimit: 10;
      }

      .st3 {
        isolation: isolate;
      }

      .st4 {
        font-family: HelveticaNeue-Bold, 'Helvetica Neue';
        font-size: 13px;
      }

      .st4, .st5 {
        font-weight: 700;
      }

      .st6 {
        fill: #ddd;
      }

      .st7 {
        font-family: Helvetica-Light, Helvetica;
        font-weight: 300;
      }

      .st7, .st8 {
        font-size: 14px;
      }

      .st8 {
        font-family: ArialNarrow, 'Arial Narrow';
      }

      .st5 {
        font-family: ArialNarrow-Bold, 'Arial Narrow';
        font-size: 12px;
      }

      .st2 {
        stroke: #080614;
      }

      .st9 {
        display: none;
      }
    </style>
  </defs>
  <g id="Layer_2" class="st9">
    <rect class="st0" x=".5" y=".5" width="636.27" height="286.05"/>
    <rect class="st2" x=".5" y=".5" width="323.27" height="286.05"/>
    <rect x="45.06" y="86.59" width=".83" height="199.96"/>
    <rect x="233.39" y="86.59" width=".83" height="199.96"/>
    <rect x="367.16" y="86.59" width=".83" height="199.96"/>
    <rect x="552.71" y="86.59" width=".83" height="199.96"/>
  </g>
  <g id="Layer_1">
    <g>
      <path d="M10.77,20.76c0-4.33,2.86-6.83,6.15-6.83,1.69,0,3.04.79,3.92,1.69l-1.55,1.89c-.65-.61-1.36-1.04-2.3-1.04-1.79,0-3.2,1.58-3.2,4.19s1.25,4.24,3.15,4.24c1.07,0,1.91-.53,2.55-1.22l1.55,1.85c-1.08,1.26-2.52,1.91-4.21,1.91-3.31,0-6.07-2.29-6.07-6.68Z"/>
      <path d="M22.2,22.24c0-3.3,2.32-5.21,4.83-5.21s4.83,1.91,4.83,5.21-2.32,5.2-4.83,5.2-4.83-1.91-4.83-5.2ZM28.86,22.24c0-1.72-.6-2.83-1.82-2.83s-1.82,1.12-1.82,2.83.6,2.83,1.82,2.83,1.82-1.11,1.82-2.83Z"/>
      <path d="M33.88,17.27h2.4l.21,1.27h.07c.81-.82,1.7-1.51,3.01-1.51,1.4,0,2.24.6,2.74,1.67.87-.91,1.81-1.67,3.12-1.67,2.14,0,3.1,1.52,3.1,4v6.16h-2.94v-5.78c0-1.43-.39-1.88-1.23-1.88-.5,0-1.06.31-1.69.96v6.7h-2.94v-5.78c0-1.43-.39-1.88-1.23-1.88-.49,0-1.06.31-1.69.96v6.7h-2.94v-9.92Z"/>
      <path d="M51.02,17.27h2.4l.21.98h.07c.78-.69,1.79-1.22,2.83-1.22,2.4,0,3.87,1.99,3.87,5.05,0,3.41-2.03,5.36-4.18,5.36-.85,0-1.66-.37-2.37-1.04l.1,1.57v2.91h-2.94v-13.61ZM57.39,22.11c0-1.78-.55-2.67-1.72-2.67-.6,0-1.12.27-1.71.89v4.08c.53.47,1.09.63,1.58.63,1.03,0,1.85-.87,1.85-2.92Z"/>
      <path d="M62.32,24.12v-10.93h2.94v11.05c0,.63.29.83.53.83.11,0,.19,0,.36-.04l.35,2.17c-.32.14-.81.25-1.48.25-2.02,0-2.71-1.32-2.71-3.32Z"/>
      <path d="M67.58,24.45c0-2.09,1.66-3.22,5.59-3.64-.06-.87-.49-1.44-1.57-1.44-.83,0-1.66.35-2.63.9l-1.04-1.93c1.26-.77,2.68-1.31,4.24-1.31,2.54,0,3.94,1.45,3.94,4.49v5.67h-2.4l-.21-1.02h-.07c-.84.73-1.77,1.26-2.89,1.26-1.81,0-2.96-1.32-2.96-2.99ZM73.17,24.32v-1.73c-2.09.28-2.77.88-2.77,1.63,0,.64.44.95,1.14.95s1.11-.33,1.63-.85Z"/>
      <path d="M78.35,14.29c0-.9.72-1.54,1.7-1.54s1.7.64,1.7,1.54-.72,1.54-1.7,1.54-1.7-.64-1.7-1.54ZM78.58,17.27h2.94v9.92h-2.94v-9.92Z"/>
      <path d="M84.1,17.27h2.4l.21,1.26h.07c.84-.8,1.84-1.5,3.19-1.5,2.16,0,3.08,1.52,3.08,4v6.16h-2.94v-5.78c0-1.43-.38-1.88-1.23-1.88-.74,0-1.19.34-1.84.96v6.7h-2.94v-9.92Z"/>
      <path d="M95.94,23.59v-4.01h-1.36v-2.19l1.52-.11.34-2.64h2.43v2.64h2.38v2.31h-2.38v3.97c0,1.12.51,1.58,1.29,1.58.33,0,.68-.09.94-.19l.46,2.14c-.53.17-1.24.36-2.21.36-2.45,0-3.43-1.55-3.43-3.85Z"/>
      <path d="M102.12,26.05l1.32-1.83c.9.68,1.73,1.04,2.56,1.04.88,0,1.25-.33,1.25-.85,0-.65-.98-.95-2-1.35-1.22-.47-2.63-1.28-2.63-2.92,0-1.85,1.5-3.11,3.79-3.11,1.52,0,2.65.61,3.5,1.26l-1.32,1.77c-.71-.51-1.4-.85-2.09-.85-.76,0-1.13.3-1.13.79,0,.63.93.88,1.96,1.25,1.26.46,2.67,1.17,2.67,2.99s-1.42,3.2-4.08,3.2c-1.31,0-2.81-.57-3.81-1.39Z"/>
      <path d="M115.05,17.39l1.48-.11h4.56v2.31h-6.05v-2.19ZM116.37,16.76c0-2.09.97-3.82,3.65-3.82.83,0,1.54.19,1.98.35l-.53,2.17c-.33-.13-.7-.21-1.03-.21-.72,0-1.13.4-1.13,1.42v10.52h-2.94v-10.44Z"/>
      <path d="M122.68,17.27h2.4l.21,1.73h.07c.72-1.32,1.81-1.97,2.82-1.97.57,0,.9.07,1.18.2l-.49,2.54c-.35-.09-.65-.16-1.07-.16-.75,0-1.66.48-2.19,1.84v5.75h-2.94v-9.92Z"/>
      <path d="M129.86,22.24c0-3.3,2.32-5.21,4.83-5.21s4.83,1.91,4.83,5.21-2.32,5.2-4.83,5.2-4.83-1.91-4.83-5.2ZM136.52,22.24c0-1.72-.6-2.83-1.82-2.83s-1.82,1.12-1.82,2.83.6,2.83,1.82,2.83,1.82-1.11,1.82-2.83Z"/>
      <path d="M141.54,17.27h2.4l.21,1.27h.07c.81-.82,1.7-1.51,3.01-1.51,1.4,0,2.24.6,2.74,1.67.87-.91,1.81-1.67,3.12-1.67,2.14,0,3.1,1.52,3.1,4v6.16h-2.94v-5.78c0-1.43-.39-1.88-1.23-1.88-.5,0-1.06.31-1.69.96v6.7h-2.94v-5.78c0-1.43-.39-1.88-1.23-1.88-.49,0-1.06.31-1.69.96v6.7h-2.94v-9.92Z"/>
      <path d="M162.92,14.16h3.02l3.4,6.48,1.29,2.86h.08c-.14-1.38-.38-3.21-.38-4.74v-4.61h2.81v13.04h-3.02l-3.4-6.5-1.29-2.85h-.08c.14,1.44.38,3.18.38,4.72v4.63h-2.81v-13.04Z"/>
      <path d="M175.4,22.24c0-3.22,2.3-5.21,4.68-5.21,2.83,0,4.23,2.05,4.23,4.76,0,.53-.07,1.06-.12,1.3h-5.94c.26,1.44,1.25,2.1,2.57,2.1.75,0,1.43-.23,2.15-.65l.97,1.77c-1.02.7-2.34,1.12-3.52,1.12-2.83,0-5.02-1.91-5.02-5.2ZM181.8,21.15c0-1.09-.48-1.88-1.65-1.88-.93,0-1.73.62-1.93,1.88h3.58Z"/>
      <path d="M185.4,17.27h2.92l.95,4.6c.17.98.28,1.94.45,2.95h.08c.17-1,.35-2,.59-2.95l1.08-4.6h2.55l1.12,4.6c.24.98.41,1.94.62,2.95h.08c.17-1,.28-1.97.46-2.95l.94-4.6h2.72l-2.37,9.92h-3.44l-.91-3.97c-.18-.92-.35-1.83-.53-2.9h-.08c-.17,1.07-.31,1.99-.5,2.91l-.87,3.96h-3.36l-2.49-9.92Z"/>
      <path d="M208.22,22.55l-3.93-8.39h3.15l1.16,3c.35.98.69,1.88,1.06,2.89h.08c.37-1.01.74-1.91,1.1-2.89l1.16-3h3.08l-3.93,8.39v4.65h-2.95v-4.65Z"/>
      <path d="M214.56,22.24c0-3.3,2.32-5.21,4.83-5.21s4.83,1.91,4.83,5.21-2.32,5.2-4.83,5.2-4.83-1.91-4.83-5.2ZM221.22,22.24c0-1.72-.6-2.83-1.82-2.83s-1.82,1.12-1.82,2.83.6,2.83,1.82,2.83,1.82-1.11,1.82-2.83Z"/>
      <path d="M226.24,17.27h2.4l.21,1.73h.07c.72-1.32,1.81-1.97,2.82-1.97.57,0,.9.07,1.18.2l-.49,2.54c-.35-.09-.65-.16-1.07-.16-.75,0-1.66.48-2.19,1.84v5.75h-2.94v-9.92Z"/>
      <path d="M234.2,13.19h2.88v8.03h.07l3.15-3.94h3.19l-3.48,4.09,3.74,5.83h-3.19l-2.23-3.87-1.26,1.43v2.44h-2.88v-14.01Z"/>
      <path d="M244.02,22.24c0-3.22,2.3-5.21,4.68-5.21,2.83,0,4.23,2.05,4.23,4.76,0,.53-.07,1.06-.12,1.3h-5.94c.26,1.44,1.25,2.1,2.57,2.1.75,0,1.43-.23,2.15-.65l.97,1.77c-1.02.7-2.34,1.12-3.52,1.12-2.83,0-5.02-1.91-5.02-5.2ZM250.42,21.15c0-1.09-.48-1.88-1.65-1.88-.93,0-1.73.62-1.93,1.88h3.58Z"/>
      <path d="M254.96,17.27h2.4l.21,1.73h.07c.72-1.32,1.81-1.97,2.82-1.97.57,0,.9.07,1.18.2l-.49,2.54c-.35-.09-.65-.16-1.07-.16-.75,0-1.66.48-2.19,1.84v5.75h-2.94v-9.92Z"/>
      <path d="M261.88,26.05l1.32-1.83c.9.68,1.73,1.04,2.56,1.04.88,0,1.25-.33,1.25-.85,0-.65-.98-.95-2-1.35-1.22-.47-2.63-1.28-2.63-2.92,0-1.85,1.5-3.11,3.79-3.11,1.52,0,2.65.61,3.5,1.26l-1.32,1.77c-.71-.51-1.4-.85-2.09-.85-.76,0-1.13.3-1.13.79,0,.63.93.88,1.96,1.25,1.26.46,2.67,1.17,2.67,2.99s-1.42,3.2-4.08,3.2c-1.31,0-2.81-.57-3.81-1.39Z"/>
    </g>
    <g>
      <path d="M13.88,38.4h-2.73v-.51h6.05v.51h-2.73v8.05h-.6v-8.05Z"/>
      <path d="M18.78,37.1h.57v4.09c.64-.65,1.29-1.14,2.15-1.14,1.29,0,1.89.78,1.89,2.4v4h-.57v-3.93c0-1.32-.42-1.95-1.42-1.95-.74,0-1.28.39-2.04,1.17v4.71h-.57v-9.35Z"/>
      <path d="M25.12,43.34c0-2.04,1.32-3.29,2.72-3.29,1.48,0,2.39,1.05,2.39,2.89,0,.16,0,.31-.03.47h-4.49c.02,1.58.94,2.7,2.35,2.7.68,0,1.21-.22,1.68-.55l.24.44c-.49.31-1.05.61-1.97.61-1.59,0-2.89-1.23-2.89-3.27ZM29.69,42.94c0-1.59-.72-2.39-1.84-2.39-1.06,0-2.01.89-2.14,2.39h3.98Z"/>
      <path d="M34.42,45.94h1.96v-6.89h-1.49v-.4c.68-.11,1.21-.3,1.6-.53h.47v7.81h1.81v.51h-4.34v-.51Z"/>
      <path d="M40.18,42.27c0-2.76.9-4.29,2.48-4.29s2.48,1.52,2.48,4.29-.9,4.34-2.48,4.34-2.48-1.58-2.48-4.34ZM44.56,42.27c0-2.54-.75-3.79-1.9-3.79s-1.9,1.25-1.9,3.79.75,3.84,1.9,3.84,1.9-1.31,1.9-3.84Z"/>
      <path d="M49.58,40.21h.49l.06.97h.03c.57-.64,1.28-1.12,1.97-1.12,1,0,1.5.5,1.72,1.27.71-.78,1.4-1.27,2.12-1.27,1.24,0,1.87.78,1.87,2.4v4h-.57v-3.93c0-1.32-.44-1.95-1.4-1.95-.59,0-1.18.39-1.87,1.17v4.71h-.57v-3.93c0-1.32-.44-1.95-1.4-1.95-.56,0-1.18.39-1.87,1.17v4.71h-.57v-6.24Z"/>
      <path d="M59.61,43.34c0-2.09,1.3-3.29,2.8-3.29s2.8,1.2,2.8,3.29-1.3,3.27-2.8,3.27-2.8-1.2-2.8-3.27ZM64.61,43.34c0-1.64-.94-2.78-2.2-2.78s-2.2,1.14-2.2,2.78.94,2.76,2.2,2.76,2.2-1.12,2.2-2.76Z"/>
      <path d="M66.3,45.74l.33-.42c.53.44,1.1.79,1.98.79.98,0,1.49-.57,1.49-1.23,0-.78-.81-1.13-1.53-1.39-.94-.33-1.99-.72-1.99-1.78,0-.9.71-1.66,2.01-1.66.67,0,1.33.28,1.78.65l-.31.41c-.42-.31-.86-.57-1.49-.57-.97,0-1.41.56-1.41,1.14,0,.71.74.98,1.48,1.26.97.37,2.04.69,2.04,1.9,0,.94-.75,1.76-2.1,1.76-.93,0-1.73-.39-2.29-.86Z"/>
      <path d="M72.22,44.73v-4.02h-.98v-.45l.99-.05.07-1.81h.49v1.81h1.81v.5h-1.81v4.06c0,.8.2,1.34,1.06,1.34.23,0,.56-.1.78-.2l.15.47c-.36.13-.76.23-1.02.23-1.2,0-1.55-.76-1.55-1.88Z"/>
      <path d="M78.21,43.34c0-2.09,1.33-3.29,2.85-3.29.85,0,1.4.38,1.83.77l-.34.4c-.4-.37-.87-.66-1.48-.66-1.28,0-2.26,1.14-2.26,2.78s.9,2.76,2.25,2.76c.67,0,1.24-.32,1.67-.72l.3.4c-.53.48-1.2.82-1.99.82-1.61,0-2.83-1.2-2.83-3.27Z"/>
      <path d="M83.83,43.34c0-2.09,1.3-3.29,2.8-3.29s2.8,1.2,2.8,3.29-1.3,3.27-2.8,3.27-2.8-1.2-2.8-3.27ZM88.83,43.34c0-1.64-.94-2.78-2.2-2.78s-2.2,1.14-2.2,2.78.94,2.76,2.2,2.76,2.2-1.12,2.2-2.76Z"/>
      <path d="M91.31,40.21h.49l.06.97h.03c.57-.64,1.28-1.12,1.97-1.12,1,0,1.5.5,1.72,1.27.71-.78,1.4-1.27,2.12-1.27,1.24,0,1.87.78,1.87,2.4v4h-.57v-3.93c0-1.32-.44-1.95-1.4-1.95-.59,0-1.18.39-1.87,1.17v4.71h-.57v-3.93c0-1.32-.44-1.95-1.4-1.95-.56,0-1.18.39-1.87,1.17v4.71h-.57v-6.24Z"/>
      <path d="M101.86,40.21h.49l.06.97h.03c.57-.64,1.28-1.12,1.97-1.12,1,0,1.5.5,1.72,1.27.71-.78,1.4-1.27,2.12-1.27,1.24,0,1.87.78,1.87,2.4v4h-.57v-3.93c0-1.32-.44-1.95-1.4-1.95-.59,0-1.18.39-1.87,1.17v4.71h-.57v-3.93c0-1.32-.44-1.95-1.4-1.95-.56,0-1.18.39-1.87,1.17v4.71h-.57v-6.24Z"/>
      <path d="M111.89,43.34c0-2.09,1.3-3.29,2.8-3.29s2.8,1.2,2.8,3.29-1.3,3.27-2.8,3.27-2.8-1.2-2.8-3.27ZM116.9,43.34c0-1.64-.94-2.78-2.2-2.78s-2.2,1.14-2.2,2.78.94,2.76,2.2,2.76,2.2-1.12,2.2-2.76Z"/>
      <path d="M119.37,40.21h.49l.06.97h.03c.64-.63,1.29-1.12,2.15-1.12,1.29,0,1.89.78,1.89,2.4v4h-.57v-3.93c0-1.32-.42-1.95-1.42-1.95-.74,0-1.28.39-2.04,1.17v4.71h-.57v-6.24Z"/>
      <path d="M129.04,44.73v-4.02h-.98v-.45l.99-.05.07-1.81h.49v1.81h1.81v.5h-1.81v4.06c0,.8.2,1.34,1.06,1.34.23,0,.56-.1.78-.2l.15.47c-.36.13-.76.23-1.02.23-1.2,0-1.55-.76-1.55-1.88Z"/>
      <path d="M132.05,49.16l.13-.5c.13.05.33.1.51.1.76,0,1.28-.7,1.6-1.66l.17-.54-2.56-6.36h.62l1.51,3.92c.21.53.45,1.2.68,1.75h.05c.2-.55.4-1.22.58-1.75l1.33-3.92h.59l-2.47,7.03c-.35,1.04-.98,2.06-2.1,2.06-.23,0-.47-.05-.64-.13Z"/>
      <path d="M138.61,40.21h.49l.06.79h.03c.61-.49,1.35-.94,2.12-.94,1.67,0,2.5,1.25,2.5,3.19,0,2.12-1.28,3.37-2.75,3.37-.59,0-1.23-.28-1.88-.77v1.15s0,2.29,0,2.29h-.57v-9.07ZM143.21,43.24c0-1.53-.55-2.68-1.99-2.68-.62,0-1.28.36-2.03,1.03v3.7c.7.59,1.36.8,1.84.8,1.27,0,2.18-1.17,2.18-2.86Z"/>
      <path d="M145.16,43.34c0-2.04,1.32-3.29,2.72-3.29,1.48,0,2.39,1.05,2.39,2.89,0,.16,0,.31-.03.47h-4.49c.02,1.58.94,2.7,2.35,2.7.68,0,1.21-.22,1.68-.55l.24.44c-.49.31-1.05.61-1.97.61-1.59,0-2.89-1.23-2.89-3.27ZM149.73,42.94c0-1.59-.72-2.39-1.84-2.39-1.06,0-2.01.89-2.14,2.39h3.98Z"/>
      <path d="M151.19,45.74l.33-.42c.53.44,1.1.79,1.98.79.98,0,1.49-.57,1.49-1.23,0-.78-.81-1.13-1.53-1.39-.94-.33-1.99-.72-1.99-1.78,0-.9.71-1.66,2.01-1.66.67,0,1.33.28,1.78.65l-.31.41c-.42-.31-.86-.57-1.49-.57-.97,0-1.41.56-1.41,1.14,0,.71.74.98,1.48,1.26.97.37,2.04.69,2.04,1.9,0,.94-.75,1.76-2.1,1.76-.93,0-1.73-.39-2.29-.86Z"/>
      <path d="M159.3,43.34c0-2.09,1.3-3.29,2.8-3.29s2.8,1.2,2.8,3.29-1.3,3.27-2.8,3.27-2.8-1.2-2.8-3.27ZM164.31,43.34c0-1.64-.94-2.78-2.2-2.78s-2.2,1.14-2.2,2.78.94,2.76,2.2,2.76,2.2-1.12,2.2-2.76Z"/>
      <path d="M166,40.26l.87-.05h2v.5h-2.88v-.45ZM166.86,38.82c0-1.24.56-1.88,1.54-1.88.29,0,.62.08.91.21l-.16.47c-.25-.12-.51-.18-.74-.18-.67,0-.98.51-.98,1.41v7.59h-.57v-7.63Z"/>
      <path d="M172.01,45.74l.33-.42c.53.44,1.1.79,1.98.79.98,0,1.49-.57,1.49-1.23,0-.78-.81-1.13-1.53-1.39-.94-.33-1.99-.72-1.99-1.78,0-.9.71-1.66,2.01-1.66.67,0,1.33.28,1.78.65l-.31.41c-.42-.31-.86-.57-1.49-.57-.97,0-1.41.56-1.41,1.14,0,.71.74.98,1.48,1.26.97.37,2.04.69,2.04,1.9,0,.94-.75,1.76-2.1,1.76-.93,0-1.73-.39-2.29-.86Z"/>
      <path d="M177.53,43.34c0-2.04,1.32-3.29,2.72-3.29,1.48,0,2.39,1.05,2.39,2.89,0,.16,0,.31-.03.47h-4.49c.02,1.58.94,2.7,2.35,2.7.68,0,1.21-.22,1.68-.55l.24.44c-.49.31-1.05.61-1.97.61-1.59,0-2.89-1.23-2.89-3.27ZM182.1,42.94c0-1.59-.72-2.39-1.84-2.39-1.06,0-2.01.89-2.14,2.39h3.98Z"/>
      <path d="M184.34,40.21h.49l.06,1.16h.03c.42-.77,1.03-1.32,1.78-1.32.23,0,.41.03.62.13l-.13.52c-.21-.08-.33-.1-.56-.1-.56,0-1.23.43-1.7,1.61v4.25h-.57v-6.24Z"/>
      <path d="M187.88,40.21h.62l1.4,3.91c.2.6.43,1.23.63,1.79h.05c.2-.56.43-1.19.63-1.79l1.4-3.91h.59l-2.31,6.24h-.68l-2.34-6.24Z"/>
      <path d="M194.34,38.19c0-.32.24-.51.52-.51s.52.19.52.51c0,.3-.24.51-.52.51s-.52-.21-.52-.51ZM194.57,40.21h.57v6.24h-.57v-6.24Z"/>
      <path d="M197.02,43.34c0-2.09,1.33-3.29,2.85-3.29.85,0,1.4.38,1.83.77l-.34.4c-.4-.37-.87-.66-1.48-.66-1.28,0-2.26,1.14-2.26,2.78s.9,2.76,2.25,2.76c.67,0,1.24-.32,1.67-.72l.3.4c-.53.48-1.2.82-1.99.82-1.61,0-2.83-1.2-2.83-3.27Z"/>
      <path d="M202.63,43.34c0-2.04,1.32-3.29,2.72-3.29,1.48,0,2.39,1.05,2.39,2.89,0,.16,0,.31-.03.47h-4.49c.02,1.58.94,2.7,2.35,2.7.68,0,1.21-.22,1.68-.55l.24.44c-.49.31-1.05.61-1.97.61-1.59,0-2.89-1.23-2.89-3.27ZM207.2,42.94c0-1.59-.72-2.39-1.84-2.39-1.06,0-2.01.89-2.14,2.39h3.98Z"/>
      <path d="M212.04,40.21h.49l.06,1.16h.03c.42-.77,1.03-1.32,1.78-1.32.23,0,.41.03.62.13l-.13.52c-.21-.08-.33-.1-.56-.1-.56,0-1.23.43-1.7,1.61v4.25h-.57v-6.24Z"/>
      <path d="M215.5,43.34c0-2.04,1.32-3.29,2.72-3.29,1.48,0,2.39,1.05,2.39,2.89,0,.16,0,.31-.03.47h-4.49c.02,1.58.94,2.7,2.35,2.7.68,0,1.21-.22,1.68-.55l.24.44c-.49.31-1.05.61-1.97.61-1.59,0-2.89-1.23-2.89-3.27ZM220.07,42.94c0-1.59-.72-2.39-1.84-2.39-1.06,0-2.01.89-2.14,2.39h3.98Z"/>
      <path d="M226.41,46.87l.03-1.24c-.55.53-1.25.98-2.07.98-1.57,0-2.58-1.16-2.58-3.27s1.28-3.29,2.77-3.29c.75,0,1.27.28,1.85.74h.03l.06-.58h.48v9.07h-.57v-2.41ZM226.41,45.07v-3.7c-.66-.58-1.21-.8-1.82-.8-1.24,0-2.2,1.21-2.2,2.78,0,1.66.74,2.76,2.06,2.76.69,0,1.3-.36,1.96-1.03Z"/>
      <path d="M229.28,44.21v-4h.57v3.93c0,1.32.42,1.95,1.42,1.95.74,0,1.28-.39,2.01-1.27v-4.61h.57v6.24h-.49l-.06-1.05h-.03c-.61.72-1.26,1.2-2.12,1.2-1.29,0-1.89-.78-1.89-2.4Z"/>
      <path d="M235.73,43.34c0-2.04,1.32-3.29,2.72-3.29,1.48,0,2.39,1.05,2.39,2.89,0,.16,0,.31-.03.47h-4.49c.02,1.58.94,2.7,2.35,2.7.68,0,1.21-.22,1.68-.55l.24.44c-.49.31-1.05.61-1.97.61-1.59,0-2.89-1.23-2.89-3.27ZM240.3,42.94c0-1.59-.72-2.39-1.84-2.39-1.06,0-2.01.89-2.14,2.39h3.98Z"/>
      <path d="M241.76,45.74l.33-.42c.53.44,1.1.79,1.98.79.98,0,1.49-.57,1.49-1.23,0-.78-.81-1.13-1.53-1.39-.94-.33-1.99-.72-1.99-1.78,0-.9.71-1.66,2.01-1.66.67,0,1.33.28,1.78.65l-.31.41c-.42-.31-.86-.57-1.49-.57-.97,0-1.41.56-1.41,1.14,0,.71.74.98,1.48,1.26.97.37,2.04.69,2.04,1.9,0,.94-.75,1.76-2.1,1.76-.93,0-1.73-.39-2.29-.86Z"/>
      <path d="M247.69,44.73v-4.02h-.98v-.45l.99-.05.07-1.81h.49v1.81h1.81v.5h-1.81v4.06c0,.8.2,1.34,1.06,1.34.23,0,.56-.1.78-.2l.15.47c-.36.13-.76.23-1.02.23-1.2,0-1.55-.76-1.55-1.88Z"/>
      <path d="M250.69,45.74l.33-.42c.53.44,1.1.79,1.98.79.98,0,1.49-.57,1.49-1.23,0-.78-.81-1.13-1.53-1.39-.94-.33-1.99-.72-1.99-1.78,0-.9.71-1.66,2.01-1.66.67,0,1.33.28,1.78.65l-.31.41c-.42-.31-.86-.57-1.49-.57-.97,0-1.41.56-1.41,1.14,0,.71.74.98,1.48,1.26.97.37,2.04.69,2.04,1.9,0,.94-.75,1.76-2.1,1.76-.93,0-1.73-.39-2.29-.86Z"/>
      <path d="M259.33,40.21h.49l.06,1.16h.03c.42-.77,1.03-1.32,1.78-1.32.23,0,.41.03.62.13l-.13.52c-.21-.08-.33-.1-.56-.1-.56,0-1.23.43-1.7,1.61v4.25h-.57v-6.24Z"/>
      <path d="M262.8,43.34c0-2.04,1.32-3.29,2.72-3.29,1.48,0,2.39,1.05,2.39,2.89,0,.16,0,.31-.03.47h-4.49c.02,1.58.94,2.7,2.35,2.7.68,0,1.21-.22,1.68-.55l.24.44c-.49.31-1.05.61-1.97.61-1.59,0-2.89-1.23-2.89-3.27ZM267.37,42.94c0-1.59-.72-2.39-1.84-2.39-1.06,0-2.01.89-2.14,2.39h3.98Z"/>
      <path d="M269.08,43.34c0-2.09,1.33-3.29,2.85-3.29.85,0,1.4.38,1.83.77l-.34.4c-.4-.37-.87-.66-1.48-.66-1.28,0-2.26,1.14-2.26,2.78s.9,2.76,2.25,2.76c.67,0,1.24-.32,1.67-.72l.3.4c-.53.48-1.2.82-1.99.82-1.61,0-2.83-1.2-2.83-3.27Z"/>
      <path d="M274.69,43.34c0-2.04,1.32-3.29,2.72-3.29,1.48,0,2.39,1.05,2.39,2.89,0,.16,0,.31-.03.47h-4.49c.02,1.58.94,2.7,2.35,2.7.68,0,1.21-.22,1.68-.55l.24.44c-.49.31-1.05.61-1.97.61-1.59,0-2.89-1.23-2.89-3.27ZM279.26,42.94c0-1.59-.72-2.39-1.84-2.39-1.06,0-2.01.89-2.14,2.39h3.98Z"/>
      <path d="M281.27,38.19c0-.32.24-.51.52-.51s.52.19.52.51c0,.3-.24.51-.52.51s-.52-.21-.52-.51ZM281.5,40.21h.57v6.24h-.57v-6.24Z"/>
      <path d="M283.43,40.21h.62l1.4,3.91c.2.6.43,1.23.63,1.79h.05c.2-.56.43-1.19.63-1.79l1.4-3.91h.59l-2.31,6.24h-.68l-2.34-6.24Z"/>
      <path d="M289.58,43.34c0-2.04,1.32-3.29,2.72-3.29,1.48,0,2.39,1.05,2.39,2.89,0,.16,0,.31-.03.47h-4.49c.02,1.58.94,2.7,2.35,2.7.68,0,1.21-.22,1.68-.55l.24.44c-.49.31-1.05.61-1.97.61-1.59,0-2.89-1.23-2.89-3.27ZM294.15,42.94c0-1.59-.72-2.39-1.84-2.39-1.06,0-2.01.89-2.14,2.39h3.98Z"/>
      <path d="M295.86,43.34c0-2.02,1.28-3.29,2.77-3.29.75,0,1.26.28,1.88.77l-.03-1.15v-2.57h.57v9.35h-.49l-.06-.81h-.03c-.51.51-1.21.96-2.04.96-1.57,0-2.58-1.16-2.58-3.27ZM300.48,45.07v-3.7c-.66-.58-1.21-.8-1.82-.8-1.24,0-2.2,1.21-2.2,2.78,0,1.66.74,2.76,2.06,2.76.69,0,1.3-.36,1.96-1.03Z"/>
      <path d="M306.62,45.82h-.03l-.06.63h-.48v-9.35h.57v2.71l-.03,1.22c.63-.53,1.39-.98,2.15-.98,1.67,0,2.5,1.25,2.5,3.18,0,2.12-1.28,3.37-2.75,3.37-.6,0-1.28-.31-1.87-.79ZM310.64,43.24c0-1.53-.55-2.68-1.99-2.68-.62,0-1.3.36-2.03,1.03v3.7c.68.59,1.36.8,1.84.8,1.27,0,2.18-1.17,2.18-2.86Z"/>
      <path d="M312.19,49.16l.13-.5c.13.05.33.1.51.1.76,0,1.28-.7,1.6-1.66l.17-.54-2.56-6.36h.62l1.51,3.92c.21.53.45,1.2.68,1.75h.05c.2-.55.4-1.22.58-1.75l1.33-3.92h.59l-2.47,7.03c-.35,1.04-.98,2.06-2.1,2.06-.23,0-.47-.05-.64-.13Z"/>
      <path d="M321.42,37.88h.63l3.6,6.04.97,1.71h.05c-.03-.84-.08-1.67-.08-2.5v-5.25h.56v8.57h-.63l-3.6-6.04-.97-1.71h-.05c.03.82.08,1.6.08,2.43v5.32h-.56v-8.57Z"/>
      <path d="M329.1,43.34c0-2.04,1.32-3.29,2.72-3.29,1.48,0,2.39,1.05,2.39,2.89,0,.16,0,.31-.03.47h-4.49c.02,1.58.94,2.7,2.35,2.7.68,0,1.21-.22,1.68-.55l.24.44c-.49.31-1.05.61-1.97.61-1.59,0-2.89-1.23-2.89-3.27ZM333.67,42.94c0-1.59-.72-2.39-1.84-2.39-1.06,0-2.01.89-2.14,2.39h3.98Z"/>
      <path d="M335.17,40.21h.62l1.13,4.04c.15.58.3,1.11.42,1.67h.05c.15-.56.3-1.09.46-1.67l1.14-4.04h.68l1.14,4.04c.16.58.31,1.11.46,1.67h.05c.15-.56.3-1.09.45-1.67l1.1-4.04h.58l-1.79,6.24h-.75l-1.1-3.88c-.17-.6-.3-1.17-.48-1.78h-.05c-.15.61-.3,1.21-.5,1.81l-1.07,3.85h-.7l-1.84-6.24Z"/>
      <path d="M348.97,42.98l-2.57-5.09h.64l1.3,2.68c.3.63.58,1.22.91,1.85h.05c.33-.63.65-1.22.93-1.85l1.3-2.68h.61l-2.57,5.09v3.47h-.6v-3.47Z"/>
      <path d="M352.42,43.34c0-2.09,1.3-3.29,2.8-3.29s2.8,1.2,2.8,3.29-1.3,3.27-2.8,3.27-2.8-1.2-2.8-3.27ZM357.42,43.34c0-1.64-.94-2.78-2.2-2.78s-2.2,1.14-2.2,2.78.94,2.76,2.2,2.76,2.2-1.12,2.2-2.76Z"/>
      <path d="M359.9,40.21h.49l.06,1.16h.03c.42-.77,1.03-1.32,1.78-1.32.23,0,.41.03.62.13l-.13.52c-.21-.08-.33-.1-.56-.1-.56,0-1.23.43-1.7,1.61v4.25h-.57v-6.24Z"/>
      <path d="M364.02,37.1h.57v6.89h.03l3.08-3.78h.66l-2.03,2.47,2.37,3.77h-.64l-2.07-3.34-1.4,1.64v1.7h-.57v-9.35Z"/>
      <path d="M372.16,42.15c0-2.72,1.48-4.42,3.66-4.42,1,0,1.77.5,2.23,1.02l-.35.4c-.46-.53-1.09-.88-1.87-.88-1.88,0-3.04,1.5-3.04,3.87s1.15,3.92,2.99,3.92c.88,0,1.54-.36,2.17-1.06l.35.37c-.66.76-1.43,1.23-2.55,1.23-2.11,0-3.59-1.73-3.59-4.46Z"/>
      <path d="M379.76,38.19c0-.32.24-.51.52-.51s.52.19.52.51c0,.3-.24.51-.52.51s-.52-.21-.52-.51ZM379.98,40.21h.57v6.24h-.57v-6.24Z"/>
      <path d="M383.11,44.73v-4.02h-.98v-.45l.99-.05.07-1.81h.49v1.81h1.81v.5h-1.81v4.06c0,.8.2,1.34,1.06,1.34.23,0,.56-.1.78-.2l.15.47c-.36.13-.76.23-1.02.23-1.2,0-1.55-.76-1.55-1.88Z"/>
      <path d="M386.12,49.16l.13-.5c.13.05.33.1.51.1.76,0,1.28-.7,1.6-1.66l.17-.54-2.56-6.36h.62l1.51,3.92c.21.53.45,1.2.68,1.75h.05c.2-.55.4-1.22.58-1.75l1.33-3.92h.59l-2.47,7.03c-.35,1.04-.98,2.06-2.1,2.06-.23,0-.47-.05-.64-.13Z"/>
      <path d="M392.24,39.95c.57-.46.87-.88.87-1.62l-.21-.71.49.54c-.14.16-.21.19-.38.19-.25,0-.51-.16-.51-.48s.21-.52.51-.52c.35,0,.58.3.58.87,0,.93-.42,1.56-1.12,2.03l-.23-.31Z"/>
      <path d="M394.01,45.74l.33-.42c.53.44,1.1.79,1.98.79.98,0,1.49-.57,1.49-1.23,0-.78-.81-1.13-1.53-1.39-.94-.33-1.99-.72-1.99-1.78,0-.9.71-1.66,2.01-1.66.67,0,1.33.28,1.78.65l-.31.41c-.42-.31-.86-.57-1.49-.57-.97,0-1.41.56-1.41,1.14,0,.71.74.98,1.48,1.26.97.37,2.04.69,2.04,1.9,0,.94-.75,1.76-2.1,1.76-.93,0-1.73-.39-2.29-.86Z"/>
      <path d="M401.83,45.44l.34-.4c.5.54,1.16,1.06,2.3,1.06s1.95-.73,1.95-1.83-.83-1.92-2.9-1.92v-.51c1.92,0,2.59-.81,2.59-1.8,0-.94-.66-1.55-1.68-1.55-.76,0-1.43.4-1.9.91l-.35-.39c.57-.56,1.29-1.02,2.26-1.02,1.28,0,2.26.74,2.26,2.01,0,1.09-.68,1.74-1.58,2.05v.05c1.03.22,1.89.98,1.89,2.16,0,1.44-1.11,2.35-2.54,2.35-1.33,0-2.1-.61-2.63-1.17Z"/>
      <path d="M408.78,45.94h1.96v-6.89h-1.49v-.4c.68-.11,1.21-.3,1.6-.53h.47v7.81h1.81v.51h-4.34v-.51Z"/>
      <path d="M415,45.94h1.96v-6.89h-1.49v-.4c.68-.11,1.21-.3,1.6-.53h.47v7.81h1.81v.51h-4.34v-.51Z"/>
      <path d="M423.16,45.74l.33-.42c.53.44,1.1.79,1.98.79.98,0,1.49-.57,1.49-1.23,0-.78-.81-1.13-1.53-1.39-.94-.33-1.99-.72-1.99-1.78,0-.9.71-1.66,2.01-1.66.67,0,1.33.28,1.78.65l-.31.41c-.42-.31-.86-.57-1.49-.57-.97,0-1.41.56-1.41,1.14,0,.71.74.98,1.48,1.26.97.37,2.04.69,2.04,1.9,0,.94-.75,1.76-2.1,1.76-.93,0-1.73-.39-2.29-.86Z"/>
      <path d="M428.31,49.16l.13-.5c.13.05.33.1.51.1.76,0,1.28-.7,1.6-1.66l.17-.54-2.56-6.36h.62l1.51,3.92c.21.53.45,1.2.68,1.75h.05c.2-.55.4-1.22.58-1.75l1.33-3.92h.59l-2.47,7.03c-.35,1.04-.98,2.06-2.1,2.06-.23,0-.47-.05-.64-.13Z"/>
      <path d="M434.09,45.74l.33-.42c.53.44,1.1.79,1.98.79.98,0,1.49-.57,1.49-1.23,0-.78-.81-1.13-1.53-1.39-.94-.33-1.99-.72-1.99-1.78,0-.9.71-1.66,2.01-1.66.67,0,1.33.28,1.78.65l-.31.41c-.42-.31-.86-.57-1.49-.57-.97,0-1.41.56-1.41,1.14,0,.71.74.98,1.48,1.26.97.37,2.04.69,2.04,1.9,0,.94-.75,1.76-2.1,1.76-.93,0-1.73-.39-2.29-.86Z"/>
      <path d="M440.02,44.73v-4.02h-.98v-.45l.99-.05.07-1.81h.49v1.81h1.81v.5h-1.81v4.06c0,.8.2,1.34,1.06,1.34.23,0,.56-.1.78-.2l.15.47c-.36.13-.76.23-1.02.23-1.2,0-1.55-.76-1.55-1.88Z"/>
      <path d="M443.26,43.34c0-2.04,1.32-3.29,2.72-3.29,1.48,0,2.39,1.05,2.39,2.89,0,.16,0,.31-.03.47h-4.49c.02,1.58.94,2.7,2.35,2.7.68,0,1.21-.22,1.68-.55l.24.44c-.49.31-1.05.61-1.97.61-1.59,0-2.89-1.23-2.89-3.27ZM447.83,42.94c0-1.59-.72-2.39-1.84-2.39-1.06,0-2.01.89-2.14,2.39h3.98Z"/>
      <path d="M450.07,40.21h.49l.06.97h.03c.57-.64,1.28-1.12,1.97-1.12,1,0,1.5.5,1.72,1.27.71-.78,1.4-1.27,2.12-1.27,1.24,0,1.87.78,1.87,2.4v4h-.57v-3.93c0-1.32-.44-1.95-1.4-1.95-.59,0-1.18.39-1.87,1.17v4.71h-.57v-3.93c0-1.32-.44-1.95-1.4-1.95-.56,0-1.18.39-1.87,1.17v4.71h-.57v-6.24Z"/>
      <path d="M463.8,45.82h-.03l-.06.63h-.48v-9.35h.57v2.71l-.03,1.22c.63-.53,1.39-.98,2.15-.98,1.67,0,2.5,1.25,2.5,3.18,0,2.12-1.28,3.37-2.75,3.37-.6,0-1.28-.31-1.87-.79ZM467.82,43.24c0-1.53-.55-2.68-1.99-2.68-.62,0-1.3.36-2.03,1.03v3.7c.68.59,1.36.8,1.84.8,1.27,0,2.18-1.17,2.18-2.86Z"/>
      <path d="M469.74,43.34c0-2.04,1.32-3.29,2.72-3.29,1.48,0,2.39,1.05,2.39,2.89,0,.16,0,.31-.03.47h-4.49c.02,1.58.94,2.7,2.35,2.7.68,0,1.21-.22,1.68-.55l.24.44c-.49.31-1.05.61-1.97.61-1.59,0-2.89-1.23-2.89-3.27ZM474.32,42.94c0-1.59-.72-2.39-1.84-2.39-1.06,0-2.01.89-2.14,2.39h3.98Z"/>
      <path d="M476.56,44.73v-4.02h-.98v-.45l.99-.05.07-1.81h.49v1.81h1.81v.5h-1.81v4.06c0,.8.2,1.34,1.06,1.34.23,0,.56-.1.78-.2l.15.47c-.36.13-.76.23-1.02.23-1.2,0-1.55-.76-1.55-1.88Z"/>
      <path d="M479.59,40.21h.62l1.13,4.04c.15.58.3,1.11.42,1.67h.05c.15-.56.3-1.09.46-1.67l1.14-4.04h.68l1.14,4.04c.16.58.31,1.11.46,1.67h.05c.15-.56.3-1.09.45-1.67l1.1-4.04h.58l-1.79,6.24h-.75l-1.1-3.88c-.17-.6-.3-1.17-.48-1.78h-.05c-.15.61-.3,1.21-.5,1.81l-1.07,3.85h-.7l-1.84-6.24Z"/>
      <path d="M488.84,43.34c0-2.04,1.32-3.29,2.72-3.29,1.48,0,2.39,1.05,2.39,2.89,0,.16,0,.31-.03.47h-4.49c.02,1.58.94,2.7,2.35,2.7.68,0,1.21-.22,1.68-.55l.24.44c-.49.31-1.05.61-1.97.61-1.59,0-2.89-1.23-2.89-3.27ZM493.41,42.94c0-1.59-.72-2.39-1.84-2.39-1.06,0-2.01.89-2.14,2.39h3.98Z"/>
      <path d="M495.12,43.34c0-2.04,1.32-3.29,2.72-3.29,1.48,0,2.39,1.05,2.39,2.89,0,.16,0,.31-.03.47h-4.49c.02,1.58.94,2.7,2.35,2.7.68,0,1.21-.22,1.68-.55l.24.44c-.49.31-1.05.61-1.97.61-1.59,0-2.89-1.23-2.89-3.27ZM499.69,42.94c0-1.59-.72-2.39-1.84-2.39-1.06,0-2.01.89-2.14,2.39h3.98Z"/>
      <path d="M501.92,40.21h.49l.06.97h.03c.64-.63,1.29-1.12,2.15-1.12,1.29,0,1.89.78,1.89,2.4v4h-.57v-3.93c0-1.32-.42-1.95-1.42-1.95-.74,0-1.28.39-2.04,1.17v4.71h-.57v-6.24Z"/>
      <path d="M510.77,45.35l.46-.3c.43.73.94,1.02,1.65,1.02,1.04,0,1.54-.61,1.54-2.01v-6.17h.6v6.24c0,1.39-.58,2.49-2.13,2.49-.96,0-1.68-.45-2.11-1.26Z"/>
      <path d="M517.35,44.21v-4h.57v3.93c0,1.32.42,1.95,1.42,1.95.74,0,1.28-.39,2.01-1.27v-4.61h.57v6.24h-.49l-.06-1.05h-.03c-.61.72-1.26,1.2-2.12,1.2-1.29,0-1.89-.78-1.89-2.4Z"/>
      <path d="M524.32,40.21h.49l.06.97h.03c.64-.63,1.29-1.12,2.15-1.12,1.29,0,1.89.78,1.89,2.4v4h-.57v-3.93c0-1.32-.42-1.95-1.42-1.95-.74,0-1.28.39-2.04,1.17v4.71h-.57v-6.24Z"/>
      <path d="M530.71,43.34c0-2.04,1.32-3.29,2.72-3.29,1.48,0,2.39,1.05,2.39,2.89,0,.16,0,.31-.03.47h-4.49c.02,1.58.94,2.7,2.35,2.7.68,0,1.21-.22,1.68-.55l.24.44c-.49.31-1.05.61-1.97.61-1.59,0-2.89-1.23-2.89-3.27ZM535.28,42.94c0-1.59-.72-2.39-1.84-2.39-1.06,0-2.01.89-2.14,2.39h3.98Z"/>
      <path d="M539.46,46.09c2.72-2.78,4.09-4.32,4.09-5.76,0-1.03-.56-1.84-1.81-1.84-.76,0-1.43.46-1.94,1.08l-.38-.35c.62-.7,1.36-1.23,2.37-1.23,1.48,0,2.34.93,2.34,2.33,0,1.65-1.51,3.24-3.82,5.68.46-.03.94-.06,1.4-.06h2.83v.51h-5.09v-.36Z"/>
      <path d="M545.78,42.27c0-2.76.9-4.29,2.48-4.29s2.48,1.52,2.48,4.29-.9,4.34-2.48,4.34-2.48-1.58-2.48-4.34ZM550.16,42.27c0-2.54-.75-3.79-1.9-3.79s-1.9,1.25-1.9,3.79.75,3.84,1.9,3.84,1.9-1.31,1.9-3.84Z"/>
      <path d="M551.91,46.09c2.72-2.78,4.09-4.32,4.09-5.76,0-1.03-.56-1.84-1.81-1.84-.76,0-1.43.46-1.94,1.08l-.38-.35c.62-.7,1.36-1.23,2.37-1.23,1.48,0,2.34.93,2.34,2.33,0,1.65-1.51,3.24-3.82,5.68.46-.03.94-.06,1.4-.06h2.83v.51h-5.09v-.36Z"/>
      <path d="M557.93,45.48l.33-.4c.49.51,1.14,1.01,2.27,1.01s2.06-.9,2.06-2.24-.8-2.14-2.03-2.14c-.63,0-1.05.22-1.54.55l-.4-.25.3-3.89h3.83v.51h-3.31l-.27,3c.43-.26.87-.43,1.48-.43,1.41,0,2.54.81,2.54,2.62s-1.31,2.77-2.65,2.77-2.08-.59-2.62-1.12Z"/>
      <path d="M566.95,42.95h2.85v.51h-2.85v-.51Z"/>
      <path d="M573.42,45.35l.45-.3c.43.73.94,1.02,1.65,1.02,1.04,0,1.54-.61,1.54-2.01v-6.17h.6v6.24c0,1.39-.58,2.49-2.13,2.49-.96,0-1.68-.45-2.11-1.26Z"/>
      <path d="M579.99,44.21v-4h.58v3.93c0,1.32.42,1.95,1.42,1.95.74,0,1.28-.39,2.01-1.27v-4.61h.57v6.24h-.49l-.06-1.05h-.03c-.61.72-1.26,1.2-2.12,1.2-1.29,0-1.89-.78-1.89-2.4Z"/>
      <path d="M586.97,40.21h.49l.06.97h.03c.64-.63,1.29-1.12,2.15-1.12,1.29,0,1.89.78,1.89,2.4v4h-.58v-3.93c0-1.32-.42-1.95-1.42-1.95-.74,0-1.28.39-2.04,1.17v4.71h-.58v-6.24Z"/>
      <path d="M593.36,43.34c0-2.04,1.32-3.29,2.72-3.29,1.48,0,2.39,1.05,2.39,2.89,0,.16,0,.31-.03.47h-4.49c.02,1.58.94,2.7,2.35,2.7.68,0,1.21-.22,1.68-.55l.24.44c-.49.31-1.05.61-1.97.61-1.59,0-2.89-1.23-2.89-3.27ZM597.93,42.94c0-1.59-.72-2.39-1.84-2.39-1.06,0-2.01.89-2.14,2.39h3.98Z"/>
      <path d="M602.1,46.09c2.72-2.78,4.09-4.32,4.09-5.76,0-1.03-.56-1.84-1.81-1.84-.76,0-1.43.46-1.94,1.08l-.38-.35c.62-.7,1.36-1.23,2.37-1.23,1.48,0,2.34.93,2.34,2.33,0,1.65-1.51,3.24-3.82,5.68.46-.03.94-.06,1.4-.06h2.83v.51h-5.09v-.36Z"/>
      <path d="M608.42,42.27c0-2.76.9-4.29,2.48-4.29s2.48,1.52,2.48,4.29-.9,4.34-2.48,4.34-2.48-1.58-2.48-4.34ZM612.8,42.27c0-2.54-.75-3.79-1.9-3.79s-1.9,1.25-1.9,3.79.75,3.84,1.9,3.84,1.9-1.31,1.9-3.84Z"/>
      <path d="M614.56,46.09c2.72-2.78,4.09-4.32,4.09-5.76,0-1.03-.56-1.84-1.81-1.84-.76,0-1.43.46-1.94,1.08l-.38-.35c.62-.7,1.36-1.23,2.37-1.23,1.48,0,2.34.93,2.34,2.33,0,1.65-1.51,3.24-3.82,5.68.46-.03.94-.06,1.4-.06h2.83v.51h-5.09v-.36Z"/>
      <path d="M620.93,42.68c0-3.48,1.45-4.7,3.05-4.7.77,0,1.33.33,1.75.81l-.35.39c-.37-.45-.87-.69-1.41-.69-1.33,0-2.47,1.07-2.47,4.19,0,2.03.67,3.43,2.15,3.43.96,0,1.68-.92,1.68-2.1s-.54-2.09-1.8-2.09c-.6,0-1.39.37-2.08,1.34v-.61c.57-.74,1.35-1.22,2.14-1.22,1.45,0,2.31.9,2.31,2.57,0,1.51-1.04,2.6-2.28,2.6-1.66,0-2.71-1.4-2.71-3.92Z"/>
      <path d="M627.35,46.03c0-.38.26-.6.55-.6s.55.22.55.6c0,.36-.26.58-.55.58s-.55-.22-.55-.58Z"/>
    </g>
    <text class="st5" transform="translate(9.85 78.66)"><tspan x="0" y="0">RANK</tspan></text>
    <text class="st5" transform="translate(213.06 78.66)"><tspan x="0" y="0">NO. OF COMPLAINTS</tspan></text>
    <rect x="5.88" y="85.25" width="312.51" height="1.34"/>
    <text class="st8" transform="translate(20.34 110.62)"><tspan x="0" y="0">1.</tspan></text>
    <text class="st4" transform="translate(54.89 110.43)"><tspan x="0" y="0">Parking &amp; Vehicles</tspan></text>
    <rect x="328.82" y="85.25" width="300.99" height="1.34"/>
    <rect x="5.88" y="124.63" width="312.51" height=".1"/>
    <text class="st5" transform="translate(334.3 78.66)"><tspan x="0" y="0">RANK</tspan></text>
    <text class="st5" transform="translate(54.89 78.66)"><tspan x="0" y="0">TYPE</tspan></text>
    <text class="st5" transform="translate(379.16 78.66)"><tspan x="0" y="0">TYPE</tspan></text>
    <text class="st5" transform="translate(524.48 79.67)"><tspan x="0" y="0">NO. OF COMPLAINTS</tspan></text>
    <text class="st8" transform="translate(20.34 148.83)"><tspan x="0" y="0">2.</tspan></text>
    <text class="st8" transform="translate(20.34 183.66)"><tspan x="0" y="0">3.</tspan></text>
    <text class="st8" transform="translate(20.34 222.79)"><tspan x="0" y="0">4.</tspan></text>
    <text class="st8" transform="translate(20.34 262.07)"><tspan x="0" y="0">5.</tspan></text>
    <text class="st8" transform="translate(343.22 109.44)"><tspan x="0" y="0">6.</tspan></text>
    <text class="st8" transform="translate(343.22 146.43)"><tspan x="0" y="0">7.</tspan></text>
    <text class="st8" transform="translate(343.26 183.61)"><tspan x="0" y="0">8.</tspan></text>
    <text class="st8" transform="translate(343.29 222.75)"><tspan x="0" y="0">9.</tspan></text>
    <text class="st8" transform="translate(339.77 265.29)"><tspan x="0" y="0">10.</tspan></text>
    <text class="st4" transform="translate(54.89 148.09)"><tspan x="0" y="0">Noise</tspan></text>
    <text class="st4" transform="translate(54.89 261.27)"><tspan x="0" y="0">Street Condition</tspan></text>
    <text class="st4" transform="translate(374.51 263.28)"><tspan x="0" y="0">Encampment</tspan></text>
    <text class="st7" transform="translate(262.24 110.02)"><tspan x="0" y="0">891,055</tspan></text>
    <text class="st7" transform="translate(262.86 151)"><tspan x="0" y="0">771,604</tspan></text>
    <text class="st7" transform="translate(263.68 184.6)"><tspan x="0" y="0">593,380</tspan></text>
    <text class="st7" transform="translate(264.38 223.35)"><tspan x="0" y="0">268,746</tspan></text>
    <text class="st7" transform="translate(262.86 263.11)"><tspan x="0" y="0">104,855</tspan></text>
    <text class="st7" transform="translate(584.1 110.65)"><tspan x="0" y="0">64,132</tspan></text>
    <text class="st7" transform="translate(585.76 147.64)"><tspan x="0" y="0">63,690</tspan></text>
    <text class="st7" transform="translate(584.66 184.58)"><tspan x="0" y="0">51,338</tspan></text>
    <text class="st7" transform="translate(584.4 223.95)"><tspan x="0" y="0">49,883</tspan></text>
    <text class="st7" transform="translate(584 263.11)"><tspan x="0" y="0">45,316</tspan></text>
    <rect x="5.88" y="160.52" width="312.51" height=".1"/>
    <rect x="5.88" y="199.04" width="312.51" height=".1"/>
    <rect x="5.88" y="238.79" width="312.51" height=".1"/>
    <rect x="328.36" y="124.63" width="301.91" height=".1"/>
    <rect x="328.36" y="160.47" width="301.91" height=".1"/>
    <rect x="328.93" y="198.99" width="301.91" height=".1"/>
    <rect x="328.93" y="238.74" width="301.91" height=".1"/>
    <text class="st4" transform="translate(53.43 182.88)"><tspan x="0" y="0">Drainage, Water &amp; Plumbing</tspan></text>
    <text class="st4" transform="translate(53.43 221.96)"><tspan x="0" y="0">Dirty/Unsanitary Conditions</tspan></text>
    <text class="st4" transform="translate(374.51 108.97)"><tspan x="0" y="0">Paint/Plaster</tspan></text>
    <text class="st4" transform="translate(374.51 145.96)"><tspan x="0" y="0">Snow/Ice</tspan></text>
    <text class="st4" transform="translate(374.51 182.83)"><tspan x="0" y="0">Traffic Signal Condition</tspan></text>
    <text class="st4" transform="translate(374.51 222.27)"><tspan x="0" y="0">Door/Window</tspan></text>
    <rect x="5.88" y="277.12" width="312.51" height=".1"/>
    <rect x="331.01" y="277.17" width="301.91" height=".1"/>
    <g class="st3">
      <path class="st6" d="M10.87,289.67l.6-.69c.57.59,1.35.98,2.17.98,1.03,0,1.65-.51,1.65-1.28s-.57-1.06-1.31-1.38l-1.13-.5c-.73-.31-1.59-.87-1.59-2.03s1.05-2.09,2.48-2.09c.93,0,1.76.4,2.32.98l-.53.64c-.48-.46-1.06-.74-1.79-.74-.88,0-1.47.45-1.47,1.15,0,.76.69,1.04,1.3,1.3l1.12.49c.91.39,1.62.93,1.62,2.1,0,1.24-1.03,2.24-2.68,2.24-1.1,0-2.07-.45-2.75-1.17h0Z"/>
      <path class="st6" d="M17.33,287.79c0-1.95,1.27-3.07,2.7-3.07s2.7,1.12,2.7,3.07-1.27,3.05-2.7,3.05-2.7-1.12-2.7-3.05ZM21.71,287.79c0-1.34-.68-2.25-1.68-2.25s-1.68.91-1.68,2.25.68,2.23,1.68,2.23,1.68-.89,1.68-2.23Z"/>
      <path class="st6" d="M24.19,288.56v-3.69h.99v3.57c0,1.09.33,1.55,1.1,1.55.6,0,1.01-.29,1.56-.98v-4.13h.99v5.83h-.81l-.08-.91h-.03c-.54.64-1.12,1.06-1.92,1.06-1.23,0-1.78-.79-1.78-2.28l-.02-.02Z"/>
      <path class="st6" d="M30.79,284.86h.81l.08,1.06h.03c.41-.74,1-1.21,1.66-1.21.26,0,.44.03.62.12l-.18.87c-.2-.06-.33-.1-.57-.1-.49,0-1.08.35-1.47,1.34v3.74h-.99v-5.83h0Z"/>
      <path class="st6" d="M34.4,287.79c0-1.95,1.31-3.07,2.8-3.07.77,0,1.3.32,1.71.68l-.5.65c-.34-.31-.7-.51-1.16-.51-1.06,0-1.83.91-1.83,2.25s.73,2.23,1.8,2.23c.53,0,1.01-.26,1.37-.58l.43.66c-.52.47-1.19.74-1.88.74-1.55,0-2.73-1.12-2.73-3.05h-.01Z"/>
      <path class="st6" d="M39.62,287.79c0-1.9,1.28-3.07,2.62-3.07,1.49,0,2.33,1.07,2.33,2.74,0,.21-.02.42-.05.56h-3.93c.07,1.24.83,2.04,1.94,2.04.56,0,1.02-.18,1.45-.47l.35.65c-.51.33-1.13.6-1.92.6-1.55,0-2.79-1.14-2.79-3.05h0ZM43.7,287.31c0-1.17-.53-1.8-1.44-1.8-.82,0-1.55.66-1.67,1.8h3.11Z"/>
      <path class="st6" d="M45.81,285.77c0-.45.32-.76.71-.76s.71.31.71.76-.32.75-.71.75-.71-.31-.71-.75ZM45.81,290.09c0-.45.32-.76.71-.76s.71.31.71.76-.32.75-.71.75-.71-.31-.71-.75Z"/>
      <path class="st6" d="M51.49,282.82h1.03l2.85,4.95.85,1.63h.05c-.05-.79-.13-1.68-.13-2.5v-4.07h.95v7.87h-1.03l-2.85-4.95-.85-1.62h-.05c.05.8.13,1.64.13,2.46v4.12h-.95v-7.89Z"/>
      <path class="st6" d="M60.53,287.64l-2.37-4.82h1.07l1.02,2.22c.25.58.49,1.13.76,1.72h.05c.27-.59.54-1.14.79-1.72l1.02-2.22h1.04l-2.37,4.82v3.05h-1v-3.05h-.01Z"/>
      <path class="st6" d="M64.34,286.76c0-2.54,1.5-4.09,3.49-4.09.96,0,1.7.46,2.17.97l-.55.65c-.41-.44-.93-.74-1.6-.74-1.49,0-2.48,1.22-2.48,3.18s.94,3.22,2.44,3.22c.75,0,1.32-.33,1.82-.88l.55.63c-.62.72-1.39,1.14-2.42,1.14-1.96,0-3.43-1.52-3.43-4.07h0Z"/>
      <path class="st6" d="M73.59,286.73c0-2.52,1.39-4.05,3.36-4.05s3.36,1.54,3.36,4.05-1.39,4.11-3.36,4.11-3.36-1.59-3.36-4.11ZM79.29,286.73c0-1.96-.92-3.17-2.33-3.17s-2.33,1.21-2.33,3.17.92,3.23,2.33,3.23,2.33-1.27,2.33-3.23Z"/>
      <path class="st6" d="M81.93,284.86h.81l.08.67h.03c.53-.44,1.18-.82,1.86-.82,1.51,0,2.31,1.17,2.31,2.97,0,1.99-1.19,3.15-2.52,3.15-.53,0-1.08-.25-1.62-.67l.03,1.02v1.97h-.99v-8.29h.01ZM86.01,287.7c0-1.29-.44-2.15-1.54-2.15-.49,0-.99.27-1.56.8v3.06c.53.44,1.03.61,1.42.61.96,0,1.68-.87,1.68-2.31h0Z"/>
      <path class="st6" d="M88.15,287.79c0-1.9,1.28-3.07,2.62-3.07,1.49,0,2.33,1.07,2.33,2.74,0,.21-.02.42-.05.56h-3.93c.07,1.24.83,2.04,1.94,2.04.56,0,1.02-.18,1.45-.47l.35.65c-.51.33-1.13.6-1.92.6-1.55,0-2.79-1.14-2.79-3.05h0ZM92.23,287.31c0-1.17-.53-1.8-1.44-1.8-.82,0-1.55.66-1.67,1.8h3.11Z"/>
      <path class="st6" d="M94.54,284.86h.81l.08.84h.03c.56-.55,1.16-.98,1.96-.98,1.23,0,1.78.79,1.78,2.28v3.69h-.99v-3.57c0-1.09-.33-1.55-1.1-1.55-.6,0-1.01.3-1.59.9v4.22h-.99v-5.83h0Z"/>
      <path class="st6" d="M103.59,282.82h1.97c2.42,0,3.72,1.41,3.72,3.91s-1.3,3.96-3.67,3.96h-2.01v-7.87h-.01ZM105.49,289.87c1.84,0,2.76-1.15,2.76-3.14s-.92-3.09-2.76-3.09h-.89v6.23h.89Z"/>
      <path class="st6" d="M110.52,289.18c0-1.27,1.1-1.91,3.58-2.17,0-.75-.25-1.47-1.2-1.47-.67,0-1.28.32-1.74.62l-.39-.68c.54-.35,1.35-.76,2.29-.76,1.42,0,2.02.95,2.02,2.4v3.58h-.81l-.08-.7h-.03c-.56.46-1.2.84-1.93.84-.98,0-1.71-.61-1.71-1.66ZM114.1,289.27v-1.62c-1.95.24-2.61.71-2.61,1.46,0,.66.45.93,1.02.93s1.03-.27,1.59-.77Z"/>
      <path class="st6" d="M116.93,288.89v-3.22h-.87v-.75l.91-.06.12-1.63h.82v1.63h1.58v.8h-1.58v3.24c0,.71.23,1.12.9,1.12.21,0,.48-.08.66-.16l.19.74c-.33.11-.72.22-1.08.22-1.24,0-1.66-.79-1.66-1.95v.02Z"/>
      <path class="st6" d="M120.2,289.18c0-1.27,1.1-1.91,3.58-2.17,0-.75-.25-1.47-1.2-1.47-.67,0-1.28.32-1.74.62l-.39-.68c.54-.35,1.35-.76,2.29-.76,1.42,0,2.02.95,2.02,2.4v3.58h-.81l-.08-.7h-.03c-.56.46-1.2.84-1.93.84-.98,0-1.71-.61-1.71-1.66ZM123.78,289.27v-1.62c-1.95.24-2.61.71-2.61,1.46,0,.66.45.93,1.02.93s1.03-.27,1.59-.77Z"/>
      <path class="st6" d="M126.2,292.15c.68-.3,1.08-.83,1.08-1.49l-.11-.89.48.72c-.13.16-.31.21-.5.21-.38,0-.71-.24-.71-.69s.34-.69.73-.69c.52,0,.84.44.84,1.16,0,1.04-.6,1.84-1.57,2.24l-.24-.58h0ZM126.41,285.77c0-.45.32-.76.71-.76s.71.31.71.76-.32.75-.71.75-.71-.31-.71-.75Z"/>
      <path class="st6" d="M132.06,287.44v-4.62h1v4.65c0,1.89.8,2.49,1.83,2.49s1.87-.59,1.87-2.49v-4.65h.96v4.62c0,2.53-1.22,3.39-2.83,3.39s-2.83-.87-2.83-3.39Z"/>
      <path class="st6" d="M139.34,290.09c0-.45.32-.76.71-.76s.71.31.71.76-.32.75-.71.75-.71-.31-.71-.75Z"/>
      <path class="st6" d="M142.06,289.67l.6-.69c.57.59,1.35.98,2.17.98,1.03,0,1.65-.51,1.65-1.28s-.57-1.06-1.31-1.38l-1.13-.5c-.73-.31-1.59-.87-1.59-2.03s1.05-2.09,2.48-2.09c.93,0,1.76.4,2.32.98l-.53.64c-.48-.46-1.06-.74-1.79-.74-.88,0-1.47.45-1.47,1.15,0,.76.69,1.04,1.3,1.3l1.12.49c.91.39,1.62.93,1.62,2.1,0,1.24-1.03,2.24-2.68,2.24-1.1,0-2.07-.45-2.75-1.17h-.01Z"/>
      <path class="st6" d="M148.74,290.09c0-.45.32-.76.71-.76s.71.31.71.76-.32.75-.71.75-.71-.31-.71-.75Z"/>
      <path class="st6" d="M153.97,286.76c0-2.54,1.5-4.09,3.49-4.09.96,0,1.7.46,2.17.97l-.55.65c-.41-.44-.93-.74-1.6-.74-1.49,0-2.48,1.22-2.48,3.18s.94,3.22,2.44,3.22c.75,0,1.32-.33,1.82-.88l.55.63c-.62.72-1.39,1.14-2.41,1.14-1.96,0-3.43-1.52-3.43-4.07h0Z"/>
      <path class="st6" d="M160.75,287.79c0-1.9,1.28-3.07,2.62-3.07,1.49,0,2.33,1.07,2.33,2.74,0,.21-.02.42-.05.56h-3.93c.07,1.24.83,2.04,1.94,2.04.56,0,1.02-.18,1.45-.47l.35.65c-.51.33-1.13.6-1.92.6-1.55,0-2.79-1.14-2.79-3.05h0ZM164.83,287.31c0-1.17-.53-1.8-1.44-1.8-.82,0-1.55.66-1.67,1.8h3.11Z"/>
      <path class="st6" d="M167.14,284.86h.81l.08.84h.03c.56-.55,1.16-.98,1.96-.98,1.23,0,1.78.79,1.78,2.28v3.69h-.99v-3.57c0-1.09-.33-1.55-1.1-1.55-.6,0-1.01.3-1.59.9v4.22h-.99v-5.83h.01Z"/>
      <path class="st6" d="M173.05,290.03l.49-.65c.51.41,1.02.69,1.72.69.77,0,1.15-.41,1.15-.91,0-.6-.69-.87-1.33-1.1-.82-.3-1.74-.7-1.74-1.68s.75-1.65,2.01-1.65c.73,0,1.36.3,1.81.66l-.47.63c-.4-.3-.81-.52-1.33-.52-.73,0-1.07.39-1.07.84,0,.55.63.76,1.29,1.01.84.32,1.78.66,1.78,1.77,0,.95-.75,1.73-2.13,1.73-.83,0-1.63-.35-2.17-.81h0Z"/>
      <path class="st6" d="M178.65,288.56v-3.69h.99v3.57c0,1.09.33,1.55,1.1,1.55.6,0,1.01-.29,1.56-.98v-4.13h.99v5.83h-.81l-.08-.91h-.03c-.54.64-1.12,1.06-1.92,1.06-1.23,0-1.78-.79-1.78-2.28l-.02-.02Z"/>
      <path class="st6" d="M184.61,290.03l.49-.65c.51.41,1.02.69,1.72.69.77,0,1.15-.41,1.15-.91,0-.6-.69-.87-1.33-1.1-.82-.3-1.74-.7-1.74-1.68s.75-1.65,2.01-1.65c.73,0,1.36.3,1.81.66l-.47.63c-.4-.3-.81-.52-1.33-.52-.73,0-1.07.39-1.07.84,0,.55.63.76,1.29,1.01.84.32,1.78.66,1.78,1.77,0,.95-.75,1.73-2.13,1.73-.83,0-1.63-.35-2.17-.81h0Z"/>
      <path class="st6" d="M192.78,282.82h2.34c1.6,0,2.71.54,2.71,1.93,0,.78-.41,1.47-1.15,1.71v.05c.94.19,1.6.81,1.6,1.88,0,1.55-1.22,2.3-2.98,2.3h-2.52v-7.87h0ZM194.94,286.17c1.34,0,1.89-.49,1.89-1.29,0-.92-.63-1.26-1.85-1.26h-1.21v2.55h1.17ZM195.15,289.9c1.35,0,2.14-.48,2.14-1.55,0-.97-.76-1.41-2.14-1.41h-1.37v2.96h1.37Z"/>
      <path class="st6" d="M199.66,288.56v-3.69h.99v3.57c0,1.09.33,1.55,1.1,1.55.6,0,1.01-.29,1.56-.98v-4.13h.99v5.83h-.81l-.08-.91h-.03c-.54.64-1.12,1.06-1.92,1.06-1.23,0-1.78-.79-1.78-2.28l-.02-.02Z"/>
      <path class="st6" d="M206.27,284.86h.81l.08,1.06h.03c.41-.74,1-1.21,1.66-1.21.26,0,.44.03.62.12l-.18.87c-.2-.06-.33-.1-.57-.1-.49,0-1.08.35-1.47,1.34v3.74h-.99v-5.83h.01Z"/>
      <path class="st6" d="M209.88,287.79c0-1.9,1.28-3.07,2.62-3.07,1.49,0,2.33,1.07,2.33,2.74,0,.21-.02.42-.05.56h-3.93c.07,1.24.83,2.04,1.94,2.04.56,0,1.02-.18,1.45-.47l.35.65c-.51.33-1.13.6-1.92.6-1.55,0-2.79-1.14-2.79-3.05h0ZM213.95,287.31c0-1.17-.53-1.8-1.44-1.8-.82,0-1.55.66-1.67,1.8h3.11Z"/>
      <path class="st6" d="M215.73,289.18c0-1.27,1.1-1.91,3.58-2.17,0-.75-.25-1.47-1.2-1.47-.67,0-1.28.32-1.74.62l-.39-.68c.54-.35,1.35-.76,2.29-.76,1.42,0,2.02.95,2.02,2.4v3.58h-.81l-.08-.7h-.03c-.56.46-1.2.84-1.93.84-.98,0-1.71-.61-1.71-1.66ZM219.31,289.27v-1.62c-1.95.24-2.61.71-2.61,1.46,0,.66.45.93,1.02.93s1.03-.27,1.59-.77Z"/>
      <path class="st6" d="M222.06,288.56v-3.69h.99v3.57c0,1.09.33,1.55,1.1,1.55.6,0,1.01-.29,1.56-.98v-4.13h.99v5.83h-.81l-.08-.91h-.03c-.54.64-1.12,1.06-1.92,1.06-1.23,0-1.78-.79-1.78-2.28l-.02-.02Z"/>
      <path class="st6" d="M228.25,292.15c.68-.3,1.08-.83,1.08-1.49l-.11-.89.48.72c-.13.16-.31.21-.5.21-.38,0-.71-.24-.71-.69s.34-.69.73-.69c.52,0,.84.44.84,1.16,0,1.04-.6,1.84-1.57,2.24l-.24-.58h0Z"/>
      <path class="st6" d="M235.77,282.82h1.13l2.66,7.87h-1.06l-1.37-4.4c-.28-.88-.54-1.74-.79-2.65h-.05c-.24.91-.5,1.77-.78,2.65l-1.39,4.4h-1.02l2.66-7.87h0ZM234.51,287.5h3.62v.8h-3.62v-.8Z"/>
      <path class="st6" d="M240.59,284.86h.81l.08.85h.03c.51-.55,1.12-.99,1.81-.99.89,0,1.37.43,1.61,1.11.61-.66,1.21-1.11,1.92-1.11,1.2,0,1.77.79,1.77,2.28v3.69h-.99v-3.57c0-1.09-.34-1.55-1.08-1.55-.45,0-.92.3-1.46.9v4.22h-.99v-3.57c0-1.09-.34-1.55-1.08-1.55-.44,0-.92.3-1.46.9v4.22h-.99v-5.83h.02Z"/>
      <path class="st6" d="M250.1,287.79c0-1.9,1.28-3.07,2.62-3.07,1.49,0,2.33,1.07,2.33,2.74,0,.21-.02.42-.05.56h-3.93c.07,1.24.83,2.04,1.94,2.04.56,0,1.02-.18,1.45-.47l.35.65c-.51.33-1.13.6-1.92.6-1.55,0-2.79-1.14-2.79-3.05h0ZM254.18,287.31c0-1.17-.53-1.8-1.44-1.8-.82,0-1.55.66-1.67,1.8h3.11Z"/>
      <path class="st6" d="M256.49,284.86h.81l.08,1.06h.03c.41-.74,1-1.21,1.66-1.21.26,0,.44.03.62.12l-.18.87c-.2-.06-.33-.1-.57-.1-.49,0-1.08.35-1.47,1.34v3.74h-.99v-5.83h.01Z"/>
      <path class="st6" d="M260.47,283.03c0-.39.3-.64.68-.64s.68.25.68.64-.3.64-.68.64-.68-.26-.68-.64ZM260.65,284.86h.99v5.83h-.99v-5.83Z"/>
      <path class="st6" d="M263.17,287.79c0-1.95,1.31-3.07,2.8-3.07.77,0,1.3.32,1.71.68l-.5.65c-.34-.31-.7-.51-1.16-.51-1.06,0-1.83.91-1.83,2.25s.73,2.23,1.8,2.23c.53,0,1.01-.26,1.37-.58l.43.66c-.52.47-1.19.74-1.88.74-1.55,0-2.73-1.12-2.73-3.05h0Z"/>
      <path class="st6" d="M268.59,289.18c0-1.27,1.1-1.91,3.58-2.17,0-.75-.25-1.47-1.2-1.47-.67,0-1.28.32-1.74.62l-.39-.68c.54-.35,1.35-.76,2.29-.76,1.42,0,2.02.95,2.02,2.4v3.58h-.81l-.08-.7h-.03c-.56.46-1.2.84-1.93.84-.98,0-1.71-.61-1.71-1.66ZM272.17,289.27v-1.62c-1.95.24-2.61.71-2.61,1.46,0,.66.45.93,1.02.93s1.03-.27,1.59-.77Z"/>
      <path class="st6" d="M275,284.86h.81l.08.84h.03c.56-.55,1.16-.98,1.96-.98,1.23,0,1.78.79,1.78,2.28v3.69h-.99v-3.57c0-1.09-.33-1.55-1.1-1.55-.6,0-1.01.3-1.59.9v4.22h-.99v-5.83h.01Z"/>
      <path class="st6" d="M283.6,286.76c0-2.54,1.5-4.09,3.49-4.09.96,0,1.7.46,2.17.97l-.55.65c-.41-.44-.93-.74-1.6-.74-1.49,0-2.48,1.22-2.48,3.18s.94,3.22,2.44,3.22c.75,0,1.32-.33,1.82-.88l.55.63c-.62.72-1.39,1.14-2.41,1.14-1.96,0-3.43-1.52-3.43-4.07h0Z"/>
      <path class="st6" d="M290.39,287.79c0-1.95,1.27-3.07,2.7-3.07s2.7,1.12,2.7,3.07-1.27,3.05-2.7,3.05-2.7-1.12-2.7-3.05ZM294.77,287.79c0-1.34-.68-2.25-1.68-2.25s-1.68.91-1.68,2.25.68,2.23,1.68,2.23,1.68-.89,1.68-2.23Z"/>
      <path class="st6" d="M297.32,284.86h.81l.08.85h.03c.51-.55,1.12-.99,1.81-.99.89,0,1.37.43,1.61,1.11.61-.66,1.21-1.11,1.92-1.11,1.2,0,1.77.79,1.77,2.28v3.69h-.99v-3.57c0-1.09-.34-1.55-1.08-1.55-.45,0-.92.3-1.46.9v4.22h-.99v-3.57c0-1.09-.34-1.55-1.08-1.55-.44,0-.92.3-1.46.9v4.22h-.99v-5.83h.02Z"/>
      <path class="st6" d="M307.27,284.86h.81l.08.85h.03c.51-.55,1.12-.99,1.81-.99.89,0,1.37.43,1.61,1.11.61-.66,1.21-1.11,1.92-1.11,1.2,0,1.77.79,1.77,2.28v3.69h-.99v-3.57c0-1.09-.34-1.55-1.08-1.55-.45,0-.92.3-1.46.9v4.22h-.99v-3.57c0-1.09-.34-1.55-1.08-1.55-.44,0-.92.3-1.46.9v4.22h-.99v-5.83h.02Z"/>
      <path class="st6" d="M317.14,288.56v-3.69h.99v3.57c0,1.09.33,1.55,1.1,1.55.6,0,1.01-.29,1.56-.98v-4.13h.99v5.83h-.82l-.08-.91h-.03c-.54.64-1.12,1.06-1.92,1.06-1.23,0-1.78-.79-1.78-2.28v-.02Z"/>
      <path class="st6" d="M323.75,284.86h.81l.08.84h.03c.56-.55,1.16-.98,1.96-.98,1.23,0,1.78.79,1.78,2.28v3.69h-.99v-3.57c0-1.09-.33-1.55-1.1-1.55-.6,0-1.01.3-1.59.9v4.22h-.99v-5.83h.01Z"/>
      <path class="st6" d="M330.13,283.03c0-.39.3-.64.68-.64s.68.25.68.64-.3.64-.68.64-.68-.26-.68-.64ZM330.31,284.86h.99v5.83h-.99v-5.83Z"/>
      <path class="st6" d="M333.43,288.89v-3.22h-.87v-.75l.91-.06.12-1.63h.82v1.63h1.58v.8h-1.58v3.24c0,.71.23,1.12.9,1.12.21,0,.47-.08.66-.16l.19.74c-.33.11-.72.22-1.08.22-1.24,0-1.66-.79-1.66-1.95v.02Z"/>
      <path class="st6" d="M336.73,293.09l.19-.79c.12.04.29.09.44.09.66,0,1.07-.53,1.31-1.25l.13-.43-2.34-5.84h1.02l1.19,3.23c.18.51.38,1.1.57,1.64h.05c.17-.53.33-1.13.49-1.64l1.04-3.23h.97l-2.2,6.31c-.41,1.16-1.01,2.03-2.18,2.03-.27,0-.5-.05-.68-.12h0Z"/>
      <path class="st6" d="M344.84,289.67l.6-.69c.57.59,1.35.98,2.17.98,1.03,0,1.65-.51,1.65-1.28s-.57-1.06-1.31-1.38l-1.13-.5c-.73-.31-1.59-.87-1.59-2.03s1.05-2.09,2.48-2.09c.93,0,1.76.4,2.32.98l-.53.64c-.48-.46-1.06-.74-1.79-.74-.88,0-1.47.45-1.47,1.15,0,.76.69,1.04,1.3,1.3l1.12.49c.91.39,1.62.93,1.62,2.1,0,1.24-1.03,2.24-2.68,2.24-1.1,0-2.07-.45-2.75-1.17h-.01Z"/>
      <path class="st6" d="M351.65,288.56v-3.69h.99v3.57c0,1.09.33,1.55,1.1,1.55.6,0,1.01-.29,1.56-.98v-4.13h.99v5.83h-.82l-.08-.91h-.03c-.54.64-1.12,1.06-1.92,1.06-1.23,0-1.78-.79-1.78-2.28v-.02Z"/>
      <path class="st6" d="M358.26,284.86h.82l.08,1.06h.03c.41-.74,1-1.21,1.66-1.21.26,0,.44.03.62.12l-.18.87c-.2-.06-.33-.1-.57-.1-.49,0-1.08.35-1.47,1.34v3.74h-.99v-5.83h0Z"/>
      <path class="st6" d="M361.88,284.86h1.02l1.1,3.31c.17.57.36,1.16.54,1.72h.05c.17-.56.36-1.15.54-1.72l1.1-3.31h.97l-2.06,5.83h-1.15l-2.1-5.83h-.01Z"/>
      <path class="st6" d="M367.84,287.79c0-1.9,1.28-3.07,2.62-3.07,1.49,0,2.33,1.07,2.33,2.74,0,.21-.02.42-.05.56h-3.93c.07,1.24.83,2.04,1.94,2.04.56,0,1.02-.18,1.45-.47l.35.65c-.51.33-1.13.6-1.92.6-1.55,0-2.79-1.14-2.79-3.05h0ZM371.92,287.31c0-1.17-.53-1.8-1.44-1.8-.82,0-1.55.66-1.67,1.8h3.11Z"/>
      <path class="st6" d="M373.7,293.09l.19-.79c.12.04.29.09.44.09.66,0,1.07-.53,1.31-1.25l.13-.43-2.34-5.84h1.02l1.19,3.23c.18.51.38,1.1.57,1.64h.05c.17-.53.33-1.13.49-1.64l1.04-3.23h.97l-2.2,6.31c-.41,1.16-1.01,2.03-2.18,2.03-.27,0-.5-.05-.68-.12h0Z"/>
      <path class="st6" d="M381.79,290.11c2.3-2.29,3.6-3.67,3.6-4.91,0-.87-.47-1.49-1.45-1.49-.64,0-1.19.41-1.63.92l-.57-.56c.64-.7,1.33-1.16,2.32-1.16,1.41,0,2.3.89,2.3,2.25,0,1.44-1.32,2.86-3.12,4.76.41-.03.89-.07,1.29-.07h2.21v.85h-4.94v-.58h0Z"/>
      <path class="st6" d="M387.8,286.84c0-2.56.92-3.94,2.45-3.94s2.45,1.38,2.45,3.94-.92,4-2.45,4-2.45-1.43-2.45-4ZM391.75,286.84c0-2.24-.6-3.14-1.49-3.14s-1.49.9-1.49,3.14.6,3.2,1.49,3.2,1.49-.96,1.49-3.2Z"/>
      <path class="st6" d="M393.71,290.11c2.3-2.29,3.6-3.67,3.6-4.91,0-.87-.47-1.49-1.45-1.49-.64,0-1.19.41-1.63.92l-.57-.56c.64-.7,1.33-1.16,2.32-1.16,1.41,0,2.3.89,2.3,2.25,0,1.44-1.32,2.86-3.12,4.76.41-.03.89-.07,1.29-.07h2.21v.85h-4.94v-.58h0Z"/>
      <path class="st6" d="M399.73,286.84c0-2.56.92-3.94,2.45-3.94s2.45,1.38,2.45,3.94-.92,4-2.45,4-2.45-1.43-2.45-4ZM403.68,286.84c0-2.24-.6-3.14-1.49-3.14s-1.49.9-1.49,3.14.6,3.2,1.49,3.2,1.49-.96,1.49-3.2Z"/>
      <path class="st6" d="M405.66,287.33h4.76v.69h-4.76v-.69Z"/>
      <path class="st6" d="M411.32,290.11c2.3-2.29,3.6-3.67,3.6-4.91,0-.87-.47-1.49-1.45-1.49-.64,0-1.19.41-1.63.92l-.57-.56c.64-.7,1.33-1.16,2.32-1.16,1.41,0,2.29.89,2.29,2.25,0,1.44-1.32,2.86-3.12,4.76.41-.03.89-.07,1.29-.07h2.21v.85h-4.94v-.58h0Z"/>
      <path class="st6" d="M417.33,286.84c0-2.56.92-3.94,2.45-3.94s2.45,1.38,2.45,3.94-.92,4-2.45,4-2.45-1.43-2.45-4ZM421.28,286.84c0-2.24-.61-3.14-1.49-3.14s-1.49.9-1.49,3.14.6,3.2,1.49,3.2,1.49-.96,1.49-3.2Z"/>
      <path class="st6" d="M423.25,290.11c2.3-2.29,3.6-3.67,3.6-4.91,0-.87-.47-1.49-1.45-1.49-.64,0-1.19.41-1.63.92l-.57-.56c.64-.7,1.33-1.16,2.32-1.16,1.41,0,2.29.89,2.29,2.25,0,1.44-1.32,2.86-3.12,4.76.41-.03.89-.07,1.29-.07h2.21v.85h-4.94v-.58h0Z"/>
      <path class="st6" d="M432.38,285.57c0-.4.03-1.06.06-1.47h-.05c-.19.37-.41.7-.62,1.08l-1.79,2.61h4.38v.79h-5.41v-.65l3.27-4.89h1.1v7.65h-.93v-5.13h-.01Z"/>
      <path class="st6" d="M438.08,287.36c0-2.11.59-3.84,1.58-5.45l.61.29c-.92,1.53-1.38,3.34-1.38,5.16s.45,3.63,1.38,5.16l-.61.29c-.99-1.61-1.58-3.34-1.58-5.45Z"/>
      <path class="st6" d="M441.03,289.79l.49-.64c.46.45,1.03.87,1.93.87s1.67-.68,1.67-1.74-.64-1.68-1.62-1.68c-.53,0-.86.16-1.31.47l-.52-.33.25-3.68h3.83v.85h-2.96l-.2,2.27c.35-.19.7-.32,1.17-.32,1.3,0,2.37.74,2.37,2.4s-1.25,2.59-2.58,2.59c-1.23,0-1.98-.52-2.52-1.05h0Z"/>
      <path class="st6" d="M447.19,287.31h2.75v.76h-2.75v-.76Z"/>
      <path class="st6" d="M450.83,293.09l.19-.79c.12.04.29.09.44.09.66,0,1.07-.53,1.31-1.25l.13-.43-2.34-5.84h1.02l1.19,3.23c.18.51.38,1.1.57,1.64h.05c.17-.53.33-1.13.49-1.64l1.04-3.23h.97l-2.2,6.31c-.41,1.16-1.01,2.03-2.18,2.03-.27,0-.5-.05-.68-.12h0Z"/>
      <path class="st6" d="M456.54,287.79c0-1.9,1.28-3.07,2.62-3.07,1.49,0,2.33,1.07,2.33,2.74,0,.21-.02.42-.05.56h-3.93c.07,1.24.83,2.04,1.94,2.04.56,0,1.02-.18,1.45-.47l.35.65c-.51.33-1.13.6-1.92.6-1.55,0-2.79-1.14-2.79-3.05h0ZM460.61,287.31c0-1.17-.53-1.8-1.44-1.8-.82,0-1.55.66-1.67,1.8h3.11Z"/>
      <path class="st6" d="M462.39,289.18c0-1.27,1.1-1.91,3.58-2.17,0-.75-.25-1.47-1.2-1.47-.67,0-1.28.32-1.74.62l-.39-.68c.54-.35,1.35-.76,2.29-.76,1.42,0,2.02.95,2.02,2.4v3.58h-.81l-.08-.7h-.03c-.55.46-1.2.84-1.93.84-.97,0-1.71-.61-1.71-1.66ZM465.97,289.27v-1.62c-1.95.24-2.61.71-2.61,1.46,0,.66.45.93,1.02.93s1.03-.27,1.59-.77Z"/>
      <path class="st6" d="M468.8,284.86h.82l.08,1.06h.03c.41-.74,1-1.21,1.66-1.21.26,0,.44.03.62.12l-.18.87c-.2-.06-.33-.1-.57-.1-.49,0-1.08.35-1.47,1.34v3.74h-.99v-5.83h0Z"/>
      <path class="st6" d="M474.93,287.79c0-1.9,1.28-3.07,2.62-3.07,1.49,0,2.33,1.07,2.33,2.74,0,.21-.02.42-.05.56h-3.93c.07,1.24.83,2.04,1.94,2.04.56,0,1.02-.18,1.45-.47l.35.65c-.51.33-1.13.6-1.93.6-1.55,0-2.79-1.14-2.79-3.05h0ZM479.01,287.31c0-1.17-.53-1.8-1.44-1.8-.82,0-1.55.66-1.67,1.8h3.11Z"/>
      <path class="st6" d="M480.67,290.03l.49-.65c.51.41,1.02.69,1.72.69.77,0,1.15-.41,1.15-.91,0-.6-.69-.87-1.33-1.1-.82-.3-1.74-.7-1.74-1.68s.75-1.65,2.01-1.65c.73,0,1.36.3,1.81.66l-.47.63c-.4-.3-.81-.52-1.33-.52-.73,0-1.07.39-1.07.84,0,.55.63.76,1.29,1.01.84.32,1.78.66,1.78,1.77,0,.95-.75,1.73-2.13,1.73-.83,0-1.63-.35-2.18-.81h0Z"/>
      <path class="st6" d="M486.28,288.89v-3.22h-.87v-.75l.91-.06.12-1.63h.82v1.63h1.58v.8h-1.58v3.24c0,.71.23,1.12.9,1.12.21,0,.47-.08.66-.16l.19.74c-.33.11-.72.22-1.08.22-1.24,0-1.66-.79-1.66-1.95v.02Z"/>
      <path class="st6" d="M489.98,283.03c0-.39.3-.64.68-.64s.68.25.68.64-.3.64-.68.64-.68-.26-.68-.64ZM490.16,284.86h.99v5.83h-.99v-5.83Z"/>
      <path class="st6" d="M493.11,284.86h.81l.08.85h.03c.51-.55,1.12-.99,1.81-.99.89,0,1.37.43,1.61,1.11.61-.66,1.21-1.11,1.92-1.11,1.2,0,1.77.79,1.77,2.28v3.69h-.99v-3.57c0-1.09-.34-1.55-1.08-1.55-.45,0-.92.3-1.46.9v4.22h-.99v-3.57c0-1.09-.34-1.55-1.08-1.55-.44,0-.92.3-1.46.9v4.22h-.99v-5.83h.02Z"/>
      <path class="st6" d="M502.7,289.18c0-1.27,1.1-1.91,3.58-2.17,0-.75-.25-1.47-1.2-1.47-.67,0-1.28.32-1.74.62l-.39-.68c.54-.35,1.35-.76,2.29-.76,1.42,0,2.02.95,2.02,2.4v3.58h-.82l-.08-.7h-.03c-.56.46-1.21.84-1.93.84-.98,0-1.71-.61-1.71-1.66h.01ZM506.28,289.27v-1.62c-1.95.24-2.61.71-2.61,1.46,0,.66.45.93,1.02.93s1.03-.27,1.59-.77Z"/>
      <path class="st6" d="M509.11,288.89v-3.22h-.87v-.75l.91-.06.12-1.63h.82v1.63h1.58v.8h-1.58v3.24c0,.71.23,1.12.9,1.12.21,0,.47-.08.66-.16l.19.74c-.33.11-.72.22-1.08.22-1.24,0-1.66-.79-1.66-1.95v.02Z"/>
      <path class="st6" d="M512.39,287.79c0-1.9,1.28-3.07,2.62-3.07,1.49,0,2.33,1.07,2.33,2.74,0,.21-.02.42-.05.56h-3.93c.07,1.24.83,2.04,1.94,2.04.56,0,1.02-.18,1.45-.47l.35.65c-.51.33-1.13.6-1.92.6-1.55,0-2.79-1.14-2.79-3.05h0ZM516.47,287.31c0-1.17-.53-1.8-1.44-1.8-.82,0-1.55.66-1.67,1.8h3.11Z"/>
      <path class="st6" d="M518.13,290.03l.49-.65c.51.41,1.02.69,1.72.69.77,0,1.15-.41,1.15-.91,0-.6-.69-.87-1.33-1.1-.82-.3-1.74-.7-1.74-1.68s.75-1.65,2.01-1.65c.73,0,1.36.3,1.81.66l-.47.63c-.4-.3-.81-.52-1.33-.52-.73,0-1.07.39-1.07.84,0,.55.63.76,1.29,1.01.84.32,1.78.66,1.78,1.77,0,.95-.75,1.73-2.13,1.73-.83,0-1.63-.35-2.17-.81h-.01Z"/>
      <path class="st6" d="M523.28,292.52c.92-1.53,1.38-3.34,1.38-5.16s-.45-3.63-1.38-5.16l.61-.29c.99,1.61,1.58,3.34,1.58,5.45s-.59,3.84-1.58,5.45l-.61-.29Z"/>
      <path class="st6" d="M527.24,290.09c0-.45.32-.76.71-.76s.71.31.71.76-.32.75-.71.75-.71-.31-.71-.75Z"/>
    </g>
    <rect class="st1" x="126.41" y="282.39" width="408.51" height="10.42"/>
  </g>
</svg>